<svg xmlns="http://www.w3.org/2000/svg" width="87.151" height="90.633" viewBox="0 0 87.151 90.633">
  <g id="组_137" data-name="组 137" transform="translate(-114.41 -455.252)">
    <path id="路径_253" data-name="路径 253" d="M7,0c3.866,0,7,4.029,7,9S10.866,25.945,7,25.945,0,13.971,0,9,3.134,0,7,0Z" transform="matrix(0.946, 0.326, -0.326, 0.946, 164.177, 455.252)" fill="#b4f778"/>
    <path id="路径_254" data-name="路径 254" d="M3.471,0C5.388,0,6.942,2.942,6.942,6.572S5.388,18.945,3.471,18.945,0,10.2,0,6.572,1.554,0,3.471,0Z" transform="matrix(1, -0.017, 0.017, 1, 151.414, 472.348)" fill="#c7fa9a"/>
    <path id="路径_255" data-name="路径 255" d="M3.471,18.945c1.917,0,3.471-2.942,3.471-6.572S5.388,0,3.471,0,0,8.744,0,12.374,1.554,18.945,3.471,18.945Z" transform="translate(165.023 495.862) rotate(-141)" fill="#c7fa9a"/>
    <circle id="椭圆_179" data-name="椭圆 179" cx="3.5" cy="3.5" r="3.5" transform="matrix(0.946, 0.326, -0.326, 0.946, 178.578, 471.786)" fill="#99fa42"/>
    <circle id="椭圆_180" data-name="椭圆 180" cx="3.5" cy="3.5" r="3.5" transform="matrix(0.946, 0.326, -0.326, 0.946, 149.267, 461.694)" fill="#99fa42"/>
    <path id="路径_253-2" data-name="路径 253" d="M7,0c3.866,0,7,4.029,7,9S10.866,25.945,7,25.945,0,13.971,0,9,3.134,0,7,0Z" transform="matrix(0.017, 1, -1, 0.017, 201.316, 492.708)" fill="#b4f778"/>
    <path id="路径_254-2" data-name="路径 254" d="M3.471,0C5.388,0,6.942,2.942,6.942,6.572S5.388,18.945,3.471,18.945,0,10.2,0,6.572,1.554,0,3.471,0Z" transform="translate(180.886 486.562) rotate(69)" fill="#c7fa9a"/>
    <path id="路径_255-2" data-name="路径 255" d="M3.471,18.945c1.917,0,3.471-2.942,3.471-6.572S5.388,0,3.471,0,0,8.744,0,12.374,1.554,18.945,3.471,18.945Z" transform="translate(163.444 507.393) rotate(-71)" fill="#c7fa9a"/>
    <circle id="椭圆_179-2" data-name="椭圆 179" cx="3.5" cy="3.5" r="3.5" transform="matrix(0.017, 1, -1, 0.017, 190.704, 511.896)" fill="#99fa42"/>
    <circle id="椭圆_180-2" data-name="椭圆 180" cx="3.5" cy="3.5" r="3.5" transform="matrix(0.017, 1, -1, 0.017, 190.163, 480.901)" fill="#99fa42"/>
    <path id="路径_253-3" data-name="路径 253" d="M7,0c3.866,0,7,4.029,7,9S10.866,25.945,7,25.945,0,13.971,0,9,3.134,0,7,0Z" transform="matrix(-0.951, 0.309, -0.309, -0.951, 176.701, 541.558)" fill="#b4f778"/>
    <path id="路径_254-3" data-name="路径 254" d="M3.471,0C5.388,0,6.942,2.942,6.942,6.572S5.388,18.945,3.471,18.945,0,10.2,0,6.572,1.554,0,3.471,0Z" transform="matrix(-0.788, 0.616, -0.616, -0.788, 176.605, 520.224)" fill="#c7fa9a"/>
    <path id="路径_255-3" data-name="路径 255" d="M3.471,18.945c1.917,0,3.471-2.942,3.471-6.572S5.388,0,3.471,0,0,8.744,0,12.374,1.554,18.945,3.471,18.945Z" transform="translate(151.584 509.634) rotate(2)" fill="#c7fa9a"/>
    <circle id="椭圆_179-3" data-name="椭圆 179" cx="3.5" cy="3.5" r="3.5" transform="matrix(-0.951, 0.309, -0.309, -0.951, 155.249, 537.02)" fill="#99fa42"/>
    <circle id="椭圆_180-3" data-name="椭圆 180" cx="3.5" cy="3.5" r="3.5" transform="matrix(-0.951, 0.309, -0.309, -0.951, 184.731, 527.44)" fill="#99fa42"/>
    <path id="路径_253-4" data-name="路径 253" d="M7,0c3.866,0,7,4.029,7,9S10.866,25.945,7,25.945,0,13.971,0,9,3.134,0,7,0Z" transform="translate(122.239 531.716) rotate(-124)" fill="#b4f778"/>
    <path id="路径_254-4" data-name="路径 254" d="M3.471,0C5.388,0,6.942,2.942,6.942,6.572S5.388,18.945,3.471,18.945,0,10.2,0,6.572,1.554,0,3.471,0Z" transform="translate(142.72 525.743) rotate(-144)" fill="#c7fa9a"/>
    <path id="路径_255-4" data-name="路径 255" d="M3.471,18.945c1.917,0,3.471-2.942,3.471-6.572S5.388,0,3.471,0,0,8.744,0,12.374,1.554,18.945,3.471,18.945Z" transform="matrix(0.242, 0.97, -0.97, 0.242, 146.002, 498.773)" fill="#c7fa9a"/>
    <circle id="椭圆_179-4" data-name="椭圆 179" cx="3.5" cy="3.5" r="3.5" transform="translate(120.688 509.844) rotate(-124)" fill="#99fa42"/>
    <circle id="椭圆_180-4" data-name="椭圆 180" cx="3.5" cy="3.5" r="3.5" transform="translate(138.023 535.544) rotate(-124)" fill="#99fa42"/>
    <path id="路径_253-5" data-name="路径 253" d="M7,0c3.866,0,7,4.029,7,9S10.866,25.945,7,25.945,0,13.971,0,9,3.134,0,7,0Z" transform="translate(116.277 477.34) rotate(-51)" fill="#b4f778"/>
    <path id="路径_254-5" data-name="路径 254" d="M3.471,0C5.388,0,6.942,2.942,6.942,6.572S5.388,18.945,3.471,18.945,0,10.2,0,6.572,1.554,0,3.471,0Z" transform="translate(127.977 495.181) rotate(-71)" fill="#c7fa9a"/>
    <path id="路径_255-5" data-name="路径 255" d="M3.471,18.945c1.917,0,3.471-2.942,3.471-6.572S5.388,0,3.471,0,0,8.744,0,12.374,1.554,18.945,3.471,18.945Z" transform="translate(154.728 490.435) rotate(149)" fill="#c7fa9a"/>
    <circle id="椭圆_179-5" data-name="椭圆 179" cx="3.5" cy="3.5" r="3.5" transform="translate(136.74 469.463) rotate(-51)" fill="#99fa42"/>
    <circle id="椭圆_180-5" data-name="椭圆 180" cx="3.5" cy="3.5" r="3.5" transform="translate(117.231 493.554) rotate(-51)" fill="#99fa42"/>
    <text id="α" transform="translate(147 509)" fill="#65b91a" font-size="33" font-family="Menlo-Bold, Menlo" font-weight="700"><tspan x="0" y="0">α</tspan></text>
  </g>
</svg>
