<svg xmlns="http://www.w3.org/2000/svg" xmlns:xlink="http://www.w3.org/1999/xlink" width="127.227" height="70" viewBox="0 0 127.227 70">
  <defs>
    <linearGradient id="linear-gradient" x1="0.465" y1="0.077" x2="0.829" y2="0.982" gradientUnits="objectBoundingBox">
      <stop offset="0" stop-color="#7de9f7"/>
      <stop offset="1" stop-color="#86f1ff" stop-opacity="0.373"/>
    </linearGradient>
    <linearGradient id="linear-gradient-2" x1="0.684" y1="0.942" x2="0.469" y2="-0.06" gradientUnits="objectBoundingBox">
      <stop offset="0" stop-color="#25c9af"/>
      <stop offset="0.524" stop-color="#1bfad7"/>
      <stop offset="1" stop-color="#f0f497"/>
    </linearGradient>
    <filter id="路径_237">
      <feOffset dx="-0.5" dy="-0.5" input="SourceAlpha"/>
      <feGaussianBlur stdDeviation="1.5" result="blur"/>
      <feFlood flood-opacity="0.161" result="color"/>
      <feComposite operator="out" in="SourceGraphic" in2="blur"/>
      <feComposite operator="in" in="color"/>
      <feComposite operator="in" in2="SourceGraphic"/>
    </filter>
  </defs>
  <g id="组_134" data-name="组 134" transform="translate(-157 -685)">
    <circle id="椭圆_22" data-name="椭圆 22" cx="21.5" cy="21.5" r="21.5" transform="translate(157 698)" fill="#eef0b6"/>
    <path id="路径_243" data-name="路径 243" d="M18.493,5.011C44.317,2.4,76.809,9.827,76.809,21.7s-11,13.885-31.715,13.885S4.55,45.72,4.55,33.846-7.331,7.624,18.493,5.011Z" transform="translate(207.418 700.503)" fill="#dce342" opacity="0.179"/>
    <text id="AVES" transform="translate(226.902 725.752)" fill="#dce342" font-size="12" font-family="ArialRoundedMTBold, Arial Rounded MT Bold"><tspan x="0" y="0">AVES</tspan></text>
    <path id="路径_238" data-name="路径 238" d="M180.995,695.049c4.111,6.481,3.417,8.844,12.035,11.378s8.344-1.978,10.637,4.738,4.627,10.486,5.485,11.129a7.955,7.955,0,0,0,2.03,1.016,15.394,15.394,0,0,0,2.552-6.121c.683-3.426.34-8.533-.568-10.762-1.779-4.37-2.784-7.282-8.673-11.378a19.17,19.17,0,0,0-14.412-3.367A25.818,25.818,0,0,0,180.995,695.049Z" transform="translate(-14.246 6.559)" fill="url(#linear-gradient)"/>
    <path id="路径_239" data-name="路径 239" d="M186.336,701.276c1.825-1.426.245-2.3,3.852-1.647s2.911-.029,4.637.466.922,1.8,0,2.408-5.783,2.786-7.576,1.249S186.336,701.276,186.336,701.276Z" transform="translate(-19 4.608)" fill="#fff"/>
    <path id="路径_242" data-name="路径 242" d="M186.336,701.276c1.825-1.426.245-2.3,3.852-1.647s2.911-.029,4.637.466.922,1.8,0,2.408-5.783,2.786-7.576,1.249S186.336,701.276,186.336,701.276Z" transform="translate(-11.794 2.167)" fill="#fff" opacity="0.54"/>
    <path id="路径_240" data-name="路径 240" d="M10.463,1.713C8.453.4,10.193-.4,6.222.2s-3.2-.027-5.1.428-1.015,1.653,0,2.21S7.484,5.4,9.458,3.985,10.463,1.713,10.463,1.713Z" transform="translate(176.326 709.212) rotate(-17)" fill="#fff"/>
    <path id="路径_241" data-name="路径 241" d="M6.8,1.915C5.191.879,7.029-.37,3.855.1s-.9-.084-2.418.275S-.368,3.348.443,3.789,4.416,4.83,5.994,3.713,6.8,1.915,6.8,1.915Z" transform="translate(185.274 707.546) rotate(19)" fill="#fff" opacity="0.719"/>
    <g data-type="innerShadowGroup">
      <path id="路径_237-2" data-name="路径 237" d="M175.877,699c1.192.836,3.4,4.45,4.3,6.15s9.13,3.873,9.991,3.655a35.852,35.852,0,0,1,9.476-1.94c3.584-.115,7.781-4.977,7.961-5,3.218-.412,10.652-1.365,14.832-4.433s-5.846,11.79-5.651,11.93c.573.411-7.09,4.461-9.615,5.985s-7.127.15-7.527.994.928,2.282,1.1,3.261,1.147,1.048,2.819,2.761,4.253,2.23,4.5,5.313.229,4.142,1.186,4.714-5.616-1.6-6.525-2.188-5.873-2.767-6.738-2.527a7.082,7.082,0,0,1-5.313,0c-2.509-1.066-2.06,1.44-4.175,2.38-.311.138-2.863,2.043-2.863,2.043a34.4,34.4,0,0,1-5.858-4.046,20.549,20.549,0,0,1-3.978-5.172s4.911-2.137,5.185-3.28-7.83-6.939-7.83-6.939a19.07,19.07,0,0,1,.414-4.308,35.477,35.477,0,0,1,1.491-4.782A23.569,23.569,0,0,1,175.877,699Z" transform="translate(-14 7)" fill="url(#linear-gradient-2)"/>
      <g transform="matrix(1, 0, 0, 1, 157, 685)" filter="url(#路径_237)">
        <path id="路径_237-3" data-name="路径 237" d="M175.877,699c1.192.836,3.4,4.45,4.3,6.15s9.13,3.873,9.991,3.655a35.852,35.852,0,0,1,9.476-1.94c3.584-.115,7.781-4.977,7.961-5,3.218-.412,10.652-1.365,14.832-4.433s-5.846,11.79-5.651,11.93c.573.411-7.09,4.461-9.615,5.985s-7.127.15-7.527.994.928,2.282,1.1,3.261,1.147,1.048,2.819,2.761,4.253,2.23,4.5,5.313.229,4.142,1.186,4.714-5.616-1.6-6.525-2.188-5.873-2.767-6.738-2.527a7.082,7.082,0,0,1-5.313,0c-2.509-1.066-2.06,1.44-4.175,2.38-.311.138-2.863,2.043-2.863,2.043a34.4,34.4,0,0,1-5.858-4.046,20.549,20.549,0,0,1-3.978-5.172s4.911-2.137,5.185-3.28-7.83-6.939-7.83-6.939a19.07,19.07,0,0,1,.414-4.308,35.477,35.477,0,0,1,1.491-4.782A23.569,23.569,0,0,1,175.877,699Z" transform="translate(-171 -678)" fill="#fff"/>
      </g>
    </g>
    <rect id="矩形_59" data-name="矩形 59" width="127" height="70" transform="translate(157 685)" fill="none"/>
  </g>
</svg>
