<svg xmlns="http://www.w3.org/2000/svg" xmlns:xlink="http://www.w3.org/1999/xlink" width="2190.123" height="1079.786" viewBox="0 0 2190.123 1079.786">
  <defs>
    <linearGradient id="linear-gradient" x1="0.446" y1="0.157" x2="0.871" y2="0.945" gradientUnits="objectBoundingBox">
      <stop offset="0" stop-color="#e6fff5" stop-opacity="0.341"/>
      <stop offset="1" stop-color="#c3f2e2"/>
    </linearGradient>
    <linearGradient id="linear-gradient-2" x1="0.679" y1="0.056" x2="0.652" y2="0.95" gradientUnits="objectBoundingBox">
      <stop offset="0" stop-color="#fff" stop-opacity="0.333"/>
      <stop offset="0.67" stop-color="#deefcf"/>
      <stop offset="1" stop-color="#abf0cb"/>
    </linearGradient>
    <linearGradient id="linear-gradient-3" x1="0.679" y1="0.056" x2="0.652" y2="0.95" gradientUnits="objectBoundingBox">
      <stop offset="0" stop-color="#fff" stop-opacity="0.604"/>
      <stop offset="0.67" stop-color="#baeba7"/>
      <stop offset="1" stop-color="#d1f4a9"/>
    </linearGradient>
    <linearGradient id="linear-gradient-4" x1="0.636" y1="0.08" x2="0.185" y2="0.978" gradientUnits="objectBoundingBox">
      <stop offset="0" stop-color="#fff" stop-opacity="0.502"/>
      <stop offset="1" stop-color="#c1ede7"/>
    </linearGradient>
    <linearGradient id="linear-gradient-5" x1="0.509" y1="0.063" x2="0.062" y2="0.903" gradientUnits="objectBoundingBox">
      <stop offset="0" stop-color="#fff" stop-opacity="0.29"/>
      <stop offset="1" stop-color="#daf8f8"/>
    </linearGradient>
    <linearGradient id="linear-gradient-6" x1="0.757" y1="0.079" x2="0.979" y2="0.78" gradientUnits="objectBoundingBox">
      <stop offset="0" stop-color="#e6fdff" stop-opacity="0.255"/>
      <stop offset="1" stop-color="#ddfbff"/>
    </linearGradient>
  </defs>
  <g id="组_131" data-name="组 131" transform="translate(143.868 -0.32)">
    <path id="减去_4" data-name="减去 4" d="M3881.25,2347.853l-906.165-.317H3693.4c.014-.023,1.515-2.571,3.528-9.459,1.844-6.308,4.486-17.618,6.606-35.673,2.383-20.3,3.634-44.8,3.718-72.832.1-35.041-1.624-75.729-5.138-120.934-.8-10.276-2.059-20.348-3.746-29.938a274.466,274.466,0,0,0-6.133-26.938,261.726,261.726,0,0,0-18.283-46.886c-14.48-28.818-33-53.609-52.616-79.856l0,0c-18.416-24.646-37.458-50.13-55.042-81.346-2.829-5.022-7.985-21.348-14.909-47.213-6.189-23.121-13.647-53.358-21-85.14-7.274-31.446-13.955-62.274-18.813-86.806-5.35-27.018-8.238-45.072-8.35-52.209-.238-15.1-4.354-33.386-12.235-54.364-3.619-9.633-8.035-19.814-13.127-30.259-4.865-9.982-10.374-20.261-16.373-30.552-23.256-39.891-52.6-77.738-76.576-98.772a123.586,123.586,0,0,0-16.226-12.057,119.714,119.714,0,0,0-15.583-8.151,139.011,139.011,0,0,0-26.471-8.238,4.782,4.782,0,0,0-.574-.61c.627,0,1.3-.006,1.962-.006a259.479,259.479,0,0,1,29.809,1.644,201.765,201.765,0,0,1,25.866,4.679,167.113,167.113,0,0,1,42.37,16.943c24.91,14.16,44.174,33.307,64.57,53.578l.009.009c12.546,12.469,25.52,25.364,40.41,37.658,16.9,13.951,36.25,26.5,56.741,39.794l0,0c27.186,17.632,55.3,35.865,79.285,58.658a238.257,238.257,0,0,1,17.124,18,198.857,198.857,0,0,1,15.066,20.06,176.987,176.987,0,0,1,22,47.733c12.1,41.535,16.376,120.678,20.9,204.469v.017c3.066,56.781,6.238,115.5,12.031,166.124,3.132,27.366,6.719,49.786,10.968,68.54a270.235,270.235,0,0,0,7.545,27.27,128.512,128.512,0,0,0,9.231,21.32c9.073,16.107,17.419,34.369,25.514,55.829,7.127,18.9,13.109,37.649,18.893,55.785l0,.014c8.364,26.224,16.264,50.994,26.071,70.775,11.958,24.123,19.158,36.338,23.093,42.338,4.178,6.371,5.667,7.279,5.729,7.315l0,0Z" transform="translate(-1928.282 -1267.747)" opacity="0.38" fill="url(#linear-gradient)"/>
    <path id="减去_7" data-name="减去 7" d="M3693.4,2410.709H3612.32c.038-.356,4.031-37.416,6-80.614,1.161-25.49,1.413-48.223.75-67.565-.829-24.176-3.1-43.092-6.748-56.224-5.024-18.084-10.212-35.157-15.42-50.746-4.935-14.771-10.041-28.667-15.177-41.3-4.827-11.877-9.84-23.03-14.9-33.148-4.7-9.4-9.607-18.244-14.582-26.278a237.486,237.486,0,0,0-28.071-37.092A353.66,353.66,0,0,0,3497.8,1992.7c-10.368-9.156-20.16-17.8-29.414-29.154a151.024,151.024,0,0,1-13.433-19.413,196.386,196.386,0,0,1-12.5-25.74c-2.15-5.316-6.191-25.128-11.686-57.294-4.823-28.232-10.746-65.907-16.679-106.087-5.726-38.779-11.055-77.085-15.006-107.862-4.275-33.3-6.58-54.957-6.667-62.619-.279-24.655-7.607-57.573-21.192-95.193-6.051-16.758-13.116-33.82-21-50.713-7.586-16.259-15.545-31.55-23.655-45.446a132.05,132.05,0,0,1,30.48,10.036,120.889,120.889,0,0,1,27.849,18.318c23.979,21.035,53.321,58.883,76.575,98.772,6,10.285,11.5,20.564,16.373,30.552,5.091,10.443,9.507,20.624,13.126,30.259,7.88,20.978,12,39.268,12.234,54.364.113,7.139,3,25.192,8.351,52.21,4.86,24.54,11.541,55.368,18.813,86.806,7.353,31.787,14.811,62.023,21,85.14,6.924,25.865,12.079,42.191,14.908,47.213,17.583,31.213,36.624,56.7,55.039,81.342l0,0h0c19.614,26.249,38.139,51.042,52.62,79.861a261.679,261.679,0,0,1,18.283,46.886,274.426,274.426,0,0,1,6.133,26.938c1.687,9.593,2.947,19.666,3.746,29.938,3.514,45.206,5.243,85.894,5.138,120.934-.084,28.034-1.334,52.538-3.718,72.832-2.12,18.056-4.763,29.366-6.606,35.673-1.983,6.787-3.513,9.433-3.528,9.459Zm-1329.709,0H2156v-.012a300.326,300.326,0,0,1,4.265-34.629c2.165-12.412,4.965-25.034,8.322-37.515a432.535,432.535,0,0,1,15.108-45.837c14.837-37.71,34.536-71.762,58.55-101.212,6.941-8.512,14.341-16.748,21.995-24.478a335.267,335.267,0,0,1,54.563-44.592,349.425,349.425,0,0,1,33.067-19.149,386.829,386.829,0,0,0,39.864-23.16,261.437,261.437,0,0,0,30.589-23.778,193.69,193.69,0,0,0,22.649-24.413,166.766,166.766,0,0,0,16.045-25.065c17.584-33.863,21.11-69.446,24.844-107.118,2.093-21.114,4.257-42.947,9.016-65.39a283.021,283.021,0,0,1,9.406-34.155,251.676,251.676,0,0,1,15.21-35.161,287.85,287.85,0,0,1,20.015-33.311,295.9,295.9,0,0,1,23.312-29.255,317.444,317.444,0,0,1,25.943-25.493,351.037,351.037,0,0,1,27.908-22.025c9.21-6.55,19.037-12.893,29.207-18.85,9.478-5.553,19.518-10.926,29.84-15.97,9.521-4.652,19.55-9.155,29.808-13.383,9.327-3.844,19.121-7.576,29.108-11.09,38.148-15.039,75.114-24.864,99.575-31.365l.011,0c9.091-2.416,16.271-4.324,21.378-5.921,4.958-1.551,11.227-3.439,18.485-5.626l.026-.008c8.049-2.425,17.173-5.173,27.4-8.327-22.662,8.579-45.5,14.809-67.59,20.834-19.916,5.432-38.726,10.563-57.184,17.229a287.393,287.393,0,0,0-27.1,11.265,212.221,212.221,0,0,0-25.759,14.567,189.524,189.524,0,0,0-24.152,19.019,197.259,197.259,0,0,0-22.281,24.622,238.529,238.529,0,0,0-20.147,31.376,322.345,322.345,0,0,0-17.748,39.282,331.223,331.223,0,0,0-11.64,37.471c-2.878,11.58-5.232,23.487-7.2,36.4-3.642,23.911-5.3,47.177-6.9,69.677v.01c-2.858,40.148-5.557,78.07-19.015,114.158a193.594,193.594,0,0,1-29.614,52.73,226.383,226.383,0,0,1-23.411,25.341,292.792,292.792,0,0,1-30.51,24.682,261.508,261.508,0,0,0-25.281,20.407,281.229,281.229,0,0,0-22.217,22.815,310.422,310.422,0,0,0-19.352,24.707c-5.816,8.24-11.429,17.017-16.684,26.087-18.185,31.385-32.991,67.675-44.007,107.863-4.328,15.788-8.074,32.224-11.134,48.849-2.449,13.3-4.466,26.756-6,39.981-2.591,22.4-2.9,36.774-2.9,36.917Z" transform="translate(-1928.282 -1330.919)" opacity="0.38" fill="url(#linear-gradient-2)"/>
    <path id="路径_230" data-name="路径 230" d="M-68.2,758.447C75.147,656.937,6.96,538.741,60.084,397.977c69.3-183.616,209.335-126.5,331.649-215.018s84.414-67.6,157.606-139.041C569.7,24.041,606.352,7,647.9,6.708c10.116-.576,54.253.428,74.514,25.177,36.32,44.364,89.781,160.334,90.547,228.006.367,32.433,40.747,310.9,50.038,333.862,42.283,104.524,103.219,48.057,169.86,287.919,15.994,57.567,0,204.4,0,204.4H-215.775S-211.557,859.957-68.2,758.447Z" transform="translate(651.179 -6.285)" opacity="0.38" fill="url(#linear-gradient-3)"/>
    <path id="减去_6" data-name="减去 6" d="M3505.085,2343.634l-746.013-.191,746.08-.377-.046.4c-.013.105-.02.162-.02.169Zm-1122.487-.287-226.6-.058.023-.061c.983-2.451,10.028-24.907,24.706-58.2,9.1-20.632,18.569-41.389,28.155-61.7,11.98-25.376,24.17-50.107,36.23-73.507,30.7-59.561,60.756-110.958,89.337-152.762,16.97-24.821,33.6-46.492,49.431-64.41,8.51-9.632,16.955-18.368,25.1-25.965a238.276,238.276,0,0,1,25.053-20.568,246.391,246.391,0,0,0,27.216-22.393,329.561,329.561,0,0,0,25.192-26.789c7.774-9.2,15.629-19.4,23.344-30.318,7.162-10.13,14.453-21.226,21.672-32.982,12.449-20.273,25.216-43.329,39.03-70.487,12.167-23.92,23.491-47.717,34.443-70.732l0-.01c16.459-34.588,32.006-67.258,46.992-92.867,7.991-13.656,15.279-24.4,22.28-32.847a107.022,107.022,0,0,1,11.11-11.673,58.986,58.986,0,0,1,11.194-7.99c12.988-6.942,28.947-16.247,47.426-27.022,40.294-23.5,90.442-52.736,142.17-76.357,13.483-6.156,26.564-11.687,38.881-16.437,13.393-5.165,26.336-9.582,38.47-13.13a327.944,327.944,0,0,1,37.185-8.7,212.267,212.267,0,0,1,35.027-3.15,153.938,153.938,0,0,1,15.485.758,510.216,510.216,0,0,1,51.049,7.811A495.808,495.808,0,0,1,3152,1363.776a482.81,482.81,0,0,1,48.119,18.134,472.447,472.447,0,0,1,46.023,23.308c-.23-.017-.347-.028-.347-.028-.1.083-10.6,8.717-55.054,39.934a235.08,235.08,0,0,1-30.816,18.235,314.372,314.372,0,0,1-32.487,13.81c-22.115,8.065-45.521,14.311-68.156,20.35-17.178,4.583-34.942,9.323-52.336,14.89-30.085,9.63-54.5,18.536-76.837,28.026-12.928,5.493-25.274,11.26-36.694,17.14-12.3,6.333-24.047,13.063-34.915,20.005a362.085,362.085,0,0,0-32.663,23.456,320.291,320.291,0,0,0-29.94,27.493,303.957,303.957,0,0,0-26.745,32.115,311.773,311.773,0,0,0-23.077,37.323,251.66,251.66,0,0,0-15.21,35.161,283.006,283.006,0,0,0-9.406,34.155c-4.759,22.438-6.923,44.271-9.016,65.384v.006c-3.734,37.672-7.26,73.255-24.844,107.118a166.767,166.767,0,0,1-16.045,25.065,193.663,193.663,0,0,1-22.649,24.413,261.46,261.46,0,0,1-30.589,23.778,386.9,386.9,0,0,1-39.865,23.16,349.71,349.71,0,0,0-32.4,18.715,335.291,335.291,0,0,0-53.7,43.5c-7.564,7.543-14.888,15.577-21.768,23.877-23.9,28.841-43.628,62.2-58.631,99.164a430.558,430.558,0,0,0-15.523,45.448c-3.522,12.549-6.49,25.292-8.82,37.873a309.971,309.971,0,0,0-5.008,38.561Z" transform="translate(-2154.867 -1263.845)" opacity="0.38" fill="url(#linear-gradient-4)"/>
    <path id="减去_1" data-name="减去 1" d="M3403.127,2324.4H2012.052v-.021c-.011-.751-.089-7.675.549-19.141.622-11.185,2.072-29.165,5.446-51.3a617.068,617.068,0,0,1,16.051-74.162,588.461,588.461,0,0,1,32.364-87.742,739.6,739.6,0,0,1,43.42-80.912c14.352-22.915,29.259-43.178,44.307-60.229,14.435-16.355,29.079-29.849,43.525-40.108,14-9.938,27.815-16.851,41.076-20.548,44.584-12.43,63.4-35.673,94.585-74.181,5.548-6.851,11.284-13.936,17.709-21.642,7.279-8.729,13.871-17.4,20.152-26.505,5.6-8.113,10.817-16.388,15.958-25.3,9.551-16.553,17.369-32.845,24.93-48.6l0-.007c8.94-18.63,18.185-37.894,30.365-57.747a358.719,358.719,0,0,1,20.971-30.57,396.3,396.3,0,0,1,27.911-32.591,480.752,480.752,0,0,1,36.491-33.912c14.594-12.4,31.233-25.587,49.455-39.181,18.535-13.828,38.288-27.768,58.71-41.432,21.223-14.2,42.843-27.882,64.26-40.666,22.589-13.484,44.829-25.893,66.1-36.882,22.625-11.687,44.238-21.807,64.239-30.08a465.054,465.054,0,0,1,58.667-20.261,254.877,254.877,0,0,1,26.086-5.505,156.133,156.133,0,0,1,23.3-1.919,104.5,104.5,0,0,1,10.51.508c12.65,1.285,25.371,3.059,37.81,5.272-9.849,2.192-20.311,5.028-31.094,8.432-10.135,3.2-20.846,6.993-31.835,11.275-10.251,3.995-21.046,8.532-32.084,13.486-10.173,4.565-20.887,9.635-31.844,15.068-42.082,20.865-82.606,44.5-115.167,63.482-18.478,10.775-34.437,20.081-47.428,27.024a59.013,59.013,0,0,0-11.195,7.99,106.988,106.988,0,0,0-11.11,11.673c-7,8.445-14.288,19.19-22.28,32.846-14.984,25.6-30.532,58.276-46.992,92.866l-.012.025c-10.95,23.009-22.272,46.8-34.436,70.716-13.812,27.156-26.579,50.212-39.03,70.487-7.221,11.758-14.512,22.855-21.672,32.981-7.715,10.912-15.569,21.112-23.344,30.319a329.468,329.468,0,0,1-25.192,26.789,246.431,246.431,0,0,1-27.216,22.393,238.3,238.3,0,0,0-25.053,20.568c-8.15,7.6-16.6,16.336-25.1,25.965-15.83,17.919-32.461,39.589-49.43,64.41-28.581,41.8-58.638,93.2-89.337,152.762-12.066,23.41-24.255,48.141-36.23,73.508-9.588,20.309-19.061,41.066-28.155,61.7-15.576,35.332-24.64,58.038-24.729,58.263l1246.087.318,0,.025Z" transform="translate(-2155.909 -1244.607)" opacity="0.38" fill="url(#linear-gradient-5)"/>
    <path id="减去_3" data-name="减去 3" d="M3214.448,2345.567h-93.467c-.731-.567-2.569-2.492-6.672-9.017-5-7.951-11.772-20.171-20.13-36.321-10.355-20.012-18.784-46.344-27.708-74.222l-.007-.02c-5.9-18.437-12-37.5-19.19-56.576-8.162-21.667-16.478-39.918-25.422-55.8a128.506,128.506,0,0,1-9.231-21.319,270.332,270.332,0,0,1-7.544-27.27c-4.249-18.754-7.836-41.174-10.968-68.54-5.795-50.637-8.966-109.355-12.032-166.139-4.525-83.794-8.8-162.937-20.9-204.471-8.244-28.293-22.939-53.326-44.924-76.528-20.71-21.856-45.466-39.453-66.951-53.784,1.017-.078,2.007-.116,2.944-.116a26.574,26.574,0,0,1,6.9.834,141.325,141.325,0,0,1,21.057,7.51,139.464,139.464,0,0,1,19.052,10.44,148.748,148.748,0,0,1,17.177,13.151,169.324,169.324,0,0,1,15.431,15.642,201.914,201.914,0,0,1,13.815,17.913c4.256,6.188,8.4,12.905,12.329,19.965,3.786,6.81,7.478,14.144,10.972,21.8,3.359,7.357,6.638,15.233,9.745,23.409,5.871,15.446,11.212,32.055,16.33,50.776,4.542,16.614,8.788,34.47,12.98,54.589,7.767,37.267,14.017,76.056,20.062,113.569l0,.019c4.307,26.729,8.375,51.975,12.917,76.469,5.138,27.712,9.988,49.605,15.263,68.9,6.207,22.7,12.884,41.213,20.411,56.585a159.511,159.511,0,0,0,13.011,22.193,101.978,101.978,0,0,0,15.349,17.336,263.339,263.339,0,0,1,19.04,18.659c5.787,6.274,11.4,12.974,16.692,19.911a310.913,310.913,0,0,1,26.959,42.223,390.63,390.63,0,0,1,32.539,84.56c3.157,12.045,5.866,24.466,8.052,36.915,1.749,9.961,3.17,19.962,4.222,29.725,1.793,16.637,1.894,26.929,1.895,27.031Zm-585.844,0H2323.067l-.006,0c-.065-.041-.141-.093-.227-.153l305.77.154Z" transform="translate(-1168.193 -1265.567)" opacity="0.38" fill="url(#linear-gradient-6)"/>
  </g>
</svg>
