<svg xmlns="http://www.w3.org/2000/svg" width="91.133" height="87.547" viewBox="0 0 91.133 87.547">
  <g id="组_139" data-name="组 139" transform="translate(-236.418 -455.767)">
    <path id="路径_257" data-name="路径 257" d="M5.5,2.737C8.538,2.737,11,4.925,11,11S8.538,23.826,5.5,23.826,0,17.075,0,11,2.462,2.737,5.5,2.737Z" transform="matrix(0.951, -0.309, 0.309, 0.951, 261.941, 456.563)" fill="#a4ddff"/>
    <path id="路径_256" data-name="路径 256" d="M1.878,0c2.04-.046,2.14,3.6,2.14,8.675S2.582,18.529,1.878,18.4s-2.23-4.641-2.23-9.721S-.162.046,1.878,0Z" transform="translate(261.055 473.564) rotate(-39)" fill="#a4ddff"/>
    <path id="路径_258" data-name="路径 258" d="M2.23,18.4c2.04.046,2.14-3.6,2.14-8.675S2.935-.13,2.23,0,0,4.643,0,9.723.191,18.353,2.23,18.4Z" transform="translate(282.502 484.789) rotate(-177)" fill="#a4ddff"/>
    <circle id="椭圆_181" data-name="椭圆 181" cx="2.5" cy="2.5" r="2.5" transform="matrix(1, 0.017, -0.017, 1, 257.979, 470.178)" fill="#a4ddff"/>
    <ellipse id="椭圆_182" data-name="椭圆 182" cx="2.5" cy="2.5" rx="2.5" ry="2.5" transform="translate(286.62 465.842) rotate(143)" fill="#a4ddff"/>
    <path id="路径_257-2" data-name="路径 257" d="M5.5,2.737C8.538,2.737,11,4.925,11,11S8.538,23.826,5.5,23.826,0,17.075,0,11,2.462,2.737,5.5,2.737Z" transform="matrix(0.695, 0.719, -0.719, 0.695, 312.697, 463.211)" fill="#a4ddff"/>
    <path id="路径_256-2" data-name="路径 256" d="M1.878,0c2.04-.046,2.14,3.6,2.14,8.675S2.582,18.529,1.878,18.4s-2.23-4.641-2.23-9.721S-.162.046,1.878,0Z" transform="translate(297.028 469.867) rotate(25)" fill="#a4ddff"/>
    <path id="路径_258-2" data-name="路径 258" d="M2.23,18.4c2.04.046,2.14-3.6,2.14-8.675S2.935-.13,2.23,0,0,4.643,0,9.723.191,18.353,2.23,18.4Z" transform="translate(296.341 494.064) rotate(-113)" fill="#a4ddff"/>
    <circle id="椭圆_181-2" data-name="椭圆 181" cx="2.5" cy="2.5" r="2.5" transform="translate(298.723 465.617) rotate(65)" fill="#a4ddff"/>
    <ellipse id="椭圆_182-2" data-name="椭圆 182" cx="2.5" cy="2.5" rx="2.5" ry="2.5" transform="translate(315.175 489.459) rotate(-153)" fill="#a4ddff"/>
    <path id="路径_257-3" data-name="路径 257" d="M5.5,2.737C8.538,2.737,11,4.925,11,11S8.538,23.826,5.5,23.826,0,17.075,0,11,2.462,2.737,5.5,2.737Z" transform="translate(330.254 502.574) rotate(99)" fill="#a4ddff"/>
    <path id="路径_256-3" data-name="路径 256" d="M1.878,0c2.04-.046,2.14,3.6,2.14,8.675S2.582,18.529,1.878,18.4s-2.23-4.641-2.23-9.721S-.162.046,1.878,0Z" transform="matrix(0.208, 0.978, -0.978, 0.208, 315.509, 494.067)" fill="#a4ddff"/>
    <path id="路径_258-3" data-name="路径 258" d="M2.23,18.4c2.04.046,2.14-3.6,2.14-8.675S2.935-.13,2.23,0,0,4.643,0,9.723.191,18.353,2.23,18.4Z" transform="translate(295.771 508.08) rotate(-60)" fill="#a4ddff"/>
    <circle id="椭圆_181-3" data-name="椭圆 181" cx="2.5" cy="2.5" r="2.5" transform="translate(319.923 492.863) rotate(118)" fill="#a4ddff"/>
    <ellipse id="椭圆_182-3" data-name="椭圆 182" cx="2.5" cy="2.5" rx="2.5" ry="2.5" transform="translate(310.783 520.35) rotate(-100)" fill="#a4ddff"/>
    <path id="路径_257-4" data-name="路径 257" d="M5.5,2.737C8.538,2.737,11,4.925,11,11S8.538,23.826,5.5,23.826,0,17.075,0,11,2.462,2.737,5.5,2.737Z" transform="matrix(-0.891, 0.454, -0.454, -0.891, 308.685, 540.758)" fill="#a4ddff"/>
    <path id="路径_256-4" data-name="路径 256" d="M1.878,0c2.04-.046,2.14,3.6,2.14,8.675S2.582,18.529,1.878,18.4s-2.23-4.641-2.23-9.721S-.162.046,1.878,0Z" transform="translate(306.901 523.828) rotate(132)" fill="#a4ddff"/>
    <path id="路径_258-4" data-name="路径 258" d="M2.23,18.4c2.04.046,2.14-3.6,2.14-8.675S2.935-.13,2.23,0,0,4.643,0,9.723.191,18.353,2.23,18.4Z" transform="matrix(0.995, -0.105, 0.105, 0.995, 283.962, 516.096)" fill="#a4ddff"/>
    <circle id="椭圆_181-4" data-name="椭圆 181" cx="2.5" cy="2.5" r="2.5" transform="matrix(-0.99, 0.139, -0.139, -0.99, 310.469, 526.691)" fill="#a4ddff"/>
    <ellipse id="椭圆_182-4" data-name="椭圆 182" cx="2.5" cy="2.5" rx="2.5" ry="2.5" transform="translate(282.858 535.454) rotate(-46)" fill="#a4ddff"/>
    <path id="路径_257-5" data-name="路径 257" d="M5.5,2.737C8.538,2.737,11,4.925,11,11S8.538,23.826,5.5,23.826,0,17.075,0,11,2.462,2.737,5.5,2.737Z" transform="translate(258.244 542.553) rotate(-144)" fill="#a4ddff"/>
    <path id="路径_256-5" data-name="路径 256" d="M1.878,0c2.04-.046,2.14,3.6,2.14,8.675S2.582,18.529,1.878,18.4s-2.23-4.641-2.23-9.721S-.162.046,1.878,0Z" transform="matrix(-0.966, -0.259, 0.259, -0.966, 272.519, 533.277)" fill="#a4ddff"/>
    <path id="路径_258-5" data-name="路径 258" d="M2.23,18.4c2.04.046,2.14-3.6,2.14-8.675S2.935-.13,2.23,0,0,4.643,0,9.723.191,18.353,2.23,18.4Z" transform="translate(268.994 509.329) rotate(57)" fill="#a4ddff"/>
    <circle id="椭圆_181-5" data-name="椭圆 181" cx="2.5" cy="2.5" r="2.5" transform="matrix(-0.574, -0.819, 0.819, -0.574, 271.588, 537.757)" fill="#a4ddff"/>
    <ellipse id="椭圆_182-5" data-name="椭圆 182" cx="2.5" cy="2.5" rx="2.5" ry="2.5" transform="matrix(0.956, 0.292, -0.292, 0.956, 251.246, 517.134)" fill="#a4ddff"/>
    <path id="路径_257-6" data-name="路径 257" d="M5.5,2.737C8.538,2.737,11,4.925,11,11S8.538,23.826,5.5,23.826,0,17.075,0,11,2.462,2.737,5.5,2.737Z" transform="translate(233.702 500.111) rotate(-83)" fill="#a4ddff"/>
    <path id="路径_256-6" data-name="路径 256" d="M1.878,0c2.04-.046,2.14,3.6,2.14,8.675S2.582,18.529,1.878,18.4s-2.23-4.641-2.23-9.721S-.162.046,1.878,0Z" transform="matrix(-0.242, -0.97, 0.97, -0.242, 248.736, 508.099)" fill="#a4ddff"/>
    <path id="路径_258-6" data-name="路径 258" d="M2.23,18.4c2.04.046,2.14-3.6,2.14-8.675S2.935-.13,2.23,0,0,4.643,0,9.723.191,18.353,2.23,18.4Z" transform="translate(267.973 493.405) rotate(118)" fill="#a4ddff"/>
    <circle id="椭圆_181-6" data-name="椭圆 181" cx="2.5" cy="2.5" r="2.5" transform="translate(244.366 509.456) rotate(-64)" fill="#a4ddff"/>
    <ellipse id="椭圆_182-6" data-name="椭圆 182" cx="2.5" cy="2.5" rx="2.5" ry="2.5" transform="translate(252.542 481.666) rotate(78)" fill="#a4ddff"/>
    <text id="β" transform="translate(273 512)" fill="#55b4ed" font-size="33" font-family="Menlo-Bold, Menlo" font-weight="700"><tspan x="0" y="0">β</tspan></text>
  </g>
</svg>
