<svg xmlns="http://www.w3.org/2000/svg" xmlns:xlink="http://www.w3.org/1999/xlink" width="120" height="49" viewBox="0 0 120 49">
  <defs>
    <radialGradient id="radial-gradient" cx="0.458" cy="0.617" r="0.474" gradientTransform="matrix(0.235, -0.972, 0.989, 0.24, -0.26, 0.914)" gradientUnits="objectBoundingBox">
      <stop offset="0" stop-color="#cbe3ff"/>
      <stop offset="1" stop-color="#9aecff"/>
    </radialGradient>
    <radialGradient id="radial-gradient-2" cx="0.458" cy="0.617" r="0.474" gradientTransform="matrix(0.235, -0.972, 0.989, 0.24, -0.26, 0.914)" gradientUnits="objectBoundingBox">
      <stop offset="0" stop-color="#9ef8fc"/>
      <stop offset="1" stop-color="#8bffc1"/>
    </radialGradient>
    <radialGradient id="radial-gradient-3" cx="0.458" cy="0.617" r="0.474" gradientTransform="matrix(0.235, -0.972, 0.989, 0.24, -0.26, 0.914)" gradientUnits="objectBoundingBox">
      <stop offset="0" stop-color="#c9fc9e"/>
      <stop offset="1" stop-color="#f7efc3"/>
    </radialGradient>
    <radialGradient id="radial-gradient-4" cx="0.794" cy="0.6" r="0.5" gradientUnits="objectBoundingBox">
      <stop offset="0" stop-color="#f8efc3"/>
      <stop offset="0.493" stop-color="#8cffc1"/>
      <stop offset="1" stop-color="#f8efc3"/>
    </radialGradient>
    <radialGradient id="radial-gradient-5" cx="0.341" cy="0.402" r="0.5" gradientUnits="objectBoundingBox">
      <stop offset="0" stop-color="#99ecff"/>
      <stop offset="0.5" stop-color="#f8efc3"/>
      <stop offset="1" stop-color="#99ecff"/>
    </radialGradient>
    <radialGradient id="radial-gradient-6" cx="0.12" cy="0.262" r="0.5" gradientUnits="objectBoundingBox">
      <stop offset="0" stop-color="#8cffe4"/>
      <stop offset="0.432" stop-color="#99ecff"/>
      <stop offset="1" stop-color="#8cffe4"/>
    </radialGradient>
  </defs>
  <g id="组_351" data-name="组 351" transform="translate(-8746.523 231)">
    <rect id="矩形_76" data-name="矩形 76" width="120" height="49" rx="24.5" transform="translate(8746.523 -231)" fill="#6fe3c4"/>
    <path id="路径_631" data-name="路径 631" d="M.96-8.376H3.876a2.6,2.6,0,0,1,1.83.594,2.091,2.091,0,0,1,.642,1.614,1.762,1.762,0,0,1-.354,1.152,1.98,1.98,0,0,1-1,.624v.06a2.3,2.3,0,0,1,1.194.654A1.9,1.9,0,0,1,6.624-2.34a2.5,2.5,0,0,1-.174.954,2.172,2.172,0,0,1-.492.738,2.158,2.158,0,0,1-.768.48A2.883,2.883,0,0,1,4.176,0H.96ZM3.7-1.14a1.649,1.649,0,0,0,.99-.246.989.989,0,0,0,.33-.846v-.4a.974.974,0,0,0-.33-.834,1.649,1.649,0,0,0-.99-.246H2.5V-1.14Zm-.2-3.66a1.579,1.579,0,0,0,.942-.228A.926.926,0,0,0,4.74-5.82v-.4a.926.926,0,0,0-.306-.792,1.579,1.579,0,0,0-.942-.228h-1V-4.8Zm8.472,3.708H11.9a2.245,2.245,0,0,1-.63.87,1.756,1.756,0,0,1-1.182.366A1.942,1.942,0,0,1,8.61-.462,2.436,2.436,0,0,1,8.04-2.2v-4H9.576v3.78q0,1.344,1.164,1.344a1.717,1.717,0,0,0,.45-.06,1.2,1.2,0,0,0,.4-.186.958.958,0,0,0,.276-.306.863.863,0,0,0,.1-.432v-4.14H13.5V0H11.964Zm6.42-6.06a1.039,1.039,0,0,1-.762-.228.762.762,0,0,1-.222-.552V-8.22a.762.762,0,0,1,.222-.552A1.039,1.039,0,0,1,18.384-9a1.039,1.039,0,0,1,.762.228.762.762,0,0,1,.222.552v.288a.762.762,0,0,1-.222.552A1.039,1.039,0,0,1,18.384-7.152Zm-2.808,5.94h2.04V-4.98h-2.04V-6.192h3.576v4.98h1.9V0H15.576Zm6.888,0h1.968V-7.668H22.464V-8.88h3.5v7.668h1.98V0H22.464Zm11.172.12h-.084a2.28,2.28,0,0,1-.69.9A1.852,1.852,0,0,1,31.7.144a2.318,2.318,0,0,1-.966-.2,1.967,1.967,0,0,1-.75-.6,2.879,2.879,0,0,1-.48-1.014A5.423,5.423,0,0,1,29.34-3.1a3.835,3.835,0,0,1,.648-2.436,2.094,2.094,0,0,1,1.716-.8A1.852,1.852,0,0,1,32.862-6a2.28,2.28,0,0,1,.69.9h.084V-8.88h1.536V0H33.636Zm-1.284.012a1.827,1.827,0,0,0,.5-.066,1.282,1.282,0,0,0,.408-.192.9.9,0,0,0,.276-.324,1,1,0,0,0,.1-.462V-4.068a1,1,0,0,0-.1-.462.9.9,0,0,0-.276-.324,1.282,1.282,0,0,0-.408-.192,1.827,1.827,0,0,0-.5-.066,1.322,1.322,0,0,0-1.038.408,1.61,1.61,0,0,0-.366,1.116V-2.6a1.61,1.61,0,0,0,.366,1.116A1.322,1.322,0,0,0,32.352-1.08Z" transform="translate(8806.523 -202)" fill="#fff"/>
    <g id="组_344" data-name="组 344" transform="translate(7012.445 -437.969)">
      <g id="组_334" data-name="组 334" transform="matrix(-0.53, 0.848, -0.848, -0.53, 2883.33, -1132.741)">
        <circle id="椭圆_235" data-name="椭圆 235" cx="3.5" cy="3.5" r="3.5" transform="translate(1749 209)" fill="url(#radial-gradient)"/>
      </g>
      <g id="组_335" data-name="组 335" transform="matrix(-0.53, 0.848, -0.848, -0.53, 2871.393, -1155.419)">
        <circle id="椭圆_235-2" data-name="椭圆 235" cx="3.5" cy="3.5" r="3.5" transform="translate(1749 209)" fill="url(#radial-gradient-2)"/>
      </g>
      <g id="组_336" data-name="组 336" transform="matrix(-0.53, 0.848, -0.848, -0.53, 2859.533, -1137.875)">
        <circle id="椭圆_235-3" data-name="椭圆 235" cx="3.5" cy="3.5" r="3.5" transform="translate(1749 209)" fill="url(#radial-gradient-3)"/>
      </g>
      <circle id="椭圆_234" data-name="椭圆 234" cx="1.352" cy="1.352" r="1.352" transform="translate(1761.148 232.371)" fill="#fff"/>
      <path id="路径_623" data-name="路径 623" d="M8744.825,224.411c-.386-.031-.722-.913-.573-1.867a14.973,14.973,0,0,1,1.712-6.007,14.106,14.106,0,0,1,4.237-5.1,1.842,1.842,0,0,1,2.536.26,1.75,1.75,0,0,1-.369,2.447,7.364,7.364,0,0,0-4.253,3.346,32.281,32.281,0,0,0-2.235,5.325C8745.743,223.679,8745.211,224.442,8744.825,224.411Z" transform="translate(-6971.358 -450.357) rotate(3)" fill="url(#radial-gradient-4)"/>
      <path id="路径_624" data-name="路径 624" d="M8745.82,229.87s-1.763-.149-1.809-1.647a1.861,1.861,0,0,1,1.445-1.834l-.015,0a7.8,7.8,0,0,0,2.013-.639c1.567-.709,2.441-.609,4.589-2.461a13.7,13.7,0,0,0,3.709-4.372c1.489-2.326,1.657-4.438,2.5-4.563s.946.941.745,1.886a21.329,21.329,0,0,1-4.655,8.539A14.113,14.113,0,0,1,8745.82,229.87Z" transform="matrix(0.545, 0.839, -0.839, 0.545, -2818.896, -7217.209)" fill="url(#radial-gradient-5)"/>
      <path id="路径_625" data-name="路径 625" d="M8745.247,231.116c-.207,0-.335-.006-.37-.007a1.886,1.886,0,0,1-1.394-1.941,1.646,1.646,0,0,1,1.569-1.555h-.006a13.194,13.194,0,0,0,3.38-.411c2.409-.6,4.68-1.447,6.053-3.11,3.369-4.081,2.9-4.914,3.383-6.24s.028-3.4.985-3.532a2.132,2.132,0,0,1,1.134,1.753,7.332,7.332,0,0,1,.026,3.66,13.256,13.256,0,0,1-3.182,6.284C8752.884,230.792,8746.815,231.116,8745.247,231.116Z" transform="translate(-1143.785 8482.046) rotate(-72)" opacity="0.998" fill="url(#radial-gradient-6)"/>
      <path id="直线_27" data-name="直线 27" d="M0,8.387a2.262,2.262,0,0,0-.816.2A4.5,4.5,0,0,0-.5,7.5c.043-.455.191-8.69.191-8.69.03-.181.1-.318.309-.31s.259.121.3.31c0,0,.107,7.969.2,8.69A3.664,3.664,0,0,0,.768,8.583,1.877,1.877,0,0,0,0,8.387Z" transform="translate(1762.523 223.788)" fill="#fff"/>
      <path id="直线_29" data-name="直线 29" d="M-.591,1.175C-.645.9-.408.846-.138.792c0,0,4.706-1.026,5.015-1.146A1.25,1.25,0,0,0,5.4-.842a3.08,3.08,0,0,0,.136.79A1.333,1.333,0,0,0,5.965.49,4.148,4.148,0,0,0,5.042.413c-.488.018-5.18.847-5.18.847C-.171,1.267-.543,1.413-.591,1.175Z" transform="translate(1755.5 234.5)" fill="#fff"/>
      <path id="直线_28" data-name="直线 28" d="M6.871,5.291S.956,1.4.53,1.1a2.823,2.823,0,0,0-.873-.4,1.823,1.823,0,0,0,.6-.445A1.58,1.58,0,0,0,.53-.408,2.072,2.072,0,0,0,1.2.406c.468.33,6.036,4.383,6.036,4.383a.386.386,0,0,1,.175.5C7.309,5.427,7.123,5.418,6.871,5.291Z" transform="translate(1763.5 234.5)" fill="#fff"/>
    </g>
  </g>
</svg>
