<svg xmlns="http://www.w3.org/2000/svg" xmlns:xlink="http://www.w3.org/1999/xlink" width="120" height="49" viewBox="0 0 120 49">
  <defs>
    <radialGradient id="radial-gradient" cx="0.458" cy="0.617" r="0.474" gradientTransform="matrix(0.235, -0.972, 0.989, 0.24, -0.26, 0.914)" gradientUnits="objectBoundingBox">
      <stop offset="0" stop-color="#cbe3ff"/>
      <stop offset="1" stop-color="#9aecff"/>
    </radialGradient>
    <radialGradient id="radial-gradient-2" cx="0.458" cy="0.617" r="0.474" gradientTransform="matrix(0.235, -0.972, 0.989, 0.24, -0.26, 0.914)" gradientUnits="objectBoundingBox">
      <stop offset="0" stop-color="#9ef8fc"/>
      <stop offset="1" stop-color="#8bffc1"/>
    </radialGradient>
    <radialGradient id="radial-gradient-3" cx="0.458" cy="0.617" r="0.474" gradientTransform="matrix(0.235, -0.972, 0.989, 0.24, -0.26, 0.914)" gradientUnits="objectBoundingBox">
      <stop offset="0" stop-color="#c9fc9e"/>
      <stop offset="1" stop-color="#f7efc3"/>
    </radialGradient>
    <radialGradient id="radial-gradient-4" cx="0.794" cy="0.6" r="0.5" gradientUnits="objectBoundingBox">
      <stop offset="0" stop-color="#f8efc3"/>
      <stop offset="0.493" stop-color="#8cffc1"/>
      <stop offset="1" stop-color="#f8efc3"/>
    </radialGradient>
    <radialGradient id="radial-gradient-5" cx="0.341" cy="0.402" r="0.5" gradientUnits="objectBoundingBox">
      <stop offset="0" stop-color="#99ecff"/>
      <stop offset="0.5" stop-color="#f8efc3"/>
      <stop offset="1" stop-color="#99ecff"/>
    </radialGradient>
    <radialGradient id="radial-gradient-6" cx="0.12" cy="0.262" r="0.5" gradientUnits="objectBoundingBox">
      <stop offset="0" stop-color="#8cffe4"/>
      <stop offset="0.432" stop-color="#99ecff"/>
      <stop offset="1" stop-color="#8cffe4"/>
    </radialGradient>
  </defs>
  <g id="组_353" data-name="组 353" transform="translate(-10717.676 133)">
    <rect id="矩形_77" data-name="矩形 77" width="120" height="49" rx="24.5" transform="translate(10717.676 -133)" fill="#6fe3c4"/>
    <path id="路径_635" data-name="路径 635" d="M1,0V-8.376H6.468v1.3h-3.9V-4.9H6.084v1.3H2.568V0ZM11.184-7.152a1.039,1.039,0,0,1-.762-.228.762.762,0,0,1-.222-.552V-8.22a.762.762,0,0,1,.222-.552A1.039,1.039,0,0,1,11.184-9a1.039,1.039,0,0,1,.762.228.762.762,0,0,1,.222.552v.288a.762.762,0,0,1-.222.552A1.039,1.039,0,0,1,11.184-7.152ZM8.376-1.212h2.04V-4.98H8.376V-6.192h3.576v4.98h1.9V0H8.376ZM15.3,0V-6.192h1.536V-5.1h.06a2.245,2.245,0,0,1,.63-.87,1.756,1.756,0,0,1,1.182-.366,1.942,1.942,0,0,1,1.482.606A2.436,2.436,0,0,1,20.76-4V0H19.224V-3.78q0-1.344-1.164-1.344a1.7,1.7,0,0,0-.456.06,1.212,1.212,0,0,0-.39.186.958.958,0,0,0-.276.306.863.863,0,0,0-.1.432V0ZM25.584-7.152a1.039,1.039,0,0,1-.762-.228.762.762,0,0,1-.222-.552V-8.22a.762.762,0,0,1,.222-.552A1.039,1.039,0,0,1,25.584-9a1.039,1.039,0,0,1,.762.228.762.762,0,0,1,.222.552v.288a.762.762,0,0,1-.222.552A1.039,1.039,0,0,1,25.584-7.152Zm-2.808,5.94h2.04V-4.98h-2.04V-6.192h3.576v4.98h1.9V0H22.776Zm9.6,1.356a4.468,4.468,0,0,1-1.764-.318,2.86,2.86,0,0,1-1.164-.858l.9-.816a2.723,2.723,0,0,0,.882.648,2.757,2.757,0,0,0,1.158.228,1.912,1.912,0,0,0,.924-.192.629.629,0,0,0,.348-.588.464.464,0,0,0-.234-.456,2.073,2.073,0,0,0-.618-.18l-1-.156a5.237,5.237,0,0,1-.75-.174,2.225,2.225,0,0,1-.648-.318,1.5,1.5,0,0,1-.45-.522,1.639,1.639,0,0,1-.168-.774,1.713,1.713,0,0,1,.726-1.488,3.4,3.4,0,0,1,2-.516,4.125,4.125,0,0,1,1.53.252,2.723,2.723,0,0,1,1.038.708l-.8.888a2.43,2.43,0,0,0-.7-.51,2.448,2.448,0,0,0-1.11-.222q-1.176,0-1.176.732a.474.474,0,0,0,.24.462,2.027,2.027,0,0,0,.624.186l.984.156a5.156,5.156,0,0,1,.762.174,2.225,2.225,0,0,1,.648.318,1.513,1.513,0,0,1,.45.516,1.6,1.6,0,0,1,.168.768A1.77,1.77,0,0,1,34.434-.4,3.4,3.4,0,0,1,32.376.144ZM36.9-8.88h1.536V-5.1h.06a2.245,2.245,0,0,1,.63-.87,1.756,1.756,0,0,1,1.182-.366,1.942,1.942,0,0,1,1.482.606A2.436,2.436,0,0,1,42.36-4V0H40.824V-3.78q0-1.344-1.164-1.344a1.7,1.7,0,0,0-.456.06,1.212,1.212,0,0,0-.39.186.958.958,0,0,0-.276.306.863.863,0,0,0-.1.432V0H36.9Z" transform="translate(10775.676 -104)" fill="#fff"/>
    <g id="组_349" data-name="组 349" transform="matrix(-0.574, 0.819, -0.819, -0.574, 11945.494, -1419.828)">
      <g id="组_334" data-name="组 334" transform="matrix(-0.53, 0.848, -0.848, -0.53, 2883.33, -1132.741)">
        <circle id="椭圆_235" data-name="椭圆 235" cx="3.5" cy="3.5" r="3.5" transform="translate(1749 209)" fill="url(#radial-gradient)"/>
      </g>
      <g id="组_335" data-name="组 335" transform="matrix(-0.53, 0.848, -0.848, -0.53, 2871.393, -1155.419)">
        <circle id="椭圆_235-2" data-name="椭圆 235" cx="3.5" cy="3.5" r="3.5" transform="translate(1749 209)" fill="url(#radial-gradient-2)"/>
      </g>
      <g id="组_336" data-name="组 336" transform="matrix(-0.53, 0.848, -0.848, -0.53, 2859.533, -1137.875)">
        <circle id="椭圆_235-3" data-name="椭圆 235" cx="3.5" cy="3.5" r="3.5" transform="translate(1749 209)" fill="url(#radial-gradient-3)"/>
      </g>
      <circle id="椭圆_234" data-name="椭圆 234" cx="1.352" cy="1.352" r="1.352" transform="translate(1761.148 232.371)" fill="#fff"/>
      <path id="路径_623" data-name="路径 623" d="M8744.825,224.411c-.386-.031-.722-.913-.573-1.867a14.973,14.973,0,0,1,1.712-6.007,14.106,14.106,0,0,1,4.237-5.1,1.842,1.842,0,0,1,2.536.26,1.75,1.75,0,0,1-.369,2.447,7.364,7.364,0,0,0-4.253,3.346,32.281,32.281,0,0,0-2.235,5.325C8745.743,223.679,8745.211,224.442,8744.825,224.411Z" transform="translate(-6971.358 -450.357) rotate(3)" fill="url(#radial-gradient-4)"/>
      <path id="路径_624" data-name="路径 624" d="M8745.82,229.87s-1.763-.149-1.809-1.647a1.861,1.861,0,0,1,1.445-1.834l-.015,0a7.8,7.8,0,0,0,2.013-.639c1.567-.709,2.441-.609,4.589-2.461a13.7,13.7,0,0,0,3.709-4.372c1.489-2.326,1.657-4.438,2.5-4.563s.946.941.745,1.886a21.329,21.329,0,0,1-4.655,8.539A14.113,14.113,0,0,1,8745.82,229.87Z" transform="matrix(0.545, 0.839, -0.839, 0.545, -2818.896, -7217.209)" fill="url(#radial-gradient-5)"/>
      <path id="路径_625" data-name="路径 625" d="M8745.247,231.116c-.207,0-.335-.006-.37-.007a1.886,1.886,0,0,1-1.394-1.941,1.646,1.646,0,0,1,1.569-1.555h-.006a13.194,13.194,0,0,0,3.38-.411c2.409-.6,4.68-1.447,6.053-3.11,3.369-4.081,2.9-4.914,3.383-6.24s.028-3.4.985-3.532a2.132,2.132,0,0,1,1.134,1.753,7.332,7.332,0,0,1,.026,3.66,13.256,13.256,0,0,1-3.182,6.284C8752.884,230.792,8746.815,231.116,8745.247,231.116Z" transform="translate(-1143.785 8482.046) rotate(-72)" opacity="0.998" fill="url(#radial-gradient-6)"/>
      <path id="直线_27" data-name="直线 27" d="M0,8.387a2.262,2.262,0,0,0-.816.2A4.5,4.5,0,0,0-.5,7.5c.043-.455.191-8.69.191-8.69.03-.181.1-.318.309-.31s.259.121.3.31c0,0,.107,7.969.2,8.69A3.664,3.664,0,0,0,.768,8.583,1.877,1.877,0,0,0,0,8.387Z" transform="translate(1762.523 223.788)" fill="#fff"/>
      <path id="直线_29" data-name="直线 29" d="M-.591,1.175C-.645.9-.408.846-.138.792c0,0,4.706-1.026,5.015-1.146A1.25,1.25,0,0,0,5.4-.842a3.08,3.08,0,0,0,.136.79A1.333,1.333,0,0,0,5.965.49,4.148,4.148,0,0,0,5.042.413c-.488.018-5.18.847-5.18.847C-.171,1.267-.543,1.413-.591,1.175Z" transform="translate(1755.5 234.5)" fill="#fff"/>
      <path id="直线_28" data-name="直线 28" d="M6.871,5.291S.956,1.4.53,1.1a2.823,2.823,0,0,0-.873-.4,1.823,1.823,0,0,0,.6-.445A1.58,1.58,0,0,0,.53-.408,2.072,2.072,0,0,0,1.2.406c.468.33,6.036,4.383,6.036,4.383a.386.386,0,0,1,.175.5C7.309,5.427,7.123,5.418,6.871,5.291Z" transform="translate(1763.5 234.5)" fill="#fff"/>
    </g>
  </g>
</svg>
