<svg xmlns="http://www.w3.org/2000/svg" xmlns:xlink="http://www.w3.org/1999/xlink" width="310.542" height="366.268" viewBox="0 0 310.542 366.268">
  <defs>
    <linearGradient id="linear-gradient" x1="0.946" y1="0.5" x2="0.021" y2="0.5" gradientUnits="objectBoundingBox">
      <stop offset="0" stop-color="#6fe3c4"/>
      <stop offset="1" stop-color="#24c8f3" stop-opacity="0.569"/>
    </linearGradient>
    <linearGradient id="linear-gradient-2" x1="0.769" y1="0.326" x2="0.262" y2="0.945" gradientUnits="objectBoundingBox">
      <stop offset="0" stop-color="#cce599"/>
      <stop offset="0.64" stop-color="#cce599"/>
      <stop offset="0.787" stop-color="#f4d675"/>
      <stop offset="0.915" stop-color="#f4d675"/>
      <stop offset="1" stop-color="#75f4cd"/>
    </linearGradient>
    <filter id="路径_595">
      <feOffset dx="-0.5" dy="-0.5" input="SourceAlpha"/>
      <feGaussianBlur stdDeviation="0.5" result="blur"/>
      <feFlood flood-opacity="0.161" result="color"/>
      <feComposite operator="out" in="SourceGraphic" in2="blur"/>
      <feComposite operator="in" in="color"/>
      <feComposite operator="in" in2="SourceGraphic"/>
    </filter>
    <linearGradient id="linear-gradient-3" x1="0.696" y1="0.351" x2="0.5" y2="1" gradientUnits="objectBoundingBox">
      <stop offset="0" stop-color="#c2f2de"/>
      <stop offset="1" stop-color="#c4f2c2"/>
    </linearGradient>
    <filter id="路径_598" x="130.636" y="19.926" width="71.539" height="70.62" filterUnits="userSpaceOnUse">
      <feOffset dy="15" input="SourceAlpha"/>
      <feGaussianBlur stdDeviation="6.5" result="blur-2"/>
      <feFlood flood-opacity="0.063"/>
      <feComposite operator="in" in2="blur-2"/>
      <feComposite in="SourceGraphic"/>
    </filter>
    <filter id="路径_598-2" x="130.636" y="19.926" width="71.539" height="70.62" filterUnits="userSpaceOnUse">
      <feOffset dy="-3" input="SourceAlpha"/>
      <feGaussianBlur stdDeviation="1.5" result="blur-3"/>
      <feFlood flood-opacity="0.161" result="color-2"/>
      <feComposite operator="out" in="SourceGraphic" in2="blur-3"/>
      <feComposite operator="in" in="color-2"/>
      <feComposite operator="in" in2="SourceGraphic"/>
    </filter>
    <radialGradient id="radial-gradient" cx="0.296" cy="0.233" r="0.681" gradientUnits="objectBoundingBox">
      <stop offset="0" stop-color="#edfcff"/>
      <stop offset="1" stop-color="#70d8f0"/>
    </radialGradient>
    <linearGradient id="linear-gradient-4" x1="0.222" y1="0.35" x2="0.937" y2="0.95" gradientUnits="objectBoundingBox">
      <stop offset="0" stop-color="#ffef96"/>
      <stop offset="0.633" stop-color="#e2f3a7"/>
      <stop offset="1" stop-color="#9efdcd"/>
    </linearGradient>
    <filter id="路径_594">
      <feOffset dy="-3" input="SourceAlpha"/>
      <feGaussianBlur stdDeviation="1.5" result="blur-4"/>
      <feFlood flood-opacity="0.161" result="color-3"/>
      <feComposite operator="out" in="SourceGraphic" in2="blur-4"/>
      <feComposite operator="in" in="color-3"/>
      <feComposite operator="in" in2="SourceGraphic"/>
    </filter>
    <linearGradient id="linear-gradient-5" x1="0.63" y1="0.138" x2="0.802" y2="1.365" gradientUnits="objectBoundingBox">
      <stop offset="0" stop-color="#fff"/>
      <stop offset="0.419" stop-color="#c1f3f7"/>
      <stop offset="1" stop-color="#68b4ba"/>
    </linearGradient>
    <filter id="路径_19" x="58.536" y="6.874" width="55.875" height="49.389" filterUnits="userSpaceOnUse">
      <feOffset dy="11" input="SourceAlpha"/>
      <feGaussianBlur stdDeviation="2" result="blur-5"/>
      <feFlood flood-opacity="0.043"/>
      <feComposite operator="in" in2="blur-5"/>
      <feComposite in="SourceGraphic"/>
    </filter>
    <filter id="路径_19-2" x="58.536" y="6.874" width="55.875" height="49.389" filterUnits="userSpaceOnUse">
      <feOffset dx="-0.5" dy="-1" input="SourceAlpha"/>
      <feGaussianBlur stdDeviation="0.5" result="blur-6"/>
      <feFlood flood-opacity="0.078" result="color-4"/>
      <feComposite operator="out" in="SourceGraphic" in2="blur-6"/>
      <feComposite operator="in" in="color-4"/>
      <feComposite operator="in" in2="SourceGraphic"/>
    </filter>
    <filter id="路径_20">
      <feOffset dx="-0.5" dy="-1" input="SourceAlpha"/>
      <feGaussianBlur stdDeviation="0.5" result="blur-7"/>
      <feFlood flood-opacity="0.078" result="color-5"/>
      <feComposite operator="out" in="SourceGraphic" in2="blur-7"/>
      <feComposite operator="in" in="color-5"/>
      <feComposite operator="in" in2="SourceGraphic"/>
    </filter>
    <filter id="路径_21">
      <feOffset dx="-0.5" dy="-1" input="SourceAlpha"/>
      <feGaussianBlur stdDeviation="0.5" result="blur-8"/>
      <feFlood flood-opacity="0.078" result="color-6"/>
      <feComposite operator="out" in="SourceGraphic" in2="blur-8"/>
      <feComposite operator="in" in="color-6"/>
      <feComposite operator="in" in2="SourceGraphic"/>
    </filter>
    <filter id="路径_22">
      <feOffset dx="-0.5" dy="-1" input="SourceAlpha"/>
      <feGaussianBlur stdDeviation="0.5" result="blur-9"/>
      <feFlood flood-opacity="0.078" result="color-7"/>
      <feComposite operator="out" in="SourceGraphic" in2="blur-9"/>
      <feComposite operator="in" in="color-7"/>
      <feComposite operator="in" in2="SourceGraphic"/>
    </filter>
    <filter id="路径_23">
      <feOffset dx="-0.5" dy="-1" input="SourceAlpha"/>
      <feGaussianBlur stdDeviation="0.5" result="blur-10"/>
      <feFlood flood-opacity="0.078" result="color-8"/>
      <feComposite operator="out" in="SourceGraphic" in2="blur-10"/>
      <feComposite operator="in" in="color-8"/>
      <feComposite operator="in" in2="SourceGraphic"/>
    </filter>
    <filter id="路径_596" x="32.94" y="19.682" width="55.718" height="62.302" filterUnits="userSpaceOnUse">
      <feOffset dx="5" dy="3" input="SourceAlpha"/>
      <feGaussianBlur stdDeviation="3" result="blur-11"/>
      <feFlood flood-opacity="0.09"/>
      <feComposite operator="in" in2="blur-11"/>
      <feComposite in="SourceGraphic"/>
    </filter>
    <filter id="路径_596-2" x="32.94" y="19.682" width="55.718" height="62.302" filterUnits="userSpaceOnUse">
      <feOffset dy="-3" input="SourceAlpha"/>
      <feGaussianBlur stdDeviation="1.5" result="blur-12"/>
      <feFlood flood-opacity="0.161" result="color-9"/>
      <feComposite operator="out" in="SourceGraphic" in2="blur-12"/>
      <feComposite operator="in" in="color-9"/>
      <feComposite operator="in" in2="SourceGraphic"/>
    </filter>
    <linearGradient id="linear-gradient-6" x1="0.563" y1="0.143" x2="0.5" y2="1" gradientUnits="objectBoundingBox">
      <stop offset="0" stop-color="#faea92"/>
      <stop offset="1" stop-color="#8eebb0"/>
    </linearGradient>
    <linearGradient id="linear-gradient-7" x1="0.911" y1="0.028" x2="0.354" y2="1.051" gradientUnits="objectBoundingBox">
      <stop offset="0" stop-color="#bef8ff"/>
      <stop offset="0.265" stop-color="#aaf6ff"/>
      <stop offset="0.487" stop-color="#95f4ff"/>
      <stop offset="0.623" stop-color="#9ee3eb"/>
      <stop offset="1" stop-color="#f5edc0"/>
    </linearGradient>
    <filter id="路径_17" x="98.964" y="17.726" width="60.322" height="59.818" filterUnits="userSpaceOnUse">
      <feOffset dy="5" input="SourceAlpha"/>
      <feGaussianBlur stdDeviation="3" result="blur-13"/>
      <feFlood flood-opacity="0.09"/>
      <feComposite operator="in" in2="blur-13"/>
      <feComposite in="SourceGraphic"/>
    </filter>
    <filter id="路径_17-2" x="98.964" y="17.726" width="60.322" height="59.818" filterUnits="userSpaceOnUse">
      <feOffset dy="-3" input="SourceAlpha"/>
      <feGaussianBlur stdDeviation="1.5" result="blur-14"/>
      <feFlood flood-opacity="0.161" result="color-10"/>
      <feComposite operator="out" in="SourceGraphic" in2="blur-14"/>
      <feComposite operator="in" in="color-10"/>
      <feComposite operator="in" in2="SourceGraphic"/>
    </filter>
    <filter id="路径_18">
      <feOffset dy="-3" input="SourceAlpha"/>
      <feGaussianBlur stdDeviation="1.5" result="blur-15"/>
      <feFlood flood-opacity="0.161" result="color-11"/>
      <feComposite operator="out" in="SourceGraphic" in2="blur-15"/>
      <feComposite operator="in" in="color-11"/>
      <feComposite operator="in" in2="SourceGraphic"/>
    </filter>
  </defs>
  <g id="组_352" data-name="组 352" transform="translate(-10529.085 447.378)">
    <path id="路径_630" data-name="路径 630" d="M-8.6,14.368c64.45-68.86,178.424-47.489,223.779,27.864,34.606,57.495,38.015,163.495,20.191,198.9S191.542,274.61,173.024,277.5s-27-3.952-44.636,7.561-8.5,41.267-46.664,48.6S-8.92,315.169-36.042,270.107C-81.4,194.754-73.046,83.227-8.6,14.368Z" transform="translate(10593.676 -416)" fill="url(#linear-gradient)"/>
    <g id="组_345" data-name="组 345" transform="translate(8975.676 -615)">
      <g id="组_331" data-name="组 331" transform="translate(-22.553 205.711) rotate(-7)">
        <path id="路径_617" data-name="路径 617" d="M5.22,0,4.692-2.016H2.4L1.884,0H.06L2.328-8.376H4.872L7.14,0ZM3.6-6.636H3.5L2.688-3.468H4.416Z" transform="matrix(0.951, -0.309, 0.309, 0.951, 1684.903, 247.818)" fill="#b7f8ff"/>
        <path id="路径_616" data-name="路径 616" d="M6.612,0H.576V-1.572L4.476-6.9H.7V-8.376h5.8V-6.8l-3.9,5.328h4.02Z" transform="translate(1678.356 253.389) rotate(-40)" fill="#97effa"/>
        <path id="路径_615" data-name="路径 615" d="M.9,0V-1.332H2.7V-7.044H.9V-8.376H6.3v1.332H4.5v5.712H6.3V0Z" transform="translate(1670.628 258.504) rotate(-34)" fill="#98ffdb"/>
        <path id="路径_619" data-name="路径 619" d="M.9,0V-1.332H2.7V-7.044H.9V-8.376H6.3v1.332H4.5v5.712H6.3V0Z" transform="translate(1699.06 244.353) rotate(9)" fill="#96ffc4"/>
        <path id="路径_614" data-name="路径 614" d="M5.172-3.732l.1-2.34H5.16L3.6-1.764,2.04-6.072H1.932l.1,2.34V0H.468V-8.376H2.592l1.032,2.82h.1l1.032-2.82h1.98V0H5.172Z" transform="matrix(0.719, -0.695, 0.695, 0.719, 1663.705, 264.724)" fill="#f7d9ab"/>
        <path id="路径_611" data-name="路径 611" d="M3.468.144A4.475,4.475,0,0,1,1.632-.2a3.3,3.3,0,0,1-1.26-.948L1.416-2.3a2.962,2.962,0,0,0,1,.744,2.734,2.734,0,0,0,1.11.24,1.474,1.474,0,0,0,.984-.288,1.031,1.031,0,0,0,.336-.828.85.85,0,0,0-.258-.672,1.734,1.734,0,0,0-.87-.324l-.876-.144A2.518,2.518,0,0,1,1.212-4.41a2.458,2.458,0,0,1-.5-1.566A2.318,2.318,0,0,1,1.5-7.854,3.351,3.351,0,0,1,3.72-8.52a4.379,4.379,0,0,1,1.692.3A3.051,3.051,0,0,1,6.576-7.4l-1.02,1.14a2.421,2.421,0,0,0-.792-.582,2.44,2.44,0,0,0-1.032-.21q-1.212,0-1.212,1a.78.78,0,0,0,.27.648,2,2,0,0,0,.882.324l.876.156a2.735,2.735,0,0,1,1.572.768A2.221,2.221,0,0,1,6.672-2.58a2.838,2.838,0,0,1-.2,1.086,2.339,2.339,0,0,1-.612.864,2.88,2.88,0,0,1-1,.57A4.268,4.268,0,0,1,3.468.144Z" transform="translate(1633.979 270.689) rotate(15)" fill="#b3f7b3"/>
        <path id="路径_610" data-name="路径 610" d="M2.46-8.376v5.3q0,.4.03.726a1.561,1.561,0,0,0,.144.558.812.812,0,0,0,.342.354,1.3,1.3,0,0,0,.624.126,1.3,1.3,0,0,0,.624-.126.812.812,0,0,0,.342-.354,1.561,1.561,0,0,0,.144-.558q.03-.33.03-.726v-5.3h1.8v5.064A8.824,8.824,0,0,1,6.426-1.8,2.491,2.491,0,0,1,5.988-.72a1.945,1.945,0,0,1-.9.648A4.3,4.3,0,0,1,3.6.144,4.3,4.3,0,0,1,2.112-.072a1.945,1.945,0,0,1-.9-.648A2.491,2.491,0,0,1,.774-1.8,8.824,8.824,0,0,1,.66-3.312V-8.376Z" transform="matrix(0.946, 0.326, -0.326, 0.946, 1625.399, 268.134)" fill="#b3f7cb"/>
        <path id="路径_609" data-name="路径 609" d="M3.792.144A2.854,2.854,0,0,1,1.3-.99a5.438,5.438,0,0,1-.81-3.2,5.438,5.438,0,0,1,.81-3.2A2.854,2.854,0,0,1,3.792-8.52a3.468,3.468,0,0,1,1.146.174A2.607,2.607,0,0,1,5.8-7.86,2.581,2.581,0,0,1,6.39-7.1a4.246,4.246,0,0,1,.366,1L5.076-5.7a4.506,4.506,0,0,0-.168-.552,1.505,1.505,0,0,0-.246-.432,1.044,1.044,0,0,0-.372-.282,1.272,1.272,0,0,0-.534-.1,1.082,1.082,0,0,0-1.038.57A3.37,3.37,0,0,0,2.412-4.92v1.464a3.37,3.37,0,0,0,.306,1.578,1.082,1.082,0,0,0,1.038.57,1.049,1.049,0,0,0,.906-.384,2.583,2.583,0,0,0,.414-.984l1.68.408a4.246,4.246,0,0,1-.366,1A2.661,2.661,0,0,1,5.8-.51a2.472,2.472,0,0,1-.858.486A3.582,3.582,0,0,1,3.792.144Z" transform="translate(1618.255 266.959) rotate(6)" fill="#e5faff"/>
        <path id="路径_621" data-name="路径 621" d="M2.4-5.568H2.268V0H.732V-8.376h2.16L4.8-2.808h.132V-8.376H6.468V0H4.308Z" transform="matrix(0.995, 0.105, -0.105, 0.995, 1715.582, 247.638)" fill="#a2ffc2"/>
        <path id="路径_612" data-name="路径 612" d="M4.5-6.9V0H2.7V-6.9H.288V-8.376H6.912V-6.9Z" transform="matrix(0.946, -0.326, 0.326, 0.946, 1645.799, 272.277)" fill="#dff49c"/>
        <path id="路径_618" data-name="路径 618" d="M4.5-6.9V0H2.7V-6.9H.288V-8.376H6.912V-6.9Z" transform="matrix(0.999, -0.052, 0.052, 0.999, 1691.463, 245.226)" fill="#a0ffe6"/>
        <path id="路径_613" data-name="路径 613" d="M3.6.144A2.816,2.816,0,0,1,1.122-1a5.505,5.505,0,0,1-.8-3.192,5.505,5.505,0,0,1,.8-3.192A2.816,2.816,0,0,1,3.6-8.52,2.816,2.816,0,0,1,6.078-7.38a5.505,5.505,0,0,1,.8,3.192A5.505,5.505,0,0,1,6.078-1,2.816,2.816,0,0,1,3.6.144Zm0-1.452a1.088,1.088,0,0,0,1.062-.57,3.521,3.521,0,0,0,.294-1.59V-4.92A3.488,3.488,0,0,0,4.662-6.5,1.088,1.088,0,0,0,3.6-7.068a1.088,1.088,0,0,0-1.062.57A3.488,3.488,0,0,0,2.244-4.92v1.464a3.488,3.488,0,0,0,.294,1.578A1.088,1.088,0,0,0,3.6-1.308Z" transform="translate(1655.719 269.287) rotate(-38)" fill="#fcf3a3"/>
        <path id="路径_620" data-name="路径 620" d="M3.6.144A2.816,2.816,0,0,1,1.122-1a5.505,5.505,0,0,1-.8-3.192,5.505,5.505,0,0,1,.8-3.192A2.816,2.816,0,0,1,3.6-8.52,2.816,2.816,0,0,1,6.078-7.38a5.505,5.505,0,0,1,.8,3.192A5.505,5.505,0,0,1,6.078-1,2.816,2.816,0,0,1,3.6.144Zm0-1.452a1.088,1.088,0,0,0,1.062-.57,3.521,3.521,0,0,0,.294-1.59V-4.92A3.488,3.488,0,0,0,4.662-6.5,1.088,1.088,0,0,0,3.6-7.068a1.088,1.088,0,0,0-1.062.57A3.488,3.488,0,0,0,2.244-4.92v1.464a3.488,3.488,0,0,0,.294,1.578A1.088,1.088,0,0,0,3.6-1.308Z" transform="translate(1706.827 245.98) rotate(10)" fill="#93ffb9"/>
      </g>
      <g id="组_330" data-name="组 330">
        <path id="路径_606" data-name="路径 606" d="M.96,0V-8.376H6.312V-6.9H2.76v1.92H6.192V-3.5H2.76v2.028H6.312V0Z" transform="translate(1614.927 181.975) rotate(-16)" fill="#bef1ff"/>
        <path id="路径_605" data-name="路径 605" d="M2.4-5.568H2.268V0H.732V-8.376h2.16L4.8-2.808h.132V-8.376H6.468V0H4.308Z" transform="translate(1604 182.388)" fill="#bef1ff"/>
        <path id="路径_607" data-name="路径 607" d="M2.4-5.568H2.268V0H.732V-8.376h2.16L4.8-2.808h.132V-8.376H6.468V0H4.308Z" transform="translate(1624.115 179.244) rotate(-22)" fill="#bef1ff"/>
        <path id="路径_603" data-name="路径 603" d="M.9,0V-1.332H2.7V-7.044H.9V-8.376H6.3v1.332H4.5v5.712H6.3V0Z" transform="translate(1594 184)" fill="#bef1ff"/>
        <path id="路径_602" data-name="路径 602" d="M4.5-6.9V0H2.7V-6.9H.288V-8.376H6.912V-6.9Z" transform="translate(1585.12 186.747) rotate(-14)" fill="#bef1ff"/>
        <path id="路径_608" data-name="路径 608" d="M4.5-6.9V0H2.7V-6.9H.288V-8.376H6.912V-6.9Z" transform="translate(1631.78 176.568) rotate(-5)" fill="#bef1ff"/>
        <path id="路径_601" data-name="路径 601" d="M2.4-5.568H2.268V0H.732V-8.376h2.16L4.8-2.808h.132V-8.376H6.468V0H4.308Z" transform="translate(1576.436 191.831) rotate(-17)" fill="#bef1ff"/>
        <path id="路径_600" data-name="路径 600" d="M3.6.144A2.816,2.816,0,0,1,1.122-1a5.505,5.505,0,0,1-.8-3.192,5.505,5.505,0,0,1,.8-3.192A2.816,2.816,0,0,1,3.6-8.52,2.816,2.816,0,0,1,6.078-7.38a5.505,5.505,0,0,1,.8,3.192A5.505,5.505,0,0,1,6.078-1,2.816,2.816,0,0,1,3.6.144Zm0-1.452a1.088,1.088,0,0,0,1.062-.57,3.521,3.521,0,0,0,.294-1.59V-4.92A3.488,3.488,0,0,0,4.662-6.5,1.088,1.088,0,0,0,3.6-7.068a1.088,1.088,0,0,0-1.062.57A3.488,3.488,0,0,0,2.244-4.92v1.464a3.488,3.488,0,0,0,.294,1.578A1.088,1.088,0,0,0,3.6-1.308Z" transform="translate(1569.56 197.694) rotate(-43)" fill="#bef1ff"/>
        <path id="路径_599" data-name="路径 599" d="M3.792.144A2.854,2.854,0,0,1,1.3-.99a5.438,5.438,0,0,1-.81-3.2,5.438,5.438,0,0,1,.81-3.2A2.854,2.854,0,0,1,3.792-8.52a3.468,3.468,0,0,1,1.146.174A2.607,2.607,0,0,1,5.8-7.86,2.581,2.581,0,0,1,6.39-7.1a4.246,4.246,0,0,1,.366,1L5.076-5.7a4.506,4.506,0,0,0-.168-.552,1.505,1.505,0,0,0-.246-.432,1.044,1.044,0,0,0-.372-.282,1.272,1.272,0,0,0-.534-.1,1.082,1.082,0,0,0-1.038.57A3.37,3.37,0,0,0,2.412-4.92v1.464a3.37,3.37,0,0,0,.306,1.578,1.082,1.082,0,0,0,1.038.57,1.049,1.049,0,0,0,.906-.384,2.583,2.583,0,0,0,.414-.984l1.68.408a4.246,4.246,0,0,1-.366,1A2.661,2.661,0,0,1,5.8-.51a2.472,2.472,0,0,1-.858.486A3.582,3.582,0,0,1,3.792.144Z" transform="translate(1566.888 205.866) rotate(-65)" fill="#bef1ff"/>
      </g>
      <g id="组_329" data-name="组 329" transform="translate(33.845 10.582)">
        <g data-type="innerShadowGroup">
          <path id="路径_595-2" data-name="路径 595" d="M2990.666,1603.788c-2.89.253-4.061,2.042-4.367,5.3s5.573,4.083,7.955,6.4,3.75,5.042,1.028,8.688-.545,5.212.331,5.633a13.5,13.5,0,0,0,8.838.742c4.815-1.052,7.452-1.767,9.549-4.177s.236-2.775.812-6.346,4.047-1.091,4.845-1.43.5-3.122-1.326-6.592-5.566-6.477-11.658-7.961-5.808-4.139-9.958-2.919S2993.556,1603.535,2990.666,1603.788Z" transform="translate(381.887 3401.194) rotate(-97)" fill="url(#linear-gradient-2)"/>
          <g transform="matrix(1, 0, 0, 1, 1519.56, 157.04)" filter="url(#路径_595)">
            <path id="路径_595-3" data-name="路径 595" d="M2990.666,1603.788c-2.89.253-4.061,2.042-4.367,5.3s5.573,4.083,7.955,6.4,3.75,5.042,1.028,8.688-.545,5.212.331,5.633a13.5,13.5,0,0,0,8.838.742c4.815-1.052,7.452-1.767,9.549-4.177s.236-2.775.812-6.346,4.047-1.091,4.845-1.43.5-3.122-1.326-6.592-5.566-6.477-11.658-7.961-5.808-4.139-9.958-2.919S2993.556,1603.535,2990.666,1603.788Z" transform="translate(-1137.68 3244.15) rotate(-97)" fill="#fff"/>
          </g>
        </g>
        <g data-type="innerShadowGroup">
          <g transform="matrix(1, 0, 0, 1, 1519.56, 157.04)" filter="url(#路径_598)">
            <path id="路径_598-3" data-name="路径 598" d="M570.817,1685.952c-2,.245-4.666.748-4.449,3.434s3.939,2.693,4.653,5.739-4.421,3.208-1.845,4.263a27.553,27.553,0,0,0,10.216,1.594c3.681-.086,9.189.073,11.827-1.594s1.1-1.835,1.712-4.263,3.241-2.764,2.035-5.117-3.044-4.922-8.5-5.311-6.681-.272-9.84.541S572.819,1685.707,570.817,1685.952Z" transform="translate(-1397.89 -829.07) rotate(-42)" fill="url(#linear-gradient-3)"/>
          </g>
          <g transform="matrix(1, 0, 0, 1, 1519.56, 157.04)" filter="url(#路径_598-2)">
            <path id="路径_598-4" data-name="路径 598" d="M570.817,1685.952c-2,.245-4.666.748-4.449,3.434s3.939,2.693,4.653,5.739-4.421,3.208-1.845,4.263a27.553,27.553,0,0,0,10.216,1.594c3.681-.086,9.189.073,11.827-1.594s1.1-1.835,1.712-4.263,3.241-2.764,2.035-5.117-3.044-4.922-8.5-5.311-6.681-.272-9.84.541S572.819,1685.707,570.817,1685.952Z" transform="translate(-1397.89 -829.07) rotate(-42)" fill="#fff"/>
          </g>
        </g>
        <circle id="椭圆_233" data-name="椭圆 233" cx="32.5" cy="32.5" r="32.5" transform="translate(1550.105 181)" fill="url(#radial-gradient)"/>
        <g data-type="innerShadowGroup">
          <path id="路径_594-2" data-name="路径 594" d="M909.566,1670.2c.832,1.427.194,2.243,0,3.68s1.472,2.44,2.314,2.828,2.992.941,8.014,1.324a45.963,45.963,0,0,0,10.579-.211c2.53-.357,4.309-.955,5.351-2.016s-.233-1.857,1.954-3.9,2.982-1.366,2.267-3.082-1-4.432-5.545-5.394-5.053,1.5-9.693,1.56-1.824-3.224-5.729-3.925a10.134,10.134,0,0,0-7.2,1.816s-5.191,2.845-4.874,4.836S908.734,1668.768,909.566,1670.2Z" transform="translate(1438.54 -1667.156) rotate(25)" fill="url(#linear-gradient-4)"/>
          <g transform="matrix(1, 0, 0, 1, 1519.56, 157.04)" filter="url(#路径_594)">
            <path id="路径_594-3" data-name="路径 594" d="M909.566,1670.2c.832,1.427.194,2.243,0,3.68s1.472,2.44,2.314,2.828,2.992.941,8.014,1.324a45.963,45.963,0,0,0,10.579-.211c2.53-.357,4.309-.955,5.351-2.016s-.233-1.857,1.954-3.9,2.982-1.366,2.267-3.082-1-4.432-5.545-5.394-5.053,1.5-9.693,1.56-1.824-3.224-5.729-3.925a10.134,10.134,0,0,0-7.2,1.816s-5.191,2.845-4.874,4.836S908.734,1668.768,909.566,1670.2Z" transform="translate(-81.02 -1824.2) rotate(25)" fill="#fff"/>
          </g>
        </g>
        <g id="组_327" data-name="组 327" transform="translate(-346.137 445.86) rotate(-19)">
          <g id="组_5" data-name="组 5" transform="translate(1912.706 368.405)">
            <g data-type="innerShadowGroup">
              <g transform="matrix(0.95, 0.33, -0.33, 0.95, -54.62, -34.08)" filter="url(#路径_19)">
                <path id="路径_19-3" data-name="路径 19" d="M1915.268,1610.026c-.891,1.032-1.1,1.458.2,2.946s3.5.952,3.565,3.14-3.933,3.54,1.162,4.8,6.195,2.349,13.284,1.86,10.055-.259,13.2-1.86,3.393-1.125,3.29-3.266,2.588-2.956,3.151-4.671,1.939-2.882-2.09-4.13c-1.043-.323-3.075-5.078-4.352-5.5-2.059-.675-5.289,4.8-8.412,4.676-4.214-.163,1.1-2.281-4.788-2.6s-5.814-4.268-9.129-3.028-4.163,6.175-5.316,6.45S1916.159,1608.993,1915.268,1610.026Z" transform="translate(-2267.31 -871.89) rotate(-19)" fill="url(#linear-gradient-5)"/>
              </g>
              <g transform="matrix(0.95, 0.33, -0.33, 0.95, -54.62, -34.08)" filter="url(#路径_19-2)">
                <path id="路径_19-4" data-name="路径 19" d="M1915.268,1610.026c-.891,1.032-1.1,1.458.2,2.946s3.5.952,3.565,3.14-3.933,3.54,1.162,4.8,6.195,2.349,13.284,1.86,10.055-.259,13.2-1.86,3.393-1.125,3.29-3.266,2.588-2.956,3.151-4.671,1.939-2.882-2.09-4.13c-1.043-.323-3.075-5.078-4.352-5.5-2.059-.675-5.289,4.8-8.412,4.676-4.214-.163,1.1-2.281-4.788-2.6s-5.814-4.268-9.129-3.028-4.163,6.175-5.316,6.45S1916.159,1608.993,1915.268,1610.026Z" transform="translate(-2267.31 -871.89) rotate(-19)" fill="#fff"/>
              </g>
            </g>
            <g data-type="innerShadowGroup">
              <path id="路径_20-2" data-name="路径 20" d="M1931.821,1847.073c-.5.193-1.511.166-1.529,1.407s-.783,2.766,0,3.245,3.464.848,4.432,1.046,2.6.208,2.864-.369a4.554,4.554,0,0,0,0-2.057c-.046-.641-1.642-.978-2.019-1.865a4.4,4.4,0,0,0-2.587-1.809C1932.66,1846.756,1931.821,1847.073,1931.821,1847.073Z" transform="translate(-1925.276 -1821.047)" fill="#e3fdff"/>
              <g transform="matrix(0.95, 0.33, -0.33, 0.95, -54.62, -34.08)" filter="url(#路径_20)">
                <path id="路径_20-3" data-name="路径 20" d="M1931.821,1847.073c-.5.193-1.511.166-1.529,1.407s-.783,2.766,0,3.245,3.464.848,4.432,1.046,2.6.208,2.864-.369a4.554,4.554,0,0,0,0-2.057c-.046-.641-1.642-.978-2.019-1.865a4.4,4.4,0,0,0-2.587-1.809C1932.66,1846.756,1931.821,1847.073,1931.821,1847.073Z" transform="translate(-2350.52 -1080.59) rotate(-19)" fill="#fff"/>
              </g>
            </g>
            <g data-type="innerShadowGroup">
              <path id="路径_21-2" data-name="路径 21" d="M2020.1,1878.99c-.575.966-1.181,2.546-1.006,3.12s1.415.024,1.5,1.224.256,1.094-.493,1.773-.952.612-1.006,1.5,1.547,3.19,2.279,3.216,3.346.413,4.832,0,2.94-.394,3.689-.78.639.473,2.218-.82,2.245-1.76,1.5-2.364-3.16-1.281-3.061-3.06,2.7-1.629-.652-2.823-1.816-.9-3.689-.987-5.611,0-5.611,0Z" transform="translate(-2002.731 -1849.103)" fill="#e3fdff"/>
              <g transform="matrix(0.95, 0.33, -0.33, 0.95, -54.62, -34.08)" filter="url(#路径_21)">
                <path id="路径_21-3" data-name="路径 21" d="M2020.1,1878.99c-.575.966-1.181,2.546-1.006,3.12s1.415.024,1.5,1.224.256,1.094-.493,1.773-.952.612-1.006,1.5,1.547,3.19,2.279,3.216,3.346.413,4.832,0,2.94-.394,3.689-.78.639.473,2.218-.82,2.245-1.76,1.5-2.364-3.16-1.281-3.061-3.06,2.7-1.629-.652-2.823-1.816-.9-3.689-.987-5.611,0-5.611,0Z" transform="translate(-2432.89 -1081.9) rotate(-19)" fill="#fff"/>
              </g>
            </g>
            <g data-type="innerShadowGroup">
              <path id="路径_22-2" data-name="路径 22" d="M2134.774,1848.54c-1.214.59-1,.7-1.368,2.147s-1.112,2.967-.744,3.6,4.1,1.245,4.433,1.3a14.193,14.193,0,0,0,4.036-2.287c.564-.651,1.724-2.581,0-4.091s-1.183-1.771-2.559-1.646-2.277-.651-3.023,0S2134.774,1848.54,2134.774,1848.54Z" transform="translate(-2101.361 -1821.604)" fill="#e3fdff"/>
              <g transform="matrix(0.95, 0.33, -0.33, 0.95, -54.62, -34.08)" filter="url(#路径_22)">
                <path id="路径_22-3" data-name="路径 22" d="M2134.774,1848.54c-1.214.59-1,.7-1.368,2.147s-1.112,2.967-.744,3.6,4.1,1.245,4.433,1.3a14.193,14.193,0,0,0,4.036-2.287c.564-.651,1.724-2.581,0-4.091s-1.183-1.771-2.559-1.646-2.277-.651-3.023,0S2134.774,1848.54,2134.774,1848.54Z" transform="translate(-2517.19 -1023.79) rotate(-19)" fill="#fff"/>
              </g>
            </g>
            <g data-type="innerShadowGroup">
              <path id="路径_23-2" data-name="路径 23" d="M2193.3,1745.762c-1.591.359-2.751.2-3.274,1.815s-1.3,1.647-1.011,3.079-1.28,3.061,1.993,3.847,4.178,1.073,5.793-.825.653-3.665,0-5.109-1.591-2.9-2.587-2.807S2193.3,1745.762,2193.3,1745.762Z" transform="translate(-2150.312 -1729.87)" fill="#e3fdff"/>
              <g transform="matrix(0.95, 0.33, -0.33, 0.95, -54.62, -34.08)" filter="url(#路径_23)">
                <path id="路径_23-3" data-name="路径 23" d="M2193.3,1745.762c-1.591.359-2.751.2-3.274,1.815s-1.3,1.647-1.011,3.079-1.28,3.061,1.993,3.847,4.178,1.073,5.793-.825.653-3.665,0-5.109-1.591-2.9-2.587-2.807S2193.3,1745.762,2193.3,1745.762Z" transform="translate(-2533.61 -921.11) rotate(-19)" fill="#fff"/>
              </g>
            </g>
          </g>
        </g>
        <g data-type="innerShadowGroup">
          <g transform="matrix(1, 0, 0, 1, 1519.56, 157.04)" filter="url(#路径_596)">
            <path id="路径_596-3" data-name="路径 596" d="M1383.788,1626.274c-.291,1.3-5.922-2.764-6.242.546s-3.225,3.626-6.594,6.224-4.8,4.543-10.506,4.621-8.171-2.446-8.109-5.357.793-.523-.323-3.693-5.849,3.139-5.471-3.338,4.374-4.682,5.041-6.91.972-3.173,2.841-4.032a15.4,15.4,0,0,1,8.307-1.052c3.063.536,3.97.464,6.316,2.174s4.936.514,5.714,2.992,2.842-1.837,4.284-.953,3.4,4.018,4.373,4.554S1384.079,1624.97,1383.788,1626.274Z" transform="translate(985.34 -1860.53) rotate(66)" fill="#8febb0"/>
          </g>
          <g transform="matrix(1, 0, 0, 1, 1519.56, 157.04)" filter="url(#路径_596-2)">
            <path id="路径_596-4" data-name="路径 596" d="M1383.788,1626.274c-.291,1.3-5.922-2.764-6.242.546s-3.225,3.626-6.594,6.224-4.8,4.543-10.506,4.621-8.171-2.446-8.109-5.357.793-.523-.323-3.693-5.849,3.139-5.471-3.338,4.374-4.682,5.041-6.91.972-3.173,2.841-4.032a15.4,15.4,0,0,1,8.307-1.052c3.063.536,3.97.464,6.316,2.174s4.936.514,5.714,2.992,2.842-1.837,4.284-.953,3.4,4.018,4.373,4.554S1384.079,1624.97,1383.788,1626.274Z" transform="translate(985.34 -1860.53) rotate(66)" fill="#fff"/>
          </g>
        </g>
        <path id="路径_597" data-name="路径 597" d="M2460.9,687.422c1.547-1.088,4.27-2.2,6.1-3.956s.313-6.053,4.395-5.714,3.085,6.006,6.123,6.72,4.849,1.938,4.151,2.039-4.131,1.655-6.937,1.873S2460.9,687.422,2460.9,687.422Z" transform="matrix(0.719, 0.695, -0.695, 0.719, 274.322, -2006.669)" fill="url(#linear-gradient-6)"/>
        <g id="组_328" data-name="组 328" transform="translate(227.36 -845.804) rotate(29)">
          <g data-type="innerShadowGroup">
            <g transform="matrix(0.87, -0.48, 0.48, 0.87, 1616.38, 250.63)" filter="url(#路径_17)">
              <path id="路径_17-3" data-name="路径 17" d="M22.566,7.982c5.191-1.162,6.432.13,9.694,2.394,4.372,3.033,3.765,1.294,3.7,5.272-.12,6.919-10.3,16.75-17.513,16.542-3.918-.113.221-6.826-3.621-8.768s-3.771-.944-11.1.262,3.31-4.1,2.321-8.669S17.375,9.144,22.566,7.982Z" transform="translate(129.09 15.43) rotate(43)" fill="url(#linear-gradient-7)"/>
            </g>
            <g transform="matrix(0.87, -0.48, 0.48, 0.87, 1616.38, 250.63)" filter="url(#路径_17-2)">
              <path id="路径_17-4" data-name="路径 17" d="M22.566,7.982c5.191-1.162,6.432.13,9.694,2.394,4.372,3.033,3.765,1.294,3.7,5.272-.12,6.919-10.3,16.75-17.513,16.542-3.918-.113.221-6.826-3.621-8.768s-3.771-.944-11.1.262,3.31-4.1,2.321-8.669S17.375,9.144,22.566,7.982Z" transform="translate(129.09 15.43) rotate(43)" fill="#fff"/>
            </g>
          </g>
          <g data-type="innerShadowGroup">
            <path id="路径_18-2" data-name="路径 18" d="M.721.191C-.451.855-.564,4.993,3.244,5.545s5.6-1.653,6.05-3.221S7.482.952,5.991.725,4.4,1.782,3.285,1.275,1.894-.473.721.191Z" transform="translate(1740.307 227.704) rotate(49)" fill="#ffe3b7"/>
            <g transform="matrix(0.87, -0.48, 0.48, 0.87, 1616.38, 250.63)" filter="url(#路径_18)">
              <path id="路径_18-3" data-name="路径 18" d="M.721.191C-.451.855-.564,4.993,3.244,5.545s5.6-1.653,6.05-3.221S7.482.952,5.991.725,4.4,1.782,3.285,1.275,1.894-.473.721.191Z" transform="translate(119.51 40.03) rotate(78)" fill="#fff"/>
            </g>
          </g>
          <path id="路径_107" data-name="路径 107" d="M1745.452,220.393c-.948,1.129.376,2.424,5.294,4.518s6.855,4.663,7.917,1.737-.191-6.072-4.123-6.255S1746.4,219.263,1745.452,220.393Z" fill="#52a8ff"/>
        </g>
      </g>
    </g>
    <path id="路径_632" data-name="路径 632" d="M3.816.144A2.758,2.758,0,0,1,1.386-.984,5.56,5.56,0,0,1,.6-4.188a5.565,5.565,0,0,1,.786-3.2A2.753,2.753,0,0,1,3.816-8.52a3.282,3.282,0,0,1,1.1.168,2.611,2.611,0,0,1,.822.462,2.488,2.488,0,0,1,.576.708,4.04,4.04,0,0,1,.36.906l-1.44.408a4.738,4.738,0,0,0-.192-.54,1.651,1.651,0,0,0-.27-.438,1.089,1.089,0,0,0-.4-.288,1.469,1.469,0,0,0-.576-.1,1.239,1.239,0,0,0-1.17.624,3.463,3.463,0,0,0-.354,1.7v1.44a3.463,3.463,0,0,0,.354,1.7,1.239,1.239,0,0,0,1.17.624,1.469,1.469,0,0,0,.576-.1,1.089,1.089,0,0,0,.4-.288,1.651,1.651,0,0,0,.27-.438,4.738,4.738,0,0,0,.192-.54l1.44.408a4.04,4.04,0,0,1-.36.906,2.488,2.488,0,0,1-.576.708,2.611,2.611,0,0,1-.822.462A3.282,3.282,0,0,1,3.816.144ZM8.064-1.212h1.968V-7.668H8.064V-8.88h3.5v7.668h1.98V0H8.064Zm10.32-5.94a1.039,1.039,0,0,1-.762-.228.762.762,0,0,1-.222-.552V-8.22a.762.762,0,0,1,.222-.552A1.039,1.039,0,0,1,18.384-9a1.039,1.039,0,0,1,.762.228.762.762,0,0,1,.222.552v.288a.762.762,0,0,1-.222.552A1.039,1.039,0,0,1,18.384-7.152Zm-2.808,5.94h2.04V-4.98h-2.04V-6.192h3.576v4.98h1.9V0H15.576ZM25.44.144a3.368,3.368,0,0,1-1.272-.228,2.623,2.623,0,0,1-.954-.648,2.87,2.87,0,0,1-.6-1.02A4.05,4.05,0,0,1,22.4-3.1a4.05,4.05,0,0,1,.21-1.344,2.87,2.87,0,0,1,.6-1.02,2.634,2.634,0,0,1,.948-.648,3.322,3.322,0,0,1,1.266-.228,2.769,2.769,0,0,1,1.584.408,2.608,2.608,0,0,1,.912,1.08L26.736-4.2a1.615,1.615,0,0,0-.474-.642,1.3,1.3,0,0,0-.834-.246,1.359,1.359,0,0,0-1.05.4,1.529,1.529,0,0,0-.366,1.08V-2.58a1.534,1.534,0,0,0,.366,1.074,1.379,1.379,0,0,0,1.074.4,1.417,1.417,0,0,0,.882-.252,1.837,1.837,0,0,0,.534-.672l1.152.684A2.593,2.593,0,0,1,27.078-.27,2.934,2.934,0,0,1,25.44.144ZM29.724-8.88H31.26v5.208h.072l.9-.984,1.524-1.536h1.788l-2.46,2.436L35.808,0H33.972l-1.98-2.88-.732.7V0H29.724ZM47.22,0a1.672,1.672,0,0,1-1.308-.468,1.746,1.746,0,0,1-.42-1.212v-3.3h-1.8V-6.192h1.224a.75.75,0,0,0,.528-.15.728.728,0,0,0,.156-.534v-1.5h1.428v2.184h2.52V-4.98h-2.52v3.768h2.52V0ZM51.3-8.88h1.536V-5.1h.06a2.245,2.245,0,0,1,.63-.87,1.756,1.756,0,0,1,1.182-.366,1.942,1.942,0,0,1,1.482.606A2.436,2.436,0,0,1,56.76-4V0H55.224V-3.78q0-1.344-1.164-1.344a1.7,1.7,0,0,0-.456.06,1.212,1.212,0,0,0-.39.186.958.958,0,0,0-.276.306.863.863,0,0,0-.1.432V0H51.3ZM61.344.144a3.566,3.566,0,0,1-1.32-.228,2.6,2.6,0,0,1-.966-.648,2.809,2.809,0,0,1-.594-1.014,4.1,4.1,0,0,1-.2-1.338,4.089,4.089,0,0,1,.21-1.356,2.919,2.919,0,0,1,.594-1.02,2.6,2.6,0,0,1,.93-.648,3.165,3.165,0,0,1,1.23-.228,3.161,3.161,0,0,1,1.212.222,2.56,2.56,0,0,1,.918.63,2.805,2.805,0,0,1,.582.984,3.788,3.788,0,0,1,.2,1.272v.5H59.8v.156a1.457,1.457,0,0,0,.42,1.086,1.6,1.6,0,0,0,1.176.414,1.981,1.981,0,0,0,.99-.234,2.131,2.131,0,0,0,.69-.618l.876.876a2.724,2.724,0,0,1-.978.84A3.388,3.388,0,0,1,61.344.144Zm-.108-5.352a1.389,1.389,0,0,0-1.044.408,1.485,1.485,0,0,0-.4,1.08v.084H62.6v-.108a1.512,1.512,0,0,0-.366-1.068A1.3,1.3,0,0,0,61.236-5.208ZM75.84.144a3.368,3.368,0,0,1-1.272-.228,2.623,2.623,0,0,1-.954-.648,2.87,2.87,0,0,1-.6-1.02A4.05,4.05,0,0,1,72.8-3.1a4.05,4.05,0,0,1,.21-1.344,2.87,2.87,0,0,1,.6-1.02,2.634,2.634,0,0,1,.948-.648,3.322,3.322,0,0,1,1.266-.228,2.769,2.769,0,0,1,1.584.408,2.608,2.608,0,0,1,.912,1.08L77.136-4.2a1.615,1.615,0,0,0-.474-.642,1.3,1.3,0,0,0-.834-.246,1.359,1.359,0,0,0-1.05.4,1.529,1.529,0,0,0-.366,1.08V-2.58a1.534,1.534,0,0,0,.366,1.074,1.379,1.379,0,0,0,1.074.4,1.417,1.417,0,0,0,.882-.252,1.837,1.837,0,0,0,.534-.672l1.152.684A2.593,2.593,0,0,1,77.478-.27,2.934,2.934,0,0,1,75.84.144Zm6.96,0a3.322,3.322,0,0,1-1.266-.228,2.634,2.634,0,0,1-.948-.648,2.87,2.87,0,0,1-.6-1.02,4.05,4.05,0,0,1-.21-1.344,4.05,4.05,0,0,1,.21-1.344,2.87,2.87,0,0,1,.6-1.02,2.634,2.634,0,0,1,.948-.648A3.322,3.322,0,0,1,82.8-6.336a3.335,3.335,0,0,1,1.26.228,2.623,2.623,0,0,1,.954.648,2.87,2.87,0,0,1,.6,1.02,4.05,4.05,0,0,1,.21,1.344,4.05,4.05,0,0,1-.21,1.344,2.87,2.87,0,0,1-.6,1.02,2.623,2.623,0,0,1-.954.648A3.335,3.335,0,0,1,82.8.144Zm0-1.176a1.375,1.375,0,0,0,1.044-.4,1.649,1.649,0,0,0,.384-1.182v-.96a1.649,1.649,0,0,0-.384-1.182,1.375,1.375,0,0,0-1.044-.4,1.376,1.376,0,0,0-1.044.4,1.649,1.649,0,0,0-.384,1.182v.96a1.649,1.649,0,0,0,.384,1.182A1.376,1.376,0,0,0,82.8-1.032ZM87.3,0V-6.192h1.536V-5.1h.06a2.245,2.245,0,0,1,.63-.87,1.756,1.756,0,0,1,1.182-.366,1.942,1.942,0,0,1,1.482.606A2.436,2.436,0,0,1,92.76-4V0H91.224V-3.78q0-1.344-1.164-1.344a1.7,1.7,0,0,0-.456.06,1.212,1.212,0,0,0-.39.186.958.958,0,0,0-.276.306.863.863,0,0,0-.1.432V0ZM97.62,0a1.672,1.672,0,0,1-1.308-.468,1.746,1.746,0,0,1-.42-1.212v-3.3h-1.8V-6.192h1.224a.75.75,0,0,0,.528-.15A.728.728,0,0,0,96-6.876v-1.5h1.428v2.184h2.52V-4.98h-2.52v3.768h2.52V0Zm7.164-7.152a1.039,1.039,0,0,1-.762-.228.762.762,0,0,1-.222-.552V-8.22a.762.762,0,0,1,.222-.552A1.039,1.039,0,0,1,104.784-9a1.039,1.039,0,0,1,.762.228.762.762,0,0,1,.222.552v.288a.762.762,0,0,1-.222.552A1.039,1.039,0,0,1,104.784-7.152Zm-2.808,5.94h2.04V-4.98h-2.04V-6.192h3.576v4.98h1.9V0h-5.472ZM108.9,0V-6.192h1.536V-5.1h.06a2.245,2.245,0,0,1,.63-.87,1.756,1.756,0,0,1,1.182-.366,1.942,1.942,0,0,1,1.482.606A2.436,2.436,0,0,1,114.36-4V0h-1.536V-3.78q0-1.344-1.164-1.344a1.7,1.7,0,0,0-.456.06,1.212,1.212,0,0,0-.39.186.958.958,0,0,0-.276.306.863.863,0,0,0-.1.432V0Zm10.044.144a3.566,3.566,0,0,1-1.32-.228,2.6,2.6,0,0,1-.966-.648,2.809,2.809,0,0,1-.594-1.014,4.1,4.1,0,0,1-.2-1.338,4.089,4.089,0,0,1,.21-1.356,2.919,2.919,0,0,1,.594-1.02,2.6,2.6,0,0,1,.93-.648,3.165,3.165,0,0,1,1.23-.228,3.161,3.161,0,0,1,1.212.222,2.56,2.56,0,0,1,.918.63,2.8,2.8,0,0,1,.582.984,3.788,3.788,0,0,1,.2,1.272v.5H117.4v.156a1.457,1.457,0,0,0,.42,1.086,1.6,1.6,0,0,0,1.176.414,1.981,1.981,0,0,0,.99-.234,2.13,2.13,0,0,0,.69-.618l.876.876a2.724,2.724,0,0,1-.978.84A3.388,3.388,0,0,1,118.944.144Zm-.108-5.352a1.389,1.389,0,0,0-1.044.408,1.485,1.485,0,0,0-.4,1.08v.084H120.2v-.108a1.512,1.512,0,0,0-.366-1.068A1.3,1.3,0,0,0,118.836-5.208ZM123.3,0V-6.192h1.536V-5.1h.06a2.245,2.245,0,0,1,.63-.87,1.756,1.756,0,0,1,1.182-.366,1.942,1.942,0,0,1,1.482.606A2.436,2.436,0,0,1,128.76-4V0h-1.536V-3.78q0-1.344-1.164-1.344a1.7,1.7,0,0,0-.456.06,1.212,1.212,0,0,0-.39.186.958.958,0,0,0-.276.306.863.863,0,0,0-.1.432V0Zm10.32,0a1.672,1.672,0,0,1-1.308-.468,1.746,1.746,0,0,1-.42-1.212v-3.3h-1.8V-6.192h1.224a.75.75,0,0,0,.528-.15A.728.728,0,0,0,132-6.876v-1.5h1.428v2.184h2.52V-4.98h-2.52v3.768h2.52V0Z" transform="translate(10657.904 -302)" fill="#11884d"/>
    <path id="路径_633" data-name="路径 633" d="M5.256-3.876,5.328-6.3H5.22L3.6-1.992,1.98-6.3H1.872l.072,2.424V0H.576V-8.376H2.448L3.612-5.292H3.7L4.872-8.376H6.624V0H5.256ZM10.8.144A3.322,3.322,0,0,1,9.534-.084a2.634,2.634,0,0,1-.948-.648,2.87,2.87,0,0,1-.6-1.02A4.05,4.05,0,0,1,7.776-3.1a4.05,4.05,0,0,1,.21-1.344,2.87,2.87,0,0,1,.6-1.02,2.634,2.634,0,0,1,.948-.648A3.322,3.322,0,0,1,10.8-6.336a3.335,3.335,0,0,1,1.26.228,2.623,2.623,0,0,1,.954.648,2.87,2.87,0,0,1,.6,1.02,4.05,4.05,0,0,1,.21,1.344,4.05,4.05,0,0,1-.21,1.344,2.87,2.87,0,0,1-.6,1.02,2.623,2.623,0,0,1-.954.648A3.335,3.335,0,0,1,10.8.144Zm0-1.176a1.375,1.375,0,0,0,1.044-.4,1.649,1.649,0,0,0,.384-1.182v-.96a1.649,1.649,0,0,0-.384-1.182,1.375,1.375,0,0,0-1.044-.4,1.375,1.375,0,0,0-1.044.4,1.649,1.649,0,0,0-.384,1.182v.96a1.649,1.649,0,0,0,.384,1.182A1.375,1.375,0,0,0,10.8-1.032ZM17.076,0l-2.22-6.192h1.608l.828,2.628.7,2.28h.084l.7-2.28L19.6-6.192h1.548L18.924,0Zm8.268.144a3.566,3.566,0,0,1-1.32-.228,2.6,2.6,0,0,1-.966-.648,2.809,2.809,0,0,1-.594-1.014,4.1,4.1,0,0,1-.2-1.338,4.089,4.089,0,0,1,.21-1.356,2.919,2.919,0,0,1,.594-1.02,2.6,2.6,0,0,1,.93-.648,3.165,3.165,0,0,1,1.23-.228,3.161,3.161,0,0,1,1.212.222,2.56,2.56,0,0,1,.918.63,2.805,2.805,0,0,1,.582.984,3.788,3.788,0,0,1,.2,1.272v.5H23.8v.156a1.457,1.457,0,0,0,.42,1.086,1.6,1.6,0,0,0,1.176.414,1.981,1.981,0,0,0,.99-.234,2.13,2.13,0,0,0,.69-.618l.876.876a2.724,2.724,0,0,1-.978.84A3.388,3.388,0,0,1,25.344.144Zm-.108-5.352a1.389,1.389,0,0,0-1.044.408,1.485,1.485,0,0,0-.4,1.08v.084H26.6v-.108a1.512,1.512,0,0,0-.366-1.068A1.3,1.3,0,0,0,25.236-5.208ZM36.444,0V-6.192h1.272v.852h.072a2.015,2.015,0,0,1,.414-.7.983.983,0,0,1,.762-.294,1.018,1.018,0,0,1,.744.27,1.35,1.35,0,0,1,.36.762h.06a2,2,0,0,1,.462-.726,1.177,1.177,0,0,1,.87-.306,1.063,1.063,0,0,1,.984.492,2.829,2.829,0,0,1,.3,1.452V0h-1.26V-4.212a1.392,1.392,0,0,0-.15-.756.512.512,0,0,0-.45-.216.638.638,0,0,0-.462.18.737.737,0,0,0-.186.552V0H38.964V-4.212a1.44,1.44,0,0,0-.144-.756.5.5,0,0,0-.444-.216A.654.654,0,0,0,37.9-5a.737.737,0,0,0-.186.552V0ZM46.8.144a3.322,3.322,0,0,1-1.266-.228,2.634,2.634,0,0,1-.948-.648,2.87,2.87,0,0,1-.6-1.02,4.05,4.05,0,0,1-.21-1.344,4.05,4.05,0,0,1,.21-1.344,2.87,2.87,0,0,1,.6-1.02,2.634,2.634,0,0,1,.948-.648A3.322,3.322,0,0,1,46.8-6.336a3.335,3.335,0,0,1,1.26.228,2.623,2.623,0,0,1,.954.648,2.87,2.87,0,0,1,.6,1.02,4.05,4.05,0,0,1,.21,1.344,4.05,4.05,0,0,1-.21,1.344,2.87,2.87,0,0,1-.6,1.02,2.623,2.623,0,0,1-.954.648A3.335,3.335,0,0,1,46.8.144Zm0-1.176a1.375,1.375,0,0,0,1.044-.4,1.649,1.649,0,0,0,.384-1.182v-.96a1.649,1.649,0,0,0-.384-1.182,1.375,1.375,0,0,0-1.044-.4,1.375,1.375,0,0,0-1.044.4,1.649,1.649,0,0,0-.384,1.182v.96a1.649,1.649,0,0,0,.384,1.182A1.375,1.375,0,0,0,46.8-1.032Zm8.364-.06H55.1a2.245,2.245,0,0,1-.63.87,1.756,1.756,0,0,1-1.182.366A1.942,1.942,0,0,1,51.81-.462,2.436,2.436,0,0,1,51.24-2.2v-4h1.536v3.78q0,1.344,1.164,1.344a1.717,1.717,0,0,0,.45-.06,1.2,1.2,0,0,0,.4-.186.958.958,0,0,0,.276-.306.863.863,0,0,0,.1-.432v-4.14H56.7V0H55.164ZM61.176.144a4.468,4.468,0,0,1-1.764-.318,2.86,2.86,0,0,1-1.164-.858l.9-.816a2.723,2.723,0,0,0,.882.648,2.757,2.757,0,0,0,1.158.228,1.912,1.912,0,0,0,.924-.192.629.629,0,0,0,.348-.588.464.464,0,0,0-.234-.456,2.073,2.073,0,0,0-.618-.18l-1-.156a5.237,5.237,0,0,1-.75-.174,2.225,2.225,0,0,1-.648-.318,1.5,1.5,0,0,1-.45-.522,1.639,1.639,0,0,1-.168-.774,1.713,1.713,0,0,1,.726-1.488,3.4,3.4,0,0,1,2-.516,4.125,4.125,0,0,1,1.53.252,2.723,2.723,0,0,1,1.038.708l-.8.888a2.43,2.43,0,0,0-.7-.51,2.448,2.448,0,0,0-1.11-.222q-1.176,0-1.176.732a.474.474,0,0,0,.24.462,2.027,2.027,0,0,0,.624.186l.984.156a5.156,5.156,0,0,1,.762.174,2.225,2.225,0,0,1,.648.318,1.513,1.513,0,0,1,.45.516,1.6,1.6,0,0,1,.168.768A1.77,1.77,0,0,1,63.234-.4,3.4,3.4,0,0,1,61.176.144Zm7.368,0a3.566,3.566,0,0,1-1.32-.228,2.6,2.6,0,0,1-.966-.648,2.809,2.809,0,0,1-.594-1.014,4.1,4.1,0,0,1-.2-1.338,4.089,4.089,0,0,1,.21-1.356,2.919,2.919,0,0,1,.594-1.02,2.6,2.6,0,0,1,.93-.648,3.165,3.165,0,0,1,1.23-.228,3.161,3.161,0,0,1,1.212.222,2.56,2.56,0,0,1,.918.63,2.8,2.8,0,0,1,.582.984,3.788,3.788,0,0,1,.2,1.272v.5H67v.156a1.457,1.457,0,0,0,.42,1.086,1.6,1.6,0,0,0,1.176.414,1.981,1.981,0,0,0,.99-.234,2.13,2.13,0,0,0,.69-.618l.876.876a2.724,2.724,0,0,1-.978.84A3.388,3.388,0,0,1,68.544.144Zm-.108-5.352a1.389,1.389,0,0,0-1.044.408A1.485,1.485,0,0,0,67-3.72v.084H69.8v-.108a1.512,1.512,0,0,0-.366-1.068A1.3,1.3,0,0,0,68.436-5.208ZM85.08,0a1.237,1.237,0,0,1-.87-.282,1.223,1.223,0,0,1-.366-.786h-.06a1.543,1.543,0,0,1-.66.894,2.187,2.187,0,0,1-1.212.318,2.154,2.154,0,0,1-1.488-.492,1.738,1.738,0,0,1-.552-1.368q0-1.872,2.748-1.872h1.092V-4a1.235,1.235,0,0,0-.288-.888,1.252,1.252,0,0,0-.936-.3,1.751,1.751,0,0,0-.948.228,2.14,2.14,0,0,0-.612.588l-.876-.744a2.289,2.289,0,0,1,.93-.87,3.425,3.425,0,0,1,1.662-.354,2.921,2.921,0,0,1,1.914.57,2.075,2.075,0,0,1,.69,1.7v2.916h.732V0ZM82.428-.912a1.555,1.555,0,0,0,.918-.258.815.815,0,0,0,.366-.7V-2.7H82.656q-1.26,0-1.26.792v.24a.643.643,0,0,0,.276.564A1.305,1.305,0,0,0,82.428-.912Zm4.872-.3h1.536V-4.98H87.3V-6.192h3.072V-4.5h.1a3.323,3.323,0,0,1,.234-.63,2.006,2.006,0,0,1,.384-.54,1.8,1.8,0,0,1,.57-.378,2.034,2.034,0,0,1,.8-.144h.672v1.44H91.86a1.451,1.451,0,0,0-1.092.408,1.437,1.437,0,0,0-.4,1.044v2.088H92.52V0H87.3ZM97.2.144a3.322,3.322,0,0,1-1.266-.228,2.634,2.634,0,0,1-.948-.648,2.87,2.87,0,0,1-.6-1.02,4.05,4.05,0,0,1-.21-1.344,4.05,4.05,0,0,1,.21-1.344,2.87,2.87,0,0,1,.6-1.02,2.634,2.634,0,0,1,.948-.648A3.322,3.322,0,0,1,97.2-6.336a3.335,3.335,0,0,1,1.26.228,2.623,2.623,0,0,1,.954.648,2.87,2.87,0,0,1,.6,1.02,4.05,4.05,0,0,1,.21,1.344,4.05,4.05,0,0,1-.21,1.344,2.87,2.87,0,0,1-.6,1.02,2.623,2.623,0,0,1-.954.648A3.335,3.335,0,0,1,97.2.144Zm0-1.176a1.375,1.375,0,0,0,1.044-.4,1.649,1.649,0,0,0,.384-1.182v-.96a1.649,1.649,0,0,0-.384-1.182,1.375,1.375,0,0,0-1.044-.4,1.376,1.376,0,0,0-1.044.4,1.649,1.649,0,0,0-.384,1.182v.96a1.649,1.649,0,0,0,.384,1.182A1.376,1.376,0,0,0,97.2-1.032Zm8.364-.06h-.06a2.245,2.245,0,0,1-.63.87,1.756,1.756,0,0,1-1.182.366,1.942,1.942,0,0,1-1.482-.606,2.436,2.436,0,0,1-.57-1.734v-4h1.536v3.78q0,1.344,1.164,1.344a1.717,1.717,0,0,0,.45-.06,1.2,1.2,0,0,0,.4-.186.958.958,0,0,0,.276-.306.863.863,0,0,0,.1-.432v-4.14H107.1V0h-1.536ZM108.9,0V-6.192h1.536V-5.1h.06a2.245,2.245,0,0,1,.63-.87,1.756,1.756,0,0,1,1.182-.366,1.942,1.942,0,0,1,1.482.606A2.436,2.436,0,0,1,114.36-4V0h-1.536V-3.78q0-1.344-1.164-1.344a1.7,1.7,0,0,0-.456.06,1.212,1.212,0,0,0-.39.186.958.958,0,0,0-.276.306.863.863,0,0,0-.1.432V0Zm11.136-1.092h-.084a2.28,2.28,0,0,1-.69.9A1.852,1.852,0,0,1,118.1.144a2.318,2.318,0,0,1-.966-.2,1.967,1.967,0,0,1-.75-.6,2.879,2.879,0,0,1-.48-1.014A5.423,5.423,0,0,1,115.74-3.1a3.835,3.835,0,0,1,.648-2.436,2.094,2.094,0,0,1,1.716-.8A1.852,1.852,0,0,1,119.262-6a2.28,2.28,0,0,1,.69.9h.084V-8.88h1.536V0h-1.536Zm-1.284.012a1.827,1.827,0,0,0,.5-.066,1.282,1.282,0,0,0,.408-.192.9.9,0,0,0,.276-.324,1,1,0,0,0,.1-.462V-4.068a1,1,0,0,0-.1-.462.9.9,0,0,0-.276-.324,1.282,1.282,0,0,0-.408-.192,1.827,1.827,0,0,0-.5-.066,1.322,1.322,0,0,0-1.038.408,1.61,1.61,0,0,0-.366,1.116V-2.6a1.61,1.61,0,0,0,.366,1.116A1.322,1.322,0,0,0,118.752-1.08Z" transform="matrix(0.998, -0.07, 0.07, 0.998, 10612.494, -234.015)" fill="#11884d"/>
    <path id="路径_634" data-name="路径 634" d="M3.816.144A2.758,2.758,0,0,1,1.386-.984,5.56,5.56,0,0,1,.6-4.188a5.565,5.565,0,0,1,.786-3.2A2.753,2.753,0,0,1,3.816-8.52a3.282,3.282,0,0,1,1.1.168,2.611,2.611,0,0,1,.822.462,2.488,2.488,0,0,1,.576.708,4.04,4.04,0,0,1,.36.906l-1.44.408a4.738,4.738,0,0,0-.192-.54,1.651,1.651,0,0,0-.27-.438,1.089,1.089,0,0,0-.4-.288,1.469,1.469,0,0,0-.576-.1,1.239,1.239,0,0,0-1.17.624,3.463,3.463,0,0,0-.354,1.7v1.44a3.463,3.463,0,0,0,.354,1.7,1.239,1.239,0,0,0,1.17.624,1.469,1.469,0,0,0,.576-.1,1.089,1.089,0,0,0,.4-.288,1.651,1.651,0,0,0,.27-.438,4.738,4.738,0,0,0,.192-.54l1.44.408a4.04,4.04,0,0,1-.36.906,2.488,2.488,0,0,1-.576.708,2.611,2.611,0,0,1-.822.462A3.282,3.282,0,0,1,3.816.144ZM8.064-1.212h1.968V-7.668H8.064V-8.88h3.5v7.668h1.98V0H8.064Zm10.32-5.94a1.039,1.039,0,0,1-.762-.228.762.762,0,0,1-.222-.552V-8.22a.762.762,0,0,1,.222-.552A1.039,1.039,0,0,1,18.384-9a1.039,1.039,0,0,1,.762.228.762.762,0,0,1,.222.552v.288a.762.762,0,0,1-.222.552A1.039,1.039,0,0,1,18.384-7.152Zm-2.808,5.94h2.04V-4.98h-2.04V-6.192h3.576v4.98h1.9V0H15.576ZM25.44.144a3.368,3.368,0,0,1-1.272-.228,2.623,2.623,0,0,1-.954-.648,2.87,2.87,0,0,1-.6-1.02A4.05,4.05,0,0,1,22.4-3.1a4.05,4.05,0,0,1,.21-1.344,2.87,2.87,0,0,1,.6-1.02,2.634,2.634,0,0,1,.948-.648,3.322,3.322,0,0,1,1.266-.228,2.769,2.769,0,0,1,1.584.408,2.608,2.608,0,0,1,.912,1.08L26.736-4.2a1.615,1.615,0,0,0-.474-.642,1.3,1.3,0,0,0-.834-.246,1.359,1.359,0,0,0-1.05.4,1.529,1.529,0,0,0-.366,1.08V-2.58a1.534,1.534,0,0,0,.366,1.074,1.379,1.379,0,0,0,1.074.4,1.417,1.417,0,0,0,.882-.252,1.837,1.837,0,0,0,.534-.672l1.152.684A2.593,2.593,0,0,1,27.078-.27,2.934,2.934,0,0,1,25.44.144ZM29.724-8.88H31.26v5.208h.072l.9-.984,1.524-1.536h1.788l-2.46,2.436L35.808,0H33.972l-1.98-2.88-.732.7V0H29.724ZM49.08,0a1.237,1.237,0,0,1-.87-.282,1.223,1.223,0,0,1-.366-.786h-.06a1.543,1.543,0,0,1-.66.894,2.187,2.187,0,0,1-1.212.318,2.154,2.154,0,0,1-1.488-.492,1.738,1.738,0,0,1-.552-1.368q0-1.872,2.748-1.872h1.092V-4a1.235,1.235,0,0,0-.288-.888,1.252,1.252,0,0,0-.936-.3,1.751,1.751,0,0,0-.948.228,2.139,2.139,0,0,0-.612.588l-.876-.744a2.289,2.289,0,0,1,.93-.87,3.425,3.425,0,0,1,1.662-.354,2.921,2.921,0,0,1,1.914.57,2.075,2.075,0,0,1,.69,1.7v2.916h.732V0ZM46.428-.912a1.555,1.555,0,0,0,.918-.258.815.815,0,0,0,.366-.7V-2.7H46.656q-1.26,0-1.26.792v.24a.643.643,0,0,0,.276.564A1.305,1.305,0,0,0,46.428-.912ZM51.3,0V-6.192h1.536V-5.1h.06a2.245,2.245,0,0,1,.63-.87,1.756,1.756,0,0,1,1.182-.366,1.942,1.942,0,0,1,1.482.606A2.436,2.436,0,0,1,56.76-4V0H55.224V-3.78q0-1.344-1.164-1.344a1.7,1.7,0,0,0-.456.06,1.212,1.212,0,0,0-.39.186.958.958,0,0,0-.276.306.863.863,0,0,0-.1.432V0ZM62.436-1.092h-.084a2.28,2.28,0,0,1-.69.9A1.852,1.852,0,0,1,60.5.144a2.318,2.318,0,0,1-.966-.2,1.967,1.967,0,0,1-.75-.6,2.879,2.879,0,0,1-.48-1.014A5.423,5.423,0,0,1,58.14-3.1a3.835,3.835,0,0,1,.648-2.436,2.094,2.094,0,0,1,1.716-.8A1.852,1.852,0,0,1,61.662-6a2.28,2.28,0,0,1,.69.9h.084V-8.88h1.536V0H62.436Zm-1.284.012a1.827,1.827,0,0,0,.5-.066,1.282,1.282,0,0,0,.408-.192.9.9,0,0,0,.276-.324,1,1,0,0,0,.1-.462V-4.068a1,1,0,0,0-.1-.462.9.9,0,0,0-.276-.324,1.282,1.282,0,0,0-.408-.192,1.827,1.827,0,0,0-.5-.066,1.322,1.322,0,0,0-1.038.408,1.61,1.61,0,0,0-.366,1.116V-2.6a1.61,1.61,0,0,0,.366,1.116A1.322,1.322,0,0,0,61.152-1.08Zm15.684-.012h-.084a2.28,2.28,0,0,1-.69.9A1.852,1.852,0,0,1,74.9.144a2.318,2.318,0,0,1-.966-.2,1.967,1.967,0,0,1-.75-.6,2.879,2.879,0,0,1-.48-1.014A5.423,5.423,0,0,1,72.54-3.1a3.835,3.835,0,0,1,.648-2.436,2.094,2.094,0,0,1,1.716-.8A1.852,1.852,0,0,1,76.062-6a2.28,2.28,0,0,1,.69.9h.084V-8.88h1.536V0H76.836Zm-1.284.012a1.827,1.827,0,0,0,.5-.066,1.282,1.282,0,0,0,.408-.192.9.9,0,0,0,.276-.324,1,1,0,0,0,.1-.462V-4.068a1,1,0,0,0-.1-.462.9.9,0,0,0-.276-.324,1.282,1.282,0,0,0-.408-.192,1.827,1.827,0,0,0-.5-.066,1.322,1.322,0,0,0-1.038.408,1.61,1.61,0,0,0-.366,1.116V-2.6a1.61,1.61,0,0,0,.366,1.116A1.322,1.322,0,0,0,75.552-1.08ZM80.1-1.212h1.536V-4.98H80.1V-6.192h3.072V-4.5h.1a3.323,3.323,0,0,1,.234-.63,2.006,2.006,0,0,1,.384-.54,1.8,1.8,0,0,1,.57-.378,2.034,2.034,0,0,1,.8-.144h.672v1.44H84.66a1.451,1.451,0,0,0-1.092.408,1.437,1.437,0,0,0-.4,1.044v2.088H85.32V0H80.1ZM90,.144a3.322,3.322,0,0,1-1.266-.228,2.634,2.634,0,0,1-.948-.648,2.87,2.87,0,0,1-.6-1.02,4.05,4.05,0,0,1-.21-1.344,4.05,4.05,0,0,1,.21-1.344,2.87,2.87,0,0,1,.6-1.02,2.634,2.634,0,0,1,.948-.648A3.322,3.322,0,0,1,90-6.336a3.335,3.335,0,0,1,1.26.228,2.623,2.623,0,0,1,.954.648,2.87,2.87,0,0,1,.6,1.02,4.05,4.05,0,0,1,.21,1.344,4.05,4.05,0,0,1-.21,1.344,2.87,2.87,0,0,1-.6,1.02,2.623,2.623,0,0,1-.954.648A3.335,3.335,0,0,1,90,.144Zm0-1.176a1.375,1.375,0,0,0,1.044-.4,1.649,1.649,0,0,0,.384-1.182v-.96a1.649,1.649,0,0,0-.384-1.182A1.375,1.375,0,0,0,90-5.16a1.376,1.376,0,0,0-1.044.4,1.649,1.649,0,0,0-.384,1.182v.96a1.649,1.649,0,0,0,.384,1.182A1.376,1.376,0,0,0,90-1.032Zm4.428-5.16h1.536V-5.1h.084a2.28,2.28,0,0,1,.69-.9A1.852,1.852,0,0,1,97.9-6.336a2.318,2.318,0,0,1,.966.2,1.967,1.967,0,0,1,.75.6,2.879,2.879,0,0,1,.48,1.014A5.423,5.423,0,0,1,100.26-3.1a5.423,5.423,0,0,1-.168,1.428,2.879,2.879,0,0,1-.48,1.014,1.967,1.967,0,0,1-.75.6,2.318,2.318,0,0,1-.966.2,1.852,1.852,0,0,1-1.158-.336,2.28,2.28,0,0,1-.69-.9h-.084V2.4H94.428Zm2.82,5.112a1.322,1.322,0,0,0,1.038-.408A1.61,1.61,0,0,0,98.652-2.6v-.984A1.61,1.61,0,0,0,98.286-4.7a1.322,1.322,0,0,0-1.038-.408,1.568,1.568,0,0,0-.906.258.887.887,0,0,0-.378.786v1.944a.887.887,0,0,0,.378.786A1.568,1.568,0,0,0,97.248-1.08Z" transform="translate(10664.244 -166.461) rotate(-11)" fill="#11884d"/>
    <g id="组_346" data-name="组 346" transform="translate(9012.904 -613)">
      <path id="路径_624" data-name="路径 624" d="M7.949-.39C14.3-.39,20.291,6.285,21.254,12S21,23.686,13.712,24.832.979,17.964,0,12,1.6-.39,7.949-.39Z" transform="translate(1616 295)" fill="#c7ffe4"/>
      <path id="路径_625" data-name="路径 625" d="M10604.462,299.744c.021.519,7.391-1.807,7.228-2.225s-2.861-8.028-3.511-8.252-3.021,2.023-3.717,5.25A10.982,10.982,0,0,0,10604.462,299.744Z" transform="translate(-8987 7)" fill="#10884e"/>
      <path id="路径_626" data-name="路径 626" d="M10611.422,301.063c-.345.837-7.47-3.2-7.166-4.033s3.008-8.116,3.712-7.763,2.946,3.524,3.449,6.138A12.087,12.087,0,0,1,10611.422,301.063Z" transform="translate(-6082.368 7592.088) rotate(-45)" fill="#10884e" opacity="0.107"/>
      <line id="直线_27" data-name="直线 27" x2="3" y2="2" transform="translate(1610.5 298.5)" fill="none" stroke="#10884e" stroke-linecap="round" stroke-width="1"/>
      <line id="直线_28" data-name="直线 28" y1="1" x2="3" transform="translate(1610.5 302.5)" fill="none" stroke="#10884e" stroke-linecap="round" stroke-width="1"/>
    </g>
    <g id="组_348" data-name="组 348" transform="translate(9079.266 380.985) rotate(-30)">
      <path id="路径_624-2" data-name="路径 624" d="M7.949-.39C14.3-.39,20.291,6.285,21.254,12S21,23.686,13.712,24.832.979,17.964,0,12,1.6-.39,7.949-.39Z" transform="translate(1616 295)" fill="#c7ffe4"/>
      <path id="路径_625-2" data-name="路径 625" d="M10604.462,299.744c.021.519,7.391-1.807,7.228-2.225s-2.861-8.028-3.511-8.252-3.021,2.023-3.717,5.25A10.982,10.982,0,0,0,10604.462,299.744Z" transform="translate(-8987 7)" fill="#10884e"/>
      <path id="路径_626-2" data-name="路径 626" d="M10611.422,301.063c-.345.837-7.47-3.2-7.166-4.033s3.008-8.116,3.712-7.763,2.946,3.524,3.449,6.138A12.087,12.087,0,0,1,10611.422,301.063Z" transform="translate(-6082.368 7592.088) rotate(-45)" fill="#10884e" opacity="0.107"/>
      <line id="直线_27-2" data-name="直线 27" x2="3" y2="2" transform="translate(1610.5 298.5)" fill="none" stroke="#10884e" stroke-linecap="round" stroke-width="1"/>
      <line id="直线_28-2" data-name="直线 28" y1="1" x2="3" transform="translate(1610.5 302.5)" fill="none" stroke="#10884e" stroke-linecap="round" stroke-width="1"/>
    </g>
    <g id="组_347" data-name="组 347" transform="matrix(0.998, -0.07, 0.07, 0.998, 8947.85, -483.187)">
      <g id="组_339" data-name="组 339" transform="translate(7.267 -34.595) rotate(3)">
        <path id="路径_624-3" data-name="路径 624" d="M7.949-.39C14.3-.39,20.291,6.285,21.254,12S21,23.686,13.712,24.832.979,17.964,0,12,1.6-.39,7.949-.39Z" transform="translate(1616 295)" fill="#c7ffe4"/>
        <path id="路径_625-3" data-name="路径 625" d="M10604.462,299.744c.021.519,7.391-1.807,7.228-2.225s-2.861-8.028-3.511-8.252-3.021,2.023-3.717,5.25A10.982,10.982,0,0,0,10604.462,299.744Z" transform="translate(-8987 7)" fill="#10884e" opacity="0.11"/>
        <path id="路径_626-3" data-name="路径 626" d="M10611.422,301.063c-.345.837-7.47-3.2-7.166-4.033s3.008-8.116,3.712-7.763,2.946,3.524,3.449,6.138A12.087,12.087,0,0,1,10611.422,301.063Z" transform="translate(-6082.368 7592.088) rotate(-45)" fill="#10884e" opacity="0.107"/>
        <path id="路径_627" data-name="路径 627" d="M3,2" transform="translate(1610.5 298.5)" fill="none" stroke="#10884e" stroke-linecap="round" stroke-width="1"/>
      </g>
      <g id="组_340" data-name="组 340" transform="translate(2.267 -30.595) rotate(3)" opacity="0.454">
        <path id="路径_624-4" data-name="路径 624" d="M7.949-.39C14.3-.39,20.291,6.285,21.254,12S21,23.686,13.712,24.832.979,17.964,0,12,1.6-.39,7.949-.39Z" transform="translate(1616 295)" fill="#c7ffe4"/>
        <path id="路径_625-4" data-name="路径 625" d="M10604.462,299.744c.021.519,7.391-1.807,7.228-2.225s-2.861-8.028-3.511-8.252-3.021,2.023-3.717,5.25A10.982,10.982,0,0,0,10604.462,299.744Z" transform="translate(-8987 7)" fill="#10884e" opacity="0.11"/>
        <path id="路径_626-4" data-name="路径 626" d="M10611.422,301.063c-.345.837-7.47-3.2-7.166-4.033s3.008-8.116,3.712-7.763,2.946,3.524,3.449,6.138A12.087,12.087,0,0,1,10611.422,301.063Z" transform="translate(-6082.368 7592.088) rotate(-45)" fill="#10884e" opacity="0.107"/>
        <path id="路径_627-2" data-name="路径 627" d="M3,2" transform="translate(1610.5 298.5)" fill="none" stroke="#10884e" stroke-linecap="round" stroke-width="1"/>
      </g>
    </g>
    <path id="路径_628" data-name="路径 628" d="M10584.942,359.653a5.485,5.485,0,0,0,1.443,4.3" transform="translate(753.565 3749.773) rotate(-24)" fill="none" stroke="#10884e" stroke-linecap="round" stroke-width="1"/>
    <path id="路径_629" data-name="路径 629" d="M10584.979,359.653a10.682,10.682,0,0,0,2.82,8.386" transform="translate(750.564 3750.191) rotate(-24)" fill="none" stroke="#10884e" stroke-linecap="round" stroke-width="1"/>
  </g>
</svg>
