<svg xmlns="http://www.w3.org/2000/svg" width="93.01" height="89.706" viewBox="0 0 93.01 89.706">
  <g id="组_142" data-name="组 142" transform="translate(-477.566 -454.662)">
    <path id="路径_262" data-name="路径 262" d="M10.481,0c5.788,0,10.481,6.94,10.481,15.5S16.269,36.738,10.481,36.738,0,24.06,0,15.5,4.692,0,10.481,0Z" transform="matrix(0.999, 0.035, -0.035, 0.999, 515.113, 454.662)" fill="#ffad7b"/>
    <path id="路径_263" data-name="路径 263" d="M-3.528.955C-1.876-1.426,8.245,6.016,8.245,13.381S7.936,28.1,5.419,28.1.554,19.481.554,12.116-5.18,3.337-3.528.955Z" transform="translate(507.281 462.849) rotate(-10)" fill="#ffad7b"/>
    <path id="路径_264" data-name="路径 264" d="M.3,27.145c1.652,2.382,11.773-5.061,11.773-12.426S11.764,0,9.246,0,4.381,8.62,4.381,15.985-1.353,24.764.3,27.145Z" transform="translate(540.22 492.299) rotate(-166)" fill="#ffad7b"/>
    <path id="路径_262-2" data-name="路径 262" d="M10.481,0c5.788,0,10.481,6.94,10.481,15.5S16.269,36.738,10.481,36.738,0,24.06,0,15.5,4.692,0,10.481,0Z" transform="translate(564.448 477.174) rotate(73)" fill="#ffad7b"/>
    <path id="路径_263-2" data-name="路径 263" d="M-3.528.955C-1.876-1.426,8.245,6.016,8.245,13.381S7.936,28.1,5.419,28.1.554,19.481.554,12.116-5.18,3.337-3.528.955Z" transform="matrix(0.485, 0.875, -0.875, 0.485, 554.156, 472.434)" fill="#ffad7b"/>
    <path id="路径_264-2" data-name="路径 264" d="M.3,27.145c1.652,2.382,11.773-5.061,11.773-12.426S11.764,0,9.246,0,4.381,8.62,4.381,15.985-1.353,24.764.3,27.145Z" transform="matrix(-0.087, -0.996, 0.996, -0.087, 537.035, 513.167)" fill="#ffad7b"/>
    <path id="路径_262-3" data-name="路径 262" d="M10.481,0c5.788,0,10.481,6.94,10.481,15.5S16.269,36.738,10.481,36.738,0,24.06,0,15.5,4.692,0,10.481,0Z" transform="matrix(-0.839, 0.545, -0.545, -0.839, 557.571, 532.951)" fill="#ffad7b"/>
    <path id="路径_263-3" data-name="路径 263" d="M-3.528.955C-1.876-1.426,8.245,6.016,8.245,13.381S7.936,28.1,5.419,28.1.554,19.481.554,12.116-5.18,3.337-3.528.955Z" transform="translate(559.291 521.752) rotate(135)" fill="#ffad7b"/>
    <path id="路径_264-3" data-name="路径 264" d="M.3,27.145c1.652,2.382,11.773-5.061,11.773-12.426S11.764,0,9.246,0,4.381,8.62,4.381,15.985-1.353,24.764.3,27.145Z" transform="translate(515.417 516.522) rotate(-21)" fill="#ffad7b"/>
    <path id="路径_262-4" data-name="路径 262" d="M10.481,0c5.788,0,10.481,6.94,10.481,15.5S16.269,36.738,10.481,36.738,0,24.06,0,15.5,4.692,0,10.481,0Z" transform="translate(504.246 542.807) rotate(-142)" fill="#ffad7b"/>
    <path id="路径_263-4" data-name="路径 263" d="M-3.528.955C-1.876-1.426,8.245,6.016,8.245,13.381S7.936,28.1,5.419,28.1.554,19.481.554,12.116-5.18,3.337-3.528.955Z" transform="translate(515.396 540.788) rotate(-154)" fill="#ffad7b"/>
    <path id="路径_264-4" data-name="路径 264" d="M.3,27.145c1.652,2.382,11.773-5.061,11.773-12.426S11.764,0,9.246,0,4.381,8.62,4.381,15.985-1.353,24.764.3,27.145Z" transform="matrix(0.643, 0.766, -0.766, 0.643, 506.057, 497.601)" fill="#ffad7b"/>
    <path id="路径_262-5" data-name="路径 262" d="M10.481,0c5.788,0,10.481,6.94,10.481,15.5S16.269,36.738,10.481,36.738,0,24.06,0,15.5,4.692,0,10.481,0Z" transform="translate(477.566 495.597) rotate(-71)" fill="#ffad7b"/>
    <path id="路径_263-5" data-name="路径 263" d="M-3.528.955C-1.876-1.426,8.245,6.016,8.245,13.381S7.936,28.1,5.419,28.1.554,19.481.554,12.116-5.18,3.337-3.528.955Z" transform="matrix(0.122, -0.993, 0.993, 0.122, 483.106, 505.481)" fill="#ffad7b"/>
    <path id="路径_264-5" data-name="路径 264" d="M.3,27.145c1.652,2.382,11.773-5.061,11.773-12.426S11.764,0,9.246,0,4.381,8.62,4.381,15.985-1.353,24.764.3,27.145Z" transform="translate(520.899 482.591) rotate(121)" fill="#ffad7b"/>
    <text id="δ" transform="translate(515 512)" fill="#be5516" font-size="33" font-family="Menlo-Bold, Menlo" font-weight="700"><tspan x="0" y="0">δ</tspan></text>
  </g>
</svg>
