<svg xmlns="http://www.w3.org/2000/svg" xmlns:xlink="http://www.w3.org/1999/xlink" width="63" height="63" viewBox="0 0 63 63">
  <defs>
    <filter id="路径_99">
      <feOffset dy="-1" input="SourceAlpha"/>
      <feGaussianBlur stdDeviation="5" result="blur"/>
      <feFlood flood-opacity="0.161" result="color"/>
      <feComposite operator="out" in="SourceGraphic" in2="blur"/>
      <feComposite operator="in" in="color"/>
      <feComposite operator="in" in2="SourceGraphic"/>
    </filter>
    <linearGradient id="linear-gradient" x1="0.222" y1="0.35" x2="0.937" y2="0.95" gradientUnits="objectBoundingBox">
      <stop offset="0" stop-color="#ffef96"/>
      <stop offset="0.633" stop-color="#e2f3a7"/>
      <stop offset="1" stop-color="#9efdcd"/>
    </linearGradient>
    <filter id="路径_104">
      <feOffset dy="-3" input="SourceAlpha"/>
      <feGaussianBlur stdDeviation="1.5" result="blur-2"/>
      <feFlood flood-opacity="0.161" result="color-2"/>
      <feComposite operator="out" in="SourceGraphic" in2="blur-2"/>
      <feComposite operator="in" in="color-2"/>
      <feComposite operator="in" in2="SourceGraphic"/>
    </filter>
    <filter id="路径_115">
      <feOffset dx="-0.5" dy="-0.5" input="SourceAlpha"/>
      <feGaussianBlur stdDeviation="0.25" result="blur-3"/>
      <feFlood flood-opacity="0.161" result="color-3"/>
      <feComposite operator="out" in="SourceGraphic" in2="blur-3"/>
      <feComposite operator="in" in="color-3"/>
      <feComposite operator="in" in2="SourceGraphic"/>
    </filter>
    <filter id="路径_116">
      <feOffset dx="-0.5" dy="-0.5" input="SourceAlpha"/>
      <feGaussianBlur stdDeviation="0.25" result="blur-4"/>
      <feFlood flood-opacity="0.161" result="color-4"/>
      <feComposite operator="out" in="SourceGraphic" in2="blur-4"/>
      <feComposite operator="in" in="color-4"/>
      <feComposite operator="in" in2="SourceGraphic"/>
    </filter>
    <filter id="路径_117">
      <feOffset dx="-0.5" dy="-0.5" input="SourceAlpha"/>
      <feGaussianBlur stdDeviation="0.25" result="blur-5"/>
      <feFlood flood-opacity="0.161" result="color-5"/>
      <feComposite operator="out" in="SourceGraphic" in2="blur-5"/>
      <feComposite operator="in" in="color-5"/>
      <feComposite operator="in" in2="SourceGraphic"/>
    </filter>
    <filter id="路径_118">
      <feOffset dx="-0.5" dy="-0.5" input="SourceAlpha"/>
      <feGaussianBlur stdDeviation="0.25" result="blur-6"/>
      <feFlood flood-opacity="0.161" result="color-6"/>
      <feComposite operator="out" in="SourceGraphic" in2="blur-6"/>
      <feComposite operator="in" in="color-6"/>
      <feComposite operator="in" in2="SourceGraphic"/>
    </filter>
    <filter id="路径_121">
      <feOffset dx="-0.5" dy="-0.5" input="SourceAlpha"/>
      <feGaussianBlur stdDeviation="0.25" result="blur-7"/>
      <feFlood flood-opacity="0.161" result="color-7"/>
      <feComposite operator="out" in="SourceGraphic" in2="blur-7"/>
      <feComposite operator="in" in="color-7"/>
      <feComposite operator="in" in2="SourceGraphic"/>
    </filter>
    <filter id="路径_119">
      <feOffset dx="-0.5" dy="-0.5" input="SourceAlpha"/>
      <feGaussianBlur stdDeviation="0.25" result="blur-8"/>
      <feFlood flood-opacity="0.161" result="color-8"/>
      <feComposite operator="out" in="SourceGraphic" in2="blur-8"/>
      <feComposite operator="in" in="color-8"/>
      <feComposite operator="in" in2="SourceGraphic"/>
    </filter>
    <linearGradient id="linear-gradient-2" x1="0.135" y1="0.663" x2="0.899" y2="0.535" gradientUnits="objectBoundingBox">
      <stop offset="0" stop-color="#a6b470"/>
      <stop offset="1" stop-color="#beb165"/>
    </linearGradient>
    <filter id="路径_120">
      <feOffset dx="-0.5" dy="-0.5" input="SourceAlpha"/>
      <feGaussianBlur stdDeviation="0.25" result="blur-9"/>
      <feFlood flood-opacity="0.161" result="color-9"/>
      <feComposite operator="out" in="SourceGraphic" in2="blur-9"/>
      <feComposite operator="in" in="color-9"/>
      <feComposite operator="in" in2="SourceGraphic"/>
    </filter>
  </defs>
  <g id="组_111" data-name="组 111" transform="translate(-363 -239)">
    <circle id="椭圆_65" data-name="椭圆 65" cx="31.5" cy="31.5" r="31.5" transform="translate(363 239)" fill="none"/>
    <g data-type="innerShadowGroup">
      <path id="路径_99-2" data-name="路径 99" d="M24.21,0C37.53,0,46.344,9.054,46.344,16.031s-12,9.269-25.322,9.269S2.644,21.266,2.644,14.289,10.891,0,24.21,0Z" transform="translate(369.731 262.163)" fill="#f3ff95"/>
      <g transform="matrix(1, 0, 0, 1, 363, 239)" filter="url(#路径_99)">
        <path id="路径_99-3" data-name="路径 99" d="M24.21,0C37.53,0,46.344,9.054,46.344,16.031s-12,9.269-25.322,9.269S2.644,21.266,2.644,14.289,10.891,0,24.21,0Z" transform="translate(6.73 23.16)" fill="#fff"/>
      </g>
    </g>
    <g data-type="innerShadowGroup">
      <path id="路径_104-2" data-name="路径 104" d="M910.2,1672.489c1.038,1.78.243,2.8,0,4.592s1.836,3.045,2.887,3.529,3.733,1.174,10,1.652a57.335,57.335,0,0,0,13.2-.263c3.157-.445,5.376-1.191,6.677-2.516s-.291-2.317,2.438-4.867,3.72-1.7,2.829-3.846-1.251-5.53-6.918-6.73-6.3,1.87-12.093,1.946-2.276-4.023-7.148-4.9-8.981,2.266-8.981,2.266-6.477,3.55-6.081,6.033S909.166,1670.708,910.2,1672.489Z" transform="translate(-532.462 -1401.095)" fill="url(#linear-gradient)"/>
      <g transform="matrix(1, 0, 0, 1, 363, 239)" filter="url(#路径_104)">
        <path id="路径_104-3" data-name="路径 104" d="M910.2,1672.489c1.038,1.78.243,2.8,0,4.592s1.836,3.045,2.887,3.529,3.733,1.174,10,1.652a57.335,57.335,0,0,0,13.2-.263c3.157-.445,5.376-1.191,6.677-2.516s-.291-2.317,2.438-4.867,3.72-1.7,2.829-3.846-1.251-5.53-6.918-6.73-6.3,1.87-12.093,1.946-2.276-4.023-7.148-4.9-8.981,2.266-8.981,2.266-6.477,3.55-6.081,6.033S909.166,1670.708,910.2,1672.489Z" transform="translate(-895.46 -1640.1)" fill="#fff"/>
      </g>
    </g>
    <g data-type="innerShadowGroup">
      <path id="路径_115-2" data-name="路径 115" d="M2378.148,684.1c-.1-1.8-2.646-4.286-.617-5.973s2.066,1.092,1.762,2.077a16.427,16.427,0,0,0-.386,3.011A1,1,0,0,1,2378.148,684.1Z" transform="translate(-1992 -420.232)" fill="#f8c1c1"/>
      <g transform="matrix(1, 0, 0, 1, 363, 239)" filter="url(#路径_115)">
        <path id="路径_115-3" data-name="路径 115" d="M2378.148,684.1c-.1-1.8-2.646-4.286-.617-5.973s2.066,1.092,1.762,2.077a16.427,16.427,0,0,0-.386,3.011A1,1,0,0,1,2378.148,684.1Z" transform="translate(-2355 -659.23)" fill="#fff"/>
      </g>
    </g>
    <g id="组_105" data-name="组 105">
      <g data-type="innerShadowGroup">
        <path id="路径_116-2" data-name="路径 116" d="M2378.148,684.1c-.1-1.8-2.646-4.286-.617-5.973s2.066,1.092,1.762,2.077a16.427,16.427,0,0,0-.386,3.011A1,1,0,0,1,2378.148,684.1Z" transform="translate(-1819.643 -821.212) rotate(10)" fill="#40deaf"/>
        <g transform="matrix(1, 0, 0, 1, 363, 239)" filter="url(#路径_116)">
          <path id="路径_116-3" data-name="路径 116" d="M2378.148,684.1c-.1-1.8-2.646-4.286-.617-5.973s2.066,1.092,1.762,2.077a16.427,16.427,0,0,0-.386,3.011A1,1,0,0,1,2378.148,684.1Z" transform="translate(-2182.64 -1060.21) rotate(10)" fill="#fff"/>
        </g>
      </g>
      <g data-type="innerShadowGroup">
        <path id="路径_117-2" data-name="路径 117" d="M2377.529,681.227c-.056-1-1.475-2.39-.344-3.331s1.152.609.982,1.158a9.172,9.172,0,0,0-.215,1.679A.561.561,0,0,1,2377.529,681.227Z" transform="translate(17.24 -2180.592) rotate(65)" fill="#40deaf"/>
        <g transform="matrix(1, 0, 0, 1, 363, 239)" filter="url(#路径_117)">
          <path id="路径_117-3" data-name="路径 117" d="M2377.529,681.227c-.056-1-1.475-2.39-.344-3.331s1.152.609.982,1.158a9.172,9.172,0,0,0-.215,1.679A.561.561,0,0,1,2377.529,681.227Z" transform="translate(-345.76 -2419.59) rotate(65)" fill="#fff"/>
        </g>
      </g>
      <g data-type="innerShadowGroup">
        <path id="路径_118-2" data-name="路径 118" d="M2377.529,681.227c-.056-1-1.475-2.39-.344-3.331s1.152.609.982,1.158a9.172,9.172,0,0,0-.215,1.679A.561.561,0,0,1,2377.529,681.227Z" transform="matrix(0.998, 0.07, -0.07, 0.998, -1919.056, -586.237)" fill="#40deaf"/>
        <g transform="matrix(1, 0, 0, 1, 363, 239)" filter="url(#路径_118)">
          <path id="路径_118-3" data-name="路径 118" d="M2377.529,681.227c-.056-1-1.475-2.39-.344-3.331s1.152.609.982,1.158a9.172,9.172,0,0,0-.215,1.679A.561.561,0,0,1,2377.529,681.227Z" transform="matrix(1, 0.07, -0.07, 1, -2282.06, -825.24)" fill="#fff"/>
        </g>
      </g>
      <g data-type="innerShadowGroup">
        <path id="路径_121-2" data-name="路径 121" d="M2377.529,680.124c-.056-.7-1.475-1.663-.344-2.318s1.152.424.982.806a4.562,4.562,0,0,0-.215,1.168C2377.9,680.071,2377.529,680.124,2377.529,680.124Z" transform="matrix(0.695, 0.719, -0.719, 0.695, -756.668, -1926.611)" fill="#40deaf"/>
        <g transform="matrix(1, 0, 0, 1, 363, 239)" filter="url(#路径_121)">
          <path id="路径_121-3" data-name="路径 121" d="M2377.529,680.124c-.056-.7-1.475-1.663-.344-2.318s1.152.424.982.806a4.562,4.562,0,0,0-.215,1.168C2377.9,680.071,2377.529,680.124,2377.529,680.124Z" transform="matrix(0.69, 0.72, -0.72, 0.69, -1119.67, -2165.61)" fill="#fff"/>
        </g>
      </g>
      <g data-type="innerShadowGroup">
        <path id="路径_119-2" data-name="路径 119" d="M2377.529,681.227c-.056-1-1.475-2.39-.344-3.331s1.152.609.982,1.158a9.172,9.172,0,0,0-.215,1.679A.561.561,0,0,1,2377.529,681.227Z" transform="matrix(0.848, -0.53, 0.53, 0.848, -1973.01, 943.546)" fill="#40deaf"/>
        <g transform="matrix(1, 0, 0, 1, 363, 239)" filter="url(#路径_119)">
          <path id="路径_119-3" data-name="路径 119" d="M2377.529,681.227c-.056-1-1.475-2.39-.344-3.331s1.152.609.982,1.158a9.172,9.172,0,0,0-.215,1.679A.561.561,0,0,1,2377.529,681.227Z" transform="matrix(0.85, -0.53, 0.53, 0.85, -2336.01, 704.55)" fill="#fff"/>
        </g>
      </g>
    </g>
    <path id="交叉_1" data-name="交叉 1" d="M-1968.636-401.178a.177.177,0,0,1,.177-.177.177.177,0,0,1,.177.177.177.177,0,0,1-.177.177A.177.177,0,0,1-1968.636-401.178Zm-.846,0a.177.177,0,0,1,.177-.177.178.178,0,0,1,.178.177.178.178,0,0,1-.178.177A.177.177,0,0,1-1969.482-401.178Zm-.845,0a.177.177,0,0,1,.177-.177.177.177,0,0,1,.177.177.177.177,0,0,1-.177.177A.177.177,0,0,1-1970.327-401.178Zm-.846,0a.178.178,0,0,1,.178-.177.177.177,0,0,1,.177.177.177.177,0,0,1-.177.177A.178.178,0,0,1-1971.173-401.178Zm-.845,0a.177.177,0,0,1,.177-.177.178.178,0,0,1,.178.177.178.178,0,0,1-.178.177A.177.177,0,0,1-1972.018-401.178Zm-1.691,0a.177.177,0,0,1,.177-.177.178.178,0,0,1,.178.177.178.178,0,0,1-.178.177A.177.177,0,0,1-1973.709-401.178Zm-.845,0a.177.177,0,0,1,.177-.177.177.177,0,0,1,.177.177.177.177,0,0,1-.177.177A.177.177,0,0,1-1974.554-401.178Zm-1.691,0a.177.177,0,0,1,.177-.177.178.178,0,0,1,.178.177.178.178,0,0,1-.178.177A.177.177,0,0,1-1976.245-401.178Zm-.846,0a.178.178,0,0,1,.178-.177.177.177,0,0,1,.177.177.177.177,0,0,1-.177.177A.178.178,0,0,1-1977.091-401.178Zm-.845,0a.177.177,0,0,1,.177-.177.178.178,0,0,1,.178.177.178.178,0,0,1-.178.177A.177.177,0,0,1-1977.936-401.178Zm-3.382,0a.178.178,0,0,1,.178-.177.177.177,0,0,1,.177.177.177.177,0,0,1-.177.177A.178.178,0,0,1-1981.319-401.178Zm-1.385,0a.177.177,0,0,1,.177-.177.178.178,0,0,1,.178.177.178.178,0,0,1-.178.177A.177.177,0,0,1-1982.7-401.178Zm-.711,0a.178.178,0,0,1,.178-.177.177.177,0,0,1,.177.177.177.177,0,0,1-.177.177A.178.178,0,0,1-1983.415-401.178Zm14.779-.71a.178.178,0,0,1,.177-.178.178.178,0,0,1,.177.178.177.177,0,0,1-.177.177A.177.177,0,0,1-1968.636-401.888Zm-.846,0a.178.178,0,0,1,.177-.178.179.179,0,0,1,.178.178.178.178,0,0,1-.178.177A.177.177,0,0,1-1969.482-401.888Zm-.845,0a.178.178,0,0,1,.177-.178.178.178,0,0,1,.177.178.177.177,0,0,1-.177.177A.177.177,0,0,1-1970.327-401.888Zm-.846,0a.179.179,0,0,1,.178-.178.178.178,0,0,1,.177.178.177.177,0,0,1-.177.177A.178.178,0,0,1-1971.173-401.888Zm-.845,0a.178.178,0,0,1,.177-.178.179.179,0,0,1,.178.178.178.178,0,0,1-.178.177A.177.177,0,0,1-1972.018-401.888Zm-.846,0a.179.179,0,0,1,.178-.178.178.178,0,0,1,.177.178.177.177,0,0,1-.177.177A.178.178,0,0,1-1972.864-401.888Zm-.845,0a.178.178,0,0,1,.177-.178.179.179,0,0,1,.178.178.178.178,0,0,1-.178.177A.177.177,0,0,1-1973.709-401.888Zm-.845,0a.178.178,0,0,1,.177-.178.178.178,0,0,1,.177.178.177.177,0,0,1-.177.177A.177.177,0,0,1-1974.554-401.888Zm-.846,0a.179.179,0,0,1,.178-.178.178.178,0,0,1,.177.178.177.177,0,0,1-.177.177A.178.178,0,0,1-1975.4-401.888Zm-.845,0a.178.178,0,0,1,.177-.178.179.179,0,0,1,.178.178.178.178,0,0,1-.178.177A.177.177,0,0,1-1976.245-401.888Zm-2.536,0a.178.178,0,0,1,.177-.178.178.178,0,0,1,.177.178.177.177,0,0,1-.177.177A.177.177,0,0,1-1978.781-401.888Zm-.846,0a.179.179,0,0,1,.178-.178.178.178,0,0,1,.177.178.177.177,0,0,1-.177.177A.178.178,0,0,1-1979.627-401.888Zm-.845,0a.178.178,0,0,1,.177-.178.178.178,0,0,1,.177.178.177.177,0,0,1-.177.177A.177.177,0,0,1-1980.473-401.888Zm-.846,0a.179.179,0,0,1,.178-.178.178.178,0,0,1,.177.178.177.177,0,0,1-.177.177A.178.178,0,0,1-1981.319-401.888Zm-1.385,0a.178.178,0,0,1,.177-.178.179.179,0,0,1,.178.178.178.178,0,0,1-.178.177A.177.177,0,0,1-1982.7-401.888Zm-.711,0a.179.179,0,0,1,.178-.178.178.178,0,0,1,.177.178.177.177,0,0,1-.177.177A.178.178,0,0,1-1983.415-401.888Zm-.71,0a.178.178,0,0,1,.177-.178.179.179,0,0,1,.178.178.178.178,0,0,1-.178.177A.177.177,0,0,1-1984.125-401.888Zm-.71,0a.178.178,0,0,1,.177-.178.178.178,0,0,1,.177.178.177.177,0,0,1-.177.177A.177.177,0,0,1-1984.835-401.888Zm16.2-.711a.177.177,0,0,1,.177-.177.177.177,0,0,1,.177.177.178.178,0,0,1-.177.178A.178.178,0,0,1-1968.636-402.6Zm-.846,0a.177.177,0,0,1,.177-.177.178.178,0,0,1,.178.177.179.179,0,0,1-.178.178A.178.178,0,0,1-1969.482-402.6Zm-.845,0a.177.177,0,0,1,.177-.177.177.177,0,0,1,.177.177.178.178,0,0,1-.177.178A.178.178,0,0,1-1970.327-402.6Zm-.846,0a.178.178,0,0,1,.178-.177.177.177,0,0,1,.177.177.178.178,0,0,1-.177.178A.179.179,0,0,1-1971.173-402.6Zm-.845,0a.177.177,0,0,1,.177-.177.178.178,0,0,1,.178.177.179.179,0,0,1-.178.178A.178.178,0,0,1-1972.018-402.6Zm-.846,0a.178.178,0,0,1,.178-.177.177.177,0,0,1,.177.177.178.178,0,0,1-.177.178A.179.179,0,0,1-1972.864-402.6Zm-.845,0a.177.177,0,0,1,.177-.177.178.178,0,0,1,.178.177.179.179,0,0,1-.178.178A.178.178,0,0,1-1973.709-402.6Zm-.845,0a.177.177,0,0,1,.177-.177.177.177,0,0,1,.177.177.178.178,0,0,1-.177.178A.178.178,0,0,1-1974.554-402.6Zm-.846,0a.178.178,0,0,1,.178-.177.177.177,0,0,1,.177.177.178.178,0,0,1-.177.178A.179.179,0,0,1-1975.4-402.6Zm-.845,0a.177.177,0,0,1,.177-.177.178.178,0,0,1,.178.177.179.179,0,0,1-.178.178A.178.178,0,0,1-1976.245-402.6Zm-.846,0a.178.178,0,0,1,.178-.177.177.177,0,0,1,.177.177.178.178,0,0,1-.177.178A.179.179,0,0,1-1977.091-402.6Zm-.845,0a.177.177,0,0,1,.177-.177.178.178,0,0,1,.178.177.179.179,0,0,1-.178.178A.178.178,0,0,1-1977.936-402.6Zm-.845,0a.177.177,0,0,1,.177-.177.177.177,0,0,1,.177.177.178.178,0,0,1-.177.178A.178.178,0,0,1-1978.781-402.6Zm-.846,0a.178.178,0,0,1,.178-.177.177.177,0,0,1,.177.177.178.178,0,0,1-.177.178A.179.179,0,0,1-1979.627-402.6Zm-.845,0a.177.177,0,0,1,.177-.177.177.177,0,0,1,.177.177.178.178,0,0,1-.177.178A.178.178,0,0,1-1980.473-402.6Zm-.846,0a.178.178,0,0,1,.178-.177.177.177,0,0,1,.177.177.178.178,0,0,1-.177.178A.179.179,0,0,1-1981.319-402.6Zm-1.385,0a.177.177,0,0,1,.177-.177.178.178,0,0,1,.178.177.179.179,0,0,1-.178.178A.178.178,0,0,1-1982.7-402.6Zm-.711,0a.178.178,0,0,1,.178-.177.177.177,0,0,1,.177.177.178.178,0,0,1-.177.178A.179.179,0,0,1-1983.415-402.6Zm-.71,0a.177.177,0,0,1,.177-.177.178.178,0,0,1,.178.177.179.179,0,0,1-.178.178A.178.178,0,0,1-1984.125-402.6Zm-.71,0a.177.177,0,0,1,.177-.177.177.177,0,0,1,.177.177.178.178,0,0,1-.177.178A.178.178,0,0,1-1984.835-402.6Zm19.715-.71a.178.178,0,0,1,.178-.177.178.178,0,0,1,.177.177.178.178,0,0,1-.177.177A.178.178,0,0,1-1965.12-403.309Zm-.71,0a.177.177,0,0,1,.177-.177.178.178,0,0,1,.178.177.178.178,0,0,1-.178.177A.177.177,0,0,1-1965.83-403.309Zm-.711,0a.178.178,0,0,1,.178-.177.177.177,0,0,1,.177.177.177.177,0,0,1-.177.177A.178.178,0,0,1-1966.541-403.309Zm-.71,0a.177.177,0,0,1,.177-.177.178.178,0,0,1,.178.177.178.178,0,0,1-.178.177A.177.177,0,0,1-1967.251-403.309Zm-1.385,0a.177.177,0,0,1,.177-.177.177.177,0,0,1,.177.177.177.177,0,0,1-.177.177A.177.177,0,0,1-1968.636-403.309Zm-.846,0a.177.177,0,0,1,.177-.177.178.178,0,0,1,.178.177.178.178,0,0,1-.178.177A.177.177,0,0,1-1969.482-403.309Zm-.845,0a.177.177,0,0,1,.177-.177.177.177,0,0,1,.177.177.177.177,0,0,1-.177.177A.177.177,0,0,1-1970.327-403.309Zm-.846,0a.178.178,0,0,1,.178-.177.177.177,0,0,1,.177.177.177.177,0,0,1-.177.177A.178.178,0,0,1-1971.173-403.309Zm-.845,0a.177.177,0,0,1,.177-.177.178.178,0,0,1,.178.177.178.178,0,0,1-.178.177A.177.177,0,0,1-1972.018-403.309Zm-.846,0a.178.178,0,0,1,.178-.177.177.177,0,0,1,.177.177.177.177,0,0,1-.177.177A.178.178,0,0,1-1972.864-403.309Zm-.845,0a.177.177,0,0,1,.177-.177.178.178,0,0,1,.178.177.178.178,0,0,1-.178.177A.177.177,0,0,1-1973.709-403.309Zm-.845,0a.177.177,0,0,1,.177-.177.177.177,0,0,1,.177.177.177.177,0,0,1-.177.177A.177.177,0,0,1-1974.554-403.309Zm-.846,0a.178.178,0,0,1,.178-.177.177.177,0,0,1,.177.177.177.177,0,0,1-.177.177A.178.178,0,0,1-1975.4-403.309Zm-.845,0a.177.177,0,0,1,.177-.177.178.178,0,0,1,.178.177.178.178,0,0,1-.178.177A.177.177,0,0,1-1976.245-403.309Zm-.846,0a.178.178,0,0,1,.178-.177.177.177,0,0,1,.177.177.177.177,0,0,1-.177.177A.178.178,0,0,1-1977.091-403.309Zm-.845,0a.177.177,0,0,1,.177-.177.178.178,0,0,1,.178.177.178.178,0,0,1-.178.177A.177.177,0,0,1-1977.936-403.309Zm-.845,0a.177.177,0,0,1,.177-.177.177.177,0,0,1,.177.177.177.177,0,0,1-.177.177A.177.177,0,0,1-1978.781-403.309Zm-.846,0a.178.178,0,0,1,.178-.177.177.177,0,0,1,.177.177.177.177,0,0,1-.177.177A.178.178,0,0,1-1979.627-403.309Zm-.845,0a.177.177,0,0,1,.177-.177.177.177,0,0,1,.177.177.177.177,0,0,1-.177.177A.177.177,0,0,1-1980.473-403.309Zm-.846,0a.178.178,0,0,1,.178-.177.177.177,0,0,1,.177.177.177.177,0,0,1-.177.177A.178.178,0,0,1-1981.319-403.309Zm-1.385,0a.177.177,0,0,1,.177-.177.178.178,0,0,1,.178.177.178.178,0,0,1-.178.177A.177.177,0,0,1-1982.7-403.309Zm-.711,0a.178.178,0,0,1,.178-.177.177.177,0,0,1,.177.177.177.177,0,0,1-.177.177A.178.178,0,0,1-1983.415-403.309Zm-1.42,0a.177.177,0,0,1,.177-.177.177.177,0,0,1,.177.177.177.177,0,0,1-.177.177A.177.177,0,0,1-1984.835-403.309Zm20.426-1.748a.178.178,0,0,1,.177-.178.178.178,0,0,1,.177.178.177.177,0,0,1-.177.177A.177.177,0,0,1-1964.408-405.057Zm-.711,0a.179.179,0,0,1,.178-.178.178.178,0,0,1,.177.178.178.178,0,0,1-.177.177A.178.178,0,0,1-1965.12-405.057Zm-.71,0a.178.178,0,0,1,.177-.178.179.179,0,0,1,.178.178.178.178,0,0,1-.178.177A.177.177,0,0,1-1965.83-405.057Zm-.711,0a.179.179,0,0,1,.178-.178.178.178,0,0,1,.177.178.177.177,0,0,1-.177.177A.178.178,0,0,1-1966.541-405.057Zm-.71,0a.178.178,0,0,1,.177-.178.179.179,0,0,1,.178.178.178.178,0,0,1-.178.177A.177.177,0,0,1-1967.251-405.057Zm-1.385,0a.178.178,0,0,1,.177-.178.178.178,0,0,1,.177.178.177.177,0,0,1-.177.177A.177.177,0,0,1-1968.636-405.057Zm-.846,0a.178.178,0,0,1,.177-.178.179.179,0,0,1,.178.178.178.178,0,0,1-.178.177A.177.177,0,0,1-1969.482-405.057Zm-.845,0a.178.178,0,0,1,.177-.178.178.178,0,0,1,.177.178.177.177,0,0,1-.177.177A.177.177,0,0,1-1970.327-405.057Zm-.846,0a.179.179,0,0,1,.178-.178.178.178,0,0,1,.177.178.177.177,0,0,1-.177.177A.178.178,0,0,1-1971.173-405.057Zm-.845,0a.178.178,0,0,1,.177-.178.179.179,0,0,1,.178.178.178.178,0,0,1-.178.177A.177.177,0,0,1-1972.018-405.057Zm-.846,0a.179.179,0,0,1,.178-.178.178.178,0,0,1,.177.178.177.177,0,0,1-.177.177A.178.178,0,0,1-1972.864-405.057Zm-.845,0a.178.178,0,0,1,.177-.178.179.179,0,0,1,.178.178.178.178,0,0,1-.178.177A.177.177,0,0,1-1973.709-405.057Zm-.845,0a.178.178,0,0,1,.177-.178.178.178,0,0,1,.177.178.177.177,0,0,1-.177.177A.177.177,0,0,1-1974.554-405.057Zm-.846,0a.179.179,0,0,1,.178-.178.178.178,0,0,1,.177.178.177.177,0,0,1-.177.177A.178.178,0,0,1-1975.4-405.057Zm-.845,0a.178.178,0,0,1,.177-.178.179.179,0,0,1,.178.178.178.178,0,0,1-.178.177A.177.177,0,0,1-1976.245-405.057Zm-.846,0a.179.179,0,0,1,.178-.178.178.178,0,0,1,.177.178.177.177,0,0,1-.177.177A.178.178,0,0,1-1977.091-405.057Zm-.845,0a.178.178,0,0,1,.177-.178.179.179,0,0,1,.178.178.178.178,0,0,1-.178.177A.177.177,0,0,1-1977.936-405.057Zm-.845,0a.178.178,0,0,1,.177-.178.178.178,0,0,1,.177.178.177.177,0,0,1-.177.177A.177.177,0,0,1-1978.781-405.057Zm-.846,0a.179.179,0,0,1,.178-.178.178.178,0,0,1,.177.178.177.177,0,0,1-.177.177A.178.178,0,0,1-1979.627-405.057Zm-.845,0a.178.178,0,0,1,.177-.178.178.178,0,0,1,.177.178.177.177,0,0,1-.177.177A.177.177,0,0,1-1980.473-405.057Zm-.846,0a.179.179,0,0,1,.178-.178.178.178,0,0,1,.177.178.177.177,0,0,1-.177.177A.178.178,0,0,1-1981.319-405.057Zm-2.1,0a.179.179,0,0,1,.178-.178.178.178,0,0,1,.177.178.177.177,0,0,1-.177.177A.178.178,0,0,1-1983.415-405.057Zm-.71,0a.178.178,0,0,1,.177-.178.179.179,0,0,1,.178.178.178.178,0,0,1-.178.177A.177.177,0,0,1-1984.125-405.057Zm-.71,0a.178.178,0,0,1,.177-.178.178.178,0,0,1,.177.178.177.177,0,0,1-.177.177A.177.177,0,0,1-1984.835-405.057Zm20.426-.97a.177.177,0,0,1,.177-.177.177.177,0,0,1,.177.177.178.178,0,0,1-.177.178A.178.178,0,0,1-1964.408-406.027Zm-.711,0a.178.178,0,0,1,.178-.177.178.178,0,0,1,.177.177.178.178,0,0,1-.177.178A.179.179,0,0,1-1965.12-406.027Zm-.71,0a.177.177,0,0,1,.177-.177.178.178,0,0,1,.178.177.179.179,0,0,1-.178.178A.178.178,0,0,1-1965.83-406.027Zm-.711,0a.178.178,0,0,1,.178-.177.177.177,0,0,1,.177.177.178.178,0,0,1-.177.178A.179.179,0,0,1-1966.541-406.027Zm-.71,0a.177.177,0,0,1,.177-.177.178.178,0,0,1,.178.177.179.179,0,0,1-.178.178A.178.178,0,0,1-1967.251-406.027Zm-1.385,0a.177.177,0,0,1,.177-.177.177.177,0,0,1,.177.177.178.178,0,0,1-.177.178A.178.178,0,0,1-1968.636-406.027Zm-.846,0a.177.177,0,0,1,.177-.177.178.178,0,0,1,.178.177.179.179,0,0,1-.178.178A.178.178,0,0,1-1969.482-406.027Zm-.845,0a.177.177,0,0,1,.177-.177.177.177,0,0,1,.177.177.178.178,0,0,1-.177.178A.178.178,0,0,1-1970.327-406.027Zm-.846,0a.178.178,0,0,1,.178-.177.177.177,0,0,1,.177.177.178.178,0,0,1-.177.178A.179.179,0,0,1-1971.173-406.027Zm-.845,0a.177.177,0,0,1,.177-.177.178.178,0,0,1,.178.177.179.179,0,0,1-.178.178A.178.178,0,0,1-1972.018-406.027Zm-.846,0a.178.178,0,0,1,.178-.177.177.177,0,0,1,.177.177.178.178,0,0,1-.177.178A.179.179,0,0,1-1972.864-406.027Zm-.845,0a.177.177,0,0,1,.177-.177.178.178,0,0,1,.178.177.179.179,0,0,1-.178.178A.178.178,0,0,1-1973.709-406.027Zm-.845,0a.177.177,0,0,1,.177-.177.177.177,0,0,1,.177.177.178.178,0,0,1-.177.178A.178.178,0,0,1-1974.554-406.027Zm-.846,0a.178.178,0,0,1,.178-.177.177.177,0,0,1,.177.177.178.178,0,0,1-.177.178A.179.179,0,0,1-1975.4-406.027Zm-.845,0a.177.177,0,0,1,.177-.177.178.178,0,0,1,.178.177.179.179,0,0,1-.178.178A.178.178,0,0,1-1976.245-406.027Zm-.846,0a.178.178,0,0,1,.178-.177.177.177,0,0,1,.177.177.178.178,0,0,1-.177.178A.179.179,0,0,1-1977.091-406.027Zm-.845,0a.177.177,0,0,1,.177-.177.178.178,0,0,1,.178.177.179.179,0,0,1-.178.178A.178.178,0,0,1-1977.936-406.027Zm-.845,0a.177.177,0,0,1,.177-.177.177.177,0,0,1,.177.177.178.178,0,0,1-.177.178A.178.178,0,0,1-1978.781-406.027Zm-.846,0a.178.178,0,0,1,.178-.177.177.177,0,0,1,.177.177.178.178,0,0,1-.177.178A.179.179,0,0,1-1979.627-406.027Zm-.845,0a.177.177,0,0,1,.177-.177.177.177,0,0,1,.177.177.178.178,0,0,1-.177.178A.178.178,0,0,1-1980.473-406.027Zm-.846,0a.178.178,0,0,1,.178-.177.177.177,0,0,1,.177.177.178.178,0,0,1-.177.178A.179.179,0,0,1-1981.319-406.027Zm-1.385,0a.177.177,0,0,1,.177-.177.178.178,0,0,1,.178.177.179.179,0,0,1-.178.178A.178.178,0,0,1-1982.7-406.027Zm-.711,0a.178.178,0,0,1,.178-.177.177.177,0,0,1,.177.177.178.178,0,0,1-.177.178A.179.179,0,0,1-1983.415-406.027Zm-.71,0a.177.177,0,0,1,.177-.177.178.178,0,0,1,.178.177.179.179,0,0,1-.178.178A.178.178,0,0,1-1984.125-406.027Zm-.71,0a.177.177,0,0,1,.177-.177.177.177,0,0,1,.177.177.178.178,0,0,1-.177.178A.178.178,0,0,1-1984.835-406.027Zm20.426-.969a.178.178,0,0,1,.177-.178.178.178,0,0,1,.177.178.177.177,0,0,1-.177.177A.177.177,0,0,1-1964.408-407Zm-.711,0a.179.179,0,0,1,.178-.178.178.178,0,0,1,.177.178.178.178,0,0,1-.177.177A.178.178,0,0,1-1965.12-407Zm-.71,0a.178.178,0,0,1,.177-.178.179.179,0,0,1,.178.178.178.178,0,0,1-.178.177A.177.177,0,0,1-1965.83-407Zm-.711,0a.179.179,0,0,1,.178-.178.178.178,0,0,1,.177.178.177.177,0,0,1-.177.177A.178.178,0,0,1-1966.541-407Zm-.71,0a.178.178,0,0,1,.177-.178.179.179,0,0,1,.178.178.178.178,0,0,1-.178.177A.177.177,0,0,1-1967.251-407Zm-1.385,0a.178.178,0,0,1,.177-.178.178.178,0,0,1,.177.178.177.177,0,0,1-.177.177A.177.177,0,0,1-1968.636-407Zm-.846,0a.178.178,0,0,1,.177-.178.179.179,0,0,1,.178.178.178.178,0,0,1-.178.177A.177.177,0,0,1-1969.482-407Zm-.845,0a.178.178,0,0,1,.177-.178.178.178,0,0,1,.177.178.177.177,0,0,1-.177.177A.177.177,0,0,1-1970.327-407Zm-.846,0a.179.179,0,0,1,.178-.178.178.178,0,0,1,.177.178.177.177,0,0,1-.177.177A.178.178,0,0,1-1971.173-407Zm-.845,0a.178.178,0,0,1,.177-.178.179.179,0,0,1,.178.178.178.178,0,0,1-.178.177A.177.177,0,0,1-1972.018-407Zm-.846,0a.179.179,0,0,1,.178-.178.178.178,0,0,1,.177.178.177.177,0,0,1-.177.177A.178.178,0,0,1-1972.864-407Zm-.845,0a.178.178,0,0,1,.177-.178.179.179,0,0,1,.178.178.178.178,0,0,1-.178.177A.177.177,0,0,1-1973.709-407Zm-.845,0a.178.178,0,0,1,.177-.178.178.178,0,0,1,.177.178.177.177,0,0,1-.177.177A.177.177,0,0,1-1974.554-407Zm-.846,0a.179.179,0,0,1,.178-.178.178.178,0,0,1,.177.178.177.177,0,0,1-.177.177A.178.178,0,0,1-1975.4-407Zm-.845,0a.178.178,0,0,1,.177-.178.179.179,0,0,1,.178.178.178.178,0,0,1-.178.177A.177.177,0,0,1-1976.245-407Zm-.846,0a.179.179,0,0,1,.178-.178.178.178,0,0,1,.177.178.177.177,0,0,1-.177.177A.178.178,0,0,1-1977.091-407Zm-.845,0a.178.178,0,0,1,.177-.178.179.179,0,0,1,.178.178.178.178,0,0,1-.178.177A.177.177,0,0,1-1977.936-407Zm-.845,0a.178.178,0,0,1,.177-.178.178.178,0,0,1,.177.178.177.177,0,0,1-.177.177A.177.177,0,0,1-1978.781-407Zm-.846,0a.179.179,0,0,1,.178-.178.178.178,0,0,1,.177.178.177.177,0,0,1-.177.177A.178.178,0,0,1-1979.627-407Zm-.845,0a.178.178,0,0,1,.177-.178.178.178,0,0,1,.177.178.177.177,0,0,1-.177.177A.177.177,0,0,1-1980.473-407Zm-.846,0a.179.179,0,0,1,.178-.178.178.178,0,0,1,.177.178.177.177,0,0,1-.177.177A.178.178,0,0,1-1981.319-407Zm-1.385,0a.178.178,0,0,1,.177-.178.179.179,0,0,1,.178.178.178.178,0,0,1-.178.177A.177.177,0,0,1-1982.7-407Zm-.711,0a.179.179,0,0,1,.178-.178.178.178,0,0,1,.177.178.177.177,0,0,1-.177.177A.178.178,0,0,1-1983.415-407Zm-.71,0a.178.178,0,0,1,.177-.178.179.179,0,0,1,.178.178.178.178,0,0,1-.178.177A.177.177,0,0,1-1984.125-407Zm-.71,0a.178.178,0,0,1,.177-.178.178.178,0,0,1,.177.178.177.177,0,0,1-.177.177A.177.177,0,0,1-1984.835-407Zm19.715-.97a.178.178,0,0,1,.178-.177.178.178,0,0,1,.177.177.178.178,0,0,1-.177.177A.178.178,0,0,1-1965.12-407.966Zm-.71,0a.177.177,0,0,1,.177-.177.178.178,0,0,1,.178.177.178.178,0,0,1-.178.177A.177.177,0,0,1-1965.83-407.966Zm-.711,0a.178.178,0,0,1,.178-.177.177.177,0,0,1,.177.177.177.177,0,0,1-.177.177A.178.178,0,0,1-1966.541-407.966Zm-.71,0a.177.177,0,0,1,.177-.177.178.178,0,0,1,.178.177.178.178,0,0,1-.178.177A.177.177,0,0,1-1967.251-407.966Zm-1.385,0a.177.177,0,0,1,.177-.177.177.177,0,0,1,.177.177.177.177,0,0,1-.177.177A.177.177,0,0,1-1968.636-407.966Zm-.846,0a.177.177,0,0,1,.177-.177.178.178,0,0,1,.178.177.178.178,0,0,1-.178.177A.177.177,0,0,1-1969.482-407.966Zm-.845,0a.177.177,0,0,1,.177-.177.177.177,0,0,1,.177.177.177.177,0,0,1-.177.177A.177.177,0,0,1-1970.327-407.966Zm-.846,0a.178.178,0,0,1,.178-.177.177.177,0,0,1,.177.177.177.177,0,0,1-.177.177A.178.178,0,0,1-1971.173-407.966Zm-.845,0a.177.177,0,0,1,.177-.177.178.178,0,0,1,.178.177.178.178,0,0,1-.178.177A.177.177,0,0,1-1972.018-407.966Zm-.846,0a.178.178,0,0,1,.178-.177.177.177,0,0,1,.177.177.177.177,0,0,1-.177.177A.178.178,0,0,1-1972.864-407.966Zm-.845,0a.177.177,0,0,1,.177-.177.178.178,0,0,1,.178.177.178.178,0,0,1-.178.177A.177.177,0,0,1-1973.709-407.966Zm-.845,0a.177.177,0,0,1,.177-.177.177.177,0,0,1,.177.177.177.177,0,0,1-.177.177A.177.177,0,0,1-1974.554-407.966Zm-.846,0a.178.178,0,0,1,.178-.177.177.177,0,0,1,.177.177.177.177,0,0,1-.177.177A.178.178,0,0,1-1975.4-407.966Zm-.845,0a.177.177,0,0,1,.177-.177.178.178,0,0,1,.178.177.178.178,0,0,1-.178.177A.177.177,0,0,1-1976.245-407.966Zm-.846,0a.178.178,0,0,1,.178-.177.177.177,0,0,1,.177.177.177.177,0,0,1-.177.177A.178.178,0,0,1-1977.091-407.966Zm-.845,0a.177.177,0,0,1,.177-.177.178.178,0,0,1,.178.177.178.178,0,0,1-.178.177A.177.177,0,0,1-1977.936-407.966Zm-.845,0a.177.177,0,0,1,.177-.177.177.177,0,0,1,.177.177.177.177,0,0,1-.177.177A.177.177,0,0,1-1978.781-407.966Zm-.846,0a.178.178,0,0,1,.178-.177.177.177,0,0,1,.177.177.177.177,0,0,1-.177.177A.178.178,0,0,1-1979.627-407.966Zm-.845,0a.177.177,0,0,1,.177-.177.177.177,0,0,1,.177.177.177.177,0,0,1-.177.177A.177.177,0,0,1-1980.473-407.966Zm-.846,0a.178.178,0,0,1,.178-.177.177.177,0,0,1,.177.177.177.177,0,0,1-.177.177A.178.178,0,0,1-1981.319-407.966Zm-1.385,0a.177.177,0,0,1,.177-.177.178.178,0,0,1,.178.177.178.178,0,0,1-.178.177A.177.177,0,0,1-1982.7-407.966Zm-.711,0a.178.178,0,0,1,.178-.177.177.177,0,0,1,.177.177.177.177,0,0,1-.177.177A.178.178,0,0,1-1983.415-407.966Zm-.71,0a.177.177,0,0,1,.177-.177.178.178,0,0,1,.178.177.178.178,0,0,1-.178.177A.177.177,0,0,1-1984.125-407.966Zm-.71,0a.177.177,0,0,1,.177-.177.177.177,0,0,1,.177.177.177.177,0,0,1-.177.177A.177.177,0,0,1-1984.835-407.966Zm-.711,0a.178.178,0,0,1,.178-.177.177.177,0,0,1,.177.177.177.177,0,0,1-.177.177A.178.178,0,0,1-1985.546-407.966Zm21.137-.97a.178.178,0,0,1,.177-.177.178.178,0,0,1,.177.177.178.178,0,0,1-.177.178A.178.178,0,0,1-1964.408-408.937Zm-.711,0a.178.178,0,0,1,.178-.177.178.178,0,0,1,.177.177.178.178,0,0,1-.177.178A.179.179,0,0,1-1965.12-408.937Zm-.71,0a.178.178,0,0,1,.177-.177.178.178,0,0,1,.178.177.179.179,0,0,1-.178.178A.178.178,0,0,1-1965.83-408.937Zm-.711,0a.178.178,0,0,1,.178-.177.178.178,0,0,1,.177.177.178.178,0,0,1-.177.178A.179.179,0,0,1-1966.541-408.937Zm-.71,0a.178.178,0,0,1,.177-.177.178.178,0,0,1,.178.177.179.179,0,0,1-.178.178A.178.178,0,0,1-1967.251-408.937Zm-1.385,0a.178.178,0,0,1,.177-.177.178.178,0,0,1,.177.177.178.178,0,0,1-.177.178A.178.178,0,0,1-1968.636-408.937Zm-.846,0a.178.178,0,0,1,.177-.177.178.178,0,0,1,.178.177.179.179,0,0,1-.178.178A.178.178,0,0,1-1969.482-408.937Zm-.845,0a.178.178,0,0,1,.177-.177.178.178,0,0,1,.177.177.178.178,0,0,1-.177.178A.178.178,0,0,1-1970.327-408.937Zm-.846,0a.178.178,0,0,1,.178-.177.178.178,0,0,1,.177.177.178.178,0,0,1-.177.178A.179.179,0,0,1-1971.173-408.937Zm-.845,0a.178.178,0,0,1,.177-.177.178.178,0,0,1,.178.177.179.179,0,0,1-.178.178A.178.178,0,0,1-1972.018-408.937Zm-.846,0a.178.178,0,0,1,.178-.177.178.178,0,0,1,.177.177.178.178,0,0,1-.177.178A.179.179,0,0,1-1972.864-408.937Zm-.845,0a.178.178,0,0,1,.177-.177.178.178,0,0,1,.178.177.179.179,0,0,1-.178.178A.178.178,0,0,1-1973.709-408.937Zm-.845,0a.178.178,0,0,1,.177-.177.178.178,0,0,1,.177.177.178.178,0,0,1-.177.178A.178.178,0,0,1-1974.554-408.937Zm-.846,0a.178.178,0,0,1,.178-.177.178.178,0,0,1,.177.177.178.178,0,0,1-.177.178A.179.179,0,0,1-1975.4-408.937Zm-.845,0a.178.178,0,0,1,.177-.177.178.178,0,0,1,.178.177.179.179,0,0,1-.178.178A.178.178,0,0,1-1976.245-408.937Zm-.846,0a.178.178,0,0,1,.178-.177.178.178,0,0,1,.177.177.178.178,0,0,1-.177.178A.179.179,0,0,1-1977.091-408.937Zm-.845,0a.178.178,0,0,1,.177-.177.178.178,0,0,1,.178.177.179.179,0,0,1-.178.178A.178.178,0,0,1-1977.936-408.937Zm-.845,0a.178.178,0,0,1,.177-.177.178.178,0,0,1,.177.177.178.178,0,0,1-.177.178A.178.178,0,0,1-1978.781-408.937Zm-.846,0a.178.178,0,0,1,.178-.177.178.178,0,0,1,.177.177.178.178,0,0,1-.177.178A.179.179,0,0,1-1979.627-408.937Zm-.845,0a.178.178,0,0,1,.177-.177.178.178,0,0,1,.177.177.178.178,0,0,1-.177.178A.178.178,0,0,1-1980.473-408.937Zm-.846,0a.178.178,0,0,1,.178-.177.178.178,0,0,1,.177.177.178.178,0,0,1-.177.178A.179.179,0,0,1-1981.319-408.937Zm-1.385,0a.178.178,0,0,1,.177-.177.178.178,0,0,1,.178.177.179.179,0,0,1-.178.178A.178.178,0,0,1-1982.7-408.937Zm-.711,0a.178.178,0,0,1,.178-.177.178.178,0,0,1,.177.177.178.178,0,0,1-.177.178A.179.179,0,0,1-1983.415-408.937Zm-.71,0a.178.178,0,0,1,.177-.177.178.178,0,0,1,.178.177.179.179,0,0,1-.178.178A.178.178,0,0,1-1984.125-408.937Zm-.71,0a.178.178,0,0,1,.177-.177.178.178,0,0,1,.177.177.178.178,0,0,1-.177.178A.178.178,0,0,1-1984.835-408.937Zm20.426-.969a.177.177,0,0,1,.177-.177.177.177,0,0,1,.177.177.177.177,0,0,1-.177.177A.177.177,0,0,1-1964.408-409.906Zm-.711,0a.178.178,0,0,1,.178-.177.178.178,0,0,1,.177.177.178.178,0,0,1-.177.177A.178.178,0,0,1-1965.12-409.906Zm-.71,0a.177.177,0,0,1,.177-.177.178.178,0,0,1,.178.177.178.178,0,0,1-.178.177A.177.177,0,0,1-1965.83-409.906Zm-.711,0a.178.178,0,0,1,.178-.177.177.177,0,0,1,.177.177.177.177,0,0,1-.177.177A.178.178,0,0,1-1966.541-409.906Zm-.71,0a.177.177,0,0,1,.177-.177.178.178,0,0,1,.178.177.178.178,0,0,1-.178.177A.177.177,0,0,1-1967.251-409.906Zm-1.385,0a.177.177,0,0,1,.177-.177.177.177,0,0,1,.177.177.177.177,0,0,1-.177.177A.177.177,0,0,1-1968.636-409.906Zm-.846,0a.177.177,0,0,1,.177-.177.178.178,0,0,1,.178.177.178.178,0,0,1-.178.177A.177.177,0,0,1-1969.482-409.906Zm-.845,0a.177.177,0,0,1,.177-.177.177.177,0,0,1,.177.177.177.177,0,0,1-.177.177A.177.177,0,0,1-1970.327-409.906Zm-.846,0a.178.178,0,0,1,.178-.177.177.177,0,0,1,.177.177.177.177,0,0,1-.177.177A.178.178,0,0,1-1971.173-409.906Zm-.845,0a.177.177,0,0,1,.177-.177.178.178,0,0,1,.178.177.178.178,0,0,1-.178.177A.177.177,0,0,1-1972.018-409.906Zm-.846,0a.178.178,0,0,1,.178-.177.177.177,0,0,1,.177.177.177.177,0,0,1-.177.177A.178.178,0,0,1-1972.864-409.906Zm-.845,0a.177.177,0,0,1,.177-.177.178.178,0,0,1,.178.177.178.178,0,0,1-.178.177A.177.177,0,0,1-1973.709-409.906Zm-.845,0a.177.177,0,0,1,.177-.177.177.177,0,0,1,.177.177.177.177,0,0,1-.177.177A.177.177,0,0,1-1974.554-409.906Zm-.846,0a.178.178,0,0,1,.178-.177.177.177,0,0,1,.177.177.177.177,0,0,1-.177.177A.178.178,0,0,1-1975.4-409.906Zm-.845,0a.177.177,0,0,1,.177-.177.178.178,0,0,1,.178.177.178.178,0,0,1-.178.177A.177.177,0,0,1-1976.245-409.906Zm-.846,0a.178.178,0,0,1,.178-.177.177.177,0,0,1,.177.177.177.177,0,0,1-.177.177A.178.178,0,0,1-1977.091-409.906Zm-.845,0a.177.177,0,0,1,.177-.177.178.178,0,0,1,.178.177.178.178,0,0,1-.178.177A.177.177,0,0,1-1977.936-409.906Zm-.845,0a.177.177,0,0,1,.177-.177.177.177,0,0,1,.177.177.177.177,0,0,1-.177.177A.177.177,0,0,1-1978.781-409.906Zm-.846,0a.178.178,0,0,1,.178-.177.177.177,0,0,1,.177.177.177.177,0,0,1-.177.177A.178.178,0,0,1-1979.627-409.906Zm-.845,0a.177.177,0,0,1,.177-.177.177.177,0,0,1,.177.177.177.177,0,0,1-.177.177A.177.177,0,0,1-1980.473-409.906Zm-.846,0a.178.178,0,0,1,.178-.177.177.177,0,0,1,.177.177.177.177,0,0,1-.177.177A.178.178,0,0,1-1981.319-409.906Zm-1.385,0a.177.177,0,0,1,.177-.177.178.178,0,0,1,.178.177.178.178,0,0,1-.178.177A.177.177,0,0,1-1982.7-409.906Zm-.711,0a.178.178,0,0,1,.178-.177.177.177,0,0,1,.177.177.177.177,0,0,1-.177.177A.178.178,0,0,1-1983.415-409.906Zm-.71,0a.177.177,0,0,1,.177-.177.178.178,0,0,1,.178.177.178.178,0,0,1-.178.177A.177.177,0,0,1-1984.125-409.906Zm-.71,0a.177.177,0,0,1,.177-.177.177.177,0,0,1,.177.177.177.177,0,0,1-.177.177A.177.177,0,0,1-1984.835-409.906Zm20.426-.97a.177.177,0,0,1,.177-.177.177.177,0,0,1,.177.177.178.178,0,0,1-.177.178A.178.178,0,0,1-1964.408-410.876Zm-.711,0a.178.178,0,0,1,.178-.177.178.178,0,0,1,.177.177.178.178,0,0,1-.177.178A.179.179,0,0,1-1965.12-410.876Zm-.71,0a.177.177,0,0,1,.177-.177.178.178,0,0,1,.178.177.179.179,0,0,1-.178.178A.178.178,0,0,1-1965.83-410.876Zm-.711,0a.178.178,0,0,1,.178-.177.177.177,0,0,1,.177.177.178.178,0,0,1-.177.178A.179.179,0,0,1-1966.541-410.876Zm-.71,0a.177.177,0,0,1,.177-.177.178.178,0,0,1,.178.177.179.179,0,0,1-.178.178A.178.178,0,0,1-1967.251-410.876Zm-1.385,0a.177.177,0,0,1,.177-.177.177.177,0,0,1,.177.177.178.178,0,0,1-.177.178A.178.178,0,0,1-1968.636-410.876Zm-.846,0a.177.177,0,0,1,.177-.177.178.178,0,0,1,.178.177.179.179,0,0,1-.178.178A.178.178,0,0,1-1969.482-410.876Zm-.845,0a.177.177,0,0,1,.177-.177.177.177,0,0,1,.177.177.178.178,0,0,1-.177.178A.178.178,0,0,1-1970.327-410.876Zm-.846,0a.178.178,0,0,1,.178-.177.177.177,0,0,1,.177.177.178.178,0,0,1-.177.178A.179.179,0,0,1-1971.173-410.876Zm-.845,0a.177.177,0,0,1,.177-.177.178.178,0,0,1,.178.177.179.179,0,0,1-.178.178A.178.178,0,0,1-1972.018-410.876Zm-.846,0a.178.178,0,0,1,.178-.177.177.177,0,0,1,.177.177.178.178,0,0,1-.177.178A.179.179,0,0,1-1972.864-410.876Zm-.845,0a.177.177,0,0,1,.177-.177.178.178,0,0,1,.178.177.179.179,0,0,1-.178.178A.178.178,0,0,1-1973.709-410.876Zm-.845,0a.177.177,0,0,1,.177-.177.177.177,0,0,1,.177.177.178.178,0,0,1-.177.178A.178.178,0,0,1-1974.554-410.876Zm-.846,0a.178.178,0,0,1,.178-.177.177.177,0,0,1,.177.177.178.178,0,0,1-.177.178A.179.179,0,0,1-1975.4-410.876Zm-.845,0a.177.177,0,0,1,.177-.177.178.178,0,0,1,.178.177.179.179,0,0,1-.178.178A.178.178,0,0,1-1976.245-410.876Zm-.846,0a.178.178,0,0,1,.178-.177.177.177,0,0,1,.177.177.178.178,0,0,1-.177.178A.179.179,0,0,1-1977.091-410.876Zm-.845,0a.177.177,0,0,1,.177-.177.178.178,0,0,1,.178.177.179.179,0,0,1-.178.178A.178.178,0,0,1-1977.936-410.876Zm-.845,0a.177.177,0,0,1,.177-.177.177.177,0,0,1,.177.177.178.178,0,0,1-.177.178A.178.178,0,0,1-1978.781-410.876Zm-.846,0a.178.178,0,0,1,.178-.177.177.177,0,0,1,.177.177.178.178,0,0,1-.177.178A.179.179,0,0,1-1979.627-410.876Zm-.845,0a.177.177,0,0,1,.177-.177.177.177,0,0,1,.177.177.178.178,0,0,1-.177.178A.178.178,0,0,1-1980.473-410.876Zm-.846,0a.178.178,0,0,1,.178-.177.177.177,0,0,1,.177.177.178.178,0,0,1-.177.178A.179.179,0,0,1-1981.319-410.876Zm-1.385,0a.177.177,0,0,1,.177-.177.178.178,0,0,1,.178.177.179.179,0,0,1-.178.178A.178.178,0,0,1-1982.7-410.876Zm-.711,0a.178.178,0,0,1,.178-.177.177.177,0,0,1,.177.177.178.178,0,0,1-.177.178A.179.179,0,0,1-1983.415-410.876Zm-.71,0a.177.177,0,0,1,.177-.177.178.178,0,0,1,.178.177.179.179,0,0,1-.178.178A.178.178,0,0,1-1984.125-410.876Zm-.71,0a.177.177,0,0,1,.177-.177.177.177,0,0,1,.177.177.178.178,0,0,1-.177.178A.178.178,0,0,1-1984.835-410.876Zm-.711,0a.178.178,0,0,1,.178-.177.177.177,0,0,1,.177.177.178.178,0,0,1-.177.178A.179.179,0,0,1-1985.546-410.876Zm21.137-.969a.178.178,0,0,1,.177-.178.178.178,0,0,1,.177.178.177.177,0,0,1-.177.177A.177.177,0,0,1-1964.408-411.845Zm-1.421,0a.178.178,0,0,1,.177-.178.179.179,0,0,1,.178.178.178.178,0,0,1-.178.177A.177.177,0,0,1-1965.83-411.845Zm-.711,0a.179.179,0,0,1,.178-.178.178.178,0,0,1,.177.178.177.177,0,0,1-.177.177A.178.178,0,0,1-1966.541-411.845Zm-.71,0a.178.178,0,0,1,.177-.178.179.179,0,0,1,.178.178.178.178,0,0,1-.178.177A.177.177,0,0,1-1967.251-411.845Zm-1.385,0a.178.178,0,0,1,.177-.178.178.178,0,0,1,.177.178.177.177,0,0,1-.177.177A.177.177,0,0,1-1968.636-411.845Zm-.846,0a.178.178,0,0,1,.177-.178.179.179,0,0,1,.178.178.178.178,0,0,1-.178.177A.177.177,0,0,1-1969.482-411.845Zm-.845,0a.178.178,0,0,1,.177-.178.178.178,0,0,1,.177.178.177.177,0,0,1-.177.177A.177.177,0,0,1-1970.327-411.845Zm-.846,0a.179.179,0,0,1,.178-.178.178.178,0,0,1,.177.178.177.177,0,0,1-.177.177A.178.178,0,0,1-1971.173-411.845Zm-.845,0a.178.178,0,0,1,.177-.178.179.179,0,0,1,.178.178.178.178,0,0,1-.178.177A.177.177,0,0,1-1972.018-411.845Zm-.846,0a.179.179,0,0,1,.178-.178.178.178,0,0,1,.177.178.177.177,0,0,1-.177.177A.178.178,0,0,1-1972.864-411.845Zm-.845,0a.178.178,0,0,1,.177-.178.179.179,0,0,1,.178.178.178.178,0,0,1-.178.177A.177.177,0,0,1-1973.709-411.845Zm-.845,0a.178.178,0,0,1,.177-.178.178.178,0,0,1,.177.178.177.177,0,0,1-.177.177A.177.177,0,0,1-1974.554-411.845Zm-.846,0a.179.179,0,0,1,.178-.178.178.178,0,0,1,.177.178.177.177,0,0,1-.177.177A.178.178,0,0,1-1975.4-411.845Zm-.845,0a.178.178,0,0,1,.177-.178.179.179,0,0,1,.178.178.178.178,0,0,1-.178.177A.177.177,0,0,1-1976.245-411.845Zm-.846,0a.179.179,0,0,1,.178-.178.178.178,0,0,1,.177.178.177.177,0,0,1-.177.177A.178.178,0,0,1-1977.091-411.845Zm-.845,0a.178.178,0,0,1,.177-.178.179.179,0,0,1,.178.178.178.178,0,0,1-.178.177A.177.177,0,0,1-1977.936-411.845Zm-.845,0a.178.178,0,0,1,.177-.178.178.178,0,0,1,.177.178.177.177,0,0,1-.177.177A.177.177,0,0,1-1978.781-411.845Zm-.846,0a.179.179,0,0,1,.178-.178.178.178,0,0,1,.177.178.177.177,0,0,1-.177.177A.178.178,0,0,1-1979.627-411.845Zm-.845,0a.178.178,0,0,1,.177-.178.178.178,0,0,1,.177.178.177.177,0,0,1-.177.177A.177.177,0,0,1-1980.473-411.845Zm-.846,0a.179.179,0,0,1,.178-.178.178.178,0,0,1,.177.178.177.177,0,0,1-.177.177A.178.178,0,0,1-1981.319-411.845Zm-1.385,0a.178.178,0,0,1,.177-.178.179.179,0,0,1,.178.178.178.178,0,0,1-.178.177A.177.177,0,0,1-1982.7-411.845Zm-.711,0a.179.179,0,0,1,.178-.178.178.178,0,0,1,.177.178.177.177,0,0,1-.177.177A.178.178,0,0,1-1983.415-411.845Zm-.71,0a.178.178,0,0,1,.177-.178.179.179,0,0,1,.178.178.178.178,0,0,1-.178.177A.177.177,0,0,1-1984.125-411.845Zm-.71,0a.178.178,0,0,1,.177-.178.178.178,0,0,1,.177.178.177.177,0,0,1-.177.177A.177.177,0,0,1-1984.835-411.845Zm-.711,0a.179.179,0,0,1,.178-.178.178.178,0,0,1,.177.178.177.177,0,0,1-.177.177A.178.178,0,0,1-1985.546-411.845Zm19.716-.97a.177.177,0,0,1,.177-.177.178.178,0,0,1,.178.177.179.179,0,0,1-.178.178A.178.178,0,0,1-1965.83-412.816Zm-.711,0a.178.178,0,0,1,.178-.177.177.177,0,0,1,.177.177.178.178,0,0,1-.177.178A.179.179,0,0,1-1966.541-412.816Zm-.71,0a.177.177,0,0,1,.177-.177.178.178,0,0,1,.178.177.179.179,0,0,1-.178.178A.178.178,0,0,1-1967.251-412.816Zm-1.385,0a.177.177,0,0,1,.177-.177.177.177,0,0,1,.177.177.178.178,0,0,1-.177.178A.178.178,0,0,1-1968.636-412.816Zm-.846,0a.177.177,0,0,1,.177-.177.178.178,0,0,1,.178.177.179.179,0,0,1-.178.178A.178.178,0,0,1-1969.482-412.816Zm-.845,0a.177.177,0,0,1,.177-.177.177.177,0,0,1,.177.177.178.178,0,0,1-.177.178A.178.178,0,0,1-1970.327-412.816Zm-.846,0a.178.178,0,0,1,.178-.177.177.177,0,0,1,.177.177.178.178,0,0,1-.177.178A.179.179,0,0,1-1971.173-412.816Zm-.845,0a.177.177,0,0,1,.177-.177.178.178,0,0,1,.178.177.179.179,0,0,1-.178.178A.178.178,0,0,1-1972.018-412.816Zm-.846,0a.178.178,0,0,1,.178-.177.177.177,0,0,1,.177.177.178.178,0,0,1-.177.178A.179.179,0,0,1-1972.864-412.816Zm-.845,0a.177.177,0,0,1,.177-.177.178.178,0,0,1,.178.177.179.179,0,0,1-.178.178A.178.178,0,0,1-1973.709-412.816Zm-.845,0a.177.177,0,0,1,.177-.177.177.177,0,0,1,.177.177.178.178,0,0,1-.177.178A.178.178,0,0,1-1974.554-412.816Zm-.846,0a.178.178,0,0,1,.178-.177.177.177,0,0,1,.177.177.178.178,0,0,1-.177.178A.179.179,0,0,1-1975.4-412.816Zm-.845,0a.177.177,0,0,1,.177-.177.178.178,0,0,1,.178.177.179.179,0,0,1-.178.178A.178.178,0,0,1-1976.245-412.816Zm-.846,0a.178.178,0,0,1,.178-.177.177.177,0,0,1,.177.177.178.178,0,0,1-.177.178A.179.179,0,0,1-1977.091-412.816Zm-.845,0a.177.177,0,0,1,.177-.177.178.178,0,0,1,.178.177.179.179,0,0,1-.178.178A.178.178,0,0,1-1977.936-412.816Zm-.845,0a.177.177,0,0,1,.177-.177.177.177,0,0,1,.177.177.178.178,0,0,1-.177.178A.178.178,0,0,1-1978.781-412.816Zm-.846,0a.178.178,0,0,1,.178-.177.177.177,0,0,1,.177.177.178.178,0,0,1-.177.178A.179.179,0,0,1-1979.627-412.816Zm-.845,0a.177.177,0,0,1,.177-.177.177.177,0,0,1,.177.177.178.178,0,0,1-.177.178A.178.178,0,0,1-1980.473-412.816Zm-.846,0a.178.178,0,0,1,.178-.177.177.177,0,0,1,.177.177.178.178,0,0,1-.177.178A.179.179,0,0,1-1981.319-412.816Zm-1.385,0a.177.177,0,0,1,.177-.177.178.178,0,0,1,.178.177.179.179,0,0,1-.178.178A.178.178,0,0,1-1982.7-412.816Zm-.711,0a.178.178,0,0,1,.178-.177.177.177,0,0,1,.177.177.178.178,0,0,1-.177.178A.179.179,0,0,1-1983.415-412.816Zm-.71,0a.177.177,0,0,1,.177-.177.178.178,0,0,1,.178.177.179.179,0,0,1-.178.178A.178.178,0,0,1-1984.125-412.816Zm-1.421,0a.178.178,0,0,1,.178-.177.177.177,0,0,1,.177.177.178.178,0,0,1-.177.178A.179.179,0,0,1-1985.546-412.816Zm16.91-.969a.178.178,0,0,1,.177-.178.178.178,0,0,1,.177.178.177.177,0,0,1-.177.177A.177.177,0,0,1-1968.636-413.785Zm-.846,0a.178.178,0,0,1,.177-.178.179.179,0,0,1,.178.178.178.178,0,0,1-.178.177A.177.177,0,0,1-1969.482-413.785Zm-.845,0a.178.178,0,0,1,.177-.178.178.178,0,0,1,.177.178.177.177,0,0,1-.177.177A.177.177,0,0,1-1970.327-413.785Zm-.846,0a.179.179,0,0,1,.178-.178.178.178,0,0,1,.177.178.177.177,0,0,1-.177.177A.178.178,0,0,1-1971.173-413.785Zm-.845,0a.178.178,0,0,1,.177-.178.179.179,0,0,1,.178.178.178.178,0,0,1-.178.177A.177.177,0,0,1-1972.018-413.785Zm-1.691,0a.178.178,0,0,1,.177-.178.179.179,0,0,1,.178.178.178.178,0,0,1-.178.177A.177.177,0,0,1-1973.709-413.785Zm-.845,0a.178.178,0,0,1,.177-.178.178.178,0,0,1,.177.178.177.177,0,0,1-.177.177A.177.177,0,0,1-1974.554-413.785Zm-.846,0a.179.179,0,0,1,.178-.178.178.178,0,0,1,.177.178.177.177,0,0,1-.177.177A.178.178,0,0,1-1975.4-413.785Zm-.845,0a.178.178,0,0,1,.177-.178.179.179,0,0,1,.178.178.178.178,0,0,1-.178.177A.177.177,0,0,1-1976.245-413.785Zm-.846,0a.179.179,0,0,1,.178-.178.178.178,0,0,1,.177.178.177.177,0,0,1-.177.177A.178.178,0,0,1-1977.091-413.785Zm-.845,0a.178.178,0,0,1,.177-.178.179.179,0,0,1,.178.178.178.178,0,0,1-.178.177A.177.177,0,0,1-1977.936-413.785Zm-.845,0a.178.178,0,0,1,.177-.178.178.178,0,0,1,.177.178.177.177,0,0,1-.177.177A.177.177,0,0,1-1978.781-413.785Zm-.846,0a.179.179,0,0,1,.178-.178.178.178,0,0,1,.177.178.177.177,0,0,1-.177.177A.178.178,0,0,1-1979.627-413.785Zm-.845,0a.178.178,0,0,1,.177-.178.178.178,0,0,1,.177.178.177.177,0,0,1-.177.177A.177.177,0,0,1-1980.473-413.785Zm-.846,0a.179.179,0,0,1,.178-.178.178.178,0,0,1,.177.178.177.177,0,0,1-.177.177A.178.178,0,0,1-1981.319-413.785Zm-2.1,0a.179.179,0,0,1,.178-.178.178.178,0,0,1,.177.178.177.177,0,0,1-.177.177A.178.178,0,0,1-1983.415-413.785Zm-.71,0a.178.178,0,0,1,.177-.178.179.179,0,0,1,.178.178.178.178,0,0,1-.178.177A.177.177,0,0,1-1984.125-413.785Zm-.71,0a.178.178,0,0,1,.177-.178.178.178,0,0,1,.177.178.177.177,0,0,1-.177.177A.177.177,0,0,1-1984.835-413.785Zm16.2-1.749a.177.177,0,0,1,.177-.177.177.177,0,0,1,.177.177.178.178,0,0,1-.177.178A.178.178,0,0,1-1968.636-415.534Zm-1.691,0a.177.177,0,0,1,.177-.177.177.177,0,0,1,.177.177.178.178,0,0,1-.177.178A.178.178,0,0,1-1970.327-415.534Zm-.846,0a.178.178,0,0,1,.178-.177.177.177,0,0,1,.177.177.178.178,0,0,1-.177.178A.179.179,0,0,1-1971.173-415.534Zm-.845,0a.177.177,0,0,1,.177-.177.178.178,0,0,1,.178.177.179.179,0,0,1-.178.178A.178.178,0,0,1-1972.018-415.534Zm-.846,0a.178.178,0,0,1,.178-.177.177.177,0,0,1,.177.177.178.178,0,0,1-.177.178A.179.179,0,0,1-1972.864-415.534Zm-.845,0a.177.177,0,0,1,.177-.177.178.178,0,0,1,.178.177.179.179,0,0,1-.178.178A.178.178,0,0,1-1973.709-415.534Zm-.845,0a.177.177,0,0,1,.177-.177.177.177,0,0,1,.177.177.178.178,0,0,1-.177.178A.178.178,0,0,1-1974.554-415.534Zm-.846,0a.178.178,0,0,1,.178-.177.177.177,0,0,1,.177.177.178.178,0,0,1-.177.178A.179.179,0,0,1-1975.4-415.534Zm-.845,0a.177.177,0,0,1,.177-.177.178.178,0,0,1,.178.177.179.179,0,0,1-.178.178A.178.178,0,0,1-1976.245-415.534Zm-.846,0a.178.178,0,0,1,.178-.177.177.177,0,0,1,.177.177.178.178,0,0,1-.177.178A.179.179,0,0,1-1977.091-415.534Zm-.845,0a.177.177,0,0,1,.177-.177.178.178,0,0,1,.178.177.179.179,0,0,1-.178.178A.178.178,0,0,1-1977.936-415.534Zm-.845,0a.177.177,0,0,1,.177-.177.177.177,0,0,1,.177.177.178.178,0,0,1-.177.178A.178.178,0,0,1-1978.781-415.534Zm-.846,0a.178.178,0,0,1,.178-.177.177.177,0,0,1,.177.177.178.178,0,0,1-.177.178A.179.179,0,0,1-1979.627-415.534Zm-1.691,0a.178.178,0,0,1,.178-.177.177.177,0,0,1,.177.177.178.178,0,0,1-.177.178A.179.179,0,0,1-1981.319-415.534Zm-1.385,0a.177.177,0,0,1,.177-.177.178.178,0,0,1,.178.177.179.179,0,0,1-.178.178A.178.178,0,0,1-1982.7-415.534Zm-.711,0a.178.178,0,0,1,.178-.177.177.177,0,0,1,.177.177.178.178,0,0,1-.177.178A.179.179,0,0,1-1983.415-415.534Zm-.71,0a.177.177,0,0,1,.177-.177.178.178,0,0,1,.178.177.179.179,0,0,1-.178.178A.178.178,0,0,1-1984.125-415.534Zm12.107-.71a.177.177,0,0,1,.177-.177.178.178,0,0,1,.178.177.178.178,0,0,1-.178.177A.177.177,0,0,1-1972.018-416.244Zm-.846,0a.178.178,0,0,1,.178-.177.177.177,0,0,1,.177.177.177.177,0,0,1-.177.177A.178.178,0,0,1-1972.864-416.244Zm-.845,0a.177.177,0,0,1,.177-.177.178.178,0,0,1,.178.177.178.178,0,0,1-.178.177A.177.177,0,0,1-1973.709-416.244Zm-.845,0a.177.177,0,0,1,.177-.177.177.177,0,0,1,.177.177.177.177,0,0,1-.177.177A.177.177,0,0,1-1974.554-416.244Zm-.846,0a.178.178,0,0,1,.178-.177.177.177,0,0,1,.177.177.177.177,0,0,1-.177.177A.178.178,0,0,1-1975.4-416.244Zm-.845,0a.177.177,0,0,1,.177-.177.178.178,0,0,1,.178.177.178.178,0,0,1-.178.177A.177.177,0,0,1-1976.245-416.244Zm-.846,0a.178.178,0,0,1,.178-.177.177.177,0,0,1,.177.177.177.177,0,0,1-.177.177A.178.178,0,0,1-1977.091-416.244Zm-.845,0a.177.177,0,0,1,.177-.177.178.178,0,0,1,.178.177.178.178,0,0,1-.178.177A.177.177,0,0,1-1977.936-416.244Zm-.845,0a.177.177,0,0,1,.177-.177.177.177,0,0,1,.177.177.177.177,0,0,1-.177.177A.177.177,0,0,1-1978.781-416.244Zm-.846,0a.178.178,0,0,1,.178-.177.177.177,0,0,1,.177.177.177.177,0,0,1-.177.177A.178.178,0,0,1-1979.627-416.244Zm-.845,0a.177.177,0,0,1,.177-.177.177.177,0,0,1,.177.177.177.177,0,0,1-.177.177A.177.177,0,0,1-1980.473-416.244Zm-.846,0a.178.178,0,0,1,.178-.177.177.177,0,0,1,.177.177.177.177,0,0,1-.177.177A.178.178,0,0,1-1981.319-416.244Zm-1.385,0a.177.177,0,0,1,.177-.177.178.178,0,0,1,.178.177.178.178,0,0,1-.178.177A.177.177,0,0,1-1982.7-416.244Zm-.711,0a.178.178,0,0,1,.178-.177.177.177,0,0,1,.177.177.177.177,0,0,1-.177.177A.178.178,0,0,1-1983.415-416.244Zm11.4-.71a.178.178,0,0,1,.177-.178.179.179,0,0,1,.178.178.178.178,0,0,1-.178.177A.177.177,0,0,1-1972.018-416.954Zm-.846,0a.179.179,0,0,1,.178-.178.178.178,0,0,1,.177.178.177.177,0,0,1-.177.177A.178.178,0,0,1-1972.864-416.954Zm-.845,0a.178.178,0,0,1,.177-.178.179.179,0,0,1,.178.178.178.178,0,0,1-.178.177A.177.177,0,0,1-1973.709-416.954Zm-.845,0a.178.178,0,0,1,.177-.178.178.178,0,0,1,.177.178.177.177,0,0,1-.177.177A.177.177,0,0,1-1974.554-416.954Zm-.846,0a.179.179,0,0,1,.178-.178.178.178,0,0,1,.177.178.177.177,0,0,1-.177.177A.178.178,0,0,1-1975.4-416.954Zm-.845,0a.178.178,0,0,1,.177-.178.179.179,0,0,1,.178.178.178.178,0,0,1-.178.177A.177.177,0,0,1-1976.245-416.954Zm-.846,0a.179.179,0,0,1,.178-.178.178.178,0,0,1,.177.178.177.177,0,0,1-.177.177A.178.178,0,0,1-1977.091-416.954Zm-.845,0a.178.178,0,0,1,.177-.178.179.179,0,0,1,.178.178.178.178,0,0,1-.178.177A.177.177,0,0,1-1977.936-416.954Zm-.845,0a.178.178,0,0,1,.177-.178.178.178,0,0,1,.177.178.177.177,0,0,1-.177.177A.177.177,0,0,1-1978.781-416.954Zm-.846,0a.179.179,0,0,1,.178-.178.178.178,0,0,1,.177.178.177.177,0,0,1-.177.177A.178.178,0,0,1-1979.627-416.954Zm-1.691,0a.179.179,0,0,1,.178-.178.178.178,0,0,1,.177.178.177.177,0,0,1-.177.177A.178.178,0,0,1-1981.319-416.954Zm-1.385,0a.178.178,0,0,1,.177-.178.179.179,0,0,1,.178.178.178.178,0,0,1-.178.177A.177.177,0,0,1-1982.7-416.954Zm10.686-.711a.177.177,0,0,1,.177-.177.178.178,0,0,1,.178.177.179.179,0,0,1-.178.178A.178.178,0,0,1-1972.018-417.665Zm-2.536,0a.177.177,0,0,1,.177-.177.177.177,0,0,1,.177.177.178.178,0,0,1-.177.178A.178.178,0,0,1-1974.554-417.665Zm-.846,0a.178.178,0,0,1,.178-.177.177.177,0,0,1,.177.177.178.178,0,0,1-.177.178A.179.179,0,0,1-1975.4-417.665Zm-1.691,0a.178.178,0,0,1,.178-.177.177.177,0,0,1,.177.177.178.178,0,0,1-.177.178A.179.179,0,0,1-1977.091-417.665Zm-.845,0a.177.177,0,0,1,.177-.177.178.178,0,0,1,.178.177.179.179,0,0,1-.178.178A.178.178,0,0,1-1977.936-417.665Zm-.845,0a.177.177,0,0,1,.177-.177.177.177,0,0,1,.177.177.178.178,0,0,1-.177.178A.178.178,0,0,1-1978.781-417.665Zm-.846,0a.178.178,0,0,1,.178-.177.177.177,0,0,1,.177.177.178.178,0,0,1-.177.178A.179.179,0,0,1-1979.627-417.665Zm-.845,0a.177.177,0,0,1,.177-.177.177.177,0,0,1,.177.177.178.178,0,0,1-.177.178A.178.178,0,0,1-1980.473-417.665Z" transform="translate(2364.228 680.229)" fill="url(#linear-gradient-2)"/>
    <g data-type="innerShadowGroup">
      <path id="路径_120-2" data-name="路径 120" d="M2376.57,681.673c-.1-1.8.969-2.4,2.625-2.6a2.086,2.086,0,0,1,2.136,2.6c-.3.984-2.05.006-2.136.755S2376.57,681.673,2376.57,681.673Z" transform="translate(-1987 -412.604)" fill="#ffbe7e"/>
      <g transform="matrix(1, 0, 0, 1, 363, 239)" filter="url(#路径_120)">
        <path id="路径_120-3" data-name="路径 120" d="M2376.57,681.673c-.1-1.8.969-2.4,2.625-2.6a2.086,2.086,0,0,1,2.136,2.6c-.3.984-2.05.006-2.136.755S2376.57,681.673,2376.57,681.673Z" transform="translate(-2350 -651.6)" fill="#fff"/>
      </g>
    </g>
    <g id="组_103" data-name="组 103">
      <circle id="椭圆_108" data-name="椭圆 108" cx="0.25" cy="0.25" r="0.25" transform="translate(407 260)" fill="#a06f14"/>
      <circle id="椭圆_111" data-name="椭圆 111" cx="0.25" cy="0.25" r="0.25" transform="translate(405.007 262)" fill="#a06f14"/>
      <circle id="椭圆_112" data-name="椭圆 112" cx="0.25" cy="0.25" r="0.25" transform="translate(406.5 255)" fill="#a06f14"/>
      <circle id="椭圆_113" data-name="椭圆 113" cx="0.25" cy="0.25" r="0.25" transform="translate(402.5 259)" fill="#a06f14"/>
      <circle id="椭圆_114" data-name="椭圆 114" cx="0.25" cy="0.25" r="0.25" transform="translate(403.09 261.5)" fill="#a06f14"/>
      <circle id="椭圆_115" data-name="椭圆 115" cx="0.25" cy="0.25" r="0.25" transform="translate(392.09 268.5)" fill="#a06f14"/>
      <circle id="椭圆_116" data-name="椭圆 116" cx="0.25" cy="0.25" r="0.25" transform="translate(391.09 267.5)" fill="#a06f14"/>
      <circle id="椭圆_117" data-name="椭圆 117" cx="0.25" cy="0.25" r="0.25" transform="translate(390.09 268.25)" fill="#a06f14"/>
      <circle id="椭圆_118" data-name="椭圆 118" cx="0.25" cy="0.25" r="0.25" transform="translate(394.09 268.25)" fill="#a06f14"/>
      <circle id="椭圆_119" data-name="椭圆 119" cx="0.25" cy="0.25" r="0.25" transform="translate(392.34 266.25)" fill="#a06f14"/>
      <circle id="椭圆_120" data-name="椭圆 120" cx="0.25" cy="0.25" r="0.25" transform="translate(384.34 260.25)" fill="#a06f14"/>
      <circle id="椭圆_121" data-name="椭圆 121" cx="0.25" cy="0.25" r="0.25" transform="translate(386.34 258.5)" fill="#a06f14"/>
      <circle id="椭圆_122" data-name="椭圆 122" cx="0.25" cy="0.25" r="0.25" transform="translate(385.34 258)" fill="#a06f14"/>
      <circle id="椭圆_123" data-name="椭圆 123" cx="0.25" cy="0.25" r="0.25" transform="translate(386.84 261)" fill="#a06f14"/>
      <circle id="椭圆_124" data-name="椭圆 124" cx="0.25" cy="0.25" r="0.25" transform="translate(385.59 261.5)" fill="#a06f14"/>
      <circle id="椭圆_125" data-name="椭圆 125" cx="0.25" cy="0.25" r="0.25" transform="translate(385.59 259.87)" fill="#a06f14"/>
      <circle id="椭圆_126" data-name="椭圆 126" cx="0.25" cy="0.25" r="0.25" transform="translate(386.09 262.87)" fill="#a06f14"/>
      <circle id="椭圆_109" data-name="椭圆 109" cx="0.25" cy="0.25" r="0.25" transform="translate(403.59 260.12)" fill="#a06f14"/>
      <circle id="椭圆_110" data-name="椭圆 110" cx="0.25" cy="0.25" r="0.25" transform="translate(405.257 257.117)" fill="#a06f14"/>
    </g>
  </g>
</svg>
