<svg xmlns="http://www.w3.org/2000/svg" width="171" height="42" viewBox="0 0 171 42">
  <g id="组_311" data-name="组 311" transform="translate(-1721 -128)">
    <rect id="矩形_5" data-name="矩形 5" width="171" height="42" rx="21" transform="translate(1721 128)" fill="rgba(255,209,209,0.3)"/>
    <path id="路径_586" data-name="路径 586" d="M1.2,0V-10.47H7.89v1.845H3.45v2.4H7.74V-4.38H3.45v2.535H7.89V0ZM16.305,0a1.669,1.669,0,0,1-1.11-.352A1.479,1.479,0,0,1,14.7-1.365h-.075A1.9,1.9,0,0,1,13.792-.21,2.813,2.813,0,0,1,12.27.18a2.618,2.618,0,0,1-1.808-.608,2.161,2.161,0,0,1-.682-1.7,2.007,2.007,0,0,1,.885-1.8,4.725,4.725,0,0,1,2.6-.585h1.245V-4.9a1.5,1.5,0,0,0-.323-1.043A1.42,1.42,0,0,0,13.1-6.3a2.138,2.138,0,0,0-1.14.27,2.642,2.642,0,0,0-.75.705L9.99-6.4a2.912,2.912,0,0,1,1.222-1.088A4.671,4.671,0,0,1,13.35-7.92a3.825,3.825,0,0,1,2.483.727,2.668,2.668,0,0,1,.892,2.2v3.39h.855V0Zm-3.2-1.275a1.677,1.677,0,0,0,.99-.285.946.946,0,0,0,.4-.825v-.93H13.32q-1.365,0-1.365.915v.3a.692.692,0,0,0,.315.615A1.493,1.493,0,0,0,13.11-1.275Zm6-.45H20.9v-4.29H19.11V-7.74h4v2.19h.1a4.432,4.432,0,0,1,.293-.817,2.663,2.663,0,0,1,.48-.705A2.124,2.124,0,0,1,24.7-7.56a2.5,2.5,0,0,1,.99-.18h.735V-5.7H24.78a1.553,1.553,0,0,0-1.245.487,1.764,1.764,0,0,0-.42,1.193v2.295h2.55V0H19.11ZM32.1,0a2.323,2.323,0,0,1-1.785-.63,2.266,2.266,0,0,1-.585-1.605v-3.78h-2.1V-7.74H29a1.025,1.025,0,0,0,.7-.2.967.967,0,0,0,.21-.72V-10.47h2.04v2.73h3.015v1.725H31.95v4.29h3.015V0Zm4.875-11.1h2.22v4.77h.09a3.294,3.294,0,0,1,.33-.615,2.25,2.25,0,0,1,.472-.5,2.21,2.21,0,0,1,.645-.345,2.531,2.531,0,0,1,.833-.127,2.7,2.7,0,0,1,1.02.188,2.081,2.081,0,0,1,.8.563,2.714,2.714,0,0,1,.517.915,3.79,3.79,0,0,1,.188,1.245V0h-2.22V-4.71q0-1.5-1.305-1.5a1.9,1.9,0,0,0-.5.068,1.34,1.34,0,0,0-.442.21,1.04,1.04,0,0,0-.308.352,1.033,1.033,0,0,0-.112.495V0h-2.22ZM50.9-1.41h-.1a2.976,2.976,0,0,1-.833,1.147A2.221,2.221,0,0,1,48.495.18a2.833,2.833,0,0,1-1.177-.24A2.389,2.389,0,0,1,46.4-.8a3.693,3.693,0,0,1-.6-1.26,6.685,6.685,0,0,1-.218-1.815A6.685,6.685,0,0,1,45.8-5.685a3.693,3.693,0,0,1,.6-1.26,2.389,2.389,0,0,1,.915-.735,2.833,2.833,0,0,1,1.177-.24,2.606,2.606,0,0,1,.825.12,2.2,2.2,0,0,1,.638.33,2.185,2.185,0,0,1,.48.5,3.727,3.727,0,0,1,.353.638h.1V-7.74h2.22V3H50.9Zm-1.44-.135a1.783,1.783,0,0,0,1.012-.285,1,1,0,0,0,.428-.9V-5.01a1,1,0,0,0-.428-.9,1.783,1.783,0,0,0-1.012-.285,1.461,1.461,0,0,0-1.155.457,1.846,1.846,0,0,0-.4,1.267v1.2A1.846,1.846,0,0,0,48.3-2,1.461,1.461,0,0,0,49.455-1.545Zm10.35.135h-.09a2.761,2.761,0,0,1-.8,1.125A2.208,2.208,0,0,1,57.435.18a2.7,2.7,0,0,1-1.02-.188,2.081,2.081,0,0,1-.8-.562,2.714,2.714,0,0,1-.517-.915,3.79,3.79,0,0,1-.187-1.245V-7.74h2.22v4.71q0,1.5,1.305,1.5a1.9,1.9,0,0,0,.5-.067,1.257,1.257,0,0,0,.435-.21,1.161,1.161,0,0,0,.308-.352.981.981,0,0,0,.12-.5V-7.74h2.22V0h-2.22ZM70.305,0a1.669,1.669,0,0,1-1.11-.352,1.479,1.479,0,0,1-.5-1.013h-.075A1.9,1.9,0,0,1,67.793-.21,2.813,2.813,0,0,1,66.27.18a2.618,2.618,0,0,1-1.807-.608,2.161,2.161,0,0,1-.683-1.7,2.007,2.007,0,0,1,.885-1.8,4.725,4.725,0,0,1,2.6-.585H68.5V-4.9a1.5,1.5,0,0,0-.322-1.043A1.42,1.42,0,0,0,67.1-6.3a2.138,2.138,0,0,0-1.14.27,2.642,2.642,0,0,0-.75.705L63.99-6.4a2.912,2.912,0,0,1,1.222-1.088A4.671,4.671,0,0,1,67.35-7.92a3.825,3.825,0,0,1,2.482.727,2.668,2.668,0,0,1,.893,2.2v3.39h.855V0ZM67.11-1.275a1.677,1.677,0,0,0,.99-.285.946.946,0,0,0,.4-.825v-.93H67.32q-1.365,0-1.365.915v.3a.692.692,0,0,0,.315.615A1.493,1.493,0,0,0,67.11-1.275ZM72.975-11.1h2.22v6.3H75.3l1.035-1.215,1.62-1.725H80.5l-3,3.06L80.82,0H78.18L75.93-3.42l-.735.735V0h-2.22ZM85.71.18A3.841,3.841,0,0,1,82.755-.9a4.145,4.145,0,0,1-1-2.94,5.179,5.179,0,0,1,.262-1.7,3.655,3.655,0,0,1,.75-1.29,3.172,3.172,0,0,1,1.185-.81,4.209,4.209,0,0,1,1.567-.277,4.151,4.151,0,0,1,1.56.277,3.245,3.245,0,0,1,1.17.788,3.525,3.525,0,0,1,.743,1.237A4.77,4.77,0,0,1,89.25-3.99v.66H83.955v.135a1.618,1.618,0,0,0,.465,1.207,1.869,1.869,0,0,0,1.365.457,2.5,2.5,0,0,0,1.185-.262,2.807,2.807,0,0,0,.855-.7l1.2,1.3a3.746,3.746,0,0,1-1.26.96A4.585,4.585,0,0,1,85.71.18Zm-.18-6.51a1.522,1.522,0,0,0-1.147.442,1.644,1.644,0,0,0-.427,1.193v.12h3.12v-.12a1.673,1.673,0,0,0-.412-1.2A1.486,1.486,0,0,0,85.53-6.33Z" transform="translate(1780 155)" fill="#ff6767"/>
    <circle id="椭圆_26" data-name="椭圆 26" cx="11.5" cy="11.5" r="11.5" transform="translate(1732 138)" fill="#ff6767"/>
    <path id="路径_84" data-name="路径 84" d="M6.18,7.351,9.2,9.658l-1.345,3.37L10.1,9.222,6.869,7.529l3.228-2.6L11.074.893a7.419,7.419,0,0,1,3.975,6.636A7.621,7.621,0,0,1,10.1,14.6a7.118,7.118,0,0,1-2.572.451,7.978,7.978,0,0,1-2.38-.384A7.44,7.44,0,0,1,0,7.529,7.639,7.639,0,0,1,3.339,1.276,7.288,7.288,0,0,1,6.593.061l2.159,3.8Z" transform="translate(1735.976 141.942)" fill="#fff"/>
  </g>
</svg>
