<svg xmlns="http://www.w3.org/2000/svg" xmlns:xlink="http://www.w3.org/1999/xlink" width="349.581" height="248.475" viewBox="0 0 349.581 248.475">
  <defs>
    <linearGradient id="linear-gradient" x1="0.5" x2="0.5" y2="1" gradientUnits="objectBoundingBox">
      <stop offset="0" stop-color="#d1ffee"/>
      <stop offset="1" stop-color="#fd450b"/>
    </linearGradient>
  </defs>
  <g id="组_310" data-name="组 310" transform="translate(-1523.102 -709.481)">
    <path id="路径_315" data-name="路径 315" d="M113-43.373c88.158,14.226,103.544-18.212,163.318,4.035s48.558,153.521,37.837,186.462-45.159,49.3-114.438,43.593-153.99,12.554-189.664-7.19S-26.3,119.37-26.892,74.516C-27.134,56.05-20.337,8.134-7.125-2.427S11.9-1.011,30.111-11.9s7.373-20.824,26.082-29.585S90.837-46.949,113-43.373Z" transform="translate(1550 764.981)" fill="#ce4a21" opacity="0.197"/>
    <path id="路径_573" data-name="路径 573" d="M1,12V3.624H6.288v1.3H2.568V7.1H6.156V8.4H2.568v2.3h3.72V12ZM8.94,9.1V7.6h3.72V9.1Zm9.444-4.248a1.039,1.039,0,0,1-.762-.228.762.762,0,0,1-.222-.552V3.78a.762.762,0,0,1,.222-.552A1.039,1.039,0,0,1,18.384,3a1.039,1.039,0,0,1,.762.228.762.762,0,0,1,.222.552v.288a.762.762,0,0,1-.222.552A1.039,1.039,0,0,1,18.384,4.848Zm-2.808,5.94h2.04V7.02h-2.04V5.808h3.576v4.98h1.9V12H15.576ZM22.044,12V5.808h1.272V6.66h.072a2.015,2.015,0,0,1,.414-.7.983.983,0,0,1,.762-.294,1.018,1.018,0,0,1,.744.27,1.35,1.35,0,0,1,.36.762h.06a2,2,0,0,1,.462-.726,1.177,1.177,0,0,1,.87-.306,1.063,1.063,0,0,1,.984.492,2.829,2.829,0,0,1,.3,1.452V12h-1.26V7.788a1.392,1.392,0,0,0-.15-.756.512.512,0,0,0-.45-.216.638.638,0,0,0-.462.18.737.737,0,0,0-.186.552V12H24.564V7.788a1.44,1.44,0,0,0-.144-.756.5.5,0,0,0-.444-.216A.654.654,0,0,0,23.5,7a.737.737,0,0,0-.186.552V12Zm7.584-6.192h1.536V6.9h.084a2.28,2.28,0,0,1,.69-.9A1.852,1.852,0,0,1,33.1,5.664a2.318,2.318,0,0,1,.966.2,1.967,1.967,0,0,1,.75.6,2.879,2.879,0,0,1,.48,1.014A5.423,5.423,0,0,1,35.46,8.9a5.423,5.423,0,0,1-.168,1.428,2.879,2.879,0,0,1-.48,1.014,1.967,1.967,0,0,1-.75.6,2.318,2.318,0,0,1-.966.2,1.852,1.852,0,0,1-1.158-.336,2.28,2.28,0,0,1-.69-.9h-.084V14.4H29.628Zm2.82,5.112a1.322,1.322,0,0,0,1.038-.408A1.61,1.61,0,0,0,33.852,9.4V8.412A1.61,1.61,0,0,0,33.486,7.3a1.322,1.322,0,0,0-1.038-.408,1.568,1.568,0,0,0-.906.258.887.887,0,0,0-.378.786V9.876a.887.887,0,0,0,.378.786A1.568,1.568,0,0,0,32.448,10.92ZM41.88,12a1.238,1.238,0,0,1-.87-.282,1.223,1.223,0,0,1-.366-.786h-.06a1.543,1.543,0,0,1-.66.894,2.187,2.187,0,0,1-1.212.318,2.154,2.154,0,0,1-1.488-.492,1.738,1.738,0,0,1-.552-1.368q0-1.872,2.748-1.872h1.092V8a1.235,1.235,0,0,0-.288-.888,1.252,1.252,0,0,0-.936-.3,1.751,1.751,0,0,0-.948.228,2.139,2.139,0,0,0-.612.588l-.876-.744a2.289,2.289,0,0,1,.93-.87,3.425,3.425,0,0,1,1.662-.354,2.921,2.921,0,0,1,1.914.57,2.075,2.075,0,0,1,.69,1.7v2.916h.732V12Zm-2.652-.912a1.555,1.555,0,0,0,.918-.258.815.815,0,0,0,.366-.7V9.3H39.456q-1.26,0-1.26.792v.24a.643.643,0,0,0,.276.564A1.305,1.305,0,0,0,39.228,11.088Zm7.812,1.056a3.368,3.368,0,0,1-1.272-.228,2.623,2.623,0,0,1-.954-.648,2.87,2.87,0,0,1-.6-1.02A4.05,4.05,0,0,1,44,8.9a4.05,4.05,0,0,1,.21-1.344,2.87,2.87,0,0,1,.6-1.02,2.634,2.634,0,0,1,.948-.648,3.322,3.322,0,0,1,1.266-.228,2.769,2.769,0,0,1,1.584.408,2.608,2.608,0,0,1,.912,1.08L48.336,7.8a1.615,1.615,0,0,0-.474-.642,1.3,1.3,0,0,0-.834-.246,1.359,1.359,0,0,0-1.05.4,1.529,1.529,0,0,0-.366,1.08V9.42a1.534,1.534,0,0,0,.366,1.074,1.379,1.379,0,0,0,1.074.4,1.417,1.417,0,0,0,.882-.252,1.837,1.837,0,0,0,.534-.672l1.152.684a2.593,2.593,0,0,1-.942,1.074A2.934,2.934,0,0,1,47.04,12.144ZM54.42,12a1.672,1.672,0,0,1-1.308-.468,1.746,1.746,0,0,1-.42-1.212V7.02h-1.8V5.808h1.224a.75.75,0,0,0,.528-.15.728.728,0,0,0,.156-.534v-1.5h1.428V5.808h2.52V7.02h-2.52v3.768h2.52V12Zm13.956.144a4.468,4.468,0,0,1-1.764-.318,2.86,2.86,0,0,1-1.164-.858l.9-.816a2.723,2.723,0,0,0,.882.648,2.757,2.757,0,0,0,1.158.228,1.912,1.912,0,0,0,.924-.192.629.629,0,0,0,.348-.588.464.464,0,0,0-.234-.456,2.073,2.073,0,0,0-.618-.18l-1-.156a5.237,5.237,0,0,1-.75-.174,2.225,2.225,0,0,1-.648-.318,1.5,1.5,0,0,1-.45-.522,1.639,1.639,0,0,1-.168-.774,1.713,1.713,0,0,1,.726-1.488,3.4,3.4,0,0,1,2-.516,4.125,4.125,0,0,1,1.53.252,2.723,2.723,0,0,1,1.038.708l-.8.888a2.339,2.339,0,0,0-1.812-.732q-1.176,0-1.176.732a.474.474,0,0,0,.24.462,2.027,2.027,0,0,0,.624.186l.984.156a5.156,5.156,0,0,1,.762.174,2.225,2.225,0,0,1,.648.318,1.513,1.513,0,0,1,.45.516,1.6,1.6,0,0,1,.168.768,1.77,1.77,0,0,1-.738,1.506A3.4,3.4,0,0,1,68.376,12.144Zm7.608-7.3a1.039,1.039,0,0,1-.762-.228A.762.762,0,0,1,75,4.068V3.78a.762.762,0,0,1,.222-.552,1.387,1.387,0,0,1,1.524,0,.762.762,0,0,1,.222.552v.288a.762.762,0,0,1-.222.552A1.039,1.039,0,0,1,75.984,4.848Zm-2.808,5.94h2.04V7.02h-2.04V5.808h3.576v4.98h1.9V12H73.176Zm12.936,1.86a1.538,1.538,0,0,1-.81,1.434,5.289,5.289,0,0,1-2.526.462,8.081,8.081,0,0,1-1.4-.1,2.936,2.936,0,0,1-.906-.294,1.184,1.184,0,0,1-.486-.462,1.267,1.267,0,0,1-.144-.606,1.022,1.022,0,0,1,.3-.792,1.878,1.878,0,0,1,.84-.408v-.1a1.393,1.393,0,0,1-.57-.336.824.824,0,0,1-.21-.6.8.8,0,0,1,.306-.684,2.2,2.2,0,0,1,.81-.348v-.06a2.069,2.069,0,0,1-.864-.744,2.09,2.09,0,0,1-.312-1.164,2.163,2.163,0,0,1,.186-.918,1.921,1.921,0,0,1,.528-.684,2.4,2.4,0,0,1,.822-.432,3.874,3.874,0,0,1,2.2.018V5.568a.825.825,0,0,1,.234-.6.871.871,0,0,1,.654-.24h1.116V5.88H84.408v.2a1.936,1.936,0,0,1,.7.714,2.112,2.112,0,0,1,.246,1.05,2.2,2.2,0,0,1-.186.924,1.854,1.854,0,0,1-.528.684,2.456,2.456,0,0,1-.828.426,3.63,3.63,0,0,1-1.074.15q-.24,0-.462-.018a2.11,2.11,0,0,1-.426-.078,1.049,1.049,0,0,0-.324.192.433.433,0,0,0-.156.348.329.329,0,0,0,.276.354,2.872,2.872,0,0,0,.66.066h1.4a4.193,4.193,0,0,1,1.1.126,2.018,2.018,0,0,1,.744.36,1.386,1.386,0,0,1,.42.558A1.859,1.859,0,0,1,86.112,12.648Zm-1.44.108a.514.514,0,0,0-.222-.438,1.482,1.482,0,0,0-.822-.162H81.492a.652.652,0,0,0-.36.6.665.665,0,0,0,.27.54,1.5,1.5,0,0,0,.918.216h1Q84.672,13.512,84.672,12.756ZM82.74,9.024a1.164,1.164,0,0,0,.864-.282A1.01,1.01,0,0,0,83.88,8V7.692a1.01,1.01,0,0,0-.276-.738,1.164,1.164,0,0,0-.864-.282,1.146,1.146,0,0,0-.852.282,1.01,1.01,0,0,0-.276.738V8a1.01,1.01,0,0,0,.276.738A1.146,1.146,0,0,0,82.74,9.024ZM87.3,12V5.808h1.536V6.9h.06a2.245,2.245,0,0,1,.63-.87,1.756,1.756,0,0,1,1.182-.366,1.942,1.942,0,0,1,1.482.606A2.436,2.436,0,0,1,92.76,8v4H91.224V8.22q0-1.344-1.164-1.344a1.7,1.7,0,0,0-.456.06,1.212,1.212,0,0,0-.39.186.958.958,0,0,0-.276.306.863.863,0,0,0-.1.432V12ZM97.584,4.848a1.039,1.039,0,0,1-.762-.228.762.762,0,0,1-.222-.552V3.78a.762.762,0,0,1,.222-.552,1.387,1.387,0,0,1,1.524,0,.762.762,0,0,1,.222.552v.288a.762.762,0,0,1-.222.552A1.039,1.039,0,0,1,97.584,4.848Zm-2.808,5.94h2.04V7.02h-2.04V5.808h3.576v4.98h1.9V12H94.776Zm6.924,0h1.9V7.02H101.58V5.808H103.6V4.8a2.135,2.135,0,0,1,.1-.678,1.365,1.365,0,0,1,.318-.528,1.49,1.49,0,0,1,.546-.348,2.166,2.166,0,0,1,.774-.126h2.088V4.332h-2.292V5.808h2.292V7.02h-2.292v3.768h2.016V12H101.7Zm10.284-5.94a1.039,1.039,0,0,1-.762-.228A.762.762,0,0,1,111,4.068V3.78a.762.762,0,0,1,.222-.552,1.387,1.387,0,0,1,1.524,0,.762.762,0,0,1,.222.552v.288a.762.762,0,0,1-.222.552A1.039,1.039,0,0,1,111.984,4.848Zm-2.808,5.94h2.04V7.02h-2.04V5.808h3.576v4.98h1.9V12h-5.472Zm9.864,1.356a3.368,3.368,0,0,1-1.272-.228,2.623,2.623,0,0,1-.954-.648,2.87,2.87,0,0,1-.6-1.02A4.05,4.05,0,0,1,116,8.9a4.05,4.05,0,0,1,.21-1.344,2.87,2.87,0,0,1,.6-1.02,2.634,2.634,0,0,1,.948-.648,3.322,3.322,0,0,1,1.266-.228,2.769,2.769,0,0,1,1.584.408,2.608,2.608,0,0,1,.912,1.08l-1.188.648a1.615,1.615,0,0,0-.474-.642,1.3,1.3,0,0,0-.834-.246,1.359,1.359,0,0,0-1.05.4,1.529,1.529,0,0,0-.366,1.08V9.42a1.534,1.534,0,0,0,.366,1.074,1.379,1.379,0,0,0,1.074.4,1.417,1.417,0,0,0,.882-.252,1.837,1.837,0,0,0,.534-.672l1.152.684a2.593,2.593,0,0,1-.942,1.074A2.934,2.934,0,0,1,119.04,12.144ZM128.28,12a1.237,1.237,0,0,1-.87-.282,1.223,1.223,0,0,1-.366-.786h-.06a1.543,1.543,0,0,1-.66.894,2.187,2.187,0,0,1-1.212.318,2.154,2.154,0,0,1-1.488-.492,1.738,1.738,0,0,1-.552-1.368q0-1.872,2.748-1.872h1.092V8a1.235,1.235,0,0,0-.288-.888,1.252,1.252,0,0,0-.936-.3,1.751,1.751,0,0,0-.948.228,2.14,2.14,0,0,0-.612.588l-.876-.744a2.289,2.289,0,0,1,.93-.87,3.425,3.425,0,0,1,1.662-.354,2.921,2.921,0,0,1,1.914.57,2.075,2.075,0,0,1,.69,1.7v2.916h.732V12Zm-2.652-.912a1.555,1.555,0,0,0,.918-.258.815.815,0,0,0,.366-.7V9.3h-1.056q-1.26,0-1.26.792v.24a.643.643,0,0,0,.276.564A1.305,1.305,0,0,0,125.628,11.088ZM130.5,12V5.808h1.536V6.9h.06a2.245,2.245,0,0,1,.63-.87,1.756,1.756,0,0,1,1.182-.366,1.942,1.942,0,0,1,1.482.606A2.436,2.436,0,0,1,135.96,8v4h-1.536V8.22q0-1.344-1.164-1.344a1.7,1.7,0,0,0-.456.06,1.212,1.212,0,0,0-.39.186.959.959,0,0,0-.276.306.863.863,0,0,0-.1.432V12Zm10.32,0a1.672,1.672,0,0,1-1.308-.468,1.746,1.746,0,0,1-.42-1.212V7.02h-1.8V5.808h1.224a.75.75,0,0,0,.528-.15.728.728,0,0,0,.156-.534v-1.5h1.428V5.808h2.52V7.02h-2.52v3.768h2.52V12Zm15.216-1.092h-.084a2.28,2.28,0,0,1-.69.9,1.852,1.852,0,0,1-1.158.336,2.318,2.318,0,0,1-.966-.2,1.967,1.967,0,0,1-.75-.6,2.879,2.879,0,0,1-.48-1.014A5.423,5.423,0,0,1,151.74,8.9a3.835,3.835,0,0,1,.648-2.436,2.094,2.094,0,0,1,1.716-.8A1.852,1.852,0,0,1,155.262,6a2.28,2.28,0,0,1,.69.9h.084V3.12h1.536V12h-1.536Zm-1.284.012a1.827,1.827,0,0,0,.5-.066,1.282,1.282,0,0,0,.408-.192.9.9,0,0,0,.276-.324,1,1,0,0,0,.1-.462V7.932a1,1,0,0,0-.1-.462.9.9,0,0,0-.276-.324,1.282,1.282,0,0,0-.408-.192,1.827,1.827,0,0,0-.5-.066,1.322,1.322,0,0,0-1.038.408,1.61,1.61,0,0,0-.366,1.116V9.4a1.61,1.61,0,0,0,.366,1.116A1.322,1.322,0,0,0,154.752,10.92Zm4.548-.132h1.536V7.02H159.3V5.808h3.072V7.5h.1a3.322,3.322,0,0,1,.234-.63,2.006,2.006,0,0,1,.384-.54,1.8,1.8,0,0,1,.57-.378,2.034,2.034,0,0,1,.8-.144h.672v1.44H163.86A1.383,1.383,0,0,0,162.372,8.7v2.088h2.148V12H159.3Zm9.9,1.356a3.322,3.322,0,0,1-1.266-.228,2.634,2.634,0,0,1-.948-.648,2.87,2.87,0,0,1-.6-1.02,4.05,4.05,0,0,1-.21-1.344,4.05,4.05,0,0,1,.21-1.344,2.87,2.87,0,0,1,.6-1.02,2.634,2.634,0,0,1,.948-.648,3.612,3.612,0,0,1,2.526,0,2.623,2.623,0,0,1,.954.648,2.87,2.87,0,0,1,.6,1.02,4.05,4.05,0,0,1,.21,1.344,4.05,4.05,0,0,1-.21,1.344,2.87,2.87,0,0,1-.6,1.02,2.623,2.623,0,0,1-.954.648A3.334,3.334,0,0,1,169.2,12.144Zm0-1.176a1.375,1.375,0,0,0,1.044-.4,1.649,1.649,0,0,0,.384-1.182v-.96a1.649,1.649,0,0,0-.384-1.182,1.557,1.557,0,0,0-2.088,0,1.649,1.649,0,0,0-.384,1.182v.96a1.649,1.649,0,0,0,.384,1.182A1.375,1.375,0,0,0,169.2,10.968Zm4.428-5.16h1.536V6.9h.084a2.28,2.28,0,0,1,.69-.9,1.853,1.853,0,0,1,1.158-.336,2.318,2.318,0,0,1,.966.2,1.967,1.967,0,0,1,.75.6,2.879,2.879,0,0,1,.48,1.014A5.423,5.423,0,0,1,179.46,8.9a5.423,5.423,0,0,1-.168,1.428,2.879,2.879,0,0,1-.48,1.014,1.967,1.967,0,0,1-.75.6,2.318,2.318,0,0,1-.966.2,1.853,1.853,0,0,1-1.158-.336,2.28,2.28,0,0,1-.69-.9h-.084V14.4h-1.536Zm2.82,5.112a1.322,1.322,0,0,0,1.038-.408,1.61,1.61,0,0,0,.366-1.116V8.412a1.61,1.61,0,0,0-.366-1.116,1.322,1.322,0,0,0-1.038-.408,1.568,1.568,0,0,0-.906.258.887.887,0,0,0-.378.786V9.876a.887.887,0,0,0,.378.786A1.568,1.568,0,0,0,176.448,10.92Z" transform="translate(1607 749.233)" fill="#d1ffee"/>
    <g id="组_307" data-name="组 307" transform="translate(1 -80.412)">
      <path id="路径_572" data-name="路径 572" d="M10-9.619c14.41-.819,21.618,12.747,21.618,20.479s1.981,18.944-8.67,22.877S-6.048,28.728-7.5,16.148-4.415-8.8,10-9.619Z" transform="matrix(-0.087, 0.996, -0.996, -0.087, 1577.508, 800.646)" fill="#ce4a22"/>
      <circle id="椭圆_232" data-name="椭圆 232" cx="2" cy="2" r="2" transform="translate(1562 818)" fill="#ffb8a2"/>
      <rect id="矩形_70" data-name="矩形 70" width="4" height="13" rx="2" transform="translate(1562 803)" fill="#ffb8a2"/>
    </g>
    <g id="组_254" data-name="组 254" transform="translate(968.745 -110.682)">
      <line id="直线_18" data-name="直线 18" x2="227.351" transform="translate(629.5 905.5)" fill="none" stroke="rgba(255,255,255,0.1)" stroke-width="1"/>
      <line id="直线_19" data-name="直线 19" x2="227.351" transform="translate(629.5 924.5)" fill="none" stroke="rgba(255,255,255,0.1)" stroke-width="1"/>
      <line id="直线_20" data-name="直线 20" x2="227.351" transform="translate(629.5 943.5)" fill="none" stroke="rgba(255,255,255,0.1)" stroke-width="1"/>
      <line id="直线_21" data-name="直线 21" x2="227.351" transform="translate(629.5 962.5)" fill="none" stroke="rgba(255,255,255,0.1)" stroke-width="1"/>
      <line id="直线_22" data-name="直线 22" x2="227.351" transform="translate(629.5 981.5)" fill="none" stroke="rgba(255,255,255,0.1)" stroke-width="1"/>
      <line id="直线_25" data-name="直线 25" x2="227.351" transform="translate(629.5 1000.5)" fill="none" stroke="rgba(255,255,255,0.1)" stroke-width="1"/>
      <line id="直线_26" data-name="直线 26" x2="227.351" transform="translate(629.5 1019.5)" fill="none" stroke="rgba(255,255,255,0.1)" stroke-width="1"/>
      <g id="组_308" data-name="组 308">
        <path id="路径_574" data-name="路径 574" d="M3.51,10V8.65H.28V7.53L3.13,3.02H4.76V7.63H5.7V8.65H4.76V10ZM1.35,7.63H3.51V4.3H3.43ZM9,10.12a2.654,2.654,0,0,1-1.18-.245,2.159,2.159,0,0,1-.825-.7,3.181,3.181,0,0,1-.48-1.13A6.821,6.821,0,0,1,6.36,6.51a6.838,6.838,0,0,1,.155-1.525,3.181,3.181,0,0,1,.48-1.135,2.159,2.159,0,0,1,.825-.705A2.654,2.654,0,0,1,9,2.9a2.241,2.241,0,0,1,2,.95,4.726,4.726,0,0,1,.64,2.66A4.726,4.726,0,0,1,11,9.17,2.241,2.241,0,0,1,9,10.12ZM9,9.07a1.072,1.072,0,0,0,1.015-.515,2.881,2.881,0,0,0,.3-1.425V5.89a2.881,2.881,0,0,0-.3-1.425A1.072,1.072,0,0,0,9,3.95a1.072,1.072,0,0,0-1.015.515,2.881,2.881,0,0,0-.3,1.425V7.13a2.881,2.881,0,0,0,.3,1.425A1.072,1.072,0,0,0,9,9.07ZM9,7.1a.664.664,0,0,1-.485-.14.472.472,0,0,1-.135-.34V6.4a.472.472,0,0,1,.135-.34A.664.664,0,0,1,9,5.92a.664.664,0,0,1,.485.14.472.472,0,0,1,.135.34v.22a.472.472,0,0,1-.135.34A.664.664,0,0,1,9,7.1Z" transform="translate(605.255 975.5)" fill="#b1b1b1"/>
        <path id="路径_575" data-name="路径 575" d="M2.72,5.84a1.414,1.414,0,0,0,.925-.25.791.791,0,0,0,.3-.63V4.89a.828.828,0,0,0-.285-.67,1.182,1.182,0,0,0-.785-.24,1.579,1.579,0,0,0-.84.22,1.964,1.964,0,0,0-.62.62L.56,4.06A3.7,3.7,0,0,1,.965,3.6a2.379,2.379,0,0,1,.51-.37A2.765,2.765,0,0,1,2.11,2.99a3.223,3.223,0,0,1,.8-.09,3.6,3.6,0,0,1,.975.125,2.239,2.239,0,0,1,.76.365,1.718,1.718,0,0,1,.49.575,1.606,1.606,0,0,1,.175.755,1.577,1.577,0,0,1-.11.6,1.54,1.54,0,0,1-.295.47,1.607,1.607,0,0,1-.43.33,2.015,2.015,0,0,1-.525.19v.05a2.243,2.243,0,0,1,.58.195A1.681,1.681,0,0,1,5,6.9a1.594,1.594,0,0,1,.32.5,1.751,1.751,0,0,1,.12.665,1.852,1.852,0,0,1-.19.84,1.893,1.893,0,0,1-.535.65,2.487,2.487,0,0,1-.83.415A3.782,3.782,0,0,1,2.8,10.12a3.432,3.432,0,0,1-.89-.1,2.7,2.7,0,0,1-.69-.285A2.393,2.393,0,0,1,.7,9.315,4.009,4.009,0,0,1,.31,8.83l.97-.75a2.462,2.462,0,0,0,.595.69,1.5,1.5,0,0,0,.945.27,1.393,1.393,0,0,0,.925-.275A.948.948,0,0,0,4.07,8V7.92a.854.854,0,0,0-.35-.735,1.659,1.659,0,0,0-.99-.255h-.7V5.84ZM9,10.12a2.654,2.654,0,0,1-1.18-.245,2.159,2.159,0,0,1-.825-.7,3.181,3.181,0,0,1-.48-1.13A6.821,6.821,0,0,1,6.36,6.51a6.838,6.838,0,0,1,.155-1.525,3.181,3.181,0,0,1,.48-1.135,2.159,2.159,0,0,1,.825-.705A2.654,2.654,0,0,1,9,2.9a2.241,2.241,0,0,1,2,.95,4.726,4.726,0,0,1,.64,2.66A4.726,4.726,0,0,1,11,9.17,2.241,2.241,0,0,1,9,10.12ZM9,9.07a1.072,1.072,0,0,0,1.015-.515,2.881,2.881,0,0,0,.3-1.425V5.89a2.881,2.881,0,0,0-.3-1.425A1.072,1.072,0,0,0,9,3.95a1.072,1.072,0,0,0-1.015.515,2.881,2.881,0,0,0-.3,1.425V7.13a2.881,2.881,0,0,0,.3,1.425A1.072,1.072,0,0,0,9,9.07ZM9,7.1a.664.664,0,0,1-.485-.14.472.472,0,0,1-.135-.34V6.4a.472.472,0,0,1,.135-.34A.664.664,0,0,1,9,5.92a.664.664,0,0,1,.485.14.472.472,0,0,1,.135.34v.22a.472.472,0,0,1-.135.34A.664.664,0,0,1,9,7.1Z" transform="translate(605.255 994.5)" fill="#b1b1b1"/>
        <path id="路径_576" data-name="路径 576" d="M5.5,10H.58V8.78L2.82,6.87a4.751,4.751,0,0,0,.83-.875,1.47,1.47,0,0,0,.27-.845v-.1a.987.987,0,0,0-.28-.76,1.1,1.1,0,0,0-.78-.26,1.115,1.115,0,0,0-.84.3,1.763,1.763,0,0,0-.42.74L.46,4.64a2.75,2.75,0,0,1,.315-.655,2.3,2.3,0,0,1,.51-.555,2.459,2.459,0,0,1,.725-.385A2.935,2.935,0,0,1,2.97,2.9a2.956,2.956,0,0,1,1,.155,2.13,2.13,0,0,1,.735.43,1.8,1.8,0,0,1,.455.655,2.177,2.177,0,0,1,.155.83,2.233,2.233,0,0,1-.135.79,2.813,2.813,0,0,1-.375.685,4.454,4.454,0,0,1-.565.625q-.325.3-.705.6L2.01,8.9H5.5Zm3.5.12a2.654,2.654,0,0,1-1.18-.245,2.159,2.159,0,0,1-.825-.7,3.181,3.181,0,0,1-.48-1.13A6.821,6.821,0,0,1,6.36,6.51a6.838,6.838,0,0,1,.155-1.525,3.181,3.181,0,0,1,.48-1.135,2.159,2.159,0,0,1,.825-.705A2.654,2.654,0,0,1,9,2.9a2.241,2.241,0,0,1,2,.95,4.726,4.726,0,0,1,.64,2.66A4.726,4.726,0,0,1,11,9.17,2.241,2.241,0,0,1,9,10.12ZM9,9.07a1.072,1.072,0,0,0,1.015-.515,2.881,2.881,0,0,0,.3-1.425V5.89a2.881,2.881,0,0,0-.3-1.425A1.072,1.072,0,0,0,9,3.95a1.072,1.072,0,0,0-1.015.515,2.881,2.881,0,0,0-.3,1.425V7.13a2.881,2.881,0,0,0,.3,1.425A1.072,1.072,0,0,0,9,9.07ZM9,7.1a.664.664,0,0,1-.485-.14.472.472,0,0,1-.135-.34V6.4a.472.472,0,0,1,.135-.34A.664.664,0,0,1,9,5.92a.664.664,0,0,1,.485.14.472.472,0,0,1,.135.34v.22a.472.472,0,0,1-.135.34A.664.664,0,0,1,9,7.1Z" transform="translate(605.255 1013.5)" fill="#b1b1b1"/>
        <path id="路径_577" data-name="路径 577" d="M5.18,4.16H1.98L1.81,6.5h.08a3.244,3.244,0,0,1,.26-.405,1.455,1.455,0,0,1,.325-.315,1.439,1.439,0,0,1,.42-.2,1.914,1.914,0,0,1,.545-.07,2.292,2.292,0,0,1,.83.15,2,2,0,0,1,.68.43,1.962,1.962,0,0,1,.455.69,2.474,2.474,0,0,1,.165.93,2.575,2.575,0,0,1-.175.96,2.171,2.171,0,0,1-.51.765,2.318,2.318,0,0,1-.82.5,3.193,3.193,0,0,1-1.115.18,3.331,3.331,0,0,1-.875-.1A2.541,2.541,0,0,1,1.4,9.73a2.5,2.5,0,0,1-.51-.415A3.366,3.366,0,0,1,.51,8.83l.95-.75a3.03,3.03,0,0,0,.265.375,1.757,1.757,0,0,0,.325.305,1.493,1.493,0,0,0,.4.2,1.626,1.626,0,0,0,.515.075,1.217,1.217,0,0,0,.915-.325A1.232,1.232,0,0,0,4.2,7.82V7.74a1.142,1.142,0,0,0-.32-.86,1.24,1.24,0,0,0-.9-.31,1.376,1.376,0,0,0-.715.165,1.91,1.91,0,0,0-.445.355L.75,6.94l.26-3.92H5.18ZM9,10.12a2.654,2.654,0,0,1-1.18-.245,2.159,2.159,0,0,1-.825-.7,3.181,3.181,0,0,1-.48-1.13A6.821,6.821,0,0,1,6.36,6.51a6.838,6.838,0,0,1,.155-1.525,3.181,3.181,0,0,1,.48-1.135,2.159,2.159,0,0,1,.825-.705A2.654,2.654,0,0,1,9,2.9a2.241,2.241,0,0,1,2,.95,4.726,4.726,0,0,1,.64,2.66A4.726,4.726,0,0,1,11,9.17,2.241,2.241,0,0,1,9,10.12ZM9,9.07a1.072,1.072,0,0,0,1.015-.515,2.881,2.881,0,0,0,.3-1.425V5.89a2.881,2.881,0,0,0-.3-1.425A1.072,1.072,0,0,0,9,3.95a1.072,1.072,0,0,0-1.015.515,2.881,2.881,0,0,0-.3,1.425V7.13a2.881,2.881,0,0,0,.3,1.425A1.072,1.072,0,0,0,9,9.07ZM9,7.1a.664.664,0,0,1-.485-.14.472.472,0,0,1-.135-.34V6.4a.472.472,0,0,1,.135-.34A.664.664,0,0,1,9,5.92a.664.664,0,0,1,.485.14.472.472,0,0,1,.135.34v.22a.472.472,0,0,1-.135.34A.664.664,0,0,1,9,7.1Z" transform="translate(605.255 956.5)" fill="#b1b1b1"/>
        <path id="路径_578" data-name="路径 578" d="M3.03,10.12a2.837,2.837,0,0,1-1.085-.195,2.248,2.248,0,0,1-.8-.55,2.4,2.4,0,0,1-.5-.86A3.452,3.452,0,0,1,.46,7.38,4.3,4.3,0,0,1,.69,5.965a5.453,5.453,0,0,1,.595-1.22A5.983,5.983,0,0,1,2.1,3.75,5.769,5.769,0,0,1,3,3.02H4.78q-.63.44-1.125.845a7.047,7.047,0,0,0-.86.825,4.815,4.815,0,0,0-.61.875,3.847,3.847,0,0,0-.365.995l.08.02A2.462,2.462,0,0,1,2.14,6.2a1.656,1.656,0,0,1,.335-.33,1.591,1.591,0,0,1,.45-.23,1.884,1.884,0,0,1,.6-.085,2.213,2.213,0,0,1,.82.15,1.834,1.834,0,0,1,.655.435,2.093,2.093,0,0,1,.435.685,2.4,2.4,0,0,1,.16.9,2.539,2.539,0,0,1-.18.97,2.178,2.178,0,0,1-.515.76,2.314,2.314,0,0,1-.81.495A3.032,3.032,0,0,1,3.03,10.12ZM3.02,9.09a1.222,1.222,0,0,0,.91-.315,1.222,1.222,0,0,0,.31-.895V7.76a1.193,1.193,0,0,0-.315-.89,1.237,1.237,0,0,0-.905-.31,1.226,1.226,0,0,0-.89.31,1.182,1.182,0,0,0-.32.89v.12a1.222,1.222,0,0,0,.31.895A1.207,1.207,0,0,0,3.02,9.09ZM9,10.12a2.654,2.654,0,0,1-1.18-.245,2.159,2.159,0,0,1-.825-.7,3.181,3.181,0,0,1-.48-1.13A6.821,6.821,0,0,1,6.36,6.51a6.838,6.838,0,0,1,.155-1.525,3.181,3.181,0,0,1,.48-1.135,2.159,2.159,0,0,1,.825-.705A2.654,2.654,0,0,1,9,2.9a2.241,2.241,0,0,1,2,.95,4.726,4.726,0,0,1,.64,2.66A4.726,4.726,0,0,1,11,9.17,2.241,2.241,0,0,1,9,10.12ZM9,9.07a1.072,1.072,0,0,0,1.015-.515,2.881,2.881,0,0,0,.3-1.425V5.89a2.881,2.881,0,0,0-.3-1.425A1.072,1.072,0,0,0,9,3.95a1.072,1.072,0,0,0-1.015.515,2.881,2.881,0,0,0-.3,1.425V7.13a2.881,2.881,0,0,0,.3,1.425A1.072,1.072,0,0,0,9,9.07ZM9,7.1a.664.664,0,0,1-.485-.14.472.472,0,0,1-.135-.34V6.4a.472.472,0,0,1,.135-.34A.664.664,0,0,1,9,5.92a.664.664,0,0,1,.485.14.472.472,0,0,1,.135.34v.22a.472.472,0,0,1-.135.34A.664.664,0,0,1,9,7.1Z" transform="translate(605.255 937.5)" fill="#b1b1b1"/>
        <path id="路径_579" data-name="路径 579" d="M1.67,10,4.16,4.09H1.67V5.37H.55V3.02H5.46V4.16L3.05,10ZM9,10.12a2.654,2.654,0,0,1-1.18-.245,2.159,2.159,0,0,1-.825-.7,3.181,3.181,0,0,1-.48-1.13A6.821,6.821,0,0,1,6.36,6.51a6.838,6.838,0,0,1,.155-1.525,3.181,3.181,0,0,1,.48-1.135,2.159,2.159,0,0,1,.825-.705A2.654,2.654,0,0,1,9,2.9a2.241,2.241,0,0,1,2,.95,4.726,4.726,0,0,1,.64,2.66A4.726,4.726,0,0,1,11,9.17,2.241,2.241,0,0,1,9,10.12ZM9,9.07a1.072,1.072,0,0,0,1.015-.515,2.881,2.881,0,0,0,.3-1.425V5.89a2.881,2.881,0,0,0-.3-1.425A1.072,1.072,0,0,0,9,3.95a1.072,1.072,0,0,0-1.015.515,2.881,2.881,0,0,0-.3,1.425V7.13a2.881,2.881,0,0,0,.3,1.425A1.072,1.072,0,0,0,9,9.07ZM9,7.1a.664.664,0,0,1-.485-.14.472.472,0,0,1-.135-.34V6.4a.472.472,0,0,1,.135-.34A.664.664,0,0,1,9,5.92a.664.664,0,0,1,.485.14.472.472,0,0,1,.135.34v.22a.472.472,0,0,1-.135.34A.664.664,0,0,1,9,7.1Z" transform="translate(605.255 918.5)" fill="#b1b1b1"/>
        <path id="路径_580" data-name="路径 580" d="M3,10.12a3.578,3.578,0,0,1-1.1-.155,2.456,2.456,0,0,1-.81-.425,1.781,1.781,0,0,1-.5-.64,1.917,1.917,0,0,1-.17-.81A1.578,1.578,0,0,1,.805,6.98,2.071,2.071,0,0,1,1.82,6.39V6.31a1.9,1.9,0,0,1-.865-.59A1.55,1.55,0,0,1,.63,4.71a1.683,1.683,0,0,1,.16-.735A1.628,1.628,0,0,1,1.25,3.4a2.142,2.142,0,0,1,.74-.37A3.57,3.57,0,0,1,3,2.9a3.57,3.57,0,0,1,1.01.13,2.142,2.142,0,0,1,.74.37,1.628,1.628,0,0,1,.46.575,1.683,1.683,0,0,1,.16.735,1.55,1.55,0,0,1-.325,1.01,1.9,1.9,0,0,1-.865.59v.08A2.071,2.071,0,0,1,5.2,6.98,1.578,1.578,0,0,1,5.58,8.09a1.917,1.917,0,0,1-.17.81,1.781,1.781,0,0,1-.5.64,2.456,2.456,0,0,1-.81.425A3.578,3.578,0,0,1,3,10.12ZM3,9.1a1.37,1.37,0,0,0,.905-.265A.908.908,0,0,0,4.22,8.1V7.9a.927.927,0,0,0-.31-.745A1.366,1.366,0,0,0,3,6.89a1.366,1.366,0,0,0-.91.265.927.927,0,0,0-.31.745v.2a.908.908,0,0,0,.315.735A1.37,1.37,0,0,0,3,9.1ZM3,5.92a1.251,1.251,0,0,0,.84-.25.863.863,0,0,0,.29-.69V4.84a.836.836,0,0,0-.29-.675A1.269,1.269,0,0,0,3,3.92a1.269,1.269,0,0,0-.84.245.836.836,0,0,0-.29.675v.14a.863.863,0,0,0,.29.69A1.251,1.251,0,0,0,3,5.92Zm6,4.2a2.654,2.654,0,0,1-1.18-.245,2.159,2.159,0,0,1-.825-.7,3.181,3.181,0,0,1-.48-1.13A6.821,6.821,0,0,1,6.36,6.51a6.838,6.838,0,0,1,.155-1.525,3.181,3.181,0,0,1,.48-1.135,2.159,2.159,0,0,1,.825-.705A2.654,2.654,0,0,1,9,2.9a2.241,2.241,0,0,1,2,.95,4.726,4.726,0,0,1,.64,2.66A4.726,4.726,0,0,1,11,9.17,2.241,2.241,0,0,1,9,10.12ZM9,9.07a1.072,1.072,0,0,0,1.015-.515,2.881,2.881,0,0,0,.3-1.425V5.89a2.881,2.881,0,0,0-.3-1.425A1.072,1.072,0,0,0,9,3.95a1.072,1.072,0,0,0-1.015.515,2.881,2.881,0,0,0-.3,1.425V7.13a2.881,2.881,0,0,0,.3,1.425A1.072,1.072,0,0,0,9,9.07ZM9,7.1a.664.664,0,0,1-.485-.14.472.472,0,0,1-.135-.34V6.4a.472.472,0,0,1,.135-.34A.664.664,0,0,1,9,5.92a.664.664,0,0,1,.485.14.472.472,0,0,1,.135.34v.22a.472.472,0,0,1-.135.34A.664.664,0,0,1,9,7.1Z" transform="translate(605.255 899.5)" fill="#b1b1b1"/>
      </g>
    </g>
    <g id="组_255" data-name="组 255" transform="translate(846.955 -60.354)">
      <path id="路径_581" data-name="路径 581" d="M5.02-6.98v5.07a2.134,2.134,0,0,1-.16.845A1.749,1.749,0,0,1,4.4-.43a2.115,2.115,0,0,1-.71.405A2.791,2.791,0,0,1,2.77.12a2.265,2.265,0,0,1-1.555-.5A2.3,2.3,0,0,1,.49-1.71l1.23-.26a1.633,1.633,0,0,0,.325.725A.886.886,0,0,0,2.77-.96a.883.883,0,0,0,.69-.265A1.219,1.219,0,0,0,3.7-2.06V-5.9H1.34V-6.98Zm2.91,0v4.35q0,.39.025.7a1.462,1.462,0,0,0,.13.525.757.757,0,0,0,.32.335A1.229,1.229,0,0,0,9-.95a1.229,1.229,0,0,0,.595-.12.757.757,0,0,0,.32-.335,1.462,1.462,0,0,0,.13-.525q.025-.31.025-.7V-6.98h1.31v4.15a8.089,8.089,0,0,1-.09,1.29,2.195,2.195,0,0,1-.35.92,1.568,1.568,0,0,1-.725.555A3.338,3.338,0,0,1,9,.12,3.338,3.338,0,0,1,7.785-.065,1.568,1.568,0,0,1,7.06-.62a2.195,2.195,0,0,1-.35-.92,8.089,8.089,0,0,1-.09-1.29V-6.98ZM13,0V-6.98h1.31v5.9H17.4V0Z" transform="translate(770 990)" fill="#d1ffee"/>
      <path id="路径_582" data-name="路径 582" d="M4.49,0,4-1.77H1.93L1.45,0H.13L2.09-6.98H3.91L5.88,0ZM3.01-5.69H2.93L2.16-2.84H3.78ZM7.93-6.98v4.35q0,.39.025.7a1.462,1.462,0,0,0,.13.525.757.757,0,0,0,.32.335A1.229,1.229,0,0,0,9-.95a1.229,1.229,0,0,0,.595-.12.757.757,0,0,0,.32-.335,1.462,1.462,0,0,0,.13-.525q.025-.31.025-.7V-6.98h1.31v4.15a8.089,8.089,0,0,1-.09,1.29,2.195,2.195,0,0,1-.35.92,1.568,1.568,0,0,1-.725.555A3.338,3.338,0,0,1,9,.12,3.338,3.338,0,0,1,7.785-.065,1.568,1.568,0,0,1,7.06-.62a2.195,2.195,0,0,1-.35-.92,8.089,8.089,0,0,1-.09-1.29V-6.98ZM16.21-.97h-.08a2.713,2.713,0,0,1-.22.41,1.451,1.451,0,0,1-.32.35,1.537,1.537,0,0,1-.445.24,1.753,1.753,0,0,1-.585.09,1.75,1.75,0,0,1-1.605-.935A5.247,5.247,0,0,1,12.41-3.44a4.824,4.824,0,0,1,.64-2.72,2.218,2.218,0,0,1,1.97-.94,2.735,2.735,0,0,1,.915.14,2.064,2.064,0,0,1,.68.39,2.11,2.11,0,0,1,.47.595,3.578,3.578,0,0,1,.3.745l-1.2.34q-.07-.22-.155-.43a1.283,1.283,0,0,0-.22-.365,1.047,1.047,0,0,0-.325-.25,1.045,1.045,0,0,0-.47-.095.973.973,0,0,0-.93.52,3.016,3.016,0,0,0-.28,1.42v1.12a4.844,4.844,0,0,0,.065.825,2.039,2.039,0,0,0,.215.645,1.091,1.091,0,0,0,.39.415,1.143,1.143,0,0,0,.6.145,1.063,1.063,0,0,0,.85-.335,1.259,1.259,0,0,0,.29-.855V-2.7H14.94v-.95h2.44V0H16.21Z" transform="translate(826 990)" fill="#d1ffee"/>
      <path id="路径_583" data-name="路径 583" d="M2.92.12A3.472,3.472,0,0,1,1.385-.19,2.917,2.917,0,0,1,.35-1.01l.79-.82a2.594,2.594,0,0,0,.845.665A2.253,2.253,0,0,0,2.96-.95a1.39,1.39,0,0,0,.92-.27A.963.963,0,0,0,4.2-2a.809.809,0,0,0-.24-.635,1.6,1.6,0,0,0-.81-.305l-.74-.12a2.121,2.121,0,0,1-1.38-.705A2.02,2.02,0,0,1,.62-5.03a1.875,1.875,0,0,1,.65-1.535A2.753,2.753,0,0,1,3.07-7.1a3.516,3.516,0,0,1,1.415.26,2.453,2.453,0,0,1,.955.71l-.77.82A2.1,2.1,0,0,0,4-5.835a2.034,2.034,0,0,0-.92-.195q-1.14,0-1.14.94a.767.767,0,0,0,.24.61A1.708,1.708,0,0,0,3-4.17l.73.13a2.3,2.3,0,0,1,1.35.67,1.866,1.866,0,0,1,.44,1.28,2.29,2.29,0,0,1-.17.9,1.93,1.93,0,0,1-.5.7,2.273,2.273,0,0,1-.815.455A3.557,3.557,0,0,1,2.92.12ZM6.83,0V-6.98h4.41V-5.9H8.14v1.82h2.99V-3H8.14v1.92h3.1V0ZM12.8,0V-6.98h2.65a2.027,2.027,0,0,1,1.56.58,2.227,2.227,0,0,1,.54,1.58,2.227,2.227,0,0,1-.54,1.58,2.027,2.027,0,0,1-1.56.58H14.11V0Zm1.31-3.73h1.07a1.1,1.1,0,0,0,.76-.215.9.9,0,0,0,.23-.685v-.38a.9.9,0,0,0-.23-.685,1.1,1.1,0,0,0-.76-.215H14.11ZM0,1H18V2H0Z" transform="translate(879 990)" fill="#f47851"/>
      <path id="路径_584" data-name="路径 584" d="M3,.12A2.654,2.654,0,0,1,1.82-.125,2.159,2.159,0,0,1,1-.83a3.181,3.181,0,0,1-.48-1.13A6.821,6.821,0,0,1,.36-3.49,6.838,6.838,0,0,1,.515-5.015,3.181,3.181,0,0,1,1-6.15a2.159,2.159,0,0,1,.825-.705A2.654,2.654,0,0,1,3-7.1a2.241,2.241,0,0,1,2,.95,4.726,4.726,0,0,1,.64,2.66A4.726,4.726,0,0,1,5-.83,2.241,2.241,0,0,1,3,.12ZM3-.95a1.188,1.188,0,0,0,.59-.135,1.017,1.017,0,0,0,.385-.385,1.877,1.877,0,0,0,.21-.615A4.669,4.669,0,0,0,4.25-2.9V-4.09a3.063,3.063,0,0,0-.275-1.42A1.006,1.006,0,0,0,3-6.03a1.006,1.006,0,0,0-.975.52A3.063,3.063,0,0,0,1.75-4.09v1.2a3.063,3.063,0,0,0,.275,1.42A1.006,1.006,0,0,0,3-.95ZM9.18.12A2.3,2.3,0,0,1,7.155-.82,4.633,4.633,0,0,1,6.5-3.49a4.637,4.637,0,0,1,.655-2.665A2.294,2.294,0,0,1,9.18-7.1a2.735,2.735,0,0,1,.915.14,2.176,2.176,0,0,1,.685.385,2.073,2.073,0,0,1,.48.59,3.367,3.367,0,0,1,.3.755l-1.2.34a3.948,3.948,0,0,0-.16-.45A1.376,1.376,0,0,0,9.975-5.7a.908.908,0,0,0-.335-.24,1.224,1.224,0,0,0-.48-.085,1.032,1.032,0,0,0-.975.52A2.886,2.886,0,0,0,7.89-4.09v1.2a2.886,2.886,0,0,0,.295,1.42,1.032,1.032,0,0,0,.975.52,1.224,1.224,0,0,0,.48-.085.908.908,0,0,0,.335-.24A1.376,1.376,0,0,0,10.2-1.64a3.949,3.949,0,0,0,.16-.45l1.2.34a3.367,3.367,0,0,1-.3.755,2.073,2.073,0,0,1-.48.59A2.176,2.176,0,0,1,10.1-.02,2.735,2.735,0,0,1,9.18.12ZM15.65-5.9V0h-1.3V-5.9h-2.1V-6.98h5.5V-5.9Z" transform="translate(934 990)" fill="#d1ffee"/>
    </g>
    <path id="路径_317" data-name="路径 317" d="M1490.979,699.223l-.385-.568-54.705-80.6-53.329,23.412a.5.5,0,0,1-.4-.916l54.092-23.746.234.344,54.553,80.373,53.839-68.986a.5.5,0,1,1,.788.615Z" transform="translate(244.141 199.41)" fill="url(#linear-gradient)"/>
    <g id="组_256" data-name="组 256" transform="translate(1509.532 801.728)">
      <circle id="椭圆_4" data-name="椭圆 4" cx="7.5" cy="7.5" r="7.5" transform="translate(109 30.159)" fill="#fcea9b"/>
      <circle id="椭圆_5" data-name="椭圆 5" cx="7.5" cy="7.5" r="7.5" transform="translate(163 7.159)" fill="#8becf8"/>
      <g id="椭圆_190" data-name="椭圆 190" transform="translate(218 88.159)" fill="#fcae7c" stroke="#f47851" stroke-width="2">
        <circle cx="7.5" cy="7.5" r="7.5" stroke="none"/>
        <circle cx="7.5" cy="7.5" r="6.5" fill="none"/>
      </g>
      <circle id="椭圆_191" data-name="椭圆 191" cx="7.5" cy="7.5" r="7.5" transform="translate(272 18.159)" fill="#fcea9b"/>
    </g>
  </g>
</svg>
