<svg xmlns="http://www.w3.org/2000/svg" width="92.999" height="92.999" viewBox="0 0 92.999 92.999">
  <g id="组_141" data-name="组 141" transform="translate(-593.5 -454.001)">
    <path id="路径_265" data-name="路径 265" d="M10.481,0c5.788,0,10.481,6.94,10.481,15.5,0,3.21-4.039,7.93-6.023,10.092s-3.371,12.58-4.458,12.682S8.689,28.3,5.751,25.592,0,18.7,0,15.5C0,6.94,4.692,0,10.481,0Z" transform="translate(635.951 454.001) rotate(8)" fill="#fbf291"/>
    <circle id="椭圆_188" data-name="椭圆 188" cx="2.5" cy="2.5" r="2.5" transform="translate(631.355 461.417) rotate(8)" fill="#fbf291"/>
    <circle id="椭圆_189" data-name="椭圆 189" cx="2.5" cy="2.5" r="2.5" transform="translate(654.131 464.617) rotate(8)" fill="#fbf291"/>
    <path id="路径_265-2" data-name="路径 265" d="M10.481,0c5.788,0,10.481,6.94,10.481,15.5,0,3.21-4.039,7.93-6.023,10.092s-3.371,12.58-4.458,12.682S8.689,28.3,5.751,25.592,0,18.7,0,15.5C0,6.94,4.692,0,10.481,0Z" transform="matrix(0.602, 0.799, -0.799, 0.602, 670.017, 464.757)" fill="#fbf291"/>
    <circle id="椭圆_188-2" data-name="椭圆 188" cx="2.5" cy="2.5" r="2.5" transform="matrix(0.602, 0.799, -0.799, 0.602, 661.523, 466.751)" fill="#fbf291"/>
    <circle id="椭圆_189-2" data-name="椭圆 189" cx="2.5" cy="2.5" r="2.5" transform="matrix(0.602, 0.799, -0.799, 0.602, 675.365, 485.12)" fill="#fbf291"/>
    <path id="路径_265-3" data-name="路径 265" d="M10.481,0c5.788,0,10.481,6.94,10.481,15.5,0,3.21-4.039,7.93-6.023,10.092s-3.371,12.58-4.458,12.682S8.689,28.3,5.751,25.592,0,18.7,0,15.5C0,6.94,4.692,0,10.481,0Z" transform="translate(686.5 496.451) rotate(98)" fill="#fbf291"/>
    <circle id="椭圆_188-3" data-name="椭圆 188" cx="2.5" cy="2.5" r="2.5" transform="translate(679.084 491.855) rotate(98)" fill="#fbf291"/>
    <circle id="椭圆_189-3" data-name="椭圆 189" cx="2.5" cy="2.5" r="2.5" transform="translate(675.883 514.631) rotate(98)" fill="#fbf291"/>
    <path id="路径_265-4" data-name="路径 265" d="M10.481,0c5.788,0,10.481,6.94,10.481,15.5,0,3.21-4.039,7.93-6.023,10.092s-3.371,12.58-4.458,12.682S8.689,28.3,5.751,25.592,0,18.7,0,15.5C0,6.94,4.692,0,10.481,0Z" transform="matrix(-0.799, 0.602, -0.602, -0.799, 675.743, 530.517)" fill="#fbf291"/>
    <circle id="椭圆_188-4" data-name="椭圆 188" cx="2.5" cy="2.5" r="2.5" transform="matrix(-0.799, 0.602, -0.602, -0.799, 673.749, 522.023)" fill="#fbf291"/>
    <circle id="椭圆_189-4" data-name="椭圆 189" cx="2.5" cy="2.5" r="2.5" transform="matrix(-0.799, 0.602, -0.602, -0.799, 655.381, 535.865)" fill="#fbf291"/>
    <path id="路径_265-5" data-name="路径 265" d="M10.481,0c5.788,0,10.481,6.94,10.481,15.5,0,3.21-4.039,7.93-6.023,10.092s-3.371,12.58-4.458,12.682S8.689,28.3,5.751,25.592,0,18.7,0,15.5C0,6.94,4.692,0,10.481,0Z" transform="translate(644.049 547) rotate(-172)" fill="#fbf291"/>
    <circle id="椭圆_188-5" data-name="椭圆 188" cx="2.5" cy="2.5" r="2.5" transform="translate(648.645 539.584) rotate(-172)" fill="#fbf291"/>
    <circle id="椭圆_189-5" data-name="椭圆 189" cx="2.5" cy="2.5" r="2.5" transform="translate(625.869 536.383) rotate(-172)" fill="#fbf291"/>
    <path id="路径_265-6" data-name="路径 265" d="M10.481,0c5.788,0,10.481,6.94,10.481,15.5,0,3.21-4.039,7.93-6.023,10.092s-3.371,12.58-4.458,12.682S8.689,28.3,5.751,25.592,0,18.7,0,15.5C0,6.94,4.692,0,10.481,0Z" transform="translate(609.983 536.243) rotate(-127)" fill="#fbf291"/>
    <circle id="椭圆_188-6" data-name="椭圆 188" cx="2.5" cy="2.5" r="2.5" transform="translate(618.477 534.249) rotate(-127)" fill="#fbf291"/>
    <circle id="椭圆_189-6" data-name="椭圆 189" cx="2.5" cy="2.5" r="2.5" transform="translate(604.635 515.88) rotate(-127)" fill="#fbf291"/>
    <path id="路径_265-7" data-name="路径 265" d="M10.481,0c5.788,0,10.481,6.94,10.481,15.5,0,3.21-4.039,7.93-6.023,10.092s-3.371,12.58-4.458,12.682S8.689,28.3,5.751,25.592,0,18.7,0,15.5C0,6.94,4.692,0,10.481,0Z" transform="matrix(0.799, -0.602, 0.602, 0.799, 604.257, 470.483)" fill="#fbf291"/>
    <circle id="椭圆_188-7" data-name="椭圆 188" cx="2.5" cy="2.5" r="2.5" transform="matrix(0.799, -0.602, 0.602, 0.799, 606.251, 478.976)" fill="#fbf291"/>
    <circle id="椭圆_189-7" data-name="椭圆 189" cx="2.5" cy="2.5" r="2.5" transform="matrix(0.799, -0.602, 0.602, 0.799, 624.62, 465.135)" fill="#fbf291"/>
    <path id="路径_265-8" data-name="路径 265" d="M10.481,0c5.788,0,10.481,6.94,10.481,15.5,0,3.21-4.039,7.93-6.023,10.092s-3.371,12.58-4.458,12.682S8.689,28.3,5.751,25.592,0,18.7,0,15.5C0,6.94,4.692,0,10.481,0Z" transform="matrix(0.139, -0.99, 0.99, 0.139, 593.5, 504.549)" fill="#fbf291"/>
    <circle id="椭圆_188-8" data-name="椭圆 188" cx="2.5" cy="2.5" r="2.5" transform="matrix(0.139, -0.99, 0.99, 0.139, 600.917, 509.145)" fill="#fbf291"/>
    <circle id="椭圆_189-8" data-name="椭圆 189" cx="2.5" cy="2.5" r="2.5" transform="matrix(0.139, -0.99, 0.99, 0.139, 604.117, 486.369)" fill="#fbf291"/>
    <text id="ε" transform="translate(631 508)" fill="#d1c53f" font-size="33" font-family="Menlo-Bold, Menlo" font-weight="700"><tspan x="0" y="0">ε</tspan></text>
  </g>
</svg>
