<svg xmlns="http://www.w3.org/2000/svg" xmlns:xlink="http://www.w3.org/1999/xlink" width="63" height="63" viewBox="0 0 63 63">
  <defs>
    <filter id="路径_100">
      <feOffset dy="-1" input="SourceAlpha"/>
      <feGaussianBlur stdDeviation="5" result="blur"/>
      <feFlood flood-opacity="0.161" result="color"/>
      <feComposite operator="out" in="SourceGraphic" in2="blur"/>
      <feComposite operator="in" in="color"/>
      <feComposite operator="in" in2="SourceGraphic"/>
    </filter>
    <filter id="路径_105">
      <feOffset dy="-3" input="SourceAlpha"/>
      <feGaussianBlur stdDeviation="1.5" result="blur-2"/>
      <feFlood flood-opacity="0.161" result="color-2"/>
      <feComposite operator="out" in="SourceGraphic" in2="blur-2"/>
      <feComposite operator="in" in="color-2"/>
      <feComposite operator="in" in2="SourceGraphic"/>
    </filter>
    <filter id="椭圆_84">
      <feOffset dx="-0.5" dy="-0.5" input="SourceAlpha"/>
      <feGaussianBlur stdDeviation="0.25" result="blur-3"/>
      <feFlood flood-opacity="0.161" result="color-3"/>
      <feComposite operator="out" in="SourceGraphic" in2="blur-3"/>
      <feComposite operator="in" in="color-3"/>
      <feComposite operator="in" in2="SourceGraphic"/>
    </filter>
    <filter id="椭圆_97">
      <feOffset dx="-0.5" dy="-0.5" input="SourceAlpha"/>
      <feGaussianBlur stdDeviation="0.25" result="blur-4"/>
      <feFlood flood-opacity="0.161" result="color-4"/>
      <feComposite operator="out" in="SourceGraphic" in2="blur-4"/>
      <feComposite operator="in" in="color-4"/>
      <feComposite operator="in" in2="SourceGraphic"/>
    </filter>
    <filter id="椭圆_70">
      <feOffset dx="-0.5" dy="-0.5" input="SourceAlpha"/>
      <feGaussianBlur stdDeviation="0.25" result="blur-5"/>
      <feFlood flood-opacity="0.161" result="color-5"/>
      <feComposite operator="out" in="SourceGraphic" in2="blur-5"/>
      <feComposite operator="in" in="color-5"/>
      <feComposite operator="in" in2="SourceGraphic"/>
    </filter>
    <filter id="椭圆_73">
      <feOffset dx="-0.5" dy="-0.5" input="SourceAlpha"/>
      <feGaussianBlur stdDeviation="0.25" result="blur-6"/>
      <feFlood flood-opacity="0.161" result="color-6"/>
      <feComposite operator="out" in="SourceGraphic" in2="blur-6"/>
      <feComposite operator="in" in="color-6"/>
      <feComposite operator="in" in2="SourceGraphic"/>
    </filter>
    <filter id="椭圆_74">
      <feOffset dx="-0.5" dy="-0.5" input="SourceAlpha"/>
      <feGaussianBlur stdDeviation="0.25" result="blur-7"/>
      <feFlood flood-opacity="0.161" result="color-7"/>
      <feComposite operator="out" in="SourceGraphic" in2="blur-7"/>
      <feComposite operator="in" in="color-7"/>
      <feComposite operator="in" in2="SourceGraphic"/>
    </filter>
    <filter id="椭圆_75">
      <feOffset dx="-0.5" dy="-0.5" input="SourceAlpha"/>
      <feGaussianBlur stdDeviation="0.25" result="blur-8"/>
      <feFlood flood-opacity="0.161" result="color-8"/>
      <feComposite operator="out" in="SourceGraphic" in2="blur-8"/>
      <feComposite operator="in" in="color-8"/>
      <feComposite operator="in" in2="SourceGraphic"/>
    </filter>
    <filter id="椭圆_76">
      <feOffset dx="-0.5" dy="-0.5" input="SourceAlpha"/>
      <feGaussianBlur stdDeviation="0.25" result="blur-9"/>
      <feFlood flood-opacity="0.161" result="color-9"/>
      <feComposite operator="out" in="SourceGraphic" in2="blur-9"/>
      <feComposite operator="in" in="color-9"/>
      <feComposite operator="in" in2="SourceGraphic"/>
    </filter>
    <filter id="椭圆_77">
      <feOffset dx="-0.5" dy="-0.5" input="SourceAlpha"/>
      <feGaussianBlur stdDeviation="0.25" result="blur-10"/>
      <feFlood flood-opacity="0.161" result="color-10"/>
      <feComposite operator="out" in="SourceGraphic" in2="blur-10"/>
      <feComposite operator="in" in="color-10"/>
      <feComposite operator="in" in2="SourceGraphic"/>
    </filter>
    <filter id="椭圆_78">
      <feOffset dx="-0.5" dy="-0.5" input="SourceAlpha"/>
      <feGaussianBlur stdDeviation="0.25" result="blur-11"/>
      <feFlood flood-opacity="0.161" result="color-11"/>
      <feComposite operator="out" in="SourceGraphic" in2="blur-11"/>
      <feComposite operator="in" in="color-11"/>
      <feComposite operator="in" in2="SourceGraphic"/>
    </filter>
    <filter id="椭圆_79">
      <feOffset dx="-0.5" dy="-0.5" input="SourceAlpha"/>
      <feGaussianBlur stdDeviation="0.25" result="blur-12"/>
      <feFlood flood-opacity="0.161" result="color-12"/>
      <feComposite operator="out" in="SourceGraphic" in2="blur-12"/>
      <feComposite operator="in" in="color-12"/>
      <feComposite operator="in" in2="SourceGraphic"/>
    </filter>
    <filter id="椭圆_80">
      <feOffset dx="-0.5" dy="-0.5" input="SourceAlpha"/>
      <feGaussianBlur stdDeviation="0.25" result="blur-13"/>
      <feFlood flood-opacity="0.161" result="color-13"/>
      <feComposite operator="out" in="SourceGraphic" in2="blur-13"/>
      <feComposite operator="in" in="color-13"/>
      <feComposite operator="in" in2="SourceGraphic"/>
    </filter>
    <filter id="椭圆_82">
      <feOffset dx="-0.5" dy="-0.5" input="SourceAlpha"/>
      <feGaussianBlur stdDeviation="0.25" result="blur-14"/>
      <feFlood flood-opacity="0.161" result="color-14"/>
      <feComposite operator="out" in="SourceGraphic" in2="blur-14"/>
      <feComposite operator="in" in="color-14"/>
      <feComposite operator="in" in2="SourceGraphic"/>
    </filter>
    <filter id="椭圆_93">
      <feOffset dx="-0.5" dy="-0.5" input="SourceAlpha"/>
      <feGaussianBlur stdDeviation="0.25" result="blur-15"/>
      <feFlood flood-opacity="0.161" result="color-15"/>
      <feComposite operator="out" in="SourceGraphic" in2="blur-15"/>
      <feComposite operator="in" in="color-15"/>
      <feComposite operator="in" in2="SourceGraphic"/>
    </filter>
    <filter id="椭圆_94">
      <feOffset dx="-0.5" dy="-0.5" input="SourceAlpha"/>
      <feGaussianBlur stdDeviation="0.25" result="blur-16"/>
      <feFlood flood-opacity="0.161" result="color-16"/>
      <feComposite operator="out" in="SourceGraphic" in2="blur-16"/>
      <feComposite operator="in" in="color-16"/>
      <feComposite operator="in" in2="SourceGraphic"/>
    </filter>
    <filter id="椭圆_83">
      <feOffset dx="-0.5" dy="-0.5" input="SourceAlpha"/>
      <feGaussianBlur stdDeviation="0.25" result="blur-17"/>
      <feFlood flood-opacity="0.161" result="color-17"/>
      <feComposite operator="out" in="SourceGraphic" in2="blur-17"/>
      <feComposite operator="in" in="color-17"/>
      <feComposite operator="in" in2="SourceGraphic"/>
    </filter>
    <filter id="椭圆_85">
      <feOffset dx="-0.5" dy="-0.5" input="SourceAlpha"/>
      <feGaussianBlur stdDeviation="0.25" result="blur-18"/>
      <feFlood flood-opacity="0.161" result="color-18"/>
      <feComposite operator="out" in="SourceGraphic" in2="blur-18"/>
      <feComposite operator="in" in="color-18"/>
      <feComposite operator="in" in2="SourceGraphic"/>
    </filter>
    <filter id="椭圆_71">
      <feOffset dx="-0.5" dy="-0.5" input="SourceAlpha"/>
      <feGaussianBlur stdDeviation="0.25" result="blur-19"/>
      <feFlood flood-opacity="0.161" result="color-19"/>
      <feComposite operator="out" in="SourceGraphic" in2="blur-19"/>
      <feComposite operator="in" in="color-19"/>
      <feComposite operator="in" in2="SourceGraphic"/>
    </filter>
    <linearGradient id="linear-gradient" x1="0.563" y1="0.143" x2="0.5" y2="1" gradientUnits="objectBoundingBox">
      <stop offset="0" stop-color="#faea92"/>
      <stop offset="1" stop-color="#8eebb0"/>
    </linearGradient>
    <filter id="椭圆_99">
      <feOffset dx="-0.5" dy="-0.5" input="SourceAlpha"/>
      <feGaussianBlur stdDeviation="0.25" result="blur-20"/>
      <feFlood flood-opacity="0.161" result="color-20"/>
      <feComposite operator="out" in="SourceGraphic" in2="blur-20"/>
      <feComposite operator="in" in="color-20"/>
      <feComposite operator="in" in2="SourceGraphic"/>
    </filter>
    <filter id="椭圆_101">
      <feOffset dx="-0.5" dy="-0.5" input="SourceAlpha"/>
      <feGaussianBlur stdDeviation="0.25" result="blur-21"/>
      <feFlood flood-opacity="0.161" result="color-21"/>
      <feComposite operator="out" in="SourceGraphic" in2="blur-21"/>
      <feComposite operator="in" in="color-21"/>
      <feComposite operator="in" in2="SourceGraphic"/>
    </filter>
    <filter id="椭圆_102">
      <feOffset dx="-0.5" dy="-0.5" input="SourceAlpha"/>
      <feGaussianBlur stdDeviation="0.25" result="blur-22"/>
      <feFlood flood-opacity="0.161" result="color-22"/>
      <feComposite operator="out" in="SourceGraphic" in2="blur-22"/>
      <feComposite operator="in" in="color-22"/>
      <feComposite operator="in" in2="SourceGraphic"/>
    </filter>
    <filter id="椭圆_103">
      <feOffset dx="-0.5" dy="-0.5" input="SourceAlpha"/>
      <feGaussianBlur stdDeviation="0.25" result="blur-23"/>
      <feFlood flood-opacity="0.161" result="color-23"/>
      <feComposite operator="out" in="SourceGraphic" in2="blur-23"/>
      <feComposite operator="in" in="color-23"/>
      <feComposite operator="in" in2="SourceGraphic"/>
    </filter>
    <filter id="椭圆_87">
      <feOffset dx="-0.5" dy="-0.5" input="SourceAlpha"/>
      <feGaussianBlur stdDeviation="0.25" result="blur-24"/>
      <feFlood flood-opacity="0.161" result="color-24"/>
      <feComposite operator="out" in="SourceGraphic" in2="blur-24"/>
      <feComposite operator="in" in="color-24"/>
      <feComposite operator="in" in2="SourceGraphic"/>
    </filter>
    <filter id="椭圆_88">
      <feOffset dx="-0.5" dy="-0.5" input="SourceAlpha"/>
      <feGaussianBlur stdDeviation="0.25" result="blur-25"/>
      <feFlood flood-opacity="0.161" result="color-25"/>
      <feComposite operator="out" in="SourceGraphic" in2="blur-25"/>
      <feComposite operator="in" in="color-25"/>
      <feComposite operator="in" in2="SourceGraphic"/>
    </filter>
    <filter id="椭圆_89">
      <feOffset dx="-0.5" dy="-0.5" input="SourceAlpha"/>
      <feGaussianBlur stdDeviation="0.25" result="blur-26"/>
      <feFlood flood-opacity="0.161" result="color-26"/>
      <feComposite operator="out" in="SourceGraphic" in2="blur-26"/>
      <feComposite operator="in" in="color-26"/>
      <feComposite operator="in" in2="SourceGraphic"/>
    </filter>
    <filter id="椭圆_90">
      <feOffset dx="-0.5" dy="-0.5" input="SourceAlpha"/>
      <feGaussianBlur stdDeviation="0.25" result="blur-27"/>
      <feFlood flood-opacity="0.161" result="color-27"/>
      <feComposite operator="out" in="SourceGraphic" in2="blur-27"/>
      <feComposite operator="in" in="color-27"/>
      <feComposite operator="in" in2="SourceGraphic"/>
    </filter>
    <filter id="椭圆_91">
      <feOffset dx="-0.5" dy="-0.5" input="SourceAlpha"/>
      <feGaussianBlur stdDeviation="0.25" result="blur-28"/>
      <feFlood flood-opacity="0.161" result="color-28"/>
      <feComposite operator="out" in="SourceGraphic" in2="blur-28"/>
      <feComposite operator="in" in="color-28"/>
      <feComposite operator="in" in2="SourceGraphic"/>
    </filter>
    <filter id="椭圆_92">
      <feOffset dx="-0.5" dy="-0.5" input="SourceAlpha"/>
      <feGaussianBlur stdDeviation="0.25" result="blur-29"/>
      <feFlood flood-opacity="0.161" result="color-29"/>
      <feComposite operator="out" in="SourceGraphic" in2="blur-29"/>
      <feComposite operator="in" in="color-29"/>
      <feComposite operator="in" in2="SourceGraphic"/>
    </filter>
    <filter id="椭圆_95">
      <feOffset dx="-0.5" dy="-0.5" input="SourceAlpha"/>
      <feGaussianBlur stdDeviation="0.25" result="blur-30"/>
      <feFlood flood-opacity="0.161" result="color-30"/>
      <feComposite operator="out" in="SourceGraphic" in2="blur-30"/>
      <feComposite operator="in" in="color-30"/>
      <feComposite operator="in" in2="SourceGraphic"/>
    </filter>
    <filter id="椭圆_96">
      <feOffset dx="-0.5" dy="-0.5" input="SourceAlpha"/>
      <feGaussianBlur stdDeviation="0.25" result="blur-31"/>
      <feFlood flood-opacity="0.161" result="color-31"/>
      <feComposite operator="out" in="SourceGraphic" in2="blur-31"/>
      <feComposite operator="in" in="color-31"/>
      <feComposite operator="in" in2="SourceGraphic"/>
    </filter>
    <filter id="椭圆_86">
      <feOffset dx="-0.5" dy="-0.5" input="SourceAlpha"/>
      <feGaussianBlur stdDeviation="0.25" result="blur-32"/>
      <feFlood flood-opacity="0.161" result="color-32"/>
      <feComposite operator="out" in="SourceGraphic" in2="blur-32"/>
      <feComposite operator="in" in="color-32"/>
      <feComposite operator="in" in2="SourceGraphic"/>
    </filter>
    <filter id="椭圆_72">
      <feOffset dx="-0.5" dy="-0.5" input="SourceAlpha"/>
      <feGaussianBlur stdDeviation="0.25" result="blur-33"/>
      <feFlood flood-opacity="0.161" result="color-33"/>
      <feComposite operator="out" in="SourceGraphic" in2="blur-33"/>
      <feComposite operator="in" in="color-33"/>
      <feComposite operator="in" in2="SourceGraphic"/>
    </filter>
    <filter id="椭圆_98">
      <feOffset dx="-0.5" dy="-0.5" input="SourceAlpha"/>
      <feGaussianBlur stdDeviation="0.25" result="blur-34"/>
      <feFlood flood-opacity="0.161" result="color-34"/>
      <feComposite operator="out" in="SourceGraphic" in2="blur-34"/>
      <feComposite operator="in" in="color-34"/>
      <feComposite operator="in" in2="SourceGraphic"/>
    </filter>
    <filter id="椭圆_104">
      <feOffset dx="-0.5" dy="-0.5" input="SourceAlpha"/>
      <feGaussianBlur stdDeviation="0.25" result="blur-35"/>
      <feFlood flood-opacity="0.161" result="color-35"/>
      <feComposite operator="out" in="SourceGraphic" in2="blur-35"/>
      <feComposite operator="in" in="color-35"/>
      <feComposite operator="in" in2="SourceGraphic"/>
    </filter>
    <filter id="椭圆_105">
      <feOffset dx="-0.5" dy="-0.5" input="SourceAlpha"/>
      <feGaussianBlur stdDeviation="0.25" result="blur-36"/>
      <feFlood flood-opacity="0.161" result="color-36"/>
      <feComposite operator="out" in="SourceGraphic" in2="blur-36"/>
      <feComposite operator="in" in="color-36"/>
      <feComposite operator="in" in2="SourceGraphic"/>
    </filter>
    <filter id="椭圆_100">
      <feOffset dx="-0.5" dy="-0.5" input="SourceAlpha"/>
      <feGaussianBlur stdDeviation="0.25" result="blur-37"/>
      <feFlood flood-opacity="0.161" result="color-37"/>
      <feComposite operator="out" in="SourceGraphic" in2="blur-37"/>
      <feComposite operator="in" in="color-37"/>
      <feComposite operator="in" in2="SourceGraphic"/>
    </filter>
    <filter id="椭圆_106">
      <feOffset dx="-0.5" dy="-0.5" input="SourceAlpha"/>
      <feGaussianBlur stdDeviation="0.25" result="blur-38"/>
      <feFlood flood-opacity="0.161" result="color-38"/>
      <feComposite operator="out" in="SourceGraphic" in2="blur-38"/>
      <feComposite operator="in" in="color-38"/>
      <feComposite operator="in" in2="SourceGraphic"/>
    </filter>
    <filter id="椭圆_107">
      <feOffset dx="-0.5" dy="-0.5" input="SourceAlpha"/>
      <feGaussianBlur stdDeviation="0.25" result="blur-39"/>
      <feFlood flood-opacity="0.161" result="color-39"/>
      <feComposite operator="out" in="SourceGraphic" in2="blur-39"/>
      <feComposite operator="in" in="color-39"/>
      <feComposite operator="in" in2="SourceGraphic"/>
    </filter>
    <filter id="椭圆_81">
      <feOffset dx="-0.5" dy="-0.5" input="SourceAlpha"/>
      <feGaussianBlur stdDeviation="0.25" result="blur-40"/>
      <feFlood flood-opacity="0.161" result="color-40"/>
      <feComposite operator="out" in="SourceGraphic" in2="blur-40"/>
      <feComposite operator="in" in="color-40"/>
      <feComposite operator="in" in2="SourceGraphic"/>
    </filter>
  </defs>
  <g id="组_112" data-name="组 112" transform="translate(-444 -238)">
    <circle id="椭圆_66" data-name="椭圆 66" cx="31.5" cy="31.5" r="31.5" transform="translate(444 238)" fill="none"/>
    <g data-type="innerShadowGroup">
      <path id="路径_100-2" data-name="路径 100" d="M24.21,0C37.53,0,49.137,9.041,49.137,16.018S34.342,25.3,21.022,25.3.4,20.9.4,13.92,10.891,0,24.21,0Z" transform="translate(450.731 261.163)" fill="#95ffda"/>
      <g transform="matrix(1, 0, 0, 1, 444, 238)" filter="url(#路径_100)">
        <path id="路径_100-3" data-name="路径 100" d="M24.21,0C37.53,0,49.137,9.041,49.137,16.018S34.342,25.3,21.022,25.3.4,20.9.4,13.92,10.891,0,24.21,0Z" transform="translate(6.73 23.16)" fill="#fff"/>
      </g>
    </g>
    <g data-type="innerShadowGroup">
      <path id="路径_105-2" data-name="路径 105" d="M1383.788,1626.274c-.291,1.3-5.922-2.764-6.242.546s-3.225,3.626-6.594,6.224-4.8,4.543-10.506,4.621-8.171-2.446-8.109-5.357.793-.523-.323-3.693-5.849,3.139-5.471-3.338,4.374-4.682,5.041-6.91.972-3.173,2.841-4.032a15.4,15.4,0,0,1,8.307-1.052c3.063.536,3.97.464,6.316,2.174s4.936.514,5.714,2.992,2.842-1.837,4.284-.953,3.4,4.018,4.373,4.554S1384.079,1624.97,1383.788,1626.274Z" transform="matrix(0.996, 0.087, -0.087, 0.996, -742.44, -1469.401)" fill="#8febb0"/>
      <g transform="matrix(1, 0, 0, 1, 444, 238)" filter="url(#路径_105)">
        <path id="路径_105-3" data-name="路径 105" d="M1383.788,1626.274c-.291,1.3-5.922-2.764-6.242.546s-3.225,3.626-6.594,6.224-4.8,4.543-10.506,4.621-8.171-2.446-8.109-5.357.793-.523-.323-3.693-5.849,3.139-5.471-3.338,4.374-4.682,5.041-6.91.972-3.173,2.841-4.032a15.4,15.4,0,0,1,8.307-1.052c3.063.536,3.97.464,6.316,2.174s4.936.514,5.714,2.992,2.842-1.837,4.284-.953,3.4,4.018,4.373,4.554S1384.079,1624.97,1383.788,1626.274Z" transform="matrix(1, 0.09, -0.09, 1, -1186.44, -1707.4)" fill="#fff"/>
      </g>
    </g>
    <g id="组_102" data-name="组 102">
      <g data-type="innerShadowGroup">
        <ellipse id="椭圆_84-2" data-name="椭圆 84" cx="1.5" cy="2" rx="1.5" ry="2" transform="translate(475 259)" fill="#32c995"/>
        <g transform="matrix(1, 0, 0, 1, 444, 238)" filter="url(#椭圆_84)">
          <ellipse id="椭圆_84-3" data-name="椭圆 84" cx="1.5" cy="2" rx="1.5" ry="2" transform="translate(31 21)" fill="#fff"/>
        </g>
      </g>
      <g data-type="innerShadowGroup">
        <circle id="椭圆_97-2" data-name="椭圆 97" cx="1" cy="1" r="1" transform="translate(477 261)" fill="#23f8af"/>
        <g transform="matrix(1, 0, 0, 1, 444, 238)" filter="url(#椭圆_97)">
          <circle id="椭圆_97-3" data-name="椭圆 97" cx="1" cy="1" r="1" transform="translate(33 23)" fill="#fff"/>
        </g>
      </g>
      <g data-type="innerShadowGroup">
        <ellipse id="椭圆_70-2" data-name="椭圆 70" cx="1.5" cy="2" rx="1.5" ry="2" transform="translate(472 260)" fill="#32c995"/>
        <g transform="matrix(1, 0, 0, 1, 444, 238)" filter="url(#椭圆_70)">
          <ellipse id="椭圆_70-3" data-name="椭圆 70" cx="1.5" cy="2" rx="1.5" ry="2" transform="translate(28 22)" fill="#fff"/>
        </g>
      </g>
      <g data-type="innerShadowGroup">
        <ellipse id="椭圆_73-2" data-name="椭圆 73" cx="1.5" cy="2" rx="1.5" ry="2" transform="translate(467 259)" fill="#32c995"/>
        <g transform="matrix(1, 0, 0, 1, 444, 238)" filter="url(#椭圆_73)">
          <ellipse id="椭圆_73-3" data-name="椭圆 73" cx="1.5" cy="2" rx="1.5" ry="2" transform="translate(23 21)" fill="#fff"/>
        </g>
      </g>
      <g data-type="innerShadowGroup">
        <ellipse id="椭圆_74-2" data-name="椭圆 74" cx="1.5" cy="2" rx="1.5" ry="2" transform="translate(467 262)" fill="#32c995"/>
        <g transform="matrix(1, 0, 0, 1, 444, 238)" filter="url(#椭圆_74)">
          <ellipse id="椭圆_74-3" data-name="椭圆 74" cx="1.5" cy="2" rx="1.5" ry="2" transform="translate(23 24)" fill="#fff"/>
        </g>
      </g>
      <g data-type="innerShadowGroup">
        <ellipse id="椭圆_75-2" data-name="椭圆 75" cx="1.5" cy="2" rx="1.5" ry="2" transform="translate(462 263)" fill="#32c995"/>
        <g transform="matrix(1, 0, 0, 1, 444, 238)" filter="url(#椭圆_75)">
          <ellipse id="椭圆_75-3" data-name="椭圆 75" cx="1.5" cy="2" rx="1.5" ry="2" transform="translate(18 25)" fill="#fff"/>
        </g>
      </g>
      <g data-type="innerShadowGroup">
        <ellipse id="椭圆_76-2" data-name="椭圆 76" cx="1.5" cy="2" rx="1.5" ry="2" transform="translate(468 267)" fill="#32c995"/>
        <g transform="matrix(1, 0, 0, 1, 444, 238)" filter="url(#椭圆_76)">
          <ellipse id="椭圆_76-3" data-name="椭圆 76" cx="1.5" cy="2" rx="1.5" ry="2" transform="translate(24 29)" fill="#fff"/>
        </g>
      </g>
      <g data-type="innerShadowGroup">
        <ellipse id="椭圆_77-2" data-name="椭圆 77" cx="1.5" cy="2" rx="1.5" ry="2" transform="translate(470 270)" fill="#32c995"/>
        <g transform="matrix(1, 0, 0, 1, 444, 238)" filter="url(#椭圆_77)">
          <ellipse id="椭圆_77-3" data-name="椭圆 77" cx="1.5" cy="2" rx="1.5" ry="2" transform="translate(26 32)" fill="#fff"/>
        </g>
      </g>
      <g data-type="innerShadowGroup">
        <ellipse id="椭圆_78-2" data-name="椭圆 78" cx="1.5" cy="2" rx="1.5" ry="2" transform="translate(473 273)" fill="#32c995"/>
        <g transform="matrix(1, 0, 0, 1, 444, 238)" filter="url(#椭圆_78)">
          <ellipse id="椭圆_78-3" data-name="椭圆 78" cx="1.5" cy="2" rx="1.5" ry="2" transform="translate(29 35)" fill="#fff"/>
        </g>
      </g>
      <g data-type="innerShadowGroup">
        <ellipse id="椭圆_79-2" data-name="椭圆 79" cx="1.5" cy="2" rx="1.5" ry="2" transform="translate(477 272)" fill="#32c995"/>
        <g transform="matrix(1, 0, 0, 1, 444, 238)" filter="url(#椭圆_79)">
          <ellipse id="椭圆_79-3" data-name="椭圆 79" cx="1.5" cy="2" rx="1.5" ry="2" transform="translate(33 34)" fill="#fff"/>
        </g>
      </g>
      <g data-type="innerShadowGroup">
        <ellipse id="椭圆_80-2" data-name="椭圆 80" cx="1.5" cy="2" rx="1.5" ry="2" transform="translate(483 269)" fill="#32c995"/>
        <g transform="matrix(1, 0, 0, 1, 444, 238)" filter="url(#椭圆_80)">
          <ellipse id="椭圆_80-3" data-name="椭圆 80" cx="1.5" cy="2" rx="1.5" ry="2" transform="translate(39 31)" fill="#fff"/>
        </g>
      </g>
      <g data-type="innerShadowGroup">
        <ellipse id="椭圆_82-2" data-name="椭圆 82" cx="1.5" cy="2" rx="1.5" ry="2" transform="translate(480 270)" fill="#32c995"/>
        <g transform="matrix(1, 0, 0, 1, 444, 238)" filter="url(#椭圆_82)">
          <ellipse id="椭圆_82-3" data-name="椭圆 82" cx="1.5" cy="2" rx="1.5" ry="2" transform="translate(36 32)" fill="#fff"/>
        </g>
      </g>
      <g data-type="innerShadowGroup">
        <ellipse id="椭圆_93-2" data-name="椭圆 93" cx="1.5" cy="2" rx="1.5" ry="2" transform="translate(476 269)" fill="#32c995"/>
        <g transform="matrix(1, 0, 0, 1, 444, 238)" filter="url(#椭圆_93)">
          <ellipse id="椭圆_93-3" data-name="椭圆 93" cx="1.5" cy="2" rx="1.5" ry="2" transform="translate(32 31)" fill="#fff"/>
        </g>
      </g>
      <g data-type="innerShadowGroup">
        <ellipse id="椭圆_94-2" data-name="椭圆 94" cx="1.5" cy="2" rx="1.5" ry="2" transform="translate(481 269)" fill="#32c995"/>
        <g transform="matrix(1, 0, 0, 1, 444, 238)" filter="url(#椭圆_94)">
          <ellipse id="椭圆_94-3" data-name="椭圆 94" cx="1.5" cy="2" rx="1.5" ry="2" transform="translate(37 31)" fill="#fff"/>
        </g>
      </g>
      <g data-type="innerShadowGroup">
        <ellipse id="椭圆_83-2" data-name="椭圆 83" cx="1.5" cy="2" rx="1.5" ry="2" transform="translate(462 260)" fill="#32c995"/>
        <g transform="matrix(1, 0, 0, 1, 444, 238)" filter="url(#椭圆_83)">
          <ellipse id="椭圆_83-3" data-name="椭圆 83" cx="1.5" cy="2" rx="1.5" ry="2" transform="translate(18 22)" fill="#fff"/>
        </g>
      </g>
      <g data-type="innerShadowGroup">
        <ellipse id="椭圆_85-2" data-name="椭圆 85" cx="1.5" cy="2" rx="1.5" ry="2" transform="translate(479 259)" fill="#32c995"/>
        <g transform="matrix(1, 0, 0, 1, 444, 238)" filter="url(#椭圆_85)">
          <ellipse id="椭圆_85-3" data-name="椭圆 85" cx="1.5" cy="2" rx="1.5" ry="2" transform="translate(35 21)" fill="#fff"/>
        </g>
      </g>
      <g data-type="innerShadowGroup">
        <circle id="椭圆_71-2" data-name="椭圆 71" cx="1" cy="1" r="1" transform="translate(474 262)" fill="#6bfd58"/>
        <g transform="matrix(1, 0, 0, 1, 444, 238)" filter="url(#椭圆_71)">
          <circle id="椭圆_71-3" data-name="椭圆 71" cx="1" cy="1" r="1" transform="translate(30 24)" fill="#fff"/>
        </g>
      </g>
      <path id="路径_114" data-name="路径 114" d="M2460.9,687.422c1.547-1.088,4.27-2.2,6.1-3.956s.313-6.053,4.395-5.714,3.085,6.006,6.123,6.72,4.849,1.938,4.151,2.039-4.131,1.655-6.937,1.873S2460.9,687.422,2460.9,687.422Z" transform="translate(-1992 -420)" fill="url(#linear-gradient)"/>
      <g data-type="innerShadowGroup">
        <circle id="椭圆_99-2" data-name="椭圆 99" cx="1" cy="1" r="1" transform="translate(475 257)" fill="#6bfd58"/>
        <g transform="matrix(1, 0, 0, 1, 444, 238)" filter="url(#椭圆_99)">
          <circle id="椭圆_99-3" data-name="椭圆 99" cx="1" cy="1" r="1" transform="translate(31 19)" fill="#fff"/>
        </g>
      </g>
      <g data-type="innerShadowGroup">
        <circle id="椭圆_101-2" data-name="椭圆 101" cx="1" cy="1" r="1" transform="translate(478 266)" fill="#6bfd58"/>
        <g transform="matrix(1, 0, 0, 1, 444, 238)" filter="url(#椭圆_101)">
          <circle id="椭圆_101-3" data-name="椭圆 101" cx="1" cy="1" r="1" transform="translate(34 28)" fill="#fff"/>
        </g>
      </g>
      <g data-type="innerShadowGroup">
        <circle id="椭圆_102-2" data-name="椭圆 102" cx="1" cy="1" r="1" transform="translate(459 266)" fill="#6bfd58"/>
        <g transform="matrix(1, 0, 0, 1, 444, 238)" filter="url(#椭圆_102)">
          <circle id="椭圆_102-3" data-name="椭圆 102" cx="1" cy="1" r="1" transform="translate(15 28)" fill="#fff"/>
        </g>
      </g>
      <g data-type="innerShadowGroup">
        <circle id="椭圆_103-2" data-name="椭圆 103" cx="1" cy="1" r="1" transform="translate(469 274)" fill="#6bfd58"/>
        <g transform="matrix(1, 0, 0, 1, 444, 238)" filter="url(#椭圆_103)">
          <circle id="椭圆_103-3" data-name="椭圆 103" cx="1" cy="1" r="1" transform="translate(25 36)" fill="#fff"/>
        </g>
      </g>
      <g data-type="innerShadowGroup">
        <circle id="椭圆_87-2" data-name="椭圆 87" cx="1" cy="1" r="1" transform="translate(465 269)" fill="#23f8af"/>
        <g transform="matrix(1, 0, 0, 1, 444, 238)" filter="url(#椭圆_87)">
          <circle id="椭圆_87-3" data-name="椭圆 87" cx="1" cy="1" r="1" transform="translate(21 31)" fill="#fff"/>
        </g>
      </g>
      <g data-type="innerShadowGroup">
        <circle id="椭圆_88-2" data-name="椭圆 88" cx="1" cy="1" r="1" transform="translate(463 265)" fill="#23f8af"/>
        <g transform="matrix(1, 0, 0, 1, 444, 238)" filter="url(#椭圆_88)">
          <circle id="椭圆_88-3" data-name="椭圆 88" cx="1" cy="1" r="1" transform="translate(19 27)" fill="#fff"/>
        </g>
      </g>
      <g data-type="innerShadowGroup">
        <circle id="椭圆_89-2" data-name="椭圆 89" cx="1" cy="1" r="1" transform="translate(466 262)" fill="#23f8af"/>
        <g transform="matrix(1, 0, 0, 1, 444, 238)" filter="url(#椭圆_89)">
          <circle id="椭圆_89-3" data-name="椭圆 89" cx="1" cy="1" r="1" transform="translate(22 24)" fill="#fff"/>
        </g>
      </g>
      <g data-type="innerShadowGroup">
        <circle id="椭圆_90-2" data-name="椭圆 90" cx="1" cy="1" r="1" transform="translate(481 261)" fill="#23f8af"/>
        <g transform="matrix(1, 0, 0, 1, 444, 238)" filter="url(#椭圆_90)">
          <circle id="椭圆_90-3" data-name="椭圆 90" cx="1" cy="1" r="1" transform="translate(37 23)" fill="#fff"/>
        </g>
      </g>
      <g data-type="innerShadowGroup">
        <circle id="椭圆_91-2" data-name="椭圆 91" cx="1" cy="1" r="1" transform="translate(476 273)" fill="#23f8af"/>
        <g transform="matrix(1, 0, 0, 1, 444, 238)" filter="url(#椭圆_91)">
          <circle id="椭圆_91-3" data-name="椭圆 91" cx="1" cy="1" r="1" transform="translate(32 35)" fill="#fff"/>
        </g>
      </g>
      <g data-type="innerShadowGroup">
        <circle id="椭圆_92-2" data-name="椭圆 92" cx="1" cy="1" r="1" transform="translate(475 271)" fill="#23f8af"/>
        <g transform="matrix(1, 0, 0, 1, 444, 238)" filter="url(#椭圆_92)">
          <circle id="椭圆_92-3" data-name="椭圆 92" cx="1" cy="1" r="1" transform="translate(31 33)" fill="#fff"/>
        </g>
      </g>
      <g data-type="innerShadowGroup">
        <circle id="椭圆_95-2" data-name="椭圆 95" cx="1" cy="1" r="1" transform="translate(471 271)" fill="#23f8af"/>
        <g transform="matrix(1, 0, 0, 1, 444, 238)" filter="url(#椭圆_95)">
          <circle id="椭圆_95-3" data-name="椭圆 95" cx="1" cy="1" r="1" transform="translate(27 33)" fill="#fff"/>
        </g>
      </g>
      <g data-type="innerShadowGroup">
        <circle id="椭圆_96-2" data-name="椭圆 96" cx="1" cy="1" r="1" transform="translate(468 269)" fill="#23f8af"/>
        <g transform="matrix(1, 0, 0, 1, 444, 238)" filter="url(#椭圆_96)">
          <circle id="椭圆_96-3" data-name="椭圆 96" cx="1" cy="1" r="1" transform="translate(24 31)" fill="#fff"/>
        </g>
      </g>
      <g data-type="innerShadowGroup">
        <ellipse id="椭圆_86-2" data-name="椭圆 86" cx="1.5" cy="2" rx="1.5" ry="2" transform="translate(470 263)" fill="#32c995"/>
        <g transform="matrix(1, 0, 0, 1, 444, 238)" filter="url(#椭圆_86)">
          <ellipse id="椭圆_86-3" data-name="椭圆 86" cx="1.5" cy="2" rx="1.5" ry="2" transform="translate(26 25)" fill="#fff"/>
        </g>
      </g>
      <g data-type="innerShadowGroup">
        <circle id="椭圆_72-2" data-name="椭圆 72" cx="1" cy="1" r="1" transform="translate(472 263)" fill="#23f8af"/>
        <g transform="matrix(1, 0, 0, 1, 444, 238)" filter="url(#椭圆_72)">
          <circle id="椭圆_72-3" data-name="椭圆 72" cx="1" cy="1" r="1" transform="translate(28 25)" fill="#fff"/>
        </g>
      </g>
      <g data-type="innerShadowGroup">
        <circle id="椭圆_98-2" data-name="椭圆 98" cx="1" cy="1" r="1" transform="translate(468 266)" fill="#6bfd58"/>
        <g transform="matrix(1, 0, 0, 1, 444, 238)" filter="url(#椭圆_98)">
          <circle id="椭圆_98-3" data-name="椭圆 98" cx="1" cy="1" r="1" transform="translate(24 28)" fill="#fff"/>
        </g>
      </g>
      <g data-type="innerShadowGroup">
        <ellipse id="椭圆_104-2" data-name="椭圆 104" cx="1.5" cy="2" rx="1.5" ry="2" transform="translate(481 265)" fill="#32c995"/>
        <g transform="matrix(1, 0, 0, 1, 444, 238)" filter="url(#椭圆_104)">
          <ellipse id="椭圆_104-3" data-name="椭圆 104" cx="1.5" cy="2" rx="1.5" ry="2" transform="translate(37 27)" fill="#fff"/>
        </g>
      </g>
      <g data-type="innerShadowGroup">
        <ellipse id="椭圆_105-2" data-name="椭圆 105" cx="1.5" cy="2" rx="1.5" ry="2" transform="translate(484 266)" fill="#32c995"/>
        <g transform="matrix(1, 0, 0, 1, 444, 238)" filter="url(#椭圆_105)">
          <ellipse id="椭圆_105-3" data-name="椭圆 105" cx="1.5" cy="2" rx="1.5" ry="2" transform="translate(40 28)" fill="#fff"/>
        </g>
      </g>
      <g data-type="innerShadowGroup">
        <circle id="椭圆_100-2" data-name="椭圆 100" cx="1" cy="1" r="1" transform="translate(484 269)" fill="#6bfd58"/>
        <g transform="matrix(1, 0, 0, 1, 444, 238)" filter="url(#椭圆_100)">
          <circle id="椭圆_100-3" data-name="椭圆 100" cx="1" cy="1" r="1" transform="translate(40 31)" fill="#fff"/>
        </g>
      </g>
      <g data-type="innerShadowGroup">
        <circle id="椭圆_106-2" data-name="椭圆 106" cx="1" cy="1" r="1" transform="translate(477 272)" fill="#6bfd58"/>
        <g transform="matrix(1, 0, 0, 1, 444, 238)" filter="url(#椭圆_106)">
          <circle id="椭圆_106-3" data-name="椭圆 106" cx="1" cy="1" r="1" transform="translate(33 34)" fill="#fff"/>
        </g>
      </g>
      <g data-type="innerShadowGroup">
        <circle id="椭圆_107-2" data-name="椭圆 107" cx="1" cy="1" r="1" transform="translate(464 264)" fill="#6bfd58"/>
        <g transform="matrix(1, 0, 0, 1, 444, 238)" filter="url(#椭圆_107)">
          <circle id="椭圆_107-3" data-name="椭圆 107" cx="1" cy="1" r="1" transform="translate(20 26)" fill="#fff"/>
        </g>
      </g>
      <g data-type="innerShadowGroup">
        <ellipse id="椭圆_81-2" data-name="椭圆 81" cx="1.5" cy="2" rx="1.5" ry="2" transform="translate(487 265)" fill="#32c995"/>
        <g transform="matrix(1, 0, 0, 1, 444, 238)" filter="url(#椭圆_81)">
          <ellipse id="椭圆_81-3" data-name="椭圆 81" cx="1.5" cy="2" rx="1.5" ry="2" transform="translate(43 27)" fill="#fff"/>
        </g>
      </g>
    </g>
  </g>
</svg>
