<svg xmlns="http://www.w3.org/2000/svg" width="90.263" height="86.114" viewBox="0 0 90.263 86.114">
  <g id="组_140" data-name="组 140" transform="translate(-357.743 -456)">
    <path id="路径_260" data-name="路径 260" d="M9,0c4.971,0,9,6.94,9,15.5S13.971,36.738,9,36.738,0,24.06,0,15.5,4.029,0,9,0Z" transform="translate(394 456)" fill="#faaffd"/>
    <path id="减去_8" data-name="减去 8" d="M-1977.53-396.324c-1.446,0-3.349-1.108-5.358-3.121a26,26,0,0,1-4.916-7.021,10.277,10.277,0,0,1-.985-5.613A4.025,4.025,0,0,0-1988-412a4,4,0,0,0,4-4,4.043,4.043,0,0,0-.026-.454,6.255,6.255,0,0,1,3.459,3.13,12.565,12.565,0,0,1,1.477,6.047,20.084,20.084,0,0,0,1.66,6.754c.678,1.8,1.214,3.226.78,3.852A.991.991,0,0,1-1977.53-396.324Z" transform="translate(2376 883)" fill="#faaffd"/>
    <path id="减去_9" data-name="减去 9" d="M11.331,0C9.885,0,7.982,1.108,5.972,3.121a26,26,0,0,0-4.916,7.021,10.277,10.277,0,0,0-.985,5.613,4,4,0,0,1,4.79,3.922,4.043,4.043,0,0,1-.026.454A6.255,6.255,0,0,0,8.295,17a12.565,12.565,0,0,0,1.477-6.047A20.084,20.084,0,0,1,11.432,4.2c.678-1.8,1.214-3.226.78-3.852A.991.991,0,0,0,11.331,0Z" transform="translate(418.615 486.676) rotate(180)" fill="#faaffd"/>
    <circle id="椭圆_183" data-name="椭圆 183" cx="2" cy="2" r="2" transform="translate(386 465)" fill="#faaffd"/>
    <ellipse id="椭圆_187" data-name="椭圆 187" cx="2" cy="2" rx="2" ry="2" transform="translate(415.753 465)" fill="#faaffd"/>
    <path id="路径_260-2" data-name="路径 260" d="M9,0c4.971,0,9,6.94,9,15.5S13.971,36.738,9,36.738,0,24.06,0,15.5,4.029,0,9,0Z" transform="translate(442.146 477.503) rotate(71)" fill="#faaffd"/>
    <path id="减去_8-2" data-name="减去 8" d="M-1977.53-396.324c-1.446,0-3.349-1.108-5.358-3.121a26,26,0,0,1-4.916-7.021,10.277,10.277,0,0,1-.985-5.613A4.025,4.025,0,0,0-1988-412a4,4,0,0,0,4-4,4.043,4.043,0,0,0-.026-.454,6.255,6.255,0,0,1,3.459,3.13,12.565,12.565,0,0,1,1.477,6.047,20.084,20.084,0,0,0,1.66,6.754c.678,1.8,1.214,3.226.78,3.852A.991.991,0,0,1-1977.53-396.324Z" transform="translate(683.685 2490.538) rotate(71)" fill="#faaffd"/>
    <path id="减去_9-2" data-name="减去 9" d="M11.331,0C9.885,0,7.982,1.108,5.972,3.121a26,26,0,0,0-4.916,7.021,10.277,10.277,0,0,0-.985,5.613,4,4,0,0,1,4.79,3.922,4.043,4.043,0,0,1-.026.454A6.255,6.255,0,0,0,8.295,17a12.565,12.565,0,0,0,1.477-6.047A20.084,20.084,0,0,1,11.432,4.2c.678-1.8,1.214-3.226.78-3.852A.991.991,0,0,0,11.331,0Z" transform="translate(421.154 510.763) rotate(-109)" fill="#faaffd"/>
    <circle id="椭圆_183-2" data-name="椭圆 183" cx="2" cy="2" r="2" transform="translate(431.031 472.869) rotate(71)" fill="#faaffd"/>
    <ellipse id="椭圆_187-2" data-name="椭圆 187" cx="2" cy="2" rx="2" ry="2" transform="translate(440.718 501.001) rotate(71)" fill="#faaffd"/>
    <path id="路径_260-3" data-name="路径 260" d="M9,0c4.971,0,9,6.94,9,15.5S13.971,36.738,9,36.738,0,24.06,0,15.5,4.029,0,9,0Z" transform="translate(436.969 530.623) rotate(143)" fill="#faaffd"/>
    <path id="减去_8-3" data-name="减去 8" d="M-1977.53-396.324c-1.446,0-3.349-1.108-5.358-3.121a26,26,0,0,1-4.916-7.021,10.277,10.277,0,0,1-.985-5.613A4.025,4.025,0,0,0-1988-412a4,4,0,0,0,4-4,4.043,4.043,0,0,0-.026-.454,6.255,6.255,0,0,1,3.459,3.13,12.565,12.565,0,0,1,1.477,6.047,20.084,20.084,0,0,0,1.66,6.754c.678,1.8,1.214,3.226.78,3.852A.991.991,0,0,1-1977.53-396.324Z" transform="translate(-1402.902 1382.403) rotate(143)" fill="#faaffd"/>
    <path id="减去_9-3" data-name="减去 9" d="M11.331,0C9.885,0,7.982,1.108,5.972,3.121a26,26,0,0,0-4.916,7.021,10.277,10.277,0,0,0-.985,5.613,4,4,0,0,1,4.79,3.922,4.043,4.043,0,0,1-.026.454A6.255,6.255,0,0,0,8.295,17a12.565,12.565,0,0,0,1.477-6.047A20.084,20.084,0,0,1,11.432,4.2c.678-1.8,1.214-3.226.78-3.852A.991.991,0,0,0,11.331,0Z" transform="translate(398.849 520.937) rotate(-37)" fill="#faaffd"/>
    <circle id="椭圆_183-3" data-name="椭圆 183" cx="2" cy="2" r="2" transform="translate(437.941 518.621) rotate(143)" fill="#faaffd"/>
    <ellipse id="椭圆_187-3" data-name="椭圆 187" cx="2" cy="2" rx="2" ry="2" transform="translate(414.179 536.527) rotate(143)" fill="#faaffd"/>
    <path id="路径_260-4" data-name="路径 260" d="M9,0c4.971,0,9,6.94,9,15.5S13.971,36.738,9,36.738,0,24.06,0,15.5,4.029,0,9,0Z" transform="matrix(-0.819, -0.574, 0.574, -0.819, 384.848, 542.114)" fill="#faaffd"/>
    <path id="减去_8-4" data-name="减去 8" d="M-1977.53-396.324c-1.446,0-3.349-1.108-5.358-3.121a26,26,0,0,1-4.916-7.021,10.277,10.277,0,0,1-.985-5.613A4.025,4.025,0,0,0-1988-412a4,4,0,0,0,4-4,4.043,4.043,0,0,0-.026-.454,6.255,6.255,0,0,1,3.459,3.13,12.565,12.565,0,0,1,1.477,6.047,20.084,20.084,0,0,0,1.66,6.754c.678,1.8,1.214,3.226.78,3.852A.991.991,0,0,1-1977.53-396.324Z" transform="matrix(-0.819, -0.574, 0.574, -0.819, -993.794, -944.492)" fill="#faaffd"/>
    <path id="减去_9-4" data-name="减去 9" d="M11.331,0C9.885,0,7.982,1.108,5.972,3.121a26,26,0,0,0-4.916,7.021,10.277,10.277,0,0,0-.985,5.613,4,4,0,0,1,4.79,3.922,4.043,4.043,0,0,1-.026.454A6.255,6.255,0,0,0,8.295,17a12.565,12.565,0,0,0,1.477-6.047A20.084,20.084,0,0,1,11.432,4.2c.678-1.8,1.214-3.226.78-3.852A.991.991,0,0,0,11.331,0Z" transform="matrix(0.819, 0.574, -0.574, 0.819, 382.28, 502.868)" fill="#faaffd"/>
    <circle id="椭圆_183-4" data-name="椭圆 183" cx="2" cy="2" r="2" transform="matrix(-0.819, -0.574, 0.574, -0.819, 396.564, 539.331)" fill="#faaffd"/>
    <ellipse id="椭圆_187-4" data-name="椭圆 187" cx="2" cy="2" rx="2" ry="2" transform="matrix(-0.819, -0.574, 0.574, -0.819, 372.191, 522.265)" fill="#faaffd"/>
    <path id="路径_260-5" data-name="路径 260" d="M9,0c4.971,0,9,6.94,9,15.5S13.971,36.738,9,36.738,0,24.06,0,15.5,4.029,0,9,0Z" transform="matrix(0.276, -0.961, 0.961, 0.276, 357.743, 496.885)" fill="#faaffd"/>
    <path id="减去_8-5" data-name="减去 8" d="M-1977.53-396.324c-1.446,0-3.349-1.108-5.358-3.121a26,26,0,0,1-4.916-7.021,10.277,10.277,0,0,1-.985-5.613A4.025,4.025,0,0,0-1988-412a4,4,0,0,0,4-4,4.043,4.043,0,0,0-.026-.454,6.255,6.255,0,0,1,3.459,3.13,12.565,12.565,0,0,1,1.477,6.047,20.084,20.084,0,0,0,1.66,6.754c.678,1.8,1.214,3.226.78,3.852A.991.991,0,0,1-1977.53-396.324Z" transform="matrix(0.276, -0.961, 0.961, 0.276, 1314.515, -1290.638)" fill="#faaffd"/>
    <path id="减去_9-5" data-name="减去 9" d="M11.331,0C9.885,0,7.982,1.108,5.972,3.121a26,26,0,0,0-4.916,7.021,10.277,10.277,0,0,0-.985,5.613,4,4,0,0,1,4.79,3.922,4.043,4.043,0,0,1-.026.454A6.255,6.255,0,0,0,8.295,17a12.565,12.565,0,0,0,1.477-6.047A20.084,20.084,0,0,1,11.432,4.2c.678-1.8,1.214-3.226.78-3.852A.991.991,0,0,0,11.331,0Z" transform="matrix(-0.276, 0.961, -0.961, -0.276, 394.016, 481.68)" fill="#faaffd"/>
    <circle id="椭圆_183-5" data-name="椭圆 183" cx="2" cy="2" r="2" transform="matrix(0.276, -0.961, 0.961, 0.276, 364.189, 507.056)" fill="#faaffd"/>
    <ellipse id="椭圆_187-5" data-name="椭圆 187" cx="2" cy="2" rx="2" ry="2" transform="matrix(0.276, -0.961, 0.961, 0.276, 372.391, 478.455)" fill="#faaffd"/>
    <text id="γ" transform="translate(394 508)" fill="#c35fc7" font-size="33" font-family="Menlo-Bold, Menlo" font-weight="700"><tspan x="0" y="0">γ</tspan></text>
  </g>
</svg>
