<svg xmlns="http://www.w3.org/2000/svg" xmlns:xlink="http://www.w3.org/1999/xlink" width="63" height="63" viewBox="0 0 63 63">
  <defs>
    <filter id="路径_97">
      <feOffset dy="-1" input="SourceAlpha"/>
      <feGaussianBlur stdDeviation="5" result="blur"/>
      <feFlood flood-opacity="0.161" result="color"/>
      <feComposite operator="out" in="SourceGraphic" in2="blur"/>
      <feComposite operator="in" in="color"/>
      <feComposite operator="in" in2="SourceGraphic"/>
    </filter>
    <linearGradient id="linear-gradient" x1="0.696" y1="0.351" x2="0.5" y2="1" gradientUnits="objectBoundingBox">
      <stop offset="0" stop-color="#c2f2de"/>
      <stop offset="1" stop-color="#c4f2c2"/>
    </linearGradient>
    <filter id="路径_98">
      <feOffset dy="-3" input="SourceAlpha"/>
      <feGaussianBlur stdDeviation="1.5" result="blur-2"/>
      <feFlood flood-opacity="0.161" result="color-2"/>
      <feComposite operator="out" in="SourceGraphic" in2="blur-2"/>
      <feComposite operator="in" in="color-2"/>
      <feComposite operator="in" in2="SourceGraphic"/>
    </filter>
    <linearGradient id="linear-gradient-2" x1="1" y1="0.122" x2="0.128" y2="1" gradientUnits="objectBoundingBox">
      <stop offset="0" stop-color="#0f4"/>
      <stop offset="0.966" stop-color="#50bc47"/>
      <stop offset="1" stop-color="#8ce281"/>
    </linearGradient>
    <linearGradient id="linear-gradient-6" x1="0" y1="0.122" x2="0.872" xlink:href="#linear-gradient-2"/>
    <linearGradient id="linear-gradient-61" y1="0.878" x2="0.128" y2="0" xlink:href="#linear-gradient-2"/>
  </defs>
  <g id="组_110" data-name="组 110" transform="translate(-283 -239)">
    <circle id="椭圆_64" data-name="椭圆 64" cx="31.5" cy="31.5" r="31.5" transform="translate(283 239)" fill="none"/>
    <g data-type="innerShadowGroup">
      <path id="路径_97-2" data-name="路径 97" d="M24.21,0C37.53,0,49.137,9.041,49.137,16.018S34.342,25.3,21.022,25.3.4,20.9.4,13.92,10.891,0,24.21,0Z" transform="translate(289.731 262.163)" fill="#95f3ff"/>
      <g transform="matrix(1, 0, 0, 1, 283, 239)" filter="url(#路径_97)">
        <path id="路径_97-3" data-name="路径 97" d="M24.21,0C37.53,0,49.137,9.041,49.137,16.018S34.342,25.3,21.022,25.3.4,20.9.4,13.92,10.891,0,24.21,0Z" transform="translate(6.73 23.16)" fill="#fff"/>
      </g>
    </g>
    <g data-type="innerShadowGroup">
      <path id="路径_98-2" data-name="路径 98" d="M571.975,1686.333c-2.522.308-5.877.943-5.6,4.325s4.962,3.392,5.861,7.228-5.568,4.04-2.324,5.37a34.7,34.7,0,0,0,12.867,2.008c4.636-.109,11.574.092,14.9-2.008s1.387-2.311,2.156-5.37,4.083-3.482,2.564-6.445-3.834-6.2-10.7-6.689-8.415-.343-12.395.682S574.5,1686.025,571.975,1686.333Z" transform="translate(-270.071 -1424.379)" fill="url(#linear-gradient)"/>
      <g transform="matrix(1, 0, 0, 1, 283, 239)" filter="url(#路径_98)">
        <path id="路径_98-3" data-name="路径 98" d="M571.975,1686.333c-2.522.308-5.877.943-5.6,4.325s4.962,3.392,5.861,7.228-5.568,4.04-2.324,5.37a34.7,34.7,0,0,0,12.867,2.008c4.636-.109,11.574.092,14.9-2.008s1.387-2.311,2.156-5.37,4.083-3.482,2.564-6.445-3.834-6.2-10.7-6.689-8.415-.343-12.395.682S574.5,1686.025,571.975,1686.333Z" transform="translate(-553.07 -1663.38)" fill="#fff"/>
      </g>
    </g>
    <path id="路径_122" data-name="路径 122" d="M4,0,6.978.832,8,4,2.948,5.769,0,4-.218,1.644Z" transform="translate(300 259)" fill="#ededed"/>
    <path id="路径_123" data-name="路径 123" d="M4.906.535,6.776,3l-.685,1.91H2.835L.951,5.482,2.194,1.924Z" transform="translate(302 259.278)" fill="#d1d1d1"/>
    <path id="路径_125" data-name="路径 125" d="M3.149,2.113l.523,1.763.411,1.145L2.835,4.915.8,5.021l.93-2.131Z" transform="translate(304 259.154)" fill="#bfbfbf"/>
    <path id="路径_126" data-name="路径 126" d="M3.973,2.83l2.892.853L4.193,5.021,2.9,4.569,2.247,3.546Z" transform="translate(300 256.154)" fill="#fff"/>
    <path id="路径_124" data-name="路径 124" d="M4.828,1.548,6.209,2,5,5.6l-2.17-.685L2.021,3.9,4.5,3.734Z" transform="translate(298 259.154)" fill="#e0e0e0"/>
    <g id="组_106" data-name="组 106">
      <path id="路径_127" data-name="路径 127" d="M2.045-1.326.717,3H0Z" transform="translate(329 263)" fill="url(#linear-gradient-2)"/>
      <path id="路径_138" data-name="路径 138" d="M0-1.326,1.328,3h.717Z" transform="translate(306.865 258.994)" fill="url(#linear-gradient-2)"/>
      <path id="路径_148" data-name="路径 148" d="M0-1.326,1.328,3h.717Z" transform="translate(321.76 266.278)" fill="url(#linear-gradient-2)"/>
      <path id="路径_179" data-name="路径 179" d="M0-1.326,1.328,3h.717Z" transform="translate(313.181 267.996)" fill="url(#linear-gradient-2)"/>
      <path id="路径_192" data-name="路径 192" d="M2.045-1.326.717,3H0Z" transform="translate(319.254 271.124)" fill="url(#linear-gradient-6)"/>
      <path id="路径_205" data-name="路径 205" d="M2.045-1.326.717,3H0Z" transform="translate(306.276 272.17)" fill="url(#linear-gradient-6)"/>
      <path id="路径_158" data-name="路径 158" d="M0-1.326,1.328,3h.717Z" transform="translate(317.616 267.395)" fill="url(#linear-gradient-2)"/>
      <path id="路径_184" data-name="路径 184" d="M0-1.326,1.328,3h.717Z" transform="translate(309.036 269.113)" fill="url(#linear-gradient-2)"/>
      <path id="路径_197" data-name="路径 197" d="M2.045-1.326.717,3H0Z" transform="translate(323.399 272.241)" fill="url(#linear-gradient-6)"/>
      <path id="路径_210" data-name="路径 210" d="M2.045-1.326.717,3H0Z" transform="translate(310.421 273.287)" fill="url(#linear-gradient-6)"/>
      <path id="路径_168" data-name="路径 168" d="M0-1.326,1.328,3h.717Z" transform="translate(321.606 270.156)" fill="url(#linear-gradient-2)"/>
      <path id="路径_128" data-name="路径 128" d="M0-1.326.59,3H.909Z" transform="translate(326.091 262.028)" fill="url(#linear-gradient-2)"/>
      <path id="路径_186" data-name="路径 186" d="M0-1.326.59,3H.909Z" transform="translate(317.511 263.746)" fill="url(#linear-gradient-2)"/>
      <path id="路径_199" data-name="路径 199" d="M.909-1.326.318,3H0Z" transform="translate(316.06 266.874)" fill="url(#linear-gradient-6)"/>
      <path id="路径_212" data-name="路径 212" d="M.909-1.326.318,3H0Z" transform="translate(303.082 267.92)" fill="url(#linear-gradient-6)"/>
      <path id="路径_137" data-name="路径 137" d="M.909-1.326.319,3H0Z" transform="translate(310.91 258.022)" fill="url(#linear-gradient-2)"/>
      <path id="路径_147" data-name="路径 147" d="M.909-1.326.319,3H0Z" transform="translate(325.805 265.306)" fill="url(#linear-gradient-2)"/>
      <path id="路径_185" data-name="路径 185" d="M.909-1.326.319,3H0Z" transform="translate(317.226 267.024)" fill="url(#linear-gradient-2)"/>
      <path id="路径_198" data-name="路径 198" d="M0-1.326.59,3H.909Z" transform="translate(316.345 270.152)" fill="url(#linear-gradient-6)"/>
      <path id="路径_211" data-name="路径 211" d="M0-1.326.59,3H.909Z" transform="translate(303.367 271.198)" fill="url(#linear-gradient-6)"/>
      <path id="路径_157" data-name="路径 157" d="M.909-1.326.319,3H0Z" transform="translate(321.661 266.423)" fill="url(#linear-gradient-2)"/>
      <path id="路径_180" data-name="路径 180" d="M.909-1.326.319,3H0Z" transform="translate(313.081 268.14)" fill="url(#linear-gradient-2)"/>
      <path id="路径_193" data-name="路径 193" d="M0-1.326.59,3H.909Z" transform="translate(320.49 271.269)" fill="url(#linear-gradient-6)"/>
      <path id="路径_206" data-name="路径 206" d="M0-1.326.59,3H.909Z" transform="translate(307.512 272.315)" fill="url(#linear-gradient-6)"/>
      <path id="路径_167" data-name="路径 167" d="M.909-1.326.319,3H0Z" transform="translate(325.651 269.183)" fill="url(#linear-gradient-2)"/>
      <path id="路径_129" data-name="路径 129" d="M0-1.326.59,3H.909Z" transform="translate(327 263.612)" fill="url(#linear-gradient-2)"/>
      <path id="路径_189" data-name="路径 189" d="M0-1.326.59,3H.909Z" transform="translate(318.42 265.33)" fill="url(#linear-gradient-2)"/>
      <path id="路径_202" data-name="路径 202" d="M.909-1.326.318,3H0Z" transform="translate(315.151 268.459)" fill="url(#linear-gradient-6)"/>
      <path id="路径_215" data-name="路径 215" d="M.909-1.326.318,3H0Z" transform="translate(302.173 269.505)" fill="url(#linear-gradient-6)"/>
      <path id="路径_139" data-name="路径 139" d="M.909-1.326.319,3H0Z" transform="translate(310.001 259.606)" fill="url(#linear-gradient-2)"/>
      <path id="路径_149" data-name="路径 149" d="M.909-1.326.319,3H0Z" transform="translate(324.896 266.89)" fill="url(#linear-gradient-2)"/>
      <path id="路径_181" data-name="路径 181" d="M.909-1.326.319,3H0Z" transform="translate(316.317 268.608)" fill="url(#linear-gradient-2)"/>
      <path id="路径_194" data-name="路径 194" d="M0-1.326.59,3H.909Z" transform="translate(317.254 271.737)" fill="url(#linear-gradient-6)"/>
      <path id="路径_207" data-name="路径 207" d="M0-1.326.59,3H.909Z" transform="translate(304.276 272.783)" fill="url(#linear-gradient-6)"/>
      <path id="路径_159" data-name="路径 159" d="M.909-1.326.319,3H0Z" transform="translate(320.752 268.007)" fill="url(#linear-gradient-2)"/>
      <path id="路径_169" data-name="路径 169" d="M.909-1.326.319,3H0Z" transform="translate(324.742 270.768)" fill="url(#linear-gradient-2)"/>
      <path id="路径_130" data-name="路径 130" d="M.791-1.326.277,2.068H0Z" transform="translate(328.818 266.095)" fill="url(#linear-gradient-2)"/>
      <path id="路径_141" data-name="路径 141" d="M0-1.326.514,2.068H.791Z" transform="translate(308.301 262.089)" fill="url(#linear-gradient-2)"/>
      <path id="路径_151" data-name="路径 151" d="M0-1.326.514,2.068H.791Z" transform="translate(323.197 269.373)" fill="url(#linear-gradient-2)"/>
      <path id="路径_161" data-name="路径 161" d="M0-1.326.514,2.068H.791Z" transform="translate(319.052 270.49)" fill="url(#linear-gradient-2)"/>
      <path id="路径_171" data-name="路径 171" d="M0-1.326.514,2.068H.791Z" transform="translate(323.042 273.25)" fill="url(#linear-gradient-2)"/>
      <path id="路径_131" data-name="路径 131" d="M.791-1.326.277,4.127H0Z" transform="translate(328.422 261.43)" fill="url(#linear-gradient-2)"/>
      <path id="路径_140" data-name="路径 140" d="M0-1.326.514,4.127H.791Z" transform="translate(308.697 257.424)" fill="url(#linear-gradient-2)"/>
      <path id="路径_150" data-name="路径 150" d="M0-1.326.514,4.127H.791Z" transform="translate(323.592 264.708)" fill="url(#linear-gradient-2)"/>
      <path id="路径_177" data-name="路径 177" d="M0-1.326.514,4.127H.791Z" transform="translate(315.013 266.426)" fill="url(#linear-gradient-2)"/>
      <path id="路径_190" data-name="路径 190" d="M.791-1.326.277,4.127H0Z" transform="translate(318.676 269.554)" fill="url(#linear-gradient-6)"/>
      <path id="路径_203" data-name="路径 203" d="M.791-1.326.277,4.127H0Z" transform="translate(305.698 270.6)" fill="url(#linear-gradient-6)"/>
      <path id="路径_160" data-name="路径 160" d="M0-1.326.514,4.127H.791Z" transform="translate(319.448 265.825)" fill="url(#linear-gradient-2)"/>
      <path id="路径_178" data-name="路径 178" d="M0-1.326.514,4.127H.791Z" transform="translate(310.868 267.543)" fill="url(#linear-gradient-2)"/>
      <path id="路径_191" data-name="路径 191" d="M.791-1.326.277,4.127H0Z" transform="translate(322.821 270.671)" fill="url(#linear-gradient-6)"/>
      <path id="路径_204" data-name="路径 204" d="M.791-1.326.277,4.127H0Z" transform="translate(309.843 271.717)" fill="url(#linear-gradient-6)"/>
      <path id="路径_170" data-name="路径 170" d="M0-1.326.514,4.127H.791Z" transform="translate(323.438 268.585)" fill="url(#linear-gradient-2)"/>
      <path id="路径_132" data-name="路径 132" d="M1.091-1.326.382,1.261H0Z" transform="translate(327.942 266.511) rotate(-17)" fill="url(#linear-gradient-2)"/>
      <path id="路径_142" data-name="路径 142" d="M1.091,2.587.382,0H0Z" transform="translate(309.599 263.712) rotate(-163)" fill="url(#linear-gradient-2)"/>
      <path id="路径_152" data-name="路径 152" d="M1.091,2.587.382,0H0Z" transform="translate(324.494 270.996) rotate(-163)" fill="url(#linear-gradient-2)"/>
      <path id="路径_162" data-name="路径 162" d="M1.091,2.587.382,0H0Z" transform="translate(320.35 272.113) rotate(-163)" fill="url(#linear-gradient-2)"/>
      <path id="路径_172" data-name="路径 172" d="M1.091,2.587.382,0H0Z" transform="translate(324.34 274.873) rotate(-163)" fill="url(#linear-gradient-2)"/>
      <path id="路径_133" data-name="路径 133" d="M1.091-1.326.382,1.261H0Z" transform="translate(326.143 266.511) rotate(-17)" fill="url(#linear-gradient-2)"/>
      <path id="路径_182" data-name="路径 182" d="M1.091-1.326.382,1.261H0Z" transform="translate(317.563 268.229) rotate(-17)" fill="url(#linear-gradient-2)"/>
      <path id="路径_195" data-name="路径 195" d="M1.091,2.587.382,0H0Z" transform="translate(316.548 272.564) rotate(-163)" fill="url(#linear-gradient-61)"/>
      <path id="路径_208" data-name="路径 208" d="M1.091,2.587.382,0H0Z" transform="translate(303.57 273.61) rotate(-163)" fill="url(#linear-gradient-61)"/>
      <path id="路径_143" data-name="路径 143" d="M1.091,2.587.382,0H0Z" transform="translate(311.398 263.712) rotate(-163)" fill="url(#linear-gradient-2)"/>
      <path id="路径_153" data-name="路径 153" d="M1.091,2.587.382,0H0Z" transform="translate(326.294 270.996) rotate(-163)" fill="url(#linear-gradient-2)"/>
      <path id="路径_163" data-name="路径 163" d="M1.091,2.587.382,0H0Z" transform="translate(322.149 272.113) rotate(-163)" fill="url(#linear-gradient-2)"/>
      <path id="路径_173" data-name="路径 173" d="M1.091,2.587.382,0H0Z" transform="translate(326.139 274.873) rotate(-163)" fill="url(#linear-gradient-2)"/>
      <path id="路径_134" data-name="路径 134" d="M1.091-1.326.382,1.261H0Z" transform="translate(325.243 266.511) rotate(-17)" fill="url(#linear-gradient-2)"/>
      <path id="路径_183" data-name="路径 183" d="M1.091-1.326.382,1.261H0Z" transform="translate(316.663 268.229) rotate(-17)" fill="url(#linear-gradient-2)"/>
      <path id="路径_196" data-name="路径 196" d="M1.091,2.587.382,0H0Z" transform="translate(317.448 272.564) rotate(-163)" fill="url(#linear-gradient-61)"/>
      <path id="路径_209" data-name="路径 209" d="M1.091,2.587.382,0H0Z" transform="translate(304.47 273.61) rotate(-163)" fill="url(#linear-gradient-61)"/>
      <path id="路径_144" data-name="路径 144" d="M1.091,2.587.382,0H0Z" transform="translate(312.298 263.712) rotate(-163)" fill="url(#linear-gradient-2)"/>
      <path id="路径_154" data-name="路径 154" d="M1.091,2.587.382,0H0Z" transform="translate(327.194 270.996) rotate(-163)" fill="url(#linear-gradient-2)"/>
      <path id="路径_164" data-name="路径 164" d="M1.091,2.587.382,0H0Z" transform="translate(323.049 272.113) rotate(-163)" fill="url(#linear-gradient-2)"/>
      <path id="路径_174" data-name="路径 174" d="M1.091,2.587.382,0H0Z" transform="translate(327.039 274.873) rotate(-163)" fill="url(#linear-gradient-2)"/>
      <path id="路径_136" data-name="路径 136" d="M2.045-1.326.717,3H0Z" transform="translate(326.773 265.775)" fill="url(#linear-gradient-2)"/>
      <path id="路径_188" data-name="路径 188" d="M2.045-1.326.717,3H0Z" transform="translate(318.193 267.493)" fill="url(#linear-gradient-2)"/>
      <path id="路径_201" data-name="路径 201" d="M0-1.326,1.328,3h.717Z" transform="translate(314.242 270.621)" fill="url(#linear-gradient-6)"/>
      <path id="路径_214" data-name="路径 214" d="M0-1.326,1.328,3h.717Z" transform="translate(301.264 271.668)" fill="url(#linear-gradient-6)"/>
      <path id="路径_145" data-name="路径 145" d="M0-1.326,1.328,3h.717Z" transform="translate(309.092 261.769)" fill="url(#linear-gradient-2)"/>
      <path id="路径_155" data-name="路径 155" d="M0-1.326,1.328,3h.717Z" transform="translate(323.988 269.053)" fill="url(#linear-gradient-2)"/>
      <path id="路径_165" data-name="路径 165" d="M0-1.326,1.328,3h.717Z" transform="translate(319.843 270.17)" fill="url(#linear-gradient-2)"/>
      <path id="路径_175" data-name="路径 175" d="M0-1.326,1.328,3h.717Z" transform="translate(323.833 272.931)" fill="url(#linear-gradient-2)"/>
      <path id="路径_135" data-name="路径 135" d="M2.045-1.326.717,3H0Z" transform="translate(326.545 265.163)" fill="url(#linear-gradient-2)"/>
      <path id="路径_187" data-name="路径 187" d="M2.045-1.326.717,3H0Z" transform="translate(317.966 266.881)" fill="url(#linear-gradient-2)"/>
      <path id="路径_200" data-name="路径 200" d="M0-1.326,1.328,3h.717Z" transform="translate(314.469 270.009)" fill="url(#linear-gradient-6)"/>
      <path id="路径_213" data-name="路径 213" d="M0-1.326,1.328,3h.717Z" transform="translate(301.491 271.055)" fill="url(#linear-gradient-6)"/>
      <path id="路径_146" data-name="路径 146" d="M0-1.326,1.328,3h.717Z" transform="translate(309.32 261.157)" fill="url(#linear-gradient-2)"/>
      <path id="路径_156" data-name="路径 156" d="M0-1.326,1.328,3h.717Z" transform="translate(324.215 268.441)" fill="url(#linear-gradient-2)"/>
      <path id="路径_166" data-name="路径 166" d="M0-1.326,1.328,3h.717Z" transform="translate(320.07 269.558)" fill="url(#linear-gradient-2)"/>
      <path id="路径_176" data-name="路径 176" d="M0-1.326,1.328,3h.717Z" transform="translate(324.06 272.318)" fill="url(#linear-gradient-2)"/>
    </g>
  </g>
</svg>
