<svg xmlns="http://www.w3.org/2000/svg" xmlns:xlink="http://www.w3.org/1999/xlink" width="60.525" height="60.525" viewBox="0 0 60.525 60.525">
  <defs>
    <linearGradient id="linear-gradient" x1="0.5" x2="0.5" y2="1" gradientUnits="objectBoundingBox">
      <stop offset="0" stop-color="#4ff7b9"/>
      <stop offset="0.463" stop-color="#8becf8"/>
      <stop offset="1" stop-color="#fcea9b"/>
    </linearGradient>
    <filter id="路径_538">
      <feOffset dx="-0.2" dy="0.4" input="SourceAlpha"/>
      <feGaussianBlur stdDeviation="0.5" result="blur"/>
      <feFlood flood-opacity="0.161" result="color"/>
      <feComposite operator="out" in="SourceGraphic" in2="blur"/>
      <feComposite operator="in" in="color"/>
      <feComposite operator="in" in2="SourceGraphic"/>
    </filter>
    <radialGradient id="radial-gradient" cx="0.367" cy="0.36" r="0.601" gradientTransform="translate(0 -0.011) scale(1 1.03)" gradientUnits="objectBoundingBox">
      <stop offset="0" stop-color="#7ff2c8" stop-opacity="0.18"/>
      <stop offset="0.358" stop-color="#6be5b8" stop-opacity="0.22"/>
      <stop offset="0.829" stop-color="#24a374" stop-opacity="0.404"/>
      <stop offset="1" stop-color="#24a374" stop-opacity="0.416"/>
    </radialGradient>
    <radialGradient id="radial-gradient-2" cx="0.5" cy="0.5" r="0.5" gradientUnits="objectBoundingBox">
      <stop offset="0" stop-color="#a5a5a5" stop-opacity="0"/>
      <stop offset="0.773" stop-color="#4ff7b9" stop-opacity="0.114"/>
      <stop offset="1" stop-color="#64a78e" stop-opacity="0.694"/>
    </radialGradient>
    <linearGradient id="linear-gradient-2" x1="0.701" y1="-0.185" x2="0.464" y2="1.331" gradientUnits="objectBoundingBox">
      <stop offset="0" stop-color="#dedede" stop-opacity="0.031"/>
      <stop offset="0.477" stop-color="#076944"/>
      <stop offset="1" stop-color="#d5d5d5" stop-opacity="0"/>
    </linearGradient>
    <linearGradient id="linear-gradient-3" x1="0.97" y1="0.023" x2="-0.03" y2="0.896" gradientUnits="objectBoundingBox">
      <stop offset="0" stop-color="#fff" stop-opacity="0"/>
      <stop offset="0.415" stop-color="#fff" stop-opacity="0.608"/>
      <stop offset="0.587" stop-color="#fff" stop-opacity="0.463"/>
      <stop offset="1" stop-color="#fff" stop-opacity="0"/>
    </linearGradient>
  </defs>
  <g id="组_275" data-name="组 275" transform="translate(-38.738 -207.475)">
    <g id="组_271" data-name="组 271" transform="translate(0 -602.049)">
      <g data-type="innerShadowGroup">
        <path id="路径_538-2" data-name="路径 538" d="M2158.857,83.624a7.348,7.348,0,0,1-3.678-1.5c-.574-.395-2.471-1.772-2.754-2.925a1,1,0,0,1,1.934-.507,7.463,7.463,0,0,0,2.073,1.865,4.671,4.671,0,0,0,2.524,1.057c.047-.01.167-.105.321-.4a8.629,8.629,0,0,0,.513-1.394,7.963,7.963,0,0,1,.565-1.493,1.582,1.582,0,0,1,1.817-.925c1.166.281,1.405,1.426,1.563,2.183.207.992.345,1.3.86,1.425a4.661,4.661,0,0,0,2.92-.89,6.4,6.4,0,0,0,2.07-1.762c.2-.665.91-1.018,1.991-1.439-1.375-.1-3.326-.16-5.8-.181a103.144,103.144,0,0,0-13.714.532,4.2,4.2,0,0,1-1.5.041,1.383,1.383,0,0,1-.989-1.159c-.011-.047-.024-.1-.039-.156-.071-.265-.343-.452-1-.847a7.96,7.96,0,0,1-3.013-2.847,11.317,11.317,0,0,0-1.645-1.931c-1.051-1.067-2.137-2.171-1.993-3.542a3.365,3.365,0,0,1,1.753-2.372,3.94,3.94,0,0,1,3.094-.618,8.092,8.092,0,0,1,2.311,1.019c1.462.844,1.738.868,2.277.192a13.126,13.126,0,0,1,1.344-1.328,16.237,16.237,0,0,0,2.511-2.655c.823-1.223.641-1.908.431-2.316a15.973,15.973,0,0,0-3.636-4.235c-1.989-1.674-2.993-1.768-3.135-1.7a12.032,12.032,0,0,0-3.867,3.606,7.409,7.409,0,0,0-1.376,4.3l.009.272-.13.239a1.273,1.273,0,0,1-1.264.785c-.375-.035-.879-.256-1.155-1.112a11.706,11.706,0,0,1-.286-3.731c.11-1.873.5-3.117,1.17-3.7a10.869,10.869,0,0,0,.984-1.481,21.888,21.888,0,0,1,3.729-4.928,7.976,7.976,0,0,1,5.951-2.322,28.851,28.851,0,0,0-2.781-1.833c-.851-.518-1.611-.979-2.221-1.428a17.2,17.2,0,0,0-1.258,1.188c-5.913,6.168-7.923,12.453-6.518,20.378a20.252,20.252,0,0,0,4.233,9.16,16.854,16.854,0,0,0,3.851,3.595,1,1,0,0,1-.974,1.747,18.425,18.425,0,0,1-4.43-4.082,22.2,22.2,0,0,1-4.649-10.072,24.128,24.128,0,0,1,.587-11.832A26.625,26.625,0,0,1,2144.9,41.3q.646-.674,1.32-1.252a1.731,1.731,0,0,1-.183-.72,1.693,1.693,0,0,1,.818-1.464,18.516,18.516,0,0,1,4.175-1.776,15.656,15.656,0,0,0,4.211-1.849,13.063,13.063,0,0,1,4.486-2.373,7.211,7.211,0,0,1,5.811.347,6.757,6.757,0,0,1,2.791,3.667,16.611,16.611,0,0,1,2.932,1.109,26.776,26.776,0,0,1,8.716,7.342,20.535,20.535,0,0,1,4.677,11.147c.278,2.913-.144,5.537-.694,6.3a2.406,2.406,0,0,1-1.27.792,5.279,5.279,0,0,0,.356.475,3.764,3.764,0,0,1,.867,3.4,10.435,10.435,0,0,1-1.358,2.911c-.322.544-.656,1.107-.939,1.693a10.044,10.044,0,0,1-3.593,3.531,10.381,10.381,0,0,1-2.823,1.257,1.147,1.147,0,0,1,.261.555c.17.955-.807,1.435-1.128,1.593-.417.205-.956.409-1.477.605a13.723,13.723,0,0,0-1.448.6,8.082,8.082,0,0,1-2.748,2.588c-1,.614-2.912,1.585-4.538,1.189A3.2,3.2,0,0,1,2161.8,80.1c-.035.109-.068.216-.1.311-.389,1.265-.874,2.839-2.318,3.155A2.461,2.461,0,0,1,2158.857,83.624Zm-12.974-17.872a2.03,2.03,0,0,0-1.142.378c-.747.492-.854.8-.866.912-.046.432.772,1.262,1.429,1.929a12.982,12.982,0,0,1,1.932,2.3,6.053,6.053,0,0,0,2.336,2.17,3.616,3.616,0,0,1,1.848,1.893l.406-.046a104.959,104.959,0,0,1,13.961-.546c3.175.027,5.428.115,6.889.269l.141.015a1.614,1.614,0,0,1-.133-.725,4.4,4.4,0,0,1,.744-2.051l.044-.074a10.263,10.263,0,0,0-1.319-.114,15.845,15.845,0,0,1-4.359-.7,6.212,6.212,0,0,1-3.243-2.167,4.586,4.586,0,0,1-.478-4.2,2.613,2.613,0,0,1,3.055-1.949,3.934,3.934,0,0,0,.9-.031c.33-.068.722-.519,1.1-.956a4.986,4.986,0,0,1,1.685-1.43,5.961,5.961,0,0,1,3.232.045,10.477,10.477,0,0,0,1.36.193,8.215,8.215,0,0,0-.355-.984,7.33,7.33,0,0,1-.572-1.86l-.033-.295.133-.265c.6-1.205.429-3.653.313-5.273-.053-.745-.1-1.389-.081-1.879a20.113,20.113,0,0,0-1.013-4.975,12.45,12.45,0,0,1-.587-2.532,20.626,20.626,0,0,0-4.146-2.108,7.334,7.334,0,0,1,2.514,2.936,19.962,19.962,0,0,1,1.585,4.552c.427,1.788-.414,4.058-2.306,6.228a13.131,13.131,0,0,1-5.945,4.03c-2.638.733-4.671-.269-5.438-2.681-.489-1.538-.779-2.856-1.011-3.915a7.69,7.69,0,0,0-1.217-3.4c-.654-.745-1.857-1.228-4.024-1.615A5.869,5.869,0,0,0,2148,48.549a20.266,20.266,0,0,0-3.37,4.49,9.014,9.014,0,0,1-1.377,1.949,2.4,2.4,0,0,0-.322.922,13.773,13.773,0,0,1,4.883-4.813,2.528,2.528,0,0,1,2.051-.15,12.3,12.3,0,0,1,4.259,2.816,16.7,16.7,0,0,1,3.262,4.08,4.093,4.093,0,0,1-.553,4.344,17.739,17.739,0,0,1-2.825,3.018,12.662,12.662,0,0,0-1.125,1.094,2.809,2.809,0,0,1-2.643,1.211,6.125,6.125,0,0,1-2.2-.917A4.656,4.656,0,0,0,2145.883,65.752Zm20.81-.716a1.194,1.194,0,0,0-.414.049c-.137.059-.244.344-.3.509a2.657,2.657,0,0,0,.2,2.447c.833,1.177,3.034,1.915,6.041,2.023,1.685.061,2.821.266,3.276,1.1a2.081,2.081,0,0,1-.35,2.1,6.649,6.649,0,0,0-.321.589,8.622,8.622,0,0,0,2.2-1.026,7.8,7.8,0,0,0,2.786-2.664c.32-.662.675-1.262,1.019-1.842,1.233-2.081,1.583-2.908.67-4.013a2.824,2.824,0,0,1-.911-2.419,1.963,1.963,0,0,1,1.451-1.222c.092-.031.219-.074.3-.11a13.426,13.426,0,0,0,.293-5.149,18.579,18.579,0,0,0-4.2-9.812,34.149,34.149,0,0,0-3.293-3.5,1.215,1.215,0,0,1,.07.684,17.882,17.882,0,0,0,.51,2,20.79,20.79,0,0,1,1.089,5.6c-.014.383.029.977.077,1.665.137,1.93.306,4.3-.375,5.989a8.428,8.428,0,0,0,.391,1.089,3.394,3.394,0,0,1,.353,2.717,1.784,1.784,0,0,1-1.162.933,5.629,5.629,0,0,1-2.407-.136,6.271,6.271,0,0,0-2.074-.178,3.63,3.63,0,0,0-.972.907,4.156,4.156,0,0,1-2.209,1.6,5.605,5.605,0,0,1-1.376.07C2166.932,65.041,2166.807,65.037,2166.692,65.037Zm-9.427-19.049a5.083,5.083,0,0,1,1.483,1.143c.966,1.1,1.275,2.507,1.667,4.288.236,1.072.5,2.288.965,3.739.573,1.8,1.985,1.64,3,1.359a11.242,11.242,0,0,0,4.973-3.418c1.44-1.652,2.139-3.315,1.868-4.45-.842-3.531-2.012-5.686-3.478-6.4a3.833,3.833,0,0,0-3.358.234c-1.276.578-2.432,1.213-3.453,1.772A20.772,20.772,0,0,1,2157.265,45.987Zm-7.974-5.758c.466.31,1.006.638,1.57.981a23.024,23.024,0,0,1,3.565,2.47c1.154,1.072,2.368.558,5.541-1.181,1.052-.577,2.244-1.23,3.588-1.84a5.96,5.96,0,0,1,4.622-.4,5.233,5.233,0,0,1-1.345-2.574l-.037-.115a16,16,0,0,0-2.845-.289l-.71-.016a32.9,32.9,0,0,0-8.015.547A17.7,17.7,0,0,0,2149.291,40.229Zm20.129-1.538a33.06,33.06,0,0,1,3.314,1.485l.056.029a17.89,17.89,0,0,0-2.406-1.424c-.42-.2-.831-.381-1.232-.534A1.186,1.186,0,0,0,2169.42,38.691Zm-6.951-5.265a7.7,7.7,0,0,0-2.168.35,11.464,11.464,0,0,0-3.447,1.725,40.224,40.224,0,0,1,6.433-.235l.7.016c.666.012,1.309.055,1.935.129a3.916,3.916,0,0,0-1.4-1.48A4,4,0,0,0,2162.469,33.426Z" transform="translate(-2092.067 781.425)" fill="url(#linear-gradient)"/>
        <g transform="matrix(1, 0, 0, 1, 38.74, 809.52)" filter="url(#路径_538)">
          <path id="路径_538-3" data-name="路径 538" d="M2158.857,83.624a7.348,7.348,0,0,1-3.678-1.5c-.574-.395-2.471-1.772-2.754-2.925a1,1,0,0,1,1.934-.507,7.463,7.463,0,0,0,2.073,1.865,4.671,4.671,0,0,0,2.524,1.057c.047-.01.167-.105.321-.4a8.629,8.629,0,0,0,.513-1.394,7.963,7.963,0,0,1,.565-1.493,1.582,1.582,0,0,1,1.817-.925c1.166.281,1.405,1.426,1.563,2.183.207.992.345,1.3.86,1.425a4.661,4.661,0,0,0,2.92-.89,6.4,6.4,0,0,0,2.07-1.762c.2-.665.91-1.018,1.991-1.439-1.375-.1-3.326-.16-5.8-.181a103.144,103.144,0,0,0-13.714.532,4.2,4.2,0,0,1-1.5.041,1.383,1.383,0,0,1-.989-1.159c-.011-.047-.024-.1-.039-.156-.071-.265-.343-.452-1-.847a7.96,7.96,0,0,1-3.013-2.847,11.317,11.317,0,0,0-1.645-1.931c-1.051-1.067-2.137-2.171-1.993-3.542a3.365,3.365,0,0,1,1.753-2.372,3.94,3.94,0,0,1,3.094-.618,8.092,8.092,0,0,1,2.311,1.019c1.462.844,1.738.868,2.277.192a13.126,13.126,0,0,1,1.344-1.328,16.237,16.237,0,0,0,2.511-2.655c.823-1.223.641-1.908.431-2.316a15.973,15.973,0,0,0-3.636-4.235c-1.989-1.674-2.993-1.768-3.135-1.7a12.032,12.032,0,0,0-3.867,3.606,7.409,7.409,0,0,0-1.376,4.3l.009.272-.13.239a1.273,1.273,0,0,1-1.264.785c-.375-.035-.879-.256-1.155-1.112a11.706,11.706,0,0,1-.286-3.731c.11-1.873.5-3.117,1.17-3.7a10.869,10.869,0,0,0,.984-1.481,21.888,21.888,0,0,1,3.729-4.928,7.976,7.976,0,0,1,5.951-2.322,28.851,28.851,0,0,0-2.781-1.833c-.851-.518-1.611-.979-2.221-1.428a17.2,17.2,0,0,0-1.258,1.188c-5.913,6.168-7.923,12.453-6.518,20.378a20.252,20.252,0,0,0,4.233,9.16,16.854,16.854,0,0,0,3.851,3.595,1,1,0,0,1-.974,1.747,18.425,18.425,0,0,1-4.43-4.082,22.2,22.2,0,0,1-4.649-10.072,24.128,24.128,0,0,1,.587-11.832A26.625,26.625,0,0,1,2144.9,41.3q.646-.674,1.32-1.252a1.731,1.731,0,0,1-.183-.72,1.693,1.693,0,0,1,.818-1.464,18.516,18.516,0,0,1,4.175-1.776,15.656,15.656,0,0,0,4.211-1.849,13.063,13.063,0,0,1,4.486-2.373,7.211,7.211,0,0,1,5.811.347,6.757,6.757,0,0,1,2.791,3.667,16.611,16.611,0,0,1,2.932,1.109,26.776,26.776,0,0,1,8.716,7.342,20.535,20.535,0,0,1,4.677,11.147c.278,2.913-.144,5.537-.694,6.3a2.406,2.406,0,0,1-1.27.792,5.279,5.279,0,0,0,.356.475,3.764,3.764,0,0,1,.867,3.4,10.435,10.435,0,0,1-1.358,2.911c-.322.544-.656,1.107-.939,1.693a10.044,10.044,0,0,1-3.593,3.531,10.381,10.381,0,0,1-2.823,1.257,1.147,1.147,0,0,1,.261.555c.17.955-.807,1.435-1.128,1.593-.417.205-.956.409-1.477.605a13.723,13.723,0,0,0-1.448.6,8.082,8.082,0,0,1-2.748,2.588c-1,.614-2.912,1.585-4.538,1.189A3.2,3.2,0,0,1,2161.8,80.1c-.035.109-.068.216-.1.311-.389,1.265-.874,2.839-2.318,3.155A2.461,2.461,0,0,1,2158.857,83.624Zm-12.974-17.872a2.03,2.03,0,0,0-1.142.378c-.747.492-.854.8-.866.912-.046.432.772,1.262,1.429,1.929a12.982,12.982,0,0,1,1.932,2.3,6.053,6.053,0,0,0,2.336,2.17,3.616,3.616,0,0,1,1.848,1.893l.406-.046a104.959,104.959,0,0,1,13.961-.546c3.175.027,5.428.115,6.889.269l.141.015a1.614,1.614,0,0,1-.133-.725,4.4,4.4,0,0,1,.744-2.051l.044-.074a10.263,10.263,0,0,0-1.319-.114,15.845,15.845,0,0,1-4.359-.7,6.212,6.212,0,0,1-3.243-2.167,4.586,4.586,0,0,1-.478-4.2,2.613,2.613,0,0,1,3.055-1.949,3.934,3.934,0,0,0,.9-.031c.33-.068.722-.519,1.1-.956a4.986,4.986,0,0,1,1.685-1.43,5.961,5.961,0,0,1,3.232.045,10.477,10.477,0,0,0,1.36.193,8.215,8.215,0,0,0-.355-.984,7.33,7.33,0,0,1-.572-1.86l-.033-.295.133-.265c.6-1.205.429-3.653.313-5.273-.053-.745-.1-1.389-.081-1.879a20.113,20.113,0,0,0-1.013-4.975,12.45,12.45,0,0,1-.587-2.532,20.626,20.626,0,0,0-4.146-2.108,7.334,7.334,0,0,1,2.514,2.936,19.962,19.962,0,0,1,1.585,4.552c.427,1.788-.414,4.058-2.306,6.228a13.131,13.131,0,0,1-5.945,4.03c-2.638.733-4.671-.269-5.438-2.681-.489-1.538-.779-2.856-1.011-3.915a7.69,7.69,0,0,0-1.217-3.4c-.654-.745-1.857-1.228-4.024-1.615A5.869,5.869,0,0,0,2148,48.549a20.266,20.266,0,0,0-3.37,4.49,9.014,9.014,0,0,1-1.377,1.949,2.4,2.4,0,0,0-.322.922,13.773,13.773,0,0,1,4.883-4.813,2.528,2.528,0,0,1,2.051-.15,12.3,12.3,0,0,1,4.259,2.816,16.7,16.7,0,0,1,3.262,4.08,4.093,4.093,0,0,1-.553,4.344,17.739,17.739,0,0,1-2.825,3.018,12.662,12.662,0,0,0-1.125,1.094,2.809,2.809,0,0,1-2.643,1.211,6.125,6.125,0,0,1-2.2-.917A4.656,4.656,0,0,0,2145.883,65.752Zm20.81-.716a1.194,1.194,0,0,0-.414.049c-.137.059-.244.344-.3.509a2.657,2.657,0,0,0,.2,2.447c.833,1.177,3.034,1.915,6.041,2.023,1.685.061,2.821.266,3.276,1.1a2.081,2.081,0,0,1-.35,2.1,6.649,6.649,0,0,0-.321.589,8.622,8.622,0,0,0,2.2-1.026,7.8,7.8,0,0,0,2.786-2.664c.32-.662.675-1.262,1.019-1.842,1.233-2.081,1.583-2.908.67-4.013a2.824,2.824,0,0,1-.911-2.419,1.963,1.963,0,0,1,1.451-1.222c.092-.031.219-.074.3-.11a13.426,13.426,0,0,0,.293-5.149,18.579,18.579,0,0,0-4.2-9.812,34.149,34.149,0,0,0-3.293-3.5,1.215,1.215,0,0,1,.07.684,17.882,17.882,0,0,0,.51,2,20.79,20.79,0,0,1,1.089,5.6c-.014.383.029.977.077,1.665.137,1.93.306,4.3-.375,5.989a8.428,8.428,0,0,0,.391,1.089,3.394,3.394,0,0,1,.353,2.717,1.784,1.784,0,0,1-1.162.933,5.629,5.629,0,0,1-2.407-.136,6.271,6.271,0,0,0-2.074-.178,3.63,3.63,0,0,0-.972.907,4.156,4.156,0,0,1-2.209,1.6,5.605,5.605,0,0,1-1.376.07C2166.932,65.041,2166.807,65.037,2166.692,65.037Zm-9.427-19.049a5.083,5.083,0,0,1,1.483,1.143c.966,1.1,1.275,2.507,1.667,4.288.236,1.072.5,2.288.965,3.739.573,1.8,1.985,1.64,3,1.359a11.242,11.242,0,0,0,4.973-3.418c1.44-1.652,2.139-3.315,1.868-4.45-.842-3.531-2.012-5.686-3.478-6.4a3.833,3.833,0,0,0-3.358.234c-1.276.578-2.432,1.213-3.453,1.772A20.772,20.772,0,0,1,2157.265,45.987Zm-7.974-5.758c.466.31,1.006.638,1.57.981a23.024,23.024,0,0,1,3.565,2.47c1.154,1.072,2.368.558,5.541-1.181,1.052-.577,2.244-1.23,3.588-1.84a5.96,5.96,0,0,1,4.622-.4,5.233,5.233,0,0,1-1.345-2.574l-.037-.115a16,16,0,0,0-2.845-.289l-.71-.016a32.9,32.9,0,0,0-8.015.547A17.7,17.7,0,0,0,2149.291,40.229Zm20.129-1.538a33.06,33.06,0,0,1,3.314,1.485l.056.029a17.89,17.89,0,0,0-2.406-1.424c-.42-.2-.831-.381-1.232-.534A1.186,1.186,0,0,0,2169.42,38.691Zm-6.951-5.265a7.7,7.7,0,0,0-2.168.35,11.464,11.464,0,0,0-3.447,1.725,40.224,40.224,0,0,1,6.433-.235l.7.016c.666.012,1.309.055,1.935.129a3.916,3.916,0,0,0-1.4-1.48A4,4,0,0,0,2162.469,33.426Z" transform="translate(-2130.8 -28.1)" fill="#fff"/>
        </g>
      </g>
    </g>
    <g id="组_274" data-name="组 274" transform="translate(-0.5 -0.762)">
      <circle id="椭圆_1" data-name="椭圆 1" cx="22.5" cy="22.5" r="22.5" transform="translate(47 216)" fill="url(#radial-gradient)"/>
      <path id="椭圆_231" data-name="椭圆 231" d="M22.7,2.88c-2.768,0-4.606,1.791-7.132,2.859C13.129,6.772,11.689,7.013,9.806,8.9a21.33,21.33,0,0,0-4.551,6.617A17.41,17.41,0,0,0,3.61,22.851a15.861,15.861,0,0,0,1.18,7.07,17.678,17.678,0,0,0,4.267,5.925c1.883,1.883,2.957,4.218,5.4,5.251,2.526,1.068,6.221-.432,8.989-.432s2.542.336,5.068-.732c2.441-1.032,4.114-4.094,6-5.978s3.945-3.578,4.977-6.019c1.068-2.526,1.9-2.316,1.9-5.084s.507-4.812-.562-7.338C39.8,13.073,40.58,10.78,38.7,8.9a26.347,26.347,0,0,0-7.378-5.038M22.5,0A22.5,22.5,0,1,1,0,22.5,22.5,22.5,0,0,1,22.5,0Z" transform="translate(47 216)" opacity="0.825" fill="url(#radial-gradient-2)"/>
      <path id="椭圆_231-2" data-name="椭圆 231" d="M22.5.5a22.006,22.006,0,0,0-8.563,42.271A22.006,22.006,0,0,0,31.063,2.229,21.862,21.862,0,0,0,22.5.5m0-.5A22.5,22.5,0,1,1,0,22.5,22.5,22.5,0,0,1,22.5,0Z" transform="matrix(0.891, 0.454, -0.454, 0.891, 59.667, 208.238)" fill="url(#linear-gradient-2)"/>
      <path id="路径_538-4" data-name="路径 538" d="M69.324,220.612c2.976-4.4,6.114-5.5,8.221-4.311s-1.831,5.873-3.582,8.285-4.545,9.1-6.714,6.922S66.348,225.008,69.324,220.612Z" transform="matrix(0.995, 0.105, -0.105, 0.995, 8.799, -1.316)" fill="#fff"/>
      <path id="路径_540" data-name="路径 540" d="M69.037,220.056c6.669-9,16.565-9.375,17-8.062.212.646-4.127.87-8.027,2.619a20.823,20.823,0,0,0-7.706,6.42,24.861,24.861,0,0,0-3.948,9.767c-.606,4.732.728,9.614.118,9.664C65.386,240.554,62.367,229.061,69.037,220.056Z" transform="matrix(-0.978, -0.208, 0.208, -0.978, 105.431, 483.9)" fill="url(#linear-gradient-3)"/>
      <path id="路径_539" data-name="路径 539" d="M67.322,217.5c1.093-1.525,2.246-1.909,3.02-1.5s-.673,2.037-1.316,2.874-1.67,3.156-2.467,2.4S66.229,219.03,67.322,217.5Z" transform="translate(-151.11 136.458) rotate(-45)" fill="#fff"/>
    </g>
  </g>
</svg>
