<svg xmlns="http://www.w3.org/2000/svg" xmlns:xlink="http://www.w3.org/1999/xlink" width="170" height="42" viewBox="0 0 170 42">
  <defs>
    <radialGradient id="radial-gradient" cx="0.5" cy="0.5" r="0.5" gradientUnits="objectBoundingBox">
      <stop offset="0" stop-color="#fff" stop-opacity="0"/>
      <stop offset="0.148" stop-color="#fff" stop-opacity="0"/>
      <stop offset="0.512" stop-color="#fff"/>
      <stop offset="0.862" stop-color="#fff" stop-opacity="0"/>
      <stop offset="1" stop-color="#fff" stop-opacity="0"/>
    </radialGradient>
  </defs>
  <g id="组_304" data-name="组 304" transform="translate(-1721 -122)">
    <rect id="矩形_5" data-name="矩形 5" width="170" height="42" rx="21" transform="translate(1721 122)" fill="rgba(255,209,209,0.3)"/>
    <path id="路径_569" data-name="路径 569" d="M5.82-4.38H3.18V0H.915V-10.47H3.18v4.245H5.82V-10.47H8.085V0H5.82Zm8.985,2.97h-.09a2.761,2.761,0,0,1-.8,1.125A2.208,2.208,0,0,1,12.435.18a2.7,2.7,0,0,1-1.02-.188,2.081,2.081,0,0,1-.8-.562,2.714,2.714,0,0,1-.517-.915A3.79,3.79,0,0,1,9.915-2.73V-7.74h2.22v4.71q0,1.5,1.305,1.5a1.9,1.9,0,0,0,.5-.067,1.257,1.257,0,0,0,.435-.21,1.161,1.161,0,0,0,.307-.352.981.981,0,0,0,.12-.5V-7.74h2.22V0h-2.22Zm4.305-.315H20.9v-4.29H19.11V-7.74h4v2.19h.1a4.432,4.432,0,0,1,.293-.817,2.663,2.663,0,0,1,.48-.705A2.124,2.124,0,0,1,24.7-7.56a2.5,2.5,0,0,1,.99-.18h.735V-5.7H24.78a1.553,1.553,0,0,0-1.245.487,1.764,1.764,0,0,0-.42,1.193v2.295h2.55V0H19.11Zm9,0H29.9v-4.29H28.11V-7.74h4v2.19h.105a4.432,4.432,0,0,1,.292-.817,2.663,2.663,0,0,1,.48-.705,2.124,2.124,0,0,1,.713-.487,2.5,2.5,0,0,1,.99-.18h.735V-5.7H33.78a1.553,1.553,0,0,0-1.245.487,1.764,1.764,0,0,0-.42,1.193v2.295h2.55V0H28.11ZM40.98-8.73a1.411,1.411,0,0,1-1.042-.307,1.038,1.038,0,0,1-.292-.742v-.435a1.031,1.031,0,0,1,.292-.75,1.435,1.435,0,0,1,1.042-.3,1.435,1.435,0,0,1,1.042.3,1.031,1.031,0,0,1,.292.75v.435a1.038,1.038,0,0,1-.292.742A1.411,1.411,0,0,1,40.98-8.73ZM37.41-1.725h2.46v-4.29H37.41V-7.74h4.68v6.015h2.28V0H37.41ZM49.815.18A4.581,4.581,0,0,1,48.173-.1a3.306,3.306,0,0,1-1.23-.8,3.56,3.56,0,0,1-.773-1.275A4.982,4.982,0,0,1,45.9-3.87a4.982,4.982,0,0,1,.27-1.7,3.56,3.56,0,0,1,.773-1.275,3.306,3.306,0,0,1,1.23-.8A4.536,4.536,0,0,1,49.8-7.92a3.622,3.622,0,0,1,2.048.517A3.341,3.341,0,0,1,53.025-6.03l-1.71.93a2.275,2.275,0,0,0-.547-.75,1.41,1.41,0,0,0-.968-.3,1.531,1.531,0,0,0-1.177.443A1.7,1.7,0,0,0,48.21-4.5v1.26a1.7,1.7,0,0,0,.413,1.207,1.571,1.571,0,0,0,1.208.442,1.557,1.557,0,0,0,1.012-.3,2.509,2.509,0,0,0,.623-.78l1.68.96A3.375,3.375,0,0,1,51.923-.338,3.835,3.835,0,0,1,49.815.18ZM61.305,0a1.67,1.67,0,0,1-1.11-.352A1.479,1.479,0,0,1,59.7-1.365h-.075A1.9,1.9,0,0,1,58.792-.21,2.813,2.813,0,0,1,57.27.18a2.618,2.618,0,0,1-1.807-.608,2.161,2.161,0,0,1-.683-1.7,2.007,2.007,0,0,1,.885-1.8,4.725,4.725,0,0,1,2.6-.585h1.245V-4.9a1.5,1.5,0,0,0-.323-1.043A1.42,1.42,0,0,0,58.1-6.3a2.138,2.138,0,0,0-1.14.27,2.642,2.642,0,0,0-.75.705L54.99-6.4a2.912,2.912,0,0,1,1.222-1.088A4.671,4.671,0,0,1,58.35-7.92a3.825,3.825,0,0,1,2.483.727,2.668,2.668,0,0,1,.892,2.2v3.39h.855V0ZM58.11-1.275a1.677,1.677,0,0,0,.99-.285.946.946,0,0,0,.405-.825v-.93H58.32q-1.365,0-1.365.915v.3a.692.692,0,0,0,.315.615A1.493,1.493,0,0,0,58.11-1.275ZM63.975,0V-7.74h2.22v1.41h.09a3.294,3.294,0,0,1,.33-.615,2.25,2.25,0,0,1,.473-.5,2.21,2.21,0,0,1,.645-.345,2.531,2.531,0,0,1,.833-.127,2.7,2.7,0,0,1,1.02.188,2.081,2.081,0,0,1,.795.563,2.714,2.714,0,0,1,.518.915,3.79,3.79,0,0,1,.188,1.245V0h-2.22V-4.71q0-1.5-1.305-1.5a1.9,1.9,0,0,0-.5.068,1.34,1.34,0,0,0-.443.21,1.04,1.04,0,0,0-.307.352,1.033,1.033,0,0,0-.113.495V0ZM76.71.18A3.841,3.841,0,0,1,73.755-.9a4.145,4.145,0,0,1-1-2.94,5.179,5.179,0,0,1,.262-1.7,3.655,3.655,0,0,1,.75-1.29,3.172,3.172,0,0,1,1.185-.81,4.209,4.209,0,0,1,1.567-.277,4.151,4.151,0,0,1,1.56.277,3.245,3.245,0,0,1,1.17.788,3.525,3.525,0,0,1,.743,1.237A4.77,4.77,0,0,1,80.25-3.99v.66H74.955v.135a1.618,1.618,0,0,0,.465,1.207,1.869,1.869,0,0,0,1.365.457,2.5,2.5,0,0,0,1.185-.262,2.807,2.807,0,0,0,.855-.7l1.2,1.3a3.746,3.746,0,0,1-1.26.96A4.585,4.585,0,0,1,76.71.18Zm-.18-6.51a1.522,1.522,0,0,0-1.147.442,1.644,1.644,0,0,0-.427,1.193v.12h3.12v-.12a1.673,1.673,0,0,0-.412-1.2A1.486,1.486,0,0,0,76.53-6.33Z" transform="translate(1785 149)" fill="#ff6767"/>
    <circle id="椭圆_26" data-name="椭圆 26" cx="11.5" cy="11.5" r="11.5" transform="translate(1732 132)" fill="#ff6767"/>
    <g id="组_86" data-name="组 86">
      <path id="椭圆_61" data-name="椭圆 61" d="M6.5,1a22.331,22.331,0,0,0-3.852.307c-.35.064-.634.13-.864.193.23.063.514.129.864.193A22.331,22.331,0,0,0,6.5,2a22.331,22.331,0,0,0,3.852-.307c.35-.064.634-.13.864-.193-.23-.063-.514-.129-.864-.193A22.331,22.331,0,0,0,6.5,1m0-1C10.09,0,13,.672,13,1.5S10.09,3,6.5,3,0,2.328,0,1.5,2.91,0,6.5,0Z" transform="translate(1737 138)" fill="url(#radial-gradient)"/>
      <path id="椭圆_61-2" data-name="椭圆 61" d="M6.5,1a22.331,22.331,0,0,0-3.852.307c-.35.064-.634.13-.864.193.23.063.514.129.864.193A22.331,22.331,0,0,0,6.5,2a22.331,22.331,0,0,0,3.852-.307c.35-.064.634-.13.864-.193-.23-.063-.514-.129-.864-.193A22.331,22.331,0,0,0,6.5,1m0-1C10.09,0,13,.672,13,1.5S10.09,3,6.5,3,0,2.328,0,1.5,2.91,0,6.5,0Z" transform="translate(1737.271 142.11) rotate(8)" fill="url(#radial-gradient)"/>
      <path id="椭圆_61-3" data-name="椭圆 61" d="M7.548.574C5.922.574,4.333.636,3.075.75c-.406.037-.736.074-1,.111.267.036.6.074,1,.111,1.258.114,2.847.176,4.473.176s3.215-.063,4.473-.176c.406-.037.736-.074,1-.111-.267-.036-.6-.074-1-.111C10.763.636,9.174.574,7.548.574m0-.574C11.717,0,15.1.385,15.1.861s-3.379.861-7.548.861S0,1.336,0,.861,3.379,0,7.548,0Z" transform="matrix(0.985, 0.174, -0.174, 0.985, 1736.343, 144.244)" fill="url(#radial-gradient)"/>
      <path id="椭圆_61-4" data-name="椭圆 61" d="M4.806.473A25.635,25.635,0,0,0,1.958.618C1.7.648,1.489.68,1.319.709c.17.03.38.061.639.091A25.635,25.635,0,0,0,4.806.946,25.635,25.635,0,0,0,7.654.8c.258-.03.469-.061.639-.091-.17-.03-.38-.061-.639-.091A25.635,25.635,0,0,0,4.806.473m0-.473C7.46,0,9.612.318,9.612.709s-2.152.709-4.806.709S0,1.1,0,.709,2.152,0,4.806,0Z" transform="matrix(0.985, 0.174, -0.174, 0.985, 1738.343, 146.89)" fill="url(#radial-gradient)"/>
      <path id="椭圆_61-5" data-name="椭圆 61" d="M3.717.374a19.39,19.39,0,0,0-2.2.115c-.2.024-.362.049-.494.072.132.024.294.048.494.072a19.39,19.39,0,0,0,2.2.115A19.39,19.39,0,0,0,5.92.633c.2-.024.362-.049.494-.072C6.282.537,6.12.513,5.92.489a19.39,19.39,0,0,0-2.2-.115m0-.374C5.77,0,7.434.251,7.434.561s-1.664.561-3.717.561S0,.871,0,.561,1.664,0,3.717,0Z" transform="translate(1739.771 148.94) rotate(4)" fill="url(#radial-gradient)"/>
      <path id="椭圆_61-6" data-name="椭圆 61" d="M3.717.374a19.39,19.39,0,0,0-2.2.115c-.2.024-.362.049-.494.072.132.024.294.048.494.072a19.39,19.39,0,0,0,2.2.115A19.39,19.39,0,0,0,5.92.633c.2-.024.362-.049.494-.072C6.282.537,6.12.513,5.92.489a19.39,19.39,0,0,0-2.2-.115m0-.374C5.77,0,7.434.251,7.434.561s-1.664.561-3.717.561S0,.871,0,.561,1.664,0,3.717,0Z" transform="translate(1740.327 137) rotate(-2)" fill="url(#radial-gradient)"/>
      <path id="椭圆_61-7" data-name="椭圆 61" d="M6.486.833a26.59,26.59,0,0,0-3.844.256c-.349.053-.632.108-.862.161.23.053.513.108.862.161a26.59,26.59,0,0,0,3.844.256,26.59,26.59,0,0,0,3.844-.256c.349-.053.632-.108.862-.161-.23-.053-.513-.108-.862-.161A26.59,26.59,0,0,0,6.486.833m0-.833c3.582,0,6.486.56,6.486,1.25S10.069,2.5,6.486,2.5,0,1.94,0,1.25,2.9,0,6.486,0Z" transform="matrix(0.995, 0.105, -0.105, 0.995, 1738.166, 136.329)" fill="url(#radial-gradient)"/>
      <path id="椭圆_61-8" data-name="椭圆 61" d="M8.374.666c-1.8,0-3.567.073-4.963.2C2.961.913,2.594.957,2.3,1c.3.042.663.086,1.113.128,1.4.132,3.159.2,4.963.2s3.567-.073,4.963-.2c.45-.043.816-.086,1.113-.128-.3-.042-.663-.086-1.113-.128-1.4-.132-3.159-.2-4.963-.2m0-.666C13,0,16.747.447,16.747,1S13,2,8.374,2,0,1.55,0,1,3.749,0,8.374,0Z" transform="matrix(0.998, 0.07, -0.07, 0.998, 1735.137, 140.423)" fill="url(#radial-gradient)"/>
    </g>
  </g>
</svg>
