<svg xmlns="http://www.w3.org/2000/svg" xmlns:xlink="http://www.w3.org/1999/xlink" width="36" height="36" viewBox="0 0 36 36">
  <defs>
    <radialGradient id="radial-gradient" cx="0.5" cy="0.5" r="0.5" gradientUnits="objectBoundingBox">
      <stop offset="0" stop-color="#a377c9" stop-opacity="0"/>
      <stop offset="0.148" stop-color="#a377c9" stop-opacity="0"/>
      <stop offset="0.429" stop-color="#a377c9"/>
      <stop offset="0.552" stop-color="#736bcc"/>
      <stop offset="0.862" stop-color="#736bcc" stop-opacity="0"/>
      <stop offset="1" stop-color="#736bcc" stop-opacity="0"/>
    </radialGradient>
  </defs>
  <g id="Group_383" data-name="Group 383" transform="translate(670 -2675)">
    <circle id="Ellipse_254" data-name="Ellipse 254" cx="18" cy="18" r="18" transform="translate(-670 2675)" fill="none"/>
    <g id="Group_91" data-name="Group 91" transform="translate(-2402.468 2543.27)">
      <path id="椭圆_61" data-name="椭圆 61" d="M12.276,1.889A42.175,42.175,0,0,0,5,2.469c-.66.121-1.2.245-1.632.364C3.8,2.952,4.34,3.077,5,3.2a42.175,42.175,0,0,0,7.275.58,42.175,42.175,0,0,0,7.275-.58c.66-.121,1.2-.245,1.632-.364-.435-.119-.971-.244-1.632-.364a42.175,42.175,0,0,0-7.275-.58m0-1.889c6.78,0,12.276,1.268,12.276,2.833s-5.5,2.833-12.276,2.833S0,4.4,0,2.833,5.5,0,12.276,0Z" transform="translate(1738.779 139.485)" fill="url(#radial-gradient)"/>
      <path id="椭圆_61-2" data-name="椭圆 61" d="M12.276,1.889A42.175,42.175,0,0,0,5,2.469c-.66.121-1.2.245-1.632.364C3.8,2.952,4.34,3.077,5,3.2a42.175,42.175,0,0,0,7.275.58,42.175,42.175,0,0,0,7.275-.58c.66-.121,1.2-.245,1.632-.364-.435-.119-.971-.244-1.632-.364a42.175,42.175,0,0,0-7.275-.58m0-1.889c6.78,0,12.276,1.268,12.276,2.833s-5.5,2.833-12.276,2.833S0,4.4,0,2.833,5.5,0,12.276,0Z" transform="translate(1739.292 147.247) rotate(8)" fill="url(#radial-gradient)"/>
      <path id="椭圆_61-3" data-name="椭圆 61" d="M14.255,1.084c-3.071,0-6.072.118-8.449.333-.767.069-1.39.141-1.895.209.5.068,1.128.14,1.895.209,2.377.215,5.377.333,8.449.333s6.072-.118,8.449-.333c.767-.069,1.39-.141,1.895-.209-.5-.068-1.128-.14-1.895-.209-2.377-.215-5.377-.333-8.449-.333m0-1.084C22.128,0,28.51.728,28.51,1.626S22.128,3.251,14.255,3.251,0,2.523,0,1.626,6.382,0,14.255,0Z" transform="matrix(0.985, 0.174, -0.174, 0.985, 1737.538, 151.278)" fill="url(#radial-gradient)"/>
      <path id="椭圆_61-4" data-name="椭圆 61" d="M9.077.893A48.415,48.415,0,0,0,3.7,1.168c-.488.057-.885.116-1.206.172.321.056.718.115,1.206.172a48.414,48.414,0,0,0,5.379.274,48.414,48.414,0,0,0,5.379-.274c.488-.057.885-.116,1.206-.172-.321-.056-.718-.115-1.206-.172A48.415,48.415,0,0,0,9.077.893m0-.893c5.013,0,9.077.6,9.077,1.34S14.09,2.68,9.077,2.68,0,2.08,0,1.34,4.064,0,9.077,0Z" transform="matrix(0.985, 0.174, -0.174, 0.985, 1741.315, 156.274)" fill="url(#radial-gradient)"/>
      <path id="椭圆_61-5" data-name="椭圆 61" d="M7.02.706a36.62,36.62,0,0,0-4.16.217c-.377.045-.684.092-.933.136.249.045.556.091.933.136a36.62,36.62,0,0,0,4.16.217A36.62,36.62,0,0,0,11.18,1.2c.377-.045.684-.092.933-.136-.249-.045-.556-.091-.933-.136A36.62,36.62,0,0,0,7.02.706M7.02,0c3.877,0,7.02.474,7.02,1.06S10.9,2.119,7.02,2.119,0,1.645,0,1.06,3.143,0,7.02,0Z" transform="translate(1744.012 160.147) rotate(4)" fill="url(#radial-gradient)"/>
      <path id="椭圆_61-6" data-name="椭圆 61" d="M7.02.706a36.62,36.62,0,0,0-4.16.217c-.377.045-.684.092-.933.136.249.045.556.091.933.136a36.62,36.62,0,0,0,4.16.217A36.62,36.62,0,0,0,11.18,1.2c.377-.045.684-.092.933-.136-.249-.045-.556-.091-.933-.136A36.62,36.62,0,0,0,7.02.706M7.02,0c3.877,0,7.02.474,7.02,1.06S10.9,2.119,7.02,2.119,0,1.645,0,1.06,3.143,0,7.02,0Z" transform="translate(1745.063 137.596) rotate(-2)" fill="url(#radial-gradient)"/>
      <path id="椭圆_61-7" data-name="椭圆 61" d="M12.25,1.574a50.218,50.218,0,0,0-7.26.483c-.659.1-1.194.2-1.628.3.434.1.969.2,1.628.3a50.218,50.218,0,0,0,7.26.483,50.218,50.218,0,0,0,7.26-.483c.659-.1,1.194-.2,1.628-.3-.434-.1-.969-.2-1.628-.3a50.218,50.218,0,0,0-7.26-.483M12.25,0C19.016,0,24.5,1.057,24.5,2.361S19.016,4.721,12.25,4.721,0,3.665,0,2.361,5.485,0,12.25,0Z" transform="matrix(0.995, 0.105, -0.105, 0.995, 1740.982, 136.329)" fill="url(#radial-gradient)"/>
      <path id="椭圆_61-8" data-name="椭圆 61" d="M15.814,1.257c-3.407,0-6.736.137-9.372.386-.85.08-1.542.163-2.1.243.56.079,1.251.162,2.1.243,2.637.249,5.965.386,9.372.386s6.736-.137,9.372-.386c.85-.08,1.542-.163,2.1-.243-.56-.079-1.251-.162-2.1-.243-2.637-.249-5.965-.386-9.372-.386m0-1.257c8.734,0,15.814.844,15.814,1.886s-7.08,1.886-15.814,1.886S0,2.928,0,1.886,7.08,0,15.814,0Z" transform="matrix(0.998, 0.07, -0.07, 0.998, 1735.26, 144.062)" fill="url(#radial-gradient)"/>
    </g>
  </g>
</svg>
