<svg xmlns="http://www.w3.org/2000/svg" xmlns:xlink="http://www.w3.org/1999/xlink" width="127" height="70" viewBox="0 0 127 70">
  <defs>
    <filter id="路径_251">
      <feOffset dx="-0.5" dy="-0.5" input="SourceAlpha"/>
      <feGaussianBlur stdDeviation="1.5" result="blur"/>
      <feFlood flood-opacity="0.161" result="color"/>
      <feComposite operator="out" in="SourceGraphic" in2="blur"/>
      <feComposite operator="in" in="color"/>
      <feComposite operator="in" in2="SourceGraphic"/>
    </filter>
  </defs>
  <g id="组_132" data-name="组 132" transform="translate(-157 -814)">
    <circle id="椭圆_24" data-name="椭圆 24" cx="21.5" cy="21.5" r="21.5" transform="translate(157 828)" fill="#fdc6c6"/>
    <path id="路径_245" data-name="路径 245" d="M32.26,5.144C58.084,2.531,76.485,9.475,76.452,24.307S66.61,36.82,45.9,36.82,3.337,45.212,3.337,33.338,6.436,7.757,32.26,5.144Z" transform="translate(205.902 826.301)" fill="#f8baba" opacity="0.179"/>
    <text id="INSECT" transform="translate(223.297 853.5)" fill="#f8baba" font-size="12" font-family="ArialRoundedMTBold, Arial Rounded MT Bold"><tspan x="0" y="0">INSECT</tspan></text>
    <g id="路径_249" data-name="路径 249" transform="matrix(0.259, 0.966, -0.966, 0.259, 198.85, 827.327)" fill="#fcfca0" opacity="0.615">
      <path d="M 14.98312950134277 17.67411804199219 C 12.52514934539795 17.67411804199219 8.743619918823242 17.19238662719727 5.501809597015381 15.84036731719971 C 3.102499485015869 14.83970737457275 0.242419496178627 13.02349758148193 0.242419496178627 10.05370712280273 C 0.242419496178627 4.647927284240723 4.640349388122559 0.2499971091747284 10.04612922668457 0.2499971091747284 C 15.45190906524658 0.2499971091747284 19.84982872009277 4.647927284240723 19.84982872009277 10.05370712280273 C 19.84982872009277 10.44674682617188 19.85200881958008 10.8235969543457 19.85409927368164 11.1845874786377 C 19.86983871459961 13.90474700927734 19.88023948669434 15.70179748535156 18.91541862487793 16.67221641540527 C 18.22651863098145 17.3651180267334 17.01375007629395 17.67411804199219 14.98312950134277 17.67411804199219 Z" stroke="none"/>
      <path d="M 10.04612922668457 0.4999961853027344 C 4.778199195861816 0.4999961853027344 0.4924201965332031 4.78577709197998 0.4924201965332031 10.05370712280273 C 0.4924201965332031 11.22481727600098 0.9701004028320312 12.30934715270996 1.912179946899414 13.27715682983398 C 2.776880264282227 14.16546726226807 4.016979217529297 14.95022678375244 5.598049163818359 15.60962677001953 C 8.805789947509766 16.94744682312012 12.54933929443359 17.42411804199219 14.98312950134277 17.42411804199219 C 16.94183921813965 17.42411804199219 18.09992980957031 17.13785743713379 18.73814010620117 16.49594688415527 C 19.629638671875 15.59926700592041 19.61948013305664 13.84358692169189 19.60409927368164 11.18602752685547 C 19.60200881958008 10.82457733154297 19.59982872009277 10.44724655151367 19.59982872009277 10.05370712280273 C 19.59982872009277 4.78577709197998 15.31406021118164 0.4999961853027344 10.04612922668457 0.4999961853027344 M 10.04612922668457 -3.814697265625e-06 C 15.59862899780273 -3.814697265625e-06 20.09982872009277 4.50119686126709 20.09982872009277 10.05370712280273 C 20.09982872009277 15.6062068939209 20.5356388092041 17.92411804199219 14.98312950134277 17.92411804199219 C 9.430619239807129 17.92411804199219 -0.007579803466796875 15.6062068939209 -0.007579803466796875 10.05370712280273 C -0.007579803466796875 4.50119686126709 4.493619918823242 -3.814697265625e-06 10.04612922668457 -3.814697265625e-06 Z" stroke="none" fill="#cad951"/>
    </g>
    <g data-type="innerShadowGroup">
      <path id="路径_251-2" data-name="路径 251" d="M197.154,852.988c3.708-6.231,3.8-7.891,8.46-11s9.316-8.694,12.518-6.462,4.454,1.017-1.235,7.242S197.154,852.988,197.154,852.988Z" transform="translate(299.604 -10.595) rotate(21)" fill="#ffb58e"/>
      <g transform="matrix(1, 0, 0, 1, 157, 814)" filter="url(#路径_251)">
        <path id="路径_251-3" data-name="路径 251" d="M197.154,852.988c3.708-6.231,3.8-7.891,8.46-11s9.316-8.694,12.518-6.462,4.454,1.017-1.235,7.242S197.154,852.988,197.154,852.988Z" transform="translate(142.6 -824.59) rotate(21)" fill="#fff"/>
      </g>
    </g>
    <path id="路径_252" data-name="路径 252" d="M-4.936,2.076A7.691,7.691,0,0,1,3.741,1.17C8.988,3.648,8.1,5.486,10.093,8.1a4.929,4.929,0,0,0,5.233,1.568,6.523,6.523,0,0,0-1.821,4.1c-.308,2.8,1.344,5.921-.434,7.5-2.964,2.634-4.3,1.087-4.3,1.087S3.5,21.142-1.15,14.643-4.936,2.076-4.936,2.076Z" transform="translate(162 847)" fill="rgba(227,183,255,0.89)"/>
    <g id="路径_250" data-name="路径 250" transform="translate(182.421 830.742) rotate(48)" fill="#ffff9a" opacity="0.615">
      <path d="M 9.463726997375488 18.74999809265137 C 6.746616840362549 18.74999809265137 4.479056835174561 18.17719650268555 2.906186819076538 17.0935173034668 C 1.143666863441467 15.87917709350586 0.2499968409538269 14.05234718322754 0.2499968409538269 11.66375732421875 C 0.2499968409538269 9.050267219543457 0.8594568371772766 7.025307178497314 2.061456918716431 5.645137310028076 C 3.310836791992188 4.210546970367432 5.201487064361572 3.483157157897949 7.680896759033203 3.483157157897949 C 10.85762691497803 3.483157157897949 13.38501644134521 3.868837118148804 15.1928768157959 4.629497051239014 C 16.30202674865723 5.096177101135254 17.15941619873047 5.712306976318359 17.74122619628906 6.460777282714844 C 18.38653755187988 7.290946960449219 18.71373748779297 8.31348705291748 18.71373748779297 9.499997138977051 C 18.71373748779297 14.60046672821045 14.56419658660889 18.74999809265137 9.463726997375488 18.74999809265137 Z" stroke="none"/>
      <path d="M 7.680896759033203 3.733156204223633 C 5.276996612548828 3.733156204223633 3.449776649475098 4.431676864624023 2.24998664855957 5.809316635131836 C 1.088777542114258 7.142657279968262 0.4999961853027344 9.112377166748047 0.4999961853027344 11.66375732421875 C 0.4999961853027344 13.96518707275391 1.357276916503906 15.72275733947754 3.048027038574219 16.88765716552734 C 4.578987121582031 17.94245719909668 6.797507286071777 18.49999618530273 9.463726997375488 18.49999618530273 C 14.42634677886963 18.49999618530273 18.46373748779297 14.46261692047119 18.46373748779297 9.499997138977051 C 18.46373748779297 7.331216812133789 17.36211776733398 5.813436508178711 15.09591674804688 4.859926223754883 C 13.31892681121826 4.11225700378418 10.82414722442627 3.733156204223633 7.680896759033203 3.733156204223633 M 7.680896759033203 3.233156204223633 C 12.92759704589844 3.233156204223633 18.96373748779297 4.253297805786133 18.96373748779297 9.499997138977051 C 18.96373748779297 14.74670696258545 14.71043682098389 18.99999618530273 9.463726997375488 18.99999618530273 C 4.217026710510254 18.99999618530273 -3.814697265625e-06 16.91045761108398 -3.814697265625e-06 11.66375732421875 C -3.814697265625e-06 6.417057037353516 2.434186935424805 3.233156204223633 7.680896759033203 3.233156204223633 Z" stroke="none" fill="#c4d15e"/>
    </g>
    <rect id="矩形_61" data-name="矩形 61" width="127" height="70" transform="translate(157 814)" fill="none"/>
  </g>
</svg>
