<svg xmlns="http://www.w3.org/2000/svg" xmlns:xlink="http://www.w3.org/1999/xlink" width="63" height="63" viewBox="0 0 63 63">
  <defs>
    <filter id="路径_102">
      <feOffset dy="-1" input="SourceAlpha"/>
      <feGaussianBlur stdDeviation="5" result="blur"/>
      <feFlood flood-opacity="0.161" result="color"/>
      <feComposite operator="out" in="SourceGraphic" in2="blur"/>
      <feComposite operator="in" in="color"/>
      <feComposite operator="in" in2="SourceGraphic"/>
    </filter>
    <linearGradient id="linear-gradient" x1="0.911" y1="0.028" x2="0.354" y2="1.051" gradientUnits="objectBoundingBox">
      <stop offset="0" stop-color="#bef8ff"/>
      <stop offset="0.265" stop-color="#aaf6ff"/>
      <stop offset="0.487" stop-color="#95f4ff"/>
      <stop offset="0.623" stop-color="#9ee3eb"/>
      <stop offset="1" stop-color="#f5edc0"/>
    </linearGradient>
    <filter id="路径_17">
      <feOffset dy="-3" input="SourceAlpha"/>
      <feGaussianBlur stdDeviation="1.5" result="blur-2"/>
      <feFlood flood-opacity="0.161" result="color-2"/>
      <feComposite operator="out" in="SourceGraphic" in2="blur-2"/>
      <feComposite operator="in" in="color-2"/>
      <feComposite operator="in" in2="SourceGraphic"/>
    </filter>
    <filter id="路径_18">
      <feOffset dy="-3" input="SourceAlpha"/>
      <feGaussianBlur stdDeviation="1.5" result="blur-3"/>
      <feFlood flood-opacity="0.161" result="color-3"/>
      <feComposite operator="out" in="SourceGraphic" in2="blur-3"/>
      <feComposite operator="in" in="color-3"/>
      <feComposite operator="in" in2="SourceGraphic"/>
    </filter>
  </defs>
  <g id="组_114" data-name="组 114" transform="translate(-608 -238)">
    <circle id="椭圆_68" data-name="椭圆 68" cx="31.5" cy="31.5" r="31.5" transform="translate(608 238)" fill="none"/>
    <g data-type="innerShadowGroup">
      <path id="路径_102-2" data-name="路径 102" d="M24.21,0C37.53,0,49.137,9.041,49.137,16.018S34.342,25.3,21.022,25.3.4,20.9.4,13.92,10.891,0,24.21,0Z" transform="translate(614.731 261.163)" fill="#2cceff"/>
      <g transform="matrix(1, 0, 0, 1, 608, 238)" filter="url(#路径_102)">
        <path id="路径_102-3" data-name="路径 102" d="M24.21,0C37.53,0,49.137,9.041,49.137,16.018S34.342,25.3,21.022,25.3.4,20.9.4,13.92,10.891,0,24.21,0Z" transform="translate(6.73 23.16)" fill="#fff"/>
      </g>
    </g>
    <g id="组_97" data-name="组 97" transform="translate(-1111.786 44.468)">
      <g data-type="innerShadowGroup">
        <path id="路径_17-2" data-name="路径 17" d="M22.566,7.982c5.191-1.162,6.432.13,9.694,2.394,4.372,3.033,3.765,1.294,3.7,5.272-.12,6.919-10.3,16.75-17.513,16.542-3.918-.113.221-6.826-3.621-8.768s-3.771-.944-11.1.262,3.31-4.1,2.321-8.669S17.375,9.144,22.566,7.982Z" transform="translate(1736.761 201.547) rotate(14)" fill="url(#linear-gradient)"/>
        <g transform="matrix(1, 0, 0, 1, 1719.79, 193.53)" filter="url(#路径_17)">
          <path id="路径_17-3" data-name="路径 17" d="M22.566,7.982c5.191-1.162,6.432.13,9.694,2.394,4.372,3.033,3.765,1.294,3.7,5.272-.12,6.919-10.3,16.75-17.513,16.542-3.918-.113.221-6.826-3.621-8.768s-3.771-.944-11.1.262,3.31-4.1,2.321-8.669S17.375,9.144,22.566,7.982Z" transform="translate(16.98 8.02) rotate(14)" fill="#fff"/>
        </g>
      </g>
      <g data-type="innerShadowGroup">
        <path id="路径_18-2" data-name="路径 18" d="M.721.191C-.451.855-.564,4.993,3.244,5.545s5.6-1.653,6.05-3.221S7.482.952,5.991.725,4.4,1.782,3.285,1.275,1.894-.473.721.191Z" transform="translate(1740.307 227.704) rotate(49)" fill="#ffe3b7"/>
        <g transform="matrix(1, 0, 0, 1, 1719.79, 193.53)" filter="url(#路径_18)">
          <path id="路径_18-3" data-name="路径 18" d="M.721.191C-.451.855-.564,4.993,3.244,5.545s5.6-1.653,6.05-3.221S7.482.952,5.991.725,4.4,1.782,3.285,1.275,1.894-.473.721.191Z" transform="translate(20.52 34.17) rotate(49)" fill="#fff"/>
        </g>
      </g>
      <path id="路径_107" data-name="路径 107" d="M1745.452,220.393c-.948,1.129.376,2.424,5.294,4.518s6.855,4.663,7.917,1.737-.191-6.072-4.123-6.255S1746.4,219.263,1745.452,220.393Z" fill="#52a8ff"/>
    </g>
  </g>
</svg>
