<svg xmlns="http://www.w3.org/2000/svg" xmlns:xlink="http://www.w3.org/1999/xlink" width="127.013" height="70" viewBox="0 0 127.013 70">
  <defs>
    <linearGradient id="linear-gradient" x1="0.27" y1="0.149" x2="0.867" y2="0.898" gradientUnits="objectBoundingBox">
      <stop offset="0" stop-color="#7beda7"/>
      <stop offset="1" stop-color="#edd4a4"/>
    </linearGradient>
    <filter id="路径_234">
      <feOffset dx="-0.5" dy="-0.5" input="SourceAlpha"/>
      <feGaussianBlur stdDeviation="1.5" result="blur"/>
      <feFlood flood-opacity="0.161" result="color"/>
      <feComposite operator="out" in="SourceGraphic" in2="blur"/>
      <feComposite operator="in" in="color"/>
      <feComposite operator="in" in2="SourceGraphic"/>
    </filter>
  </defs>
  <g id="组_135" data-name="组 135" transform="translate(-156.987 -620)">
    <circle id="椭圆_21" data-name="椭圆 21" cx="21.5" cy="21.5" r="21.5" transform="translate(157 633)" fill="#ffe3d1"/>
    <path id="路径_236" data-name="路径 236" d="M13.884,3.111c20.711,0,61.179-2.475,61.179,9.4S66.888,38.982,46.177,38.982,1.053,39.5,1.053,27.625-6.827,3.111,13.884,3.111Z" transform="translate(205.579 634.738)" fill="#67e597" opacity="0.179"/>
    <text id="MAMMAL" transform="translate(215.902 659)" fill="#67e597" font-size="12" font-family="ArialRoundedMTBold, Arial Rounded MT Bold"><tspan x="0" y="0">MAMMAL</tspan></text>
    <path id="路径_235" data-name="路径 235" d="M177.519,632.152c1.163,1,6.056.915,7.609,3.839s-2.77,4.977,2.59,12.909,9.281,3.378,11.711,4.2,1.066,7.576,3.572,9.451,2.27,2.308,2.27,2.308A21.237,21.237,0,0,1,187.3,668.43c-10.294-2.775-14.654-10.538-15.439-15.794s-.747-10.342,1.082-14.02A28.374,28.374,0,0,1,177.519,632.152Z" transform="translate(-14 7)" fill="url(#linear-gradient)"/>
    <g data-type="innerShadowGroup">
      <path id="路径_234-2" data-name="路径 234" d="M172.556,643.091c7.779-1.757,5.047-3.024,12.487-2.769s7.877,1.944,11.872,0,3.766-3.984,6.942-5.851,1.588-4.064,2.579-4.2.735,2.649,1.142,3.669.605,1.056,1.919,1.4,3.239,1.211,3.267,2.244-.747,3.939.517,4.709,2.817.581,3.327,1.34a2,2,0,0,1,0,2.166c-.325.336-4.126.224-5.579.532s-3.99,3.239-5.265,4.206-3.7-.041-1.211,2.722,2.194,5.495,4.944,6.74c1.7.77,3.15,2.439,4.926,5.89.3.583,1.439.336,2.184,1s1.087,2.032.583,2.1c-2.006.289-4.321,1.623-4.427,0-.056-.856-2.652-1.994-5.185-3.782-1.8-1.273-4.346-3.2-4.346-3.2s-4.554-4.776-5.462-4.838-2.322.151-2.713,2.831-1.359,9.481-2.074,10.163-4.48.862-4.275,0v-4.273l1.792-6.922s.232-.606-4.384-.7-10.441,3.342-11.5,3.74-3-3.957-4.043-8.046-.462-9.521,0-9.859A17.486,17.486,0,0,1,172.556,643.091Z" transform="translate(-13 5)" fill="#ef8f5d"/>
      <g transform="matrix(1, 0, 0, 1, 156.99, 620)" filter="url(#路径_234)">
        <path id="路径_234-3" data-name="路径 234" d="M172.556,643.091c7.779-1.757,5.047-3.024,12.487-2.769s7.877,1.944,11.872,0,3.766-3.984,6.942-5.851,1.588-4.064,2.579-4.2.735,2.649,1.142,3.669.605,1.056,1.919,1.4,3.239,1.211,3.267,2.244-.747,3.939.517,4.709,2.817.581,3.327,1.34a2,2,0,0,1,0,2.166c-.325.336-4.126.224-5.579.532s-3.99,3.239-5.265,4.206-3.7-.041-1.211,2.722,2.194,5.495,4.944,6.74c1.7.77,3.15,2.439,4.926,5.89.3.583,1.439.336,2.184,1s1.087,2.032.583,2.1c-2.006.289-4.321,1.623-4.427,0-.056-.856-2.652-1.994-5.185-3.782-1.8-1.273-4.346-3.2-4.346-3.2s-4.554-4.776-5.462-4.838-2.322.151-2.713,2.831-1.359,9.481-2.074,10.163-4.48.862-4.275,0v-4.273l1.792-6.922s.232-.606-4.384-.7-10.441,3.342-11.5,3.74-3-3.957-4.043-8.046-.462-9.521,0-9.859A17.486,17.486,0,0,1,172.556,643.091Z" transform="translate(-169.99 -615)" fill="#fff"/>
      </g>
    </g>
    <rect id="矩形_58" data-name="矩形 58" width="127" height="70" transform="translate(157 620)" fill="none"/>
  </g>
</svg>
