<svg xmlns="http://www.w3.org/2000/svg" xmlns:xlink="http://www.w3.org/1999/xlink" width="182" height="42" viewBox="0 0 182 42">
  <defs>
    <linearGradient id="linear-gradient" x1="0.5" x2="0.5" y2="1" gradientUnits="objectBoundingBox">
      <stop offset="0" stop-color="#fff" stop-opacity="0"/>
      <stop offset="1" stop-color="#fff"/>
    </linearGradient>
  </defs>
  <g id="组_300" data-name="组 300" transform="translate(-1709 -122)">
    <rect id="矩形_5" data-name="矩形 5" width="182" height="42" rx="21" transform="translate(1709 122)" fill="rgba(255,209,209,0.3)"/>
    <path id="路径_565" data-name="路径 565" d="M6.465-4.665l.12-2.925H6.45L4.5-2.2,2.55-7.59H2.415l.12,2.925V0H.585V-10.47H3.24L4.53-6.945h.12L5.94-10.47H8.415V0H6.465ZM13.71.18A3.841,3.841,0,0,1,10.755-.9,4.145,4.145,0,0,1,9.75-3.84a5.179,5.179,0,0,1,.262-1.7,3.655,3.655,0,0,1,.75-1.29,3.172,3.172,0,0,1,1.185-.81,4.209,4.209,0,0,1,1.567-.277,4.151,4.151,0,0,1,1.56.277,3.245,3.245,0,0,1,1.17.788,3.525,3.525,0,0,1,.742,1.237A4.77,4.77,0,0,1,17.25-3.99v.66h-5.3v.135a1.618,1.618,0,0,0,.465,1.207,1.869,1.869,0,0,0,1.365.457,2.5,2.5,0,0,0,1.185-.262,2.807,2.807,0,0,0,.855-.7l1.2,1.3a3.746,3.746,0,0,1-1.26.96A4.585,4.585,0,0,1,13.71.18Zm-.18-6.51a1.522,1.522,0,0,0-1.148.442,1.644,1.644,0,0,0-.427,1.193v.12h3.12v-.12a1.673,1.673,0,0,0-.412-1.2A1.486,1.486,0,0,0,13.53-6.33ZM23.1,0a2.323,2.323,0,0,1-1.785-.63,2.266,2.266,0,0,1-.585-1.605v-3.78h-2.1V-7.74H20a1.025,1.025,0,0,0,.7-.2.967.967,0,0,0,.21-.72V-10.47h2.04v2.73h3.015v1.725H22.95v4.29h3.015V0Zm8.61.18A3.841,3.841,0,0,1,28.755-.9a4.145,4.145,0,0,1-1-2.94,5.179,5.179,0,0,1,.263-1.7,3.655,3.655,0,0,1,.75-1.29,3.172,3.172,0,0,1,1.185-.81,4.209,4.209,0,0,1,1.567-.277,4.151,4.151,0,0,1,1.56.277,3.245,3.245,0,0,1,1.17.788,3.525,3.525,0,0,1,.743,1.237A4.77,4.77,0,0,1,35.25-3.99v.66h-5.3v.135a1.618,1.618,0,0,0,.465,1.207,1.869,1.869,0,0,0,1.365.457,2.5,2.5,0,0,0,1.185-.262,2.807,2.807,0,0,0,.855-.7l1.2,1.3a3.746,3.746,0,0,1-1.26.96A4.585,4.585,0,0,1,31.71.18Zm-.18-6.51a1.522,1.522,0,0,0-1.147.442,1.644,1.644,0,0,0-.427,1.193v.12h3.12v-.12a1.673,1.673,0,0,0-.413-1.2A1.486,1.486,0,0,0,31.53-6.33ZM40.5.18A4.476,4.476,0,0,1,38.88-.1a3.317,3.317,0,0,1-1.222-.8,3.56,3.56,0,0,1-.773-1.275,4.982,4.982,0,0,1-.27-1.695,4.982,4.982,0,0,1,.27-1.7,3.56,3.56,0,0,1,.773-1.275,3.317,3.317,0,0,1,1.222-.8A4.476,4.476,0,0,1,40.5-7.92a4.476,4.476,0,0,1,1.62.277,3.317,3.317,0,0,1,1.222.8,3.56,3.56,0,0,1,.772,1.275,4.982,4.982,0,0,1,.27,1.7,4.982,4.982,0,0,1-.27,1.695A3.56,3.56,0,0,1,43.342-.9a3.317,3.317,0,0,1-1.222.8A4.476,4.476,0,0,1,40.5.18Zm0-1.65a1.5,1.5,0,0,0,1.17-.465,1.9,1.9,0,0,0,.42-1.32v-1.23a1.9,1.9,0,0,0-.42-1.32A1.5,1.5,0,0,0,40.5-6.27a1.5,1.5,0,0,0-1.17.465,1.9,1.9,0,0,0-.42,1.32v1.23a1.9,1.9,0,0,0,.42,1.32A1.5,1.5,0,0,0,40.5-1.47Zm5.61-.255H47.9v-4.29H46.11V-7.74h4v2.19h.105a4.432,4.432,0,0,1,.292-.817,2.663,2.663,0,0,1,.48-.705,2.124,2.124,0,0,1,.713-.487,2.5,2.5,0,0,1,.99-.18h.735V-5.7H51.78a1.553,1.553,0,0,0-1.245.487,1.764,1.764,0,0,0-.42,1.193v2.295h2.55V0H46.11ZM58.41.18a5.9,5.9,0,0,1-2.243-.39,3.174,3.174,0,0,1-1.432-1.065L55.98-2.43a3.227,3.227,0,0,0,1.057.773,3.305,3.305,0,0,0,1.388.278,2.2,2.2,0,0,0,1.035-.2.663.663,0,0,0,.375-.622.466.466,0,0,0-.255-.457,2.557,2.557,0,0,0-.705-.2L57.63-3.06a5.153,5.153,0,0,1-.975-.233,2.548,2.548,0,0,1-.78-.428,1.994,1.994,0,0,1-.525-.66,2.1,2.1,0,0,1-.195-.945,2.241,2.241,0,0,1,.93-1.905,4.309,4.309,0,0,1,2.61-.69,5.441,5.441,0,0,1,1.943.308,3.074,3.074,0,0,1,1.282.877l-1.11,1.26a2.82,2.82,0,0,0-.885-.63A3.037,3.037,0,0,0,58.62-6.36q-1.29,0-1.29.78a.479.479,0,0,0,.255.472,2.557,2.557,0,0,0,.705.2l1.23.195a5.153,5.153,0,0,1,.975.233,2.649,2.649,0,0,1,.788.427,1.954,1.954,0,0,1,.533.66,2.1,2.1,0,0,1,.195.945,2.274,2.274,0,0,1-.937,1.92A4.36,4.36,0,0,1,58.41.18ZM68.1,0a2.323,2.323,0,0,1-1.785-.63,2.266,2.266,0,0,1-.585-1.605v-3.78h-2.1V-7.74H65a1.025,1.025,0,0,0,.7-.2.967.967,0,0,0,.21-.72V-10.47h2.04v2.73h3.015v1.725H67.95v4.29h3.015V0Zm5.01-1.725h1.785v-4.29H73.11V-7.74h4v2.19h.105a4.432,4.432,0,0,1,.292-.817,2.663,2.663,0,0,1,.48-.705,2.124,2.124,0,0,1,.713-.487,2.5,2.5,0,0,1,.99-.18h.735V-5.7H78.78a1.553,1.553,0,0,0-1.245.487,1.764,1.764,0,0,0-.42,1.193v2.295h2.55V0H73.11ZM85.98-8.73a1.411,1.411,0,0,1-1.043-.307,1.038,1.038,0,0,1-.293-.742v-.435a1.031,1.031,0,0,1,.293-.75,1.435,1.435,0,0,1,1.043-.3,1.435,1.435,0,0,1,1.042.3,1.031,1.031,0,0,1,.293.75v.435a1.038,1.038,0,0,1-.293.742A1.411,1.411,0,0,1,85.98-8.73ZM82.41-1.725h2.46v-4.29H82.41V-7.74h4.68v6.015h2.28V0H82.41ZM90.975-11.1h2.22v6.3H93.3l1.035-1.215,1.62-1.725H98.5l-3,3.06L98.82,0H96.18L93.93-3.42l-.735.735V0h-2.22ZM103.71.18A3.841,3.841,0,0,1,100.755-.9a4.145,4.145,0,0,1-1-2.94,5.179,5.179,0,0,1,.262-1.7,3.655,3.655,0,0,1,.75-1.29,3.172,3.172,0,0,1,1.185-.81,4.209,4.209,0,0,1,1.567-.277,4.151,4.151,0,0,1,1.56.277,3.245,3.245,0,0,1,1.17.788,3.525,3.525,0,0,1,.743,1.237,4.77,4.77,0,0,1,.262,1.628v.66h-5.295v.135a1.618,1.618,0,0,0,.465,1.207,1.869,1.869,0,0,0,1.365.457,2.5,2.5,0,0,0,1.185-.262,2.807,2.807,0,0,0,.855-.7l1.2,1.3a3.746,3.746,0,0,1-1.26.96A4.585,4.585,0,0,1,103.71.18Zm-.18-6.51a1.522,1.522,0,0,0-1.147.442,1.644,1.644,0,0,0-.427,1.193v.12h3.12v-.12a1.673,1.673,0,0,0-.412-1.2A1.486,1.486,0,0,0,103.53-6.33Z" transform="translate(1766 149)" fill="#ff6767"/>
    <circle id="椭圆_26" data-name="椭圆 26" cx="11.5" cy="11.5" r="11.5" transform="translate(1720 132)" fill="#ff6767"/>
    <g id="组_83" data-name="组 83" transform="translate(-1.585)">
      <path id="路径_76" data-name="路径 76" d="M1.5-2.123C2.328-2.123,3,2.461,3,3.82S2.328,6.28,1.5,6.28,0,5.178,0,3.82.672-2.123,1.5-2.123Z" transform="matrix(0.559, 0.829, -0.829, 0.559, 1736.895, 137.001)" fill="url(#linear-gradient)"/>
      <path id="路径_78" data-name="路径 78" d="M1.4-2.123c.775,0,1.4,4.528,1.4,5.87S2.179,6.178,1.4,6.178,0,5.09,0,3.748.629-2.123,1.4-2.123Z" transform="translate(1737.043 142.862) rotate(48)" fill="url(#linear-gradient)"/>
      <path id="路径_81" data-name="路径 81" d="M.933-2.123c.515,0,.933,4.528.933,5.87S1.448,6.178.933,6.178,0,5.09,0,3.748.418-2.123.933-2.123Z" transform="translate(1733.967 142.007) rotate(48)" fill="url(#linear-gradient)"/>
      <path id="路径_79" data-name="路径 79" d="M.752-2.123c.415,0,.752,3.652.752,4.734s-.337,1.96-.752,1.96S0,3.694,0,2.612.337-2.123.752-2.123Z" transform="translate(1730.971 146.711) rotate(49)" fill="url(#linear-gradient)"/>
      <path id="路径_82" data-name="路径 82" d="M.752-2.123c.415,0,.752,3.652.752,4.734s-.337,1.96-.752,1.96S0,3.694,0,2.612.337-2.123.752-2.123Z" transform="translate(1730.495 141.897) rotate(49)" fill="url(#linear-gradient)"/>
      <path id="路径_83" data-name="路径 83" d="M.622-2.123c.343,0,.622,3.018.622,3.913S.965,3.411.622,3.411,0,2.686,0,1.791.278-2.123.622-2.123Z" transform="translate(1728.246 144.661) rotate(49)" fill="url(#linear-gradient)"/>
      <path id="路径_80" data-name="路径 80" d="M.531-2.123c.293,0,.531,2.58.531,3.345S.825,2.607.531,2.607,0,1.987,0,1.222.238-2.123.531-2.123Z" transform="matrix(0.682, 0.731, -0.731, 0.682, 1731.282, 137.949)" fill="url(#linear-gradient)"/>
      <path id="路径_77" data-name="路径 77" d="M.932-2.123c.514,0,.932,4.583.932,5.942S1.446,6.28.932,6.28,0,5.178,0,3.82.417-2.123.932-2.123Z" transform="matrix(0.616, 0.788, -0.788, 0.616, 1731.604, 137.666)" fill="url(#linear-gradient)"/>
    </g>
  </g>
</svg>
