<svg xmlns="http://www.w3.org/2000/svg" xmlns:xlink="http://www.w3.org/1999/xlink" width="568.669" height="145.09" viewBox="0 0 568.669 145.09">
  <defs>
    <filter id="路径_3">
      <feOffset dx="-3" dy="3" input="SourceAlpha"/>
      <feGaussianBlur stdDeviation="3" result="blur"/>
      <feFlood flood-opacity="0.098" result="color"/>
      <feComposite operator="out" in="SourceGraphic" in2="blur"/>
      <feComposite operator="in" in="color"/>
      <feComposite operator="in" in2="SourceGraphic"/>
    </filter>
    <filter id="路径_2" x="395.104" y="63.528" width="173.565" height="50.645" filterUnits="userSpaceOnUse">
      <feOffset dx="3" dy="3" input="SourceAlpha"/>
      <feGaussianBlur stdDeviation="5" result="blur-2"/>
      <feFlood flood-opacity="0.09"/>
      <feComposite operator="in" in2="blur-2"/>
      <feComposite in="SourceGraphic"/>
    </filter>
    <filter id="路径_2-2" x="395.104" y="63.528" width="173.565" height="50.645" filterUnits="userSpaceOnUse">
      <feOffset dx="-1" dy="-2" input="SourceAlpha"/>
      <feGaussianBlur stdDeviation="5" result="blur-3"/>
      <feFlood flood-opacity="0.078" result="color-2"/>
      <feComposite operator="out" in="SourceGraphic" in2="blur-3"/>
      <feComposite operator="in" in="color-2"/>
      <feComposite operator="in" in2="SourceGraphic"/>
    </filter>
    <radialGradient id="radial-gradient" cx="0.428" cy="0.5" r="0.554" gradientTransform="matrix(0.869, 0.495, -0.431, 0.756, 0.271, -0.09)" gradientUnits="objectBoundingBox">
      <stop offset="0" stop-color="#a0a2de"/>
      <stop offset="0.546" stop-color="#b5b7f2"/>
      <stop offset="0.704" stop-color="#b5b7f2"/>
      <stop offset="1" stop-color="#c6c8ff"/>
    </radialGradient>
    <linearGradient id="linear-gradient" x1="0.075" y1="0.637" x2="0.987" y2="0.5" gradientUnits="objectBoundingBox">
      <stop offset="0" stop-color="#f0dfbc"/>
      <stop offset="1" stop-color="#d3c2a2"/>
    </linearGradient>
    <linearGradient id="linear-gradient-2" x1="0.084" y1="0.671" x2="0.98" y2="0.526" gradientUnits="objectBoundingBox">
      <stop offset="0" stop-color="#fceac6"/>
      <stop offset="1" stop-color="#e0d0b1"/>
    </linearGradient>
    <filter id="路径_7">
      <feOffset dy="-1" input="SourceAlpha"/>
      <feGaussianBlur stdDeviation="3" result="blur-4"/>
      <feFlood flood-opacity="0.082" result="color-3"/>
      <feComposite operator="out" in="SourceGraphic" in2="blur-4"/>
      <feComposite operator="in" in="color-3"/>
      <feComposite operator="in" in2="SourceGraphic"/>
    </filter>
    <filter id="路径_10">
      <feOffset dx="-1" dy="-3" input="SourceAlpha"/>
      <feGaussianBlur stdDeviation="5" result="blur-5"/>
      <feFlood flood-opacity="0.082" result="color-4"/>
      <feComposite operator="out" in="SourceGraphic" in2="blur-5"/>
      <feComposite operator="in" in="color-4"/>
      <feComposite operator="in" in2="SourceGraphic"/>
    </filter>
    <filter id="路径_11">
      <feOffset dy="-1" input="SourceAlpha"/>
      <feGaussianBlur stdDeviation="5" result="blur-6"/>
      <feFlood flood-opacity="0.114" result="color-5"/>
      <feComposite operator="out" in="SourceGraphic" in2="blur-6"/>
      <feComposite operator="in" in="color-5"/>
      <feComposite operator="in" in2="SourceGraphic"/>
    </filter>
    <filter id="椭圆_1">
      <feOffset dx="-0.5" dy="-0.5" input="SourceAlpha"/>
      <feGaussianBlur stdDeviation="0.5" result="blur-7"/>
      <feFlood flood-opacity="0.161" result="color-6"/>
      <feComposite operator="out" in="SourceGraphic" in2="blur-7"/>
      <feComposite operator="in" in="color-6"/>
      <feComposite operator="in" in2="SourceGraphic"/>
    </filter>
    <filter id="椭圆_2">
      <feOffset dx="-0.5" dy="-0.5" input="SourceAlpha"/>
      <feGaussianBlur stdDeviation="0.5" result="blur-8"/>
      <feFlood flood-opacity="0.161" result="color-7"/>
      <feComposite operator="out" in="SourceGraphic" in2="blur-8"/>
      <feComposite operator="in" in="color-7"/>
      <feComposite operator="in" in2="SourceGraphic"/>
    </filter>
    <filter id="椭圆_3">
      <feOffset dx="-0.5" dy="-0.5" input="SourceAlpha"/>
      <feGaussianBlur stdDeviation="0.5" result="blur-9"/>
      <feFlood flood-opacity="0.161" result="color-8"/>
      <feComposite operator="out" in="SourceGraphic" in2="blur-9"/>
      <feComposite operator="in" in="color-8"/>
      <feComposite operator="in" in2="SourceGraphic"/>
    </filter>
    <filter id="椭圆_4">
      <feOffset dx="-0.5" dy="-0.5" input="SourceAlpha"/>
      <feGaussianBlur stdDeviation="0.5" result="blur-10"/>
      <feFlood flood-opacity="0.161" result="color-9"/>
      <feComposite operator="out" in="SourceGraphic" in2="blur-10"/>
      <feComposite operator="in" in="color-9"/>
      <feComposite operator="in" in2="SourceGraphic"/>
    </filter>
    <filter id="路径_1">
      <feOffset dy="-3" input="SourceAlpha"/>
      <feGaussianBlur stdDeviation="5" result="blur-11"/>
      <feFlood flood-opacity="0.098" result="color-10"/>
      <feComposite operator="out" in="SourceGraphic" in2="blur-11"/>
      <feComposite operator="in" in="color-10"/>
      <feComposite operator="in" in2="SourceGraphic"/>
    </filter>
    <filter id="路径_16">
      <feOffset dx="0.5" dy="-0.5" input="SourceAlpha"/>
      <feGaussianBlur stdDeviation="0.5" result="blur-12"/>
      <feFlood flood-opacity="0.161" result="color-11"/>
      <feComposite operator="out" in="SourceGraphic" in2="blur-12"/>
      <feComposite operator="in" in="color-11"/>
      <feComposite operator="in" in2="SourceGraphic"/>
    </filter>
    <filter id="路径_15">
      <feOffset dx="-0.5" dy="-0.5" input="SourceAlpha"/>
      <feGaussianBlur stdDeviation="0.5" result="blur-13"/>
      <feFlood flood-opacity="0.161" result="color-12"/>
      <feComposite operator="out" in="SourceGraphic" in2="blur-13"/>
      <feComposite operator="in" in="color-12"/>
      <feComposite operator="in" in2="SourceGraphic"/>
    </filter>
    <filter id="椭圆_5">
      <feOffset dx="-0.2" dy="-0.2" input="SourceAlpha"/>
      <feGaussianBlur stdDeviation="0.15" result="blur-14"/>
      <feFlood flood-opacity="0.161" result="color-13"/>
      <feComposite operator="out" in="SourceGraphic" in2="blur-14"/>
      <feComposite operator="in" in="color-13"/>
      <feComposite operator="in" in2="SourceGraphic"/>
    </filter>
    <filter id="路径_17">
      <feOffset dx="-0.5" dy="-0.5" input="SourceAlpha"/>
      <feGaussianBlur stdDeviation="0.5" result="blur-15"/>
      <feFlood flood-opacity="0.161" result="color-14"/>
      <feComposite operator="out" in="SourceGraphic" in2="blur-15"/>
      <feComposite operator="in" in="color-14"/>
      <feComposite operator="in" in2="SourceGraphic"/>
    </filter>
    <filter id="路径_17-2">
      <feOffset dx="-0.5" dy="-0.5" input="SourceAlpha"/>
      <feGaussianBlur stdDeviation="0.5" result="blur-16"/>
      <feFlood flood-opacity="0.161" result="color-15"/>
      <feComposite operator="out" in="SourceGraphic" in2="blur-16"/>
      <feComposite operator="in" in="color-15"/>
      <feComposite operator="in" in2="SourceGraphic"/>
    </filter>
    <filter id="路径_15-2">
      <feOffset dx="-0.5" dy="-0.5" input="SourceAlpha"/>
      <feGaussianBlur stdDeviation="0.5" result="blur-17"/>
      <feFlood flood-opacity="0.161" result="color-16"/>
      <feComposite operator="out" in="SourceGraphic" in2="blur-17"/>
      <feComposite operator="in" in="color-16"/>
      <feComposite operator="in" in2="SourceGraphic"/>
    </filter>
    <filter id="椭圆_8">
      <feOffset dx="-0.2" dy="-0.2" input="SourceAlpha"/>
      <feGaussianBlur stdDeviation="0.1" result="blur-18"/>
      <feFlood flood-opacity="0.161" result="color-17"/>
      <feComposite operator="out" in="SourceGraphic" in2="blur-18"/>
      <feComposite operator="in" in="color-17"/>
      <feComposite operator="in" in2="SourceGraphic"/>
    </filter>
    <filter id="路径_16-2">
      <feOffset dx="-0.5" dy="-0.5" input="SourceAlpha"/>
      <feGaussianBlur stdDeviation="0.5" result="blur-19"/>
      <feFlood flood-opacity="0.161" result="color-18"/>
      <feComposite operator="out" in="SourceGraphic" in2="blur-19"/>
      <feComposite operator="in" in="color-18"/>
      <feComposite operator="in" in2="SourceGraphic"/>
    </filter>
    <filter id="路径_17-3">
      <feOffset dy="-0.5" input="SourceAlpha"/>
      <feGaussianBlur stdDeviation="0.5" result="blur-20"/>
      <feFlood flood-opacity="0.161" result="color-19"/>
      <feComposite operator="out" in="SourceGraphic" in2="blur-20"/>
      <feComposite operator="in" in="color-19"/>
      <feComposite operator="in" in2="SourceGraphic"/>
    </filter>
    <filter id="椭圆_7">
      <feOffset dx="-0.2" dy="-0.2" input="SourceAlpha"/>
      <feGaussianBlur stdDeviation="0.1" result="blur-21"/>
      <feFlood flood-opacity="0.161" result="color-20"/>
      <feComposite operator="out" in="SourceGraphic" in2="blur-21"/>
      <feComposite operator="in" in="color-20"/>
      <feComposite operator="in" in2="SourceGraphic"/>
    </filter>
    <filter id="路径_16-3">
      <feOffset dx="-0.5" dy="-0.5" input="SourceAlpha"/>
      <feGaussianBlur stdDeviation="0.5" result="blur-22"/>
      <feFlood flood-opacity="0.161" result="color-21"/>
      <feComposite operator="out" in="SourceGraphic" in2="blur-22"/>
      <feComposite operator="in" in="color-21"/>
      <feComposite operator="in" in2="SourceGraphic"/>
    </filter>
    <filter id="路径_15-3">
      <feOffset dy="-0.5" input="SourceAlpha"/>
      <feGaussianBlur stdDeviation="0.5" result="blur-23"/>
      <feFlood flood-opacity="0.161" result="color-22"/>
      <feComposite operator="out" in="SourceGraphic" in2="blur-23"/>
      <feComposite operator="in" in="color-22"/>
      <feComposite operator="in" in2="SourceGraphic"/>
    </filter>
    <filter id="椭圆_6">
      <feOffset dx="-0.2" dy="-0.2" input="SourceAlpha"/>
      <feGaussianBlur stdDeviation="0.1" result="blur-24"/>
      <feFlood flood-opacity="0.161" result="color-23"/>
      <feComposite operator="out" in="SourceGraphic" in2="blur-24"/>
      <feComposite operator="in" in="color-23"/>
      <feComposite operator="in" in2="SourceGraphic"/>
    </filter>
  </defs>
  <g id="组_288" data-name="组 288" transform="translate(-1338 -898.91)">
    <path id="路径_553" data-name="路径 553" d="M4.2-4.365,3.27-3.06V0H1.02V-10.47H3.27v4.38h.12L4.53-7.83l1.845-2.64h2.52L5.76-6.045,9.045,0H6.51ZM13.98-8.73a1.411,1.411,0,0,1-1.042-.307,1.038,1.038,0,0,1-.292-.742v-.435a1.031,1.031,0,0,1,.292-.75,1.435,1.435,0,0,1,1.042-.3,1.435,1.435,0,0,1,1.043.3,1.031,1.031,0,0,1,.293.75v.435a1.038,1.038,0,0,1-.293.742A1.411,1.411,0,0,1,13.98-8.73ZM10.41-1.725h2.46v-4.29H10.41V-7.74h4.68v6.015h2.28V0H10.41ZM23.1,0a2.323,2.323,0,0,1-1.785-.63,2.266,2.266,0,0,1-.585-1.605v-3.78h-2.1V-7.74H20a1.025,1.025,0,0,0,.7-.2.967.967,0,0,0,.21-.72V-10.47h2.04v2.73h3.015v1.725H22.95v4.29h3.015V0Zm8.715.18A4.581,4.581,0,0,1,30.173-.1a3.306,3.306,0,0,1-1.23-.8,3.56,3.56,0,0,1-.772-1.275A4.982,4.982,0,0,1,27.9-3.87a4.982,4.982,0,0,1,.27-1.7,3.56,3.56,0,0,1,.772-1.275,3.306,3.306,0,0,1,1.23-.8A4.536,4.536,0,0,1,31.8-7.92a3.622,3.622,0,0,1,2.048.517A3.341,3.341,0,0,1,35.025-6.03l-1.71.93a2.275,2.275,0,0,0-.547-.75,1.41,1.41,0,0,0-.968-.3,1.531,1.531,0,0,0-1.177.443A1.7,1.7,0,0,0,30.21-4.5v1.26a1.7,1.7,0,0,0,.413,1.207,1.571,1.571,0,0,0,1.208.442,1.557,1.557,0,0,0,1.012-.3,2.509,2.509,0,0,0,.623-.78l1.68.96A3.375,3.375,0,0,1,33.923-.338,3.835,3.835,0,0,1,31.815.18Zm5.16-11.28h2.22v4.77h.09a3.294,3.294,0,0,1,.33-.615,2.25,2.25,0,0,1,.472-.5,2.21,2.21,0,0,1,.645-.345,2.531,2.531,0,0,1,.833-.127,2.7,2.7,0,0,1,1.02.188,2.081,2.081,0,0,1,.8.563,2.714,2.714,0,0,1,.517.915,3.79,3.79,0,0,1,.188,1.245V0h-2.22V-4.71q0-1.5-1.305-1.5a1.9,1.9,0,0,0-.5.068,1.34,1.34,0,0,0-.442.21,1.04,1.04,0,0,0-.308.352,1.033,1.033,0,0,0-.112.495V0h-2.22ZM49.71.18A3.841,3.841,0,0,1,46.755-.9,4.145,4.145,0,0,1,45.75-3.84a5.179,5.179,0,0,1,.263-1.7,3.655,3.655,0,0,1,.75-1.29,3.172,3.172,0,0,1,1.185-.81,4.209,4.209,0,0,1,1.568-.277,4.151,4.151,0,0,1,1.56.277,3.245,3.245,0,0,1,1.17.788,3.525,3.525,0,0,1,.743,1.237A4.77,4.77,0,0,1,53.25-3.99v.66H47.955v.135a1.618,1.618,0,0,0,.465,1.207,1.869,1.869,0,0,0,1.365.457,2.5,2.5,0,0,0,1.185-.262,2.807,2.807,0,0,0,.855-.7l1.2,1.3a3.746,3.746,0,0,1-1.26.96A4.585,4.585,0,0,1,49.71.18Zm-.18-6.51a1.522,1.522,0,0,0-1.147.442,1.644,1.644,0,0,0-.427,1.193v.12h3.12v-.12a1.673,1.673,0,0,0-.413-1.2A1.486,1.486,0,0,0,49.53-6.33ZM54.975,0V-7.74h2.22v1.41h.09a3.294,3.294,0,0,1,.33-.615,2.25,2.25,0,0,1,.472-.5,2.21,2.21,0,0,1,.645-.345,2.531,2.531,0,0,1,.833-.127,2.7,2.7,0,0,1,1.02.188,2.081,2.081,0,0,1,.8.563,2.714,2.714,0,0,1,.517.915,3.79,3.79,0,0,1,.188,1.245V0h-2.22V-4.71q0-1.5-1.305-1.5a1.9,1.9,0,0,0-.5.068,1.34,1.34,0,0,0-.442.21,1.04,1.04,0,0,0-.308.352,1.033,1.033,0,0,0-.112.495V0ZM73.14,0V-10.47h4.05a3.756,3.756,0,0,1,1.365.233,2.734,2.734,0,0,1,1.012.668,2.833,2.833,0,0,1,.623,1.05,4.254,4.254,0,0,1,.21,1.38,4.254,4.254,0,0,1-.21,1.38,2.833,2.833,0,0,1-.623,1.05,2.734,2.734,0,0,1-1.012.668,3.756,3.756,0,0,1-1.365.232H75.4V0ZM75.4-5.625H76.62a1.573,1.573,0,0,0,1.1-.3,1.342,1.342,0,0,0,.307-.99v-.45a1.342,1.342,0,0,0-.307-.99,1.573,1.573,0,0,0-1.1-.3H75.4ZM85.5.18A4.476,4.476,0,0,1,83.88-.1a3.317,3.317,0,0,1-1.222-.8,3.56,3.56,0,0,1-.772-1.275,4.982,4.982,0,0,1-.27-1.695,4.982,4.982,0,0,1,.27-1.7,3.56,3.56,0,0,1,.772-1.275,3.317,3.317,0,0,1,1.222-.8A4.476,4.476,0,0,1,85.5-7.92a4.476,4.476,0,0,1,1.62.277,3.317,3.317,0,0,1,1.222.8,3.56,3.56,0,0,1,.772,1.275,4.982,4.982,0,0,1,.27,1.7,4.982,4.982,0,0,1-.27,1.695A3.56,3.56,0,0,1,88.342-.9a3.317,3.317,0,0,1-1.222.8A4.476,4.476,0,0,1,85.5.18Zm0-1.65a1.5,1.5,0,0,0,1.17-.465,1.9,1.9,0,0,0,.42-1.32v-1.23a1.9,1.9,0,0,0-.42-1.32A1.5,1.5,0,0,0,85.5-6.27a1.5,1.5,0,0,0-1.17.465,1.9,1.9,0,0,0-.42,1.32v1.23a1.9,1.9,0,0,0,.42,1.32A1.5,1.5,0,0,0,85.5-1.47Zm10.395.06h-.1a2.976,2.976,0,0,1-.833,1.147A2.221,2.221,0,0,1,93.5.18a2.833,2.833,0,0,1-1.178-.24A2.389,2.389,0,0,1,91.4-.8a3.693,3.693,0,0,1-.6-1.26,6.685,6.685,0,0,1-.217-1.815A6.685,6.685,0,0,1,90.8-5.685a3.693,3.693,0,0,1,.6-1.26,2.389,2.389,0,0,1,.915-.735A2.833,2.833,0,0,1,93.5-7.92a2.606,2.606,0,0,1,.825.12,2.2,2.2,0,0,1,.637.33,2.185,2.185,0,0,1,.48.5,3.727,3.727,0,0,1,.353.638h.1V-11.1h2.22V0h-2.22Zm-1.44-.135a1.783,1.783,0,0,0,1.012-.285,1,1,0,0,0,.427-.9V-5.01a1,1,0,0,0-.427-.9,1.783,1.783,0,0,0-1.012-.285,1.461,1.461,0,0,0-1.155.457,1.846,1.846,0,0,0-.405,1.267v1.2A1.846,1.846,0,0,0,93.3-2,1.461,1.461,0,0,0,94.455-1.545Z" transform="translate(1783 1034.505)" fill="#918dff"/>
    <g id="组_18" data-name="组 18" transform="translate(3597.318 1987.849) rotate(180)">
      <circle id="椭圆_28" data-name="椭圆 28" cx="7.785" cy="7.785" r="7.785" transform="translate(1828.1 959.547)" fill="#918dff"/>
      <path id="路径_34" data-name="路径 34" d="M7.1,1.923a1,1,0,0,1,1.81,0l6.117,12.367c.312.663.135,2.711-.6,2.711H1.576C.843,17,.518,14.953.83,14.289Z" transform="translate(1828 950)" fill="#918dff"/>
      <circle id="椭圆_30" data-name="椭圆 30" cx="4.285" cy="4.285" r="4.285" transform="translate(1831.6 963.547)" fill="#fff"/>
    </g>
    <g id="组_20" data-name="组 20" transform="translate(-36 25)">
      <rect id="矩形_6" data-name="矩形 6" width="373" height="45" rx="22.5" transform="translate(1374 974)" fill="#b9a695" opacity="0.481"/>
      <path id="路径_551" data-name="路径 551" d="M7.579.676a1.684,1.684,0,0,1-.9,1.573,5.968,5.968,0,0,1-2.821.507,9.366,9.366,0,0,1-1.586-.111,3.193,3.193,0,0,1-.994-.318,1.252,1.252,0,0,1-.52-.494,1.327,1.327,0,0,1-.15-.624A1.081,1.081,0,0,1,.949.345,2.307,2.307,0,0,1,1.9-.1V-.182a1.683,1.683,0,0,1-.683-.37.9.9,0,0,1-.253-.683.83.83,0,0,1,.331-.728,2.537,2.537,0,0,1,.878-.364V-2.4a2.2,2.2,0,0,1-.929-.806A2.3,2.3,0,0,1,.91-4.472a2.432,2.432,0,0,1,.208-1.033,2,2,0,0,1,.592-.748,2.712,2.712,0,0,1,.917-.455,4.254,4.254,0,0,1,1.2-.156,4.659,4.659,0,0,1,1.183.143v-.364a.86.86,0,0,1,.273-.65,1.049,1.049,0,0,1,.754-.26H7.215v1.4H5.6v.117a2.134,2.134,0,0,1,.852.786A2.291,2.291,0,0,1,6.76-4.472a2.388,2.388,0,0,1-.208,1.027,2.043,2.043,0,0,1-.6.747,2.709,2.709,0,0,1-.93.461,4.323,4.323,0,0,1-1.2.156,4.84,4.84,0,0,1-.572-.033,3.813,3.813,0,0,1-.52-.1.82.82,0,0,0-.241.195.451.451,0,0,0-.1.3.367.367,0,0,0,.078.247.471.471,0,0,0,.214.137A1.305,1.305,0,0,0,3-1.274q.182.013.377.013H4.914a4.548,4.548,0,0,1,1.222.143,2.329,2.329,0,0,1,.832.4A1.506,1.506,0,0,1,7.436-.1,2.049,2.049,0,0,1,7.579.676ZM5.759.819A.477.477,0,0,0,5.551.41,1.464,1.464,0,0,0,4.758.26h-2.3A.689.689,0,0,0,2.2.806a.618.618,0,0,0,.266.513,1.536,1.536,0,0,0,.9.2H4.5a1.924,1.924,0,0,0,.962-.182A.576.576,0,0,0,5.759.819ZM3.822-3.3a1.116,1.116,0,0,0,.852-.286,1.026,1.026,0,0,0,.266-.728v-.312a1.026,1.026,0,0,0-.266-.728,1.116,1.116,0,0,0-.852-.286,1.075,1.075,0,0,0-.832.286,1.041,1.041,0,0,0-.26.728v.312a1.041,1.041,0,0,0,.26.728A1.075,1.075,0,0,0,3.822-3.3ZM8.762-1.5h1.547V-5.213H8.762V-6.708h3.471v1.9h.091a3.841,3.841,0,0,1,.254-.708,2.308,2.308,0,0,1,.416-.611,1.841,1.841,0,0,1,.618-.423,2.167,2.167,0,0,1,.858-.156h.637V-4.94h-1.43a1.346,1.346,0,0,0-1.079.423,1.529,1.529,0,0,0-.364,1.033V-1.5h2.21V0H8.762ZM21.931,0a1.447,1.447,0,0,1-.962-.306,1.282,1.282,0,0,1-.429-.877h-.065a1.645,1.645,0,0,1-.722,1,2.438,2.438,0,0,1-1.319.338A2.269,2.269,0,0,1,16.868-.37a1.873,1.873,0,0,1-.591-1.476,1.74,1.74,0,0,1,.767-1.56,4.1,4.1,0,0,1,2.249-.507h1.079v-.338a1.3,1.3,0,0,0-.28-.9,1.231,1.231,0,0,0-.942-.306,1.853,1.853,0,0,0-.988.234,2.29,2.29,0,0,0-.65.611l-1.053-.936a2.524,2.524,0,0,1,1.059-.943,4.048,4.048,0,0,1,1.853-.37,3.315,3.315,0,0,1,2.151.63,2.312,2.312,0,0,1,.774,1.9v2.938h.741V0ZM19.162-1.105a1.453,1.453,0,0,0,.858-.247.82.82,0,0,0,.351-.715v-.806H19.344q-1.183,0-1.183.793v.26a.6.6,0,0,0,.273.533A1.294,1.294,0,0,0,19.162-1.105Zm9.347-.117h-.091a2.579,2.579,0,0,1-.722.994,1.925,1.925,0,0,1-1.267.384,2.455,2.455,0,0,1-1.021-.208,2.07,2.07,0,0,1-.793-.637,3.2,3.2,0,0,1-.52-1.092,5.794,5.794,0,0,1-.188-1.573A5.794,5.794,0,0,1,24.1-4.927a3.2,3.2,0,0,1,.52-1.092,2.07,2.07,0,0,1,.793-.637,2.455,2.455,0,0,1,1.021-.208,2.258,2.258,0,0,1,.715.1,1.907,1.907,0,0,1,.552.286,1.893,1.893,0,0,1,.416.435,3.23,3.23,0,0,1,.306.553h.091V-9.62h1.924V0H28.509Zm-1.248-.117a1.545,1.545,0,0,0,.878-.247.87.87,0,0,0,.37-.78V-4.342a.87.87,0,0,0-.37-.78,1.545,1.545,0,0,0-.878-.247,1.266,1.266,0,0,0-1,.4,1.6,1.6,0,0,0-.351,1.1v1.04a1.6,1.6,0,0,0,.351,1.1A1.266,1.266,0,0,0,27.261-1.339ZM35.282.156A3.329,3.329,0,0,1,32.721-.78a3.593,3.593,0,0,1-.871-2.548A4.488,4.488,0,0,1,32.077-4.8a3.168,3.168,0,0,1,.65-1.118,2.749,2.749,0,0,1,1.027-.7,3.648,3.648,0,0,1,1.358-.24,3.6,3.6,0,0,1,1.352.24,2.812,2.812,0,0,1,1.014.683,3.055,3.055,0,0,1,.644,1.072,4.134,4.134,0,0,1,.228,1.411v.572H33.761v.117a1.4,1.4,0,0,0,.4,1.047,1.62,1.62,0,0,0,1.183.4,2.165,2.165,0,0,0,1.027-.227,2.433,2.433,0,0,0,.741-.6l1.04,1.131a3.246,3.246,0,0,1-1.092.832A3.974,3.974,0,0,1,35.282.156Zm-.156-5.642a1.319,1.319,0,0,0-.994.384,1.425,1.425,0,0,0-.37,1.034v.1h2.7v-.1a1.45,1.45,0,0,0-.357-1.04A1.288,1.288,0,0,0,35.126-5.486Zm18.5-1.885h-4.2L49.218-4.5h.117a3.917,3.917,0,0,1,.325-.579,1.952,1.952,0,0,1,.429-.455,1.876,1.876,0,0,1,.572-.293,2.429,2.429,0,0,1,.741-.1,2.892,2.892,0,0,1,1.059.195,2.637,2.637,0,0,1,.884.566,2.635,2.635,0,0,1,.6.91,3.181,3.181,0,0,1,.221,1.215,3.4,3.4,0,0,1-.234,1.274,2.851,2.851,0,0,1-.683,1.014,3.124,3.124,0,0,1-1.111.669,4.4,4.4,0,0,1-1.508.241A4.469,4.469,0,0,1,49.452.013a3.6,3.6,0,0,1-.917-.383,3.136,3.136,0,0,1-.689-.559,4.32,4.32,0,0,1-.5-.656L48.763-2.7a5.771,5.771,0,0,0,.331.494,2.123,2.123,0,0,0,.4.41A1.788,1.788,0,0,0,50-1.528a1.95,1.95,0,0,0,.644.1,1.432,1.432,0,0,0,1.1-.4,1.489,1.489,0,0,0,.371-1.06v-.1a1.326,1.326,0,0,0-.377-1,1.435,1.435,0,0,0-1.04-.364,1.732,1.732,0,0,0-.9.214,2.266,2.266,0,0,0-.54.422l-1.6-.221L48-9.074h5.629Zm9.542.663h1.924v1.222h.091a2.508,2.508,0,0,1,.715-.988,1.929,1.929,0,0,1,1.274-.39,2.455,2.455,0,0,1,1.02.208,2.07,2.07,0,0,1,.793.637,3.2,3.2,0,0,1,.52,1.092,5.794,5.794,0,0,1,.188,1.573A5.794,5.794,0,0,1,69.5-1.781a3.2,3.2,0,0,1-.52,1.092,2.07,2.07,0,0,1-.793.637,2.455,2.455,0,0,1-1.02.208A1.951,1.951,0,0,1,65.9-.228a2.44,2.44,0,0,1-.715-.994h-.091V2.6H63.167Zm3.172,5.369a1.266,1.266,0,0,0,1-.4,1.6,1.6,0,0,0,.351-1.1v-1.04a1.6,1.6,0,0,0-.351-1.1,1.266,1.266,0,0,0-1-.4,1.545,1.545,0,0,0-.878.247.87.87,0,0,0-.37.78v1.976a.87.87,0,0,0,.37.78A1.545,1.545,0,0,0,66.339-1.339ZM71.162-1.5h1.547V-5.213H71.162V-6.708h3.471v1.9h.091a3.841,3.841,0,0,1,.253-.708,2.308,2.308,0,0,1,.416-.611,1.841,1.841,0,0,1,.618-.423,2.167,2.167,0,0,1,.858-.156h.637V-4.94h-1.43A1.346,1.346,0,0,0,75-4.517a1.529,1.529,0,0,0-.364,1.033V-1.5h2.21V0H71.162ZM81.9.156a3.879,3.879,0,0,1-1.4-.241,2.875,2.875,0,0,1-1.06-.7,3.085,3.085,0,0,1-.67-1.105,4.318,4.318,0,0,1-.234-1.469,4.318,4.318,0,0,1,.234-1.469,3.085,3.085,0,0,1,.67-1.105,2.875,2.875,0,0,1,1.06-.7,3.879,3.879,0,0,1,1.4-.24,3.879,3.879,0,0,1,1.4.24,2.875,2.875,0,0,1,1.06.7,3.085,3.085,0,0,1,.669,1.105,4.318,4.318,0,0,1,.234,1.469,4.318,4.318,0,0,1-.234,1.469A3.085,3.085,0,0,1,84.364-.78a2.875,2.875,0,0,1-1.06.7A3.879,3.879,0,0,1,81.9.156Zm0-1.43a1.3,1.3,0,0,0,1.014-.4,1.648,1.648,0,0,0,.364-1.144V-3.887a1.648,1.648,0,0,0-.364-1.144,1.3,1.3,0,0,0-1.014-.4,1.3,1.3,0,0,0-1.014.4,1.648,1.648,0,0,0-.364,1.144v1.066a1.648,1.648,0,0,0,.364,1.144A1.3,1.3,0,0,0,81.9-1.274Zm9.009.052h-.091a2.579,2.579,0,0,1-.721.994,1.925,1.925,0,0,1-1.268.384,2.455,2.455,0,0,1-1.021-.208,2.07,2.07,0,0,1-.793-.637,3.2,3.2,0,0,1-.52-1.092,5.794,5.794,0,0,1-.188-1.573A5.794,5.794,0,0,1,86.5-4.927a3.2,3.2,0,0,1,.52-1.092,2.07,2.07,0,0,1,.793-.637,2.455,2.455,0,0,1,1.021-.208,2.258,2.258,0,0,1,.715.1,1.907,1.907,0,0,1,.552.286,1.893,1.893,0,0,1,.416.435,3.23,3.23,0,0,1,.305.553h.091V-9.62h1.924V0H90.909Zm-1.248-.117a1.545,1.545,0,0,0,.878-.247.87.87,0,0,0,.37-.78V-4.342a.87.87,0,0,0-.37-.78,1.545,1.545,0,0,0-.878-.247,1.266,1.266,0,0,0-1,.4,1.6,1.6,0,0,0-.351,1.1v1.04a1.6,1.6,0,0,0,.351,1.1A1.266,1.266,0,0,0,89.661-1.339Zm8.97.117h-.078a2.393,2.393,0,0,1-.7.975,1.913,1.913,0,0,1-1.281.4,2.343,2.343,0,0,1-.884-.163A1.8,1.8,0,0,1,95-.494a2.352,2.352,0,0,1-.449-.793,3.285,3.285,0,0,1-.162-1.079V-6.708h1.924v4.082q0,1.3,1.131,1.3a1.648,1.648,0,0,0,.436-.059,1.09,1.09,0,0,0,.377-.182,1.006,1.006,0,0,0,.267-.306.85.85,0,0,0,.1-.429V-6.708h1.924V0H98.631ZM105.573.156a3.971,3.971,0,0,1-1.424-.241,2.865,2.865,0,0,1-1.066-.7,3.085,3.085,0,0,1-.67-1.105,4.318,4.318,0,0,1-.234-1.469,4.318,4.318,0,0,1,.234-1.469,3.085,3.085,0,0,1,.67-1.105,2.865,2.865,0,0,1,1.066-.7,3.932,3.932,0,0,1,1.41-.24,3.139,3.139,0,0,1,1.775.449,2.9,2.9,0,0,1,1.021,1.189l-1.482.806a1.971,1.971,0,0,0-.475-.65,1.222,1.222,0,0,0-.839-.26,1.327,1.327,0,0,0-1.02.384,1.474,1.474,0,0,0-.358,1.046v1.092a1.474,1.474,0,0,0,.358,1.047,1.361,1.361,0,0,0,1.046.383,1.349,1.349,0,0,0,.878-.26A2.175,2.175,0,0,0,107-2.314l1.456.832A2.925,2.925,0,0,1,107.4-.293,3.324,3.324,0,0,1,105.573.156ZM113.62,0a2.013,2.013,0,0,1-1.547-.546,1.964,1.964,0,0,1-.507-1.391V-5.213h-1.82V-6.708h1.183a.888.888,0,0,0,.611-.169.838.838,0,0,0,.182-.624V-9.074h1.768v2.366H116.1v1.495H113.49V-1.5H116.1V0Zm16.289-1.222h-.091a2.579,2.579,0,0,1-.722.994,1.925,1.925,0,0,1-1.267.384,2.455,2.455,0,0,1-1.021-.208,2.07,2.07,0,0,1-.793-.637,3.2,3.2,0,0,1-.52-1.092,5.794,5.794,0,0,1-.188-1.573,5.794,5.794,0,0,1,.188-1.573,3.2,3.2,0,0,1,.52-1.092,2.07,2.07,0,0,1,.793-.637,2.455,2.455,0,0,1,1.021-.208,2.258,2.258,0,0,1,.715.1,1.906,1.906,0,0,1,.552.286,1.893,1.893,0,0,1,.416.435,3.23,3.23,0,0,1,.306.553h.091V-9.62h1.924V0h-1.924Zm-1.248-.117a1.545,1.545,0,0,0,.878-.247.87.87,0,0,0,.37-.78V-4.342a.87.87,0,0,0-.37-.78,1.545,1.545,0,0,0-.878-.247,1.266,1.266,0,0,0-1,.4,1.6,1.6,0,0,0-.351,1.1v1.04a1.6,1.6,0,0,0,.351,1.1A1.266,1.266,0,0,0,128.661-1.339ZM136.682.156a3.329,3.329,0,0,1-2.561-.936,3.593,3.593,0,0,1-.871-2.548,4.488,4.488,0,0,1,.228-1.476,3.168,3.168,0,0,1,.65-1.118,2.749,2.749,0,0,1,1.027-.7,3.648,3.648,0,0,1,1.358-.24,3.6,3.6,0,0,1,1.352.24,2.812,2.812,0,0,1,1.014.683,3.055,3.055,0,0,1,.643,1.072,4.134,4.134,0,0,1,.227,1.411v.572h-4.589v.117a1.4,1.4,0,0,0,.4,1.047,1.62,1.62,0,0,0,1.183.4,2.165,2.165,0,0,0,1.027-.227,2.433,2.433,0,0,0,.741-.6l1.04,1.131a3.246,3.246,0,0,1-1.092.832A3.974,3.974,0,0,1,136.682.156Zm-.156-5.642a1.319,1.319,0,0,0-.994.384,1.425,1.425,0,0,0-.37,1.034v.1h2.7v-.1a1.45,1.45,0,0,0-.357-1.04A1.288,1.288,0,0,0,136.526-5.486ZM144.82,0a2.013,2.013,0,0,1-1.547-.546,1.964,1.964,0,0,1-.507-1.391V-5.213h-1.82V-6.708h1.183a.888.888,0,0,0,.611-.169.838.838,0,0,0,.182-.624V-9.074h1.768v2.366H147.3v1.495H144.69V-1.5H147.3V0Zm7.462.156a3.329,3.329,0,0,1-2.561-.936,3.593,3.593,0,0,1-.871-2.548,4.488,4.488,0,0,1,.228-1.476,3.168,3.168,0,0,1,.65-1.118,2.749,2.749,0,0,1,1.027-.7,3.648,3.648,0,0,1,1.358-.24,3.6,3.6,0,0,1,1.352.24,2.812,2.812,0,0,1,1.014.683,3.055,3.055,0,0,1,.643,1.072,4.134,4.134,0,0,1,.227,1.411v.572h-4.589v.117a1.4,1.4,0,0,0,.4,1.047,1.62,1.62,0,0,0,1.183.4,2.165,2.165,0,0,0,1.027-.227,2.433,2.433,0,0,0,.741-.6l1.04,1.131a3.246,3.246,0,0,1-1.092.832A3.974,3.974,0,0,1,152.282.156Zm-.156-5.642a1.319,1.319,0,0,0-.994.384,1.425,1.425,0,0,0-.37,1.034v.1h2.7v-.1a1.45,1.45,0,0,0-.357-1.04A1.288,1.288,0,0,0,152.126-5.486ZM160.173.156a3.971,3.971,0,0,1-1.424-.241,2.865,2.865,0,0,1-1.066-.7,3.085,3.085,0,0,1-.669-1.105,4.318,4.318,0,0,1-.234-1.469,4.318,4.318,0,0,1,.234-1.469,3.085,3.085,0,0,1,.669-1.105,2.865,2.865,0,0,1,1.066-.7,3.932,3.932,0,0,1,1.411-.24,3.139,3.139,0,0,1,1.774.449,2.9,2.9,0,0,1,1.021,1.189l-1.482.806A1.972,1.972,0,0,0,161-5.07a1.222,1.222,0,0,0-.839-.26,1.327,1.327,0,0,0-1.021.384,1.474,1.474,0,0,0-.357,1.046v1.092a1.474,1.474,0,0,0,.357,1.047,1.362,1.362,0,0,0,1.047.383,1.349,1.349,0,0,0,.878-.26,2.175,2.175,0,0,0,.539-.676l1.456.832A2.925,2.925,0,0,1,162-.293,3.324,3.324,0,0,1,160.173.156ZM168.22,0a2.013,2.013,0,0,1-1.547-.546,1.964,1.964,0,0,1-.507-1.391V-5.213h-1.82V-6.708h1.183a.888.888,0,0,0,.611-.169.838.838,0,0,0,.182-.624V-9.074h1.768v2.366H170.7v1.495H168.09V-1.5H170.7V0Zm7.7-7.566a1.223,1.223,0,0,1-.9-.267.9.9,0,0,1-.254-.643v-.377a.894.894,0,0,1,.254-.65,1.243,1.243,0,0,1,.9-.26,1.243,1.243,0,0,1,.9.26.894.894,0,0,1,.254.65v.377a.9.9,0,0,1-.254.643A1.223,1.223,0,0,1,175.916-7.566ZM172.822-1.5h2.132V-5.213h-2.132V-6.708h4.056V-1.5h1.976V0h-6.032ZM183.3.156a3.879,3.879,0,0,1-1.4-.241,2.875,2.875,0,0,1-1.06-.7,3.086,3.086,0,0,1-.669-1.105,4.318,4.318,0,0,1-.234-1.469,4.318,4.318,0,0,1,.234-1.469,3.086,3.086,0,0,1,.669-1.105,2.875,2.875,0,0,1,1.06-.7,3.879,3.879,0,0,1,1.4-.24,3.879,3.879,0,0,1,1.4.24,2.875,2.875,0,0,1,1.059.7,3.086,3.086,0,0,1,.67,1.105,4.318,4.318,0,0,1,.234,1.469,4.318,4.318,0,0,1-.234,1.469,3.086,3.086,0,0,1-.67,1.105,2.875,2.875,0,0,1-1.059.7A3.879,3.879,0,0,1,183.3.156Zm0-1.43a1.3,1.3,0,0,0,1.014-.4,1.648,1.648,0,0,0,.364-1.144V-3.887a1.648,1.648,0,0,0-.364-1.144,1.3,1.3,0,0,0-1.014-.4,1.3,1.3,0,0,0-1.014.4,1.648,1.648,0,0,0-.364,1.144v1.066a1.648,1.648,0,0,0,.364,1.144A1.3,1.3,0,0,0,183.3-1.274ZM188.045,0V-6.708h1.924v1.222h.078a2.856,2.856,0,0,1,.286-.533,1.95,1.95,0,0,1,.41-.435,1.916,1.916,0,0,1,.559-.3,2.194,2.194,0,0,1,.721-.11,2.343,2.343,0,0,1,.884.162,1.8,1.8,0,0,1,.689.488,2.352,2.352,0,0,1,.449.793,3.285,3.285,0,0,1,.163,1.079V0h-1.924V-4.082q0-1.3-1.131-1.3a1.648,1.648,0,0,0-.436.058,1.161,1.161,0,0,0-.383.182.9.9,0,0,0-.266.306.9.9,0,0,0-.1.429V0Zm10.777.156a5.11,5.11,0,0,1-1.944-.338,2.75,2.75,0,0,1-1.242-.923l1.079-1a2.8,2.8,0,0,0,.917.669,2.864,2.864,0,0,0,1.2.24,1.9,1.9,0,0,0,.9-.176.575.575,0,0,0,.325-.539.4.4,0,0,0-.221-.4,2.216,2.216,0,0,0-.611-.176l-1.079-.169a4.466,4.466,0,0,1-.845-.2,2.208,2.208,0,0,1-.676-.37,1.728,1.728,0,0,1-.455-.572A1.816,1.816,0,0,1,196-4.615a1.942,1.942,0,0,1,.806-1.651,3.735,3.735,0,0,1,2.262-.6,4.716,4.716,0,0,1,1.684.266,2.664,2.664,0,0,1,1.111.76L200.9-4.745a2.444,2.444,0,0,0-.767-.546A2.632,2.632,0,0,0,199-5.512q-1.118,0-1.118.676a.415.415,0,0,0,.221.41,2.216,2.216,0,0,0,.611.175l1.066.169a4.466,4.466,0,0,1,.845.2,2.3,2.3,0,0,1,.682.37,1.693,1.693,0,0,1,.462.572,1.816,1.816,0,0,1,.169.819,1.971,1.971,0,0,1-.812,1.664A3.779,3.779,0,0,1,198.822.156ZM216.931,0a1.447,1.447,0,0,1-.962-.306,1.282,1.282,0,0,1-.429-.877h-.065a1.645,1.645,0,0,1-.721,1,2.438,2.438,0,0,1-1.32.338,2.269,2.269,0,0,1-1.566-.527,1.873,1.873,0,0,1-.592-1.476,1.74,1.74,0,0,1,.767-1.56,4.1,4.1,0,0,1,2.249-.507h1.079v-.338a1.3,1.3,0,0,0-.279-.9,1.231,1.231,0,0,0-.943-.306,1.853,1.853,0,0,0-.988.234,2.29,2.29,0,0,0-.65.611l-1.053-.936a2.524,2.524,0,0,1,1.059-.943,4.049,4.049,0,0,1,1.853-.37,3.315,3.315,0,0,1,2.151.63,2.312,2.312,0,0,1,.774,1.9v2.938h.741V0Zm-2.769-1.105a1.453,1.453,0,0,0,.858-.247.82.82,0,0,0,.351-.715v-.806h-1.027q-1.183,0-1.183.793v.26a.6.6,0,0,0,.273.533A1.294,1.294,0,0,0,214.162-1.105ZM222.573.156a3.971,3.971,0,0,1-1.424-.241,2.865,2.865,0,0,1-1.066-.7,3.085,3.085,0,0,1-.669-1.105,4.318,4.318,0,0,1-.234-1.469,4.318,4.318,0,0,1,.234-1.469,3.085,3.085,0,0,1,.669-1.105,2.865,2.865,0,0,1,1.066-.7,3.932,3.932,0,0,1,1.411-.24,3.139,3.139,0,0,1,1.774.449,2.9,2.9,0,0,1,1.021,1.189l-1.482.806a1.972,1.972,0,0,0-.475-.65,1.222,1.222,0,0,0-.839-.26,1.327,1.327,0,0,0-1.021.384,1.474,1.474,0,0,0-.357,1.046v1.092a1.474,1.474,0,0,0,.357,1.047,1.362,1.362,0,0,0,1.047.383,1.349,1.349,0,0,0,.878-.26A2.175,2.175,0,0,0,224-2.314l1.456.832A2.925,2.925,0,0,1,224.4-.293,3.324,3.324,0,0,1,222.573.156Zm7.8,0a3.971,3.971,0,0,1-1.424-.241,2.865,2.865,0,0,1-1.066-.7,3.085,3.085,0,0,1-.669-1.105,4.318,4.318,0,0,1-.234-1.469,4.318,4.318,0,0,1,.234-1.469,3.085,3.085,0,0,1,.669-1.105,2.865,2.865,0,0,1,1.066-.7,3.932,3.932,0,0,1,1.411-.24,3.139,3.139,0,0,1,1.774.449,2.9,2.9,0,0,1,1.021,1.189l-1.482.806a1.972,1.972,0,0,0-.475-.65,1.222,1.222,0,0,0-.839-.26,1.327,1.327,0,0,0-1.021.384,1.474,1.474,0,0,0-.357,1.046v1.092a1.474,1.474,0,0,0,.357,1.047,1.362,1.362,0,0,0,1.047.383,1.349,1.349,0,0,0,.878-.26,2.175,2.175,0,0,0,.539-.676l1.456.832A2.925,2.925,0,0,1,232.2-.293,3.324,3.324,0,0,1,230.373.156Zm7.527,0a3.879,3.879,0,0,1-1.4-.241,2.875,2.875,0,0,1-1.06-.7,3.086,3.086,0,0,1-.669-1.105,4.318,4.318,0,0,1-.234-1.469,4.318,4.318,0,0,1,.234-1.469,3.086,3.086,0,0,1,.669-1.105,2.875,2.875,0,0,1,1.06-.7,3.879,3.879,0,0,1,1.4-.24,3.879,3.879,0,0,1,1.4.24,2.875,2.875,0,0,1,1.059.7,3.086,3.086,0,0,1,.67,1.105,4.318,4.318,0,0,1,.234,1.469,4.318,4.318,0,0,1-.234,1.469,3.086,3.086,0,0,1-.67,1.105,2.875,2.875,0,0,1-1.059.7A3.879,3.879,0,0,1,237.9.156Zm0-1.43a1.3,1.3,0,0,0,1.014-.4,1.648,1.648,0,0,0,.364-1.144V-3.887a1.648,1.648,0,0,0-.364-1.144,1.3,1.3,0,0,0-1.014-.4,1.3,1.3,0,0,0-1.014.4,1.648,1.648,0,0,0-.364,1.144v1.066a1.648,1.648,0,0,0,.364,1.144A1.3,1.3,0,0,0,237.9-1.274ZM242.19,0V-6.708h1.547v.988h.091a2.353,2.353,0,0,1,.449-.806,1.033,1.033,0,0,1,.826-.338q.975,0,1.2,1.144h.078a2.534,2.534,0,0,1,.195-.442,1.476,1.476,0,0,1,.286-.364,1.26,1.26,0,0,1,.4-.247,1.5,1.5,0,0,1,.546-.091q1.4,0,1.4,2.067V0h-1.547V-4.6a1.017,1.017,0,0,0-.163-.656.532.532,0,0,0-.423-.188.6.6,0,0,0-.423.162.651.651,0,0,0-.175.5V0h-1.56V-4.6a1.084,1.084,0,0,0-.149-.656.494.494,0,0,0-.41-.188.64.64,0,0,0-.442.162.638.638,0,0,0-.182.5V0Zm8.177-6.708h1.924v1.222h.091a2.508,2.508,0,0,1,.715-.988,1.929,1.929,0,0,1,1.274-.39,2.455,2.455,0,0,1,1.021.208,2.07,2.07,0,0,1,.793.637,3.2,3.2,0,0,1,.52,1.092,5.794,5.794,0,0,1,.189,1.573,5.794,5.794,0,0,1-.189,1.573,3.2,3.2,0,0,1-.52,1.092,2.07,2.07,0,0,1-.793.637,2.455,2.455,0,0,1-1.021.208A1.951,1.951,0,0,1,253.1-.228a2.44,2.44,0,0,1-.715-.994h-.091V2.6h-1.924Zm3.172,5.369a1.266,1.266,0,0,0,1-.4,1.6,1.6,0,0,0,.351-1.1v-1.04a1.6,1.6,0,0,0-.351-1.1,1.266,1.266,0,0,0-1-.4,1.545,1.545,0,0,0-.878.247.87.87,0,0,0-.37.78v1.976a.87.87,0,0,0,.37.78A1.545,1.545,0,0,0,253.539-1.339Zm4.745-.156h2.054v-6.63h-2.054V-9.62h3.978V-1.5h2.054V0h-6.032Zm11.232-6.071a1.223,1.223,0,0,1-.9-.267.9.9,0,0,1-.254-.643v-.377a.894.894,0,0,1,.254-.65,1.243,1.243,0,0,1,.9-.26,1.243,1.243,0,0,1,.9.26.894.894,0,0,1,.253.65v.377a.9.9,0,0,1-.253.643A1.223,1.223,0,0,1,269.516-7.566ZM266.422-1.5h2.132V-5.213h-2.132V-6.708h4.056V-1.5h1.976V0h-6.032Zm10.4,1.651a5.109,5.109,0,0,1-1.943-.338,2.751,2.751,0,0,1-1.242-.923l1.079-1a2.8,2.8,0,0,0,.917.669,2.864,2.864,0,0,0,1.2.24,1.9,1.9,0,0,0,.9-.176.575.575,0,0,0,.325-.539.4.4,0,0,0-.221-.4,2.216,2.216,0,0,0-.611-.176l-1.079-.169a4.466,4.466,0,0,1-.845-.2,2.208,2.208,0,0,1-.676-.37,1.728,1.728,0,0,1-.455-.572A1.816,1.816,0,0,1,274-4.615a1.942,1.942,0,0,1,.806-1.651,3.734,3.734,0,0,1,2.262-.6,4.716,4.716,0,0,1,1.684.266,2.664,2.664,0,0,1,1.112.76L278.9-4.745a2.445,2.445,0,0,0-.767-.546A2.632,2.632,0,0,0,277-5.512q-1.118,0-1.118.676a.415.415,0,0,0,.221.41,2.216,2.216,0,0,0,.611.175l1.066.169a4.465,4.465,0,0,1,.845.2,2.3,2.3,0,0,1,.682.37,1.693,1.693,0,0,1,.462.572,1.816,1.816,0,0,1,.169.819,1.971,1.971,0,0,1-.812,1.664A3.779,3.779,0,0,1,276.822.156Zm4.823-9.776h1.924v4.134h.078a2.855,2.855,0,0,1,.286-.533,1.95,1.95,0,0,1,.41-.435,1.915,1.915,0,0,1,.559-.3,2.194,2.194,0,0,1,.721-.11,2.343,2.343,0,0,1,.884.162,1.8,1.8,0,0,1,.689.488,2.352,2.352,0,0,1,.449.793,3.285,3.285,0,0,1,.162,1.079V0h-1.924V-4.082q0-1.3-1.131-1.3a1.648,1.648,0,0,0-.435.058,1.161,1.161,0,0,0-.384.182.9.9,0,0,0-.267.306.9.9,0,0,0-.1.429V0h-1.924ZM292.682.156a3.329,3.329,0,0,1-2.561-.936,3.593,3.593,0,0,1-.871-2.548,4.488,4.488,0,0,1,.228-1.476,3.168,3.168,0,0,1,.65-1.118,2.749,2.749,0,0,1,1.027-.7,3.648,3.648,0,0,1,1.358-.24,3.6,3.6,0,0,1,1.352.24,2.812,2.812,0,0,1,1.014.683,3.055,3.055,0,0,1,.644,1.072,4.134,4.134,0,0,1,.227,1.411v.572h-4.589v.117a1.4,1.4,0,0,0,.4,1.047,1.62,1.62,0,0,0,1.183.4,2.165,2.165,0,0,0,1.027-.227,2.433,2.433,0,0,0,.741-.6l1.04,1.131a3.246,3.246,0,0,1-1.092.832A3.974,3.974,0,0,1,292.682.156Zm-.156-5.642a1.319,1.319,0,0,0-.995.384,1.425,1.425,0,0,0-.37,1.034v.1h2.7v-.1a1.45,1.45,0,0,0-.358-1.04A1.288,1.288,0,0,0,292.526-5.486Zm8.983,4.264h-.091a2.58,2.58,0,0,1-.721.994,1.925,1.925,0,0,1-1.268.384,2.455,2.455,0,0,1-1.02-.208,2.07,2.07,0,0,1-.793-.637,3.2,3.2,0,0,1-.52-1.092,5.794,5.794,0,0,1-.189-1.573,5.794,5.794,0,0,1,.189-1.573,3.2,3.2,0,0,1,.52-1.092,2.07,2.07,0,0,1,.793-.637,2.455,2.455,0,0,1,1.02-.208,2.258,2.258,0,0,1,.715.1,1.907,1.907,0,0,1,.553.286,1.894,1.894,0,0,1,.416.435,3.23,3.23,0,0,1,.306.553h.091V-9.62h1.924V0h-1.924Zm-1.248-.117a1.545,1.545,0,0,0,.878-.247.87.87,0,0,0,.371-.78V-4.342a.87.87,0,0,0-.371-.78,1.545,1.545,0,0,0-.878-.247,1.266,1.266,0,0,0-1,.4,1.6,1.6,0,0,0-.351,1.1v1.04a1.6,1.6,0,0,0,.351,1.1A1.266,1.266,0,0,0,300.261-1.339Zm7.527-1.82-.741-3.276V-9.074h2.106v2.639l-.741,3.276ZM308.1.156a1.333,1.333,0,0,1-.988-.3,1,1,0,0,1-.286-.715v-.416a.972.972,0,0,1,.292-.7,1.336,1.336,0,0,1,.982-.3,1.336,1.336,0,0,1,.982.3.971.971,0,0,1,.293.7v.416a1,1,0,0,1-.286.715A1.333,1.333,0,0,1,308.1.156Z" transform="translate(1421 1001)" fill="#8e7965"/>
      <circle id="椭圆_31" data-name="椭圆 31" cx="16" cy="16" r="16" transform="translate(1381 980)" fill="#aa6010" opacity="0.166"/>
      <path id="路径_552" data-name="路径 552" d="M6.78,0V-2.68H.5V-5.24l5.56-8.72h3.6V-5h1.8v2.32H9.66V0ZM2.92-5H6.78v-5.86H6.6Z" transform="translate(1391 1003)" fill="#aa6011"/>
    </g>
    <g id="组_286" data-name="组 286" transform="translate(1444.61 526.475)">
      <g data-type="innerShadowGroup">
        <path id="路径_3-2" data-name="路径 3" d="M9.047,0H127.781S120.2,18.45,120.2,36.873s7.582,36.82,7.582,36.82L9.569,74.8s-.522-15.961-.522-34.384Z" transform="translate(290.678 382.856)" fill="#bcbefd"/>
        <g transform="matrix(1, 0, 0, 1, -106.61, 372.43)" filter="url(#路径_3)">
          <path id="路径_3-3" data-name="路径 3" d="M9.047,0H127.781S120.2,18.45,120.2,36.873s7.582,36.82,7.582,36.82L9.569,74.8s-.522-15.961-.522-34.384Z" transform="translate(397.29 10.42)" fill="#fff"/>
        </g>
      </g>
      <g data-type="innerShadowGroup">
        <g transform="matrix(1, 0, 0, 1, -106.61, 372.43)" filter="url(#路径_2)">
          <path id="路径_2-3" data-name="路径 2" d="M234.974,541.184c1.423-2.828,17.843-6.513,26.362-6.963s6.937,1.7,21.071,2.863,20.785.956,34.263-1.777,44.278-5.076,55.981,0,2.645,9.489-2.57,10.945-14.645,3.083-30.951,3.092-22.929-1.989-41.792,0-25.605,5.05-41.047,2.858S233.551,544.012,234.974,541.184Z" transform="translate(172.31 -456.79)" fill="#ffedc8"/>
        </g>
        <g transform="matrix(1, 0, 0, 1, -106.61, 372.43)" filter="url(#路径_2-2)">
          <path id="路径_2-4" data-name="路径 2" d="M234.974,541.184c1.423-2.828,17.843-6.513,26.362-6.963s6.937,1.7,21.071,2.863,20.785.956,34.263-1.777,44.278-5.076,55.981,0,2.645,9.489-2.57,10.945-14.645,3.083-30.951,3.092-22.929-1.989-41.792,0-25.605,5.05-41.047,2.858S233.551,544.012,234.974,541.184Z" transform="translate(172.31 -456.79)" fill="#fff"/>
        </g>
      </g>
      <path id="路径_6" data-name="路径 6" d="M274.669,460.9c-5.551,4.37-9.373,7.557-2.233,11.363s10.471,5.292,25.345,4.807,16.608.4,19.769-2.452,3.217-7.387-2-12.26S304.677,452.125,294.3,453.7,280.219,456.532,274.669,460.9Z" transform="translate(31.469 -16.319)" fill="url(#radial-gradient)"/>
      <path id="路径_4" data-name="路径 4" d="M-3.086,3.419S.231,7.324,14,9.2a122.019,122.019,0,0,0,20.364.927A133.019,133.019,0,0,0,54.213,7.686V82.437s-18.388,4.78-32.161,3.145C14.422,84.676,7.2,82.42,2.734,79.5a12.964,12.964,0,0,1-4.549-5.135Z" transform="translate(302 383.258)" fill="#c3a7f8" opacity="0.501"/>
      <path id="路径_8" data-name="路径 8" d="M-.674,16.466l51.413-5s.42,12.8,0,16.1-27.642-.8-36.162,0S-.642,31.747-.674,30.29-.674,16.466-.674,16.466Z" transform="translate(379.813 423.953)" fill="url(#linear-gradient)"/>
      <g data-type="innerShadowGroup">
        <path id="路径_7-2" data-name="路径 7" d="M-2.3,15.845l52.571-4.551s.42,12.918,0,16.222-14.206,7.062-22.727,7.861S-2.229,35.527-2.3,33.05-2.3,15.845-2.3,15.845Z" transform="translate(393.931 429.009)" fill="url(#linear-gradient-2)"/>
        <g transform="matrix(1, 0, 0, 1, -106.61, 372.43)" filter="url(#路径_7)">
          <path id="路径_7-3" data-name="路径 7" d="M-2.3,15.845l52.571-4.551s.42,12.918,0,16.222-14.206,7.062-22.727,7.861S-2.229,35.527-2.3,33.05-2.3,15.845-2.3,15.845Z" transform="translate(500.54 56.57)" fill="#fff"/>
        </g>
      </g>
      <path id="路径_9" data-name="路径 9" d="M35.654,1.021c17.979,0,29.283,2.945,29.283,7.094,0,2.85-15.515,5.406-31.053,6.087a132.4,132.4,0,0,1-19.2-.556c-3.637-.528-3.295-2.679,5.05-2.816A164.952,164.952,0,0,0,45.2,8.544c10.636-1.664,5.388-3.061-8.506-2.8s-21,1.9-28.336,2.8c-8.34,1.024-8.3.367-8.3-.429,0-1.867,4.06-3.054,9.137-4.494C14.95,1.986,25.765,1.021,35.654,1.021Z" transform="translate(379.122 432.632)" fill="#fceac6"/>
      <g data-type="innerShadowGroup">
        <path id="路径_10-2" data-name="路径 10" d="M7.336-1.568h10.1c3.556,0,7.606,4,7.606,7.561v41.5A6.439,6.439,0,0,1,18.6,53.929H6.439A6.439,6.439,0,0,1,0,47.49V5.993C0,2.437,3.779-1.568,7.336-1.568Z" transform="translate(351.205 402.619)" fill="#a7a9ff"/>
        <g transform="matrix(1, 0, 0, 1, -106.61, 372.43)" filter="url(#路径_10)">
          <path id="路径_10-3" data-name="路径 10" d="M7.336-1.568h10.1c3.556,0,7.606,4,7.606,7.561v41.5A6.439,6.439,0,0,1,18.6,53.929H6.439A6.439,6.439,0,0,1,0,47.49V5.993C0,2.437,3.779-1.568,7.336-1.568Z" transform="translate(457.82 30.18)" fill="#fff"/>
        </g>
      </g>
      <path id="路径_12" data-name="路径 12" d="M0,0H37.2S14.18,29.686,10.506,32.47s-6.919-.664-8.681-3.157S0,0,0,0Z" transform="translate(378.392 377.132)" fill="#9a9ceb"/>
      <g data-type="innerShadowGroup">
        <path id="路径_11-2" data-name="路径 11" d="M-.364,0h37.2s3.674,24.4,0,27.188S6.272,29.969,1.461,29.313-.364,0-.364,0Z" transform="translate(385.196 381.425)" fill="#a7a9ff"/>
        <g transform="matrix(1, 0, 0, 1, -106.61, 372.43)" filter="url(#路径_11)">
          <path id="路径_11-3" data-name="路径 11" d="M-.364,0h37.2s3.674,24.4,0,27.188S6.272,29.969,1.461,29.313-.364,0-.364,0Z" transform="translate(491.81 8.99)" fill="#fff"/>
        </g>
      </g>
      <g data-type="innerShadowGroup">
        <circle id="椭圆_1-2" data-name="椭圆 1" cx="1.253" cy="1.253" r="1.253" transform="translate(355.091 424.489)" fill="#faf6c7"/>
        <g transform="matrix(1, 0, 0, 1, -106.61, 372.43)" filter="url(#椭圆_1)">
          <circle id="椭圆_1-3" data-name="椭圆 1" cx="1.253" cy="1.253" r="1.253" transform="translate(461.7 52.05)" fill="#fff"/>
        </g>
      </g>
      <g data-type="innerShadowGroup">
        <circle id="椭圆_2-2" data-name="椭圆 2" cx="1.253" cy="1.253" r="1.253" transform="translate(355.091 430.756)" fill="#faf6c7"/>
        <g transform="matrix(1, 0, 0, 1, -106.61, 372.43)" filter="url(#椭圆_2)">
          <circle id="椭圆_2-3" data-name="椭圆 2" cx="1.253" cy="1.253" r="1.253" transform="translate(461.7 58.32)" fill="#fff"/>
        </g>
      </g>
      <g data-type="innerShadowGroup">
        <circle id="椭圆_3-2" data-name="椭圆 3" cx="1.253" cy="1.253" r="1.253" transform="translate(401.468 404.435)" fill="#faf6c7"/>
        <g transform="matrix(1, 0, 0, 1, -106.61, 372.43)" filter="url(#椭圆_3)">
          <circle id="椭圆_3-3" data-name="椭圆 3" cx="1.253" cy="1.253" r="1.253" transform="translate(508.08 32)" fill="#fff"/>
        </g>
      </g>
      <g data-type="innerShadowGroup">
        <circle id="椭圆_4-2" data-name="椭圆 4" cx="1.253" cy="1.253" r="1.253" transform="translate(406.482 404.435)" fill="#faf6c7"/>
        <g transform="matrix(1, 0, 0, 1, -106.61, 372.43)" filter="url(#椭圆_4)">
          <circle id="椭圆_4-3" data-name="椭圆 4" cx="1.253" cy="1.253" r="1.253" transform="translate(513.09 32)" fill="#fff"/>
        </g>
      </g>
      <path id="路径_13" data-name="路径 13" d="M0,0S5.83.517,12.09.517,25.041,0,25.041,0" transform="translate(351.205 428.8)" fill="none" stroke="#9a9ceb" stroke-width="1"/>
      <path id="路径_14" data-name="路径 14" d="M0,2.068s4.756.186,12.408-.309A115.563,115.563,0,0,0,26.3,0" transform="matrix(0.07, -0.998, 0.998, 0.07, 402.99, 410.722)" fill="none" stroke="#9a9ceb" stroke-width="1"/>
      <g data-type="innerShadowGroup">
        <path id="路径_1-2" data-name="路径 1" d="M233.24,542.446c1.423-2.828,4.673-9.371,31.014-10.081s19.876,4.875,35.05,4.154,11.657-.112,25.136-2.845,35.911-3.694,47.614,1.382,2.645,9.489-2.57,10.945-14.645,3.083-30.951,3.092-23.459-1.033-43.05,1.284-32.394,5.177-47.836,2.986S231.817,545.274,233.24,542.446Z" transform="translate(66.291 -159)" fill="#ffedc8"/>
        <g transform="matrix(1, 0, 0, 1, -106.61, 372.43)" filter="url(#路径_1)">
          <path id="路径_1-3" data-name="路径 1" d="M233.24,542.446c1.423-2.828,4.673-9.371,31.014-10.081s19.876,4.875,35.05,4.154,11.657-.112,25.136-2.845,35.911-3.694,47.614,1.382,2.645,9.489-2.57,10.945-14.645,3.083-30.951,3.092-23.459-1.033-43.05,1.284-32.394,5.177-47.836,2.986S231.817,545.274,233.24,542.446Z" transform="translate(172.9 -531.43)" fill="#fff"/>
        </g>
      </g>
      <g id="组_1" data-name="组 1" transform="translate(381.977 429.756)">
        <g data-type="innerShadowGroup">
          <path id="路径_16-4" data-name="路径 16" d="M-.792.718l4.306,1v7.01S.644,8.593-.4,6.583-.792.718-.792.718Z" transform="translate(0.99 2.47)" fill="#c2f2e5"/>
          <g transform="matrix(1, 0, 0, 1, -488.59, -57.32)" filter="url(#路径_16)">
            <path id="路径_16-5" data-name="路径 16" d="M-.792.718l4.306,1v7.01S.644,8.593-.4,6.583-.792.718-.792.718Z" transform="translate(489.58 59.79)" fill="#fff"/>
          </g>
        </g>
        <path id="路径_17-4" data-name="路径 17" d="M-4.894,5.263c1.832-1.04,6.408-1.946,10.441-2s5.564,2.486,5.564,2.486S2.363,8.2-1.638,8.083-6.726,6.3-4.894,5.263Z" transform="translate(5.923 -3.263)" fill="#edc7c7"/>
        <g data-type="innerShadowGroup">
          <path id="路径_15-4" data-name="路径 15" d="M.376-2.135c3.156-2.193,9.942-1.985,11.894-.554s0,7.155,0,7.155L-.354,6.081S-2.78.057.376-2.135Z" transform="translate(4.639 5.179)" fill="#fcd0d0"/>
          <g transform="matrix(1, 0, 0, 1, -488.59, -57.32)" filter="url(#路径_15)">
            <path id="路径_15-5" data-name="路径 15" d="M.376-2.135c3.156-2.193,9.942-1.985,11.894-.554s0,7.155,0,7.155L-.354,6.081S-2.78.057.376-2.135Z" transform="translate(493.23 62.5)" fill="#fff"/>
          </g>
        </g>
        <path id="路径_27" data-name="路径 27" d="M0,0A4.3,4.3,0,0,1,.422,1.72,5.436,5.436,0,0,1,0,3.577" transform="translate(4.643 5.686)" fill="none" stroke="#9799f5" stroke-linecap="round" stroke-width="1"/>
        <g data-type="innerShadowGroup">
          <ellipse id="椭圆_5-2" data-name="椭圆 5" cx="1.253" cy="0.627" rx="1.253" ry="0.627" transform="translate(14.477 7.267)" fill="#f09494"/>
          <g transform="matrix(1, 0, 0, 1, -488.59, -57.32)" filter="url(#椭圆_5)">
            <ellipse id="椭圆_5-3" data-name="椭圆 5" cx="1.253" cy="0.627" rx="1.253" ry="0.627" transform="translate(503.06 64.59)" fill="#fff"/>
          </g>
        </g>
      </g>
      <g id="组_5" data-name="组 5" transform="translate(421.677 428.024)">
        <path id="路径_16-6" data-name="路径 16" d="M3.316.718l-4.306,1v7.01s2.87-.132,3.91-2.142S3.316.718,3.316.718Z" transform="translate(14.264 2.47)" fill="#9aa5ff"/>
        <g data-type="innerShadowGroup">
          <path id="路径_17-5" data-name="路径 17" d="M10.249,5.263c-1.832-1.04-6.408-1.946-10.441-2S-5.756,5.749-5.756,5.749,2.991,8.2,6.993,8.083,12.081,6.3,10.249,5.263Z" transform="translate(6.5 -3.263)" fill="#ffdcad"/>
          <g transform="matrix(1, 0, 0, 1, -528.29, -55.59)" filter="url(#路径_17)">
            <path id="路径_17-6" data-name="路径 17" d="M10.249,5.263c-1.832-1.04-6.408-1.946-10.441-2S-5.756,5.749-5.756,5.749,2.991,8.2,6.993,8.083,12.081,6.3,10.249,5.263Z" transform="translate(534.79 52.33)" fill="#fff"/>
          </g>
        </g>
        <path id="路径_15-6" data-name="路径 15" d="M11.518-2.135C8.361-4.328,1.576-4.121-.377-2.69s0,7.155,0,7.155L12.248,6.081S14.674.057,11.518-2.135Z" transform="translate(1.245 5.179)" fill="#aaceff"/>
      </g>
      <g id="组_4" data-name="组 4" transform="translate(404.301 427.629)">
        <path id="路径_16-7" data-name="路径 16" d="M-14.595.64l11.841.769s2.282,4.236-.139,5.879-9.546.693-9.546.693a4.327,4.327,0,0,1-2.156-2.222C-15.542,3.929-14.595.64-14.595.64Z" transform="translate(15.016 2.421)" fill="#ecffe2"/>
        <g data-type="innerShadowGroup">
          <path id="路径_17-7" data-name="路径 17" d="M-3.281,6.178A3.6,3.6,0,0,1-.428,3.361c2.512-.666,6.328-.6,8.171.618S9.32,7.565,7,8.455a11.7,11.7,0,0,1-7.09.281A4.21,4.21,0,0,1-3.281,6.178Z" transform="translate(3.607 -2.941)" fill="#dea4a4"/>
          <g transform="matrix(1, 0, 0, 1, -510.91, -55.19)" filter="url(#路径_17-2)">
            <path id="路径_17-8" data-name="路径 17" d="M-3.281,6.178A3.6,3.6,0,0,1-.428,3.361c2.512-.666,6.328-.6,8.171.618S9.32,7.565,7,8.455a11.7,11.7,0,0,1-7.09.281A4.21,4.21,0,0,1-3.281,6.178Z" transform="translate(514.52 52.25)" fill="#fff"/>
          </g>
        </g>
        <g data-type="innerShadowGroup">
          <path id="路径_15-7" data-name="路径 15" d="M2.1-3.395c-1.511-2.834,7-2.393,7.979-1.651s2.425,8.224,1.832,8.9S10.064,4.7,7.6,4.81a36.835,36.835,0,0,1-5.337-.249S3.61-.56,2.1-3.395Z" transform="translate(0.112 5.9)" fill="#edd4fa"/>
          <g transform="matrix(1, 0, 0, 1, -510.91, -55.19)" filter="url(#路径_15-2)">
            <path id="路径_15-8" data-name="路径 15" d="M2.1-3.395c-1.511-2.834,7-2.393,7.979-1.651s2.425,8.224,1.832,8.9S10.064,4.7,7.6,4.81a36.835,36.835,0,0,1-5.337-.249S3.61-.56,2.1-3.395Z" transform="translate(511.02 61.09)" fill="#fff"/>
          </g>
        </g>
        <g data-type="innerShadowGroup">
          <circle id="椭圆_8-2" data-name="椭圆 8" cx="1.253" cy="1.253" r="1.253" transform="translate(5.941 1.874)" fill="#d3fdc0"/>
          <g transform="matrix(1, 0, 0, 1, -510.91, -55.19)" filter="url(#椭圆_8)">
            <circle id="椭圆_8-3" data-name="椭圆 8" cx="1.253" cy="1.253" r="1.253" transform="translate(516.85 57.07)" fill="#fff"/>
          </g>
        </g>
      </g>
      <g id="组_3" data-name="组 3" transform="translate(420.894 434.585) rotate(-7)">
        <g data-type="innerShadowGroup">
          <path id="路径_16-8" data-name="路径 16" d="M17.134,2.155,1.325,0s-3.036,7.332.082,9.448,13.248.823,13.248.823a4.636,4.636,0,0,0,2.08-1.979C17.507,6.853,17.134,2.155,17.134,2.155Z" transform="translate(0 0.9)" fill="#bcbefd"/>
          <g transform="matrix(0.99, 0.12, -0.12, 0.99, -516, -125.97)" filter="url(#路径_16-2)">
            <path id="路径_16-9" data-name="路径 16" d="M17.134,2.155,1.325,0s-3.036,7.332.082,9.448,13.248.823,13.248.823a4.636,4.636,0,0,0,2.08-1.979C17.507,6.853,17.134,2.155,17.134,2.155Z" transform="translate(527.61 63.04) rotate(-7)" fill="#fff"/>
          </g>
        </g>
        <g data-type="innerShadowGroup">
          <path id="路径_17-9" data-name="路径 17" d="M11.607.153C10.055-.271,1.969.277.959.671.629.8-.448,2.4.208,3.438a6.264,6.264,0,0,0,4.043,2.1c1.084.075.767-1.3,1.463-1.426s2.964.013,5.67-.136a40.774,40.774,0,0,0,5.036-.634C17.976,3.133,13.159.578,11.607.153Z" transform="translate(0.536 0)" fill="#fffabf"/>
          <g transform="matrix(0.99, 0.12, -0.12, 0.99, -516, -125.97)" filter="url(#路径_17-3)">
            <path id="路径_17-10" data-name="路径 17" d="M11.607.153C10.055-.271,1.969.277.959.671.629.8-.448,2.4.208,3.438a6.264,6.264,0,0,0,4.043,2.1c1.084.075.767-1.3,1.463-1.426s2.964.013,5.67-.136a40.774,40.774,0,0,0,5.036-.634C17.976,3.133,13.159.578,11.607.153Z" transform="translate(528.04 62.08) rotate(-7)" fill="#fff"/>
          </g>
        </g>
        <path id="路径_26" data-name="路径 26" d="M0,0S1.706,2.277,5.989,2.623,17.13,1.383,17.13,1.383" transform="translate(0.151 5.207)" fill="none" stroke="#9be9f7" stroke-linecap="round" stroke-width="1"/>
        <g data-type="innerShadowGroup">
          <circle id="椭圆_7-2" data-name="椭圆 7" cx="0.627" cy="0.627" r="0.627" transform="translate(13.074 1.536) rotate(7)" fill="#ffeb00"/>
          <g transform="matrix(0.99, 0.12, -0.12, 0.99, -516, -125.97)" filter="url(#椭圆_7)">
            <circle id="椭圆_7-3" data-name="椭圆 7" cx="0.627" cy="0.627" r="0.627" transform="translate(540.67 62.08)" fill="#fff"/>
          </g>
        </g>
        <path id="路径_29" data-name="路径 29" d="M0,4.2s.372.433.66-.36A8.3,8.3,0,0,0,1,.722C.863,0,.453,0,.453,0" transform="matrix(-0.454, 0.891, -0.891, -0.454, 4.63, 4.013)" fill="none" stroke="#bcbefd" stroke-linecap="round" stroke-width="1"/>
      </g>
      <g id="组_2" data-name="组 2" transform="translate(400.009 432.995)">
        <g data-type="innerShadowGroup">
          <path id="路径_16-10" data-name="路径 16" d="M1.491.64l-15.252.991s-2.94,5.456.179,7.572,12.3.892,12.3.892A5.574,5.574,0,0,0,1.491,7.233C2.711,4.877,1.491.64,1.491.64Z" transform="translate(15.016 3.303)" fill="#d3f2c2"/>
          <g transform="matrix(1, 0, 0, 1, -506.62, -60.56)" filter="url(#路径_16-3)">
            <path id="路径_16-11" data-name="路径 16" d="M1.491.64l-15.252.991s-2.94,5.456.179,7.572,12.3.892,12.3.892A5.574,5.574,0,0,0,1.491,7.233C2.711,4.877,1.491.64,1.491.64Z" transform="translate(521.63 63.86)" fill="#fff"/>
          </g>
        </g>
        <path id="路径_17-11" data-name="路径 17" d="M12.48,7.111A4.642,4.642,0,0,0,8.806,3.482c-3.235-.858-8.151-.768-10.525.8S-3.75,8.9-.764,10.044a15.07,15.07,0,0,0,9.132.362A5.422,5.422,0,0,0,12.48,7.111Z" transform="translate(4.148 -2.941)" fill="#ebebeb"/>
        <g data-type="innerShadowGroup">
          <path id="路径_15-9" data-name="路径 15" d="M14.736-2.759C16.682-6.41,5.725-5.842,4.458-4.886S1.335,5.707,2.1,6.573s2.379,1.09,5.548,1.236,5.23.015,5.725-.96S12.79.892,14.736-2.759Z" transform="translate(-0.536 5.986)" fill="#c8c9f5"/>
          <g transform="matrix(1, 0, 0, 1, -506.62, -60.56)" filter="url(#路径_15-3)">
            <path id="路径_15-10" data-name="路径 15" d="M14.736-2.759C16.682-6.41,5.725-5.842,4.458-4.886S1.335,5.707,2.1,6.573s2.379,1.09,5.548,1.236,5.23.015,5.725-.96S12.79.892,14.736-2.759Z" transform="translate(506.08 66.55)" fill="#fff"/>
          </g>
        </g>
        <path id="路径_28" data-name="路径 28" d="M0,6.555A9.673,9.673,0,0,0,.6,3.4,12.33,12.33,0,0,0,0,0" transform="translate(10.874 12.067) rotate(93)" fill="none" stroke="#c1f8a2" stroke-linecap="round" stroke-width="1"/>
        <g data-type="innerShadowGroup">
          <ellipse id="椭圆_6-2" data-name="椭圆 6" cx="1.253" cy="0.627" rx="1.253" ry="0.627" transform="translate(6.474 4.028)" fill="#9799f5"/>
          <g transform="matrix(1, 0, 0, 1, -506.62, -60.56)" filter="url(#椭圆_6)">
            <ellipse id="椭圆_6-3" data-name="椭圆 6" cx="1.253" cy="0.627" rx="1.253" ry="0.627" transform="translate(513.09 64.59)" fill="#fff"/>
          </g>
        </g>
      </g>
    </g>
  </g>
</svg>
