<svg xmlns="http://www.w3.org/2000/svg" xmlns:xlink="http://www.w3.org/1999/xlink" width="565" height="158.505" viewBox="0 0 565 158.505">
  <defs>
    <linearGradient id="linear-gradient" x1="0.309" y1="0.56" x2="0.937" y2="0.558" gradientUnits="objectBoundingBox">
      <stop offset="0" stop-color="#cef5fe"/>
      <stop offset="1" stop-color="#c3e9f2"/>
    </linearGradient>
    <filter id="路径_34">
      <feOffset dx="-1" dy="3" input="SourceAlpha"/>
      <feGaussianBlur stdDeviation="0.5" result="blur"/>
      <feFlood flood-opacity="0.161" result="color"/>
      <feComposite operator="out" in="SourceGraphic" in2="blur"/>
      <feComposite operator="in" in="color"/>
      <feComposite operator="in" in2="SourceGraphic"/>
    </filter>
    <linearGradient id="linear-gradient-2" x1="0.883" y1="0.2" x2="0.208" y2="0.571" gradientUnits="objectBoundingBox">
      <stop offset="0" stop-color="#ffedc8"/>
      <stop offset="1" stop-color="#cec4b0"/>
    </linearGradient>
    <filter id="路径_31" x="424.55" y="79.847" width="140.451" height="54.658" filterUnits="userSpaceOnUse">
      <feOffset dx="3" dy="3" input="SourceAlpha"/>
      <feGaussianBlur stdDeviation="5" result="blur-2"/>
      <feFlood flood-opacity="0.161"/>
      <feComposite operator="in" in2="blur-2"/>
      <feComposite in="SourceGraphic"/>
    </filter>
    <filter id="路径_31-2" x="424.55" y="79.847" width="140.451" height="54.658" filterUnits="userSpaceOnUse">
      <feOffset dy="-2" input="SourceAlpha"/>
      <feGaussianBlur stdDeviation="5" result="blur-3"/>
      <feFlood flood-opacity="0.078" result="color-2"/>
      <feComposite operator="out" in="SourceGraphic" in2="blur-3"/>
      <feComposite operator="in" in="color-2"/>
      <feComposite operator="in" in2="SourceGraphic"/>
    </filter>
    <filter id="路径_42" x="498.668" y="49.313" width="38.204" height="57.338" filterUnits="userSpaceOnUse">
      <feOffset dx="3" dy="3" input="SourceAlpha"/>
      <feGaussianBlur stdDeviation="3" result="blur-4"/>
      <feFlood flood-opacity="0.102"/>
      <feComposite operator="in" in2="blur-4"/>
      <feComposite in="SourceGraphic"/>
    </filter>
    <linearGradient id="linear-gradient-3" x1="0.461" y1="0.325" x2="0.411" y2="0.874" gradientUnits="objectBoundingBox">
      <stop offset="0" stop-color="#ceeafe"/>
      <stop offset="1" stop-color="#aac5d8"/>
    </linearGradient>
    <linearGradient id="linear-gradient-4" x1="-0.383" y1="0.42" x2="1.031" y2="0.753" gradientUnits="objectBoundingBox">
      <stop offset="0" stop-color="#ebebeb"/>
      <stop offset="0.12" stop-color="#fff"/>
      <stop offset="0.384" stop-color="#9a9a9a"/>
      <stop offset="0.433" stop-color="#fff"/>
      <stop offset="0.675" stop-color="#fff"/>
      <stop offset="0.751" stop-color="#b4b4b4"/>
      <stop offset="1" stop-color="#cecece"/>
    </linearGradient>
    <linearGradient id="linear-gradient-5" x1="0.065" y1="0.472" x2="0.968" y2="0.373" gradientUnits="objectBoundingBox">
      <stop offset="0" stop-color="#e0f9ff"/>
      <stop offset="0.246" stop-color="#d4eff5"/>
      <stop offset="0.478" stop-color="#e0f9ff"/>
      <stop offset="0.739" stop-color="#d4eff5"/>
      <stop offset="1" stop-color="#e0f9ff"/>
    </linearGradient>
    <linearGradient id="linear-gradient-6" x1="0.539" y1="0.325" x2="0.589" y2="0.874" xlink:href="#linear-gradient-3"/>
    <filter id="路径_32">
      <feOffset dx="-1" dy="-0.5" input="SourceAlpha"/>
      <feGaussianBlur stdDeviation="0.5" result="blur-5"/>
      <feFlood flood-opacity="0.161" result="color-3"/>
      <feComposite operator="out" in="SourceGraphic" in2="blur-5"/>
      <feComposite operator="in" in="color-3"/>
      <feComposite operator="in" in2="SourceGraphic"/>
    </filter>
    <filter id="椭圆_9">
      <feOffset dy="-2" input="SourceAlpha"/>
      <feGaussianBlur stdDeviation="5" result="blur-6"/>
      <feFlood flood-opacity="0.078" result="color-4"/>
      <feComposite operator="out" in="SourceGraphic" in2="blur-6"/>
      <feComposite operator="in" in="color-4"/>
      <feComposite operator="in" in2="SourceGraphic"/>
    </filter>
    <filter id="路径_33">
      <feOffset dx="-1" dy="3" input="SourceAlpha"/>
      <feGaussianBlur stdDeviation="0.5" result="blur-7"/>
      <feFlood flood-opacity="0.161" result="color-5"/>
      <feComposite operator="out" in="SourceGraphic" in2="blur-7"/>
      <feComposite operator="in" in="color-5"/>
      <feComposite operator="in" in2="SourceGraphic"/>
    </filter>
    <linearGradient id="linear-gradient-7" x1="0.12" y1="0.509" x2="0.894" y2="0.417" gradientUnits="objectBoundingBox">
      <stop offset="0" stop-color="#aaf5e1"/>
      <stop offset="0.581" stop-color="#97e5d0"/>
      <stop offset="1" stop-color="#fcd7b2"/>
    </linearGradient>
    <filter id="路径_30">
      <feOffset dy="-2" input="SourceAlpha"/>
      <feGaussianBlur stdDeviation="5" result="blur-8"/>
      <feFlood flood-opacity="0.078" result="color-6"/>
      <feComposite operator="out" in="SourceGraphic" in2="blur-8"/>
      <feComposite operator="in" in="color-6"/>
      <feComposite operator="in" in2="SourceGraphic"/>
    </filter>
    <linearGradient id="linear-gradient-21" x1="0.5" x2="0.5" y2="1" gradientUnits="objectBoundingBox">
      <stop offset="0" stop-color="#facae2"/>
      <stop offset="1" stop-color="#f4c3db"/>
    </linearGradient>
    <linearGradient id="linear-gradient-22" x1="0.5" x2="0.5" y2="1" gradientUnits="objectBoundingBox">
      <stop offset="0" stop-color="#ebafcd"/>
      <stop offset="1" stop-color="#facae2"/>
    </linearGradient>
  </defs>
  <g id="组_280" data-name="组 280" transform="translate(-5745 -3073.495)">
    <path id="路径_546" data-name="路径 546" d="M4.74.18A3.567,3.567,0,0,1,1.627-1.238a6.8,6.8,0,0,1-1.012-4,6.8,6.8,0,0,1,1.012-4A3.567,3.567,0,0,1,4.74-10.65a4.335,4.335,0,0,1,1.432.217,3.258,3.258,0,0,1,1.073.608,3.226,3.226,0,0,1,.742.945,5.307,5.307,0,0,1,.458,1.245l-2.1.51a5.633,5.633,0,0,0-.21-.69,1.882,1.882,0,0,0-.308-.54,1.305,1.305,0,0,0-.465-.353,1.59,1.59,0,0,0-.668-.127,1.352,1.352,0,0,0-1.3.713A4.213,4.213,0,0,0,3.015-6.15v1.83A4.213,4.213,0,0,0,3.4-2.347a1.352,1.352,0,0,0,1.3.712,1.311,1.311,0,0,0,1.133-.48,3.229,3.229,0,0,0,.518-1.23l2.1.51A5.307,5.307,0,0,1,7.988-1.59a3.326,3.326,0,0,1-.742.953A3.09,3.09,0,0,1,6.173-.03,4.477,4.477,0,0,1,4.74.18Zm5.28-1.905h2.37v-7.65H10.02V-11.1h4.59v9.375h2.37V0H10.02ZM22.5.18A4.476,4.476,0,0,1,20.88-.1a3.317,3.317,0,0,1-1.223-.8,3.56,3.56,0,0,1-.772-1.275,4.982,4.982,0,0,1-.27-1.695,4.982,4.982,0,0,1,.27-1.7,3.56,3.56,0,0,1,.772-1.275,3.317,3.317,0,0,1,1.223-.8A4.476,4.476,0,0,1,22.5-7.92a4.476,4.476,0,0,1,1.62.277,3.317,3.317,0,0,1,1.222.8,3.56,3.56,0,0,1,.773,1.275,4.982,4.982,0,0,1,.27,1.7,4.982,4.982,0,0,1-.27,1.695A3.56,3.56,0,0,1,25.342-.9a3.317,3.317,0,0,1-1.222.8A4.476,4.476,0,0,1,22.5.18Zm0-1.65a1.5,1.5,0,0,0,1.17-.465,1.9,1.9,0,0,0,.42-1.32v-1.23a1.9,1.9,0,0,0-.42-1.32A1.5,1.5,0,0,0,22.5-6.27a1.5,1.5,0,0,0-1.17.465,1.9,1.9,0,0,0-.42,1.32v1.23a1.9,1.9,0,0,0,.42,1.32A1.5,1.5,0,0,0,22.5-1.47ZM32.1,0a2.323,2.323,0,0,1-1.785-.63,2.266,2.266,0,0,1-.585-1.605v-3.78h-2.1V-7.74H29a1.025,1.025,0,0,0,.7-.2.967.967,0,0,0,.21-.72V-10.47h2.04v2.73h3.015v1.725H31.95v4.29h3.015V0Zm4.875-11.1h2.22v4.77h.09a3.294,3.294,0,0,1,.33-.615,2.25,2.25,0,0,1,.472-.5,2.21,2.21,0,0,1,.645-.345,2.531,2.531,0,0,1,.833-.127,2.7,2.7,0,0,1,1.02.188,2.081,2.081,0,0,1,.8.563,2.714,2.714,0,0,1,.517.915,3.79,3.79,0,0,1,.188,1.245V0h-2.22V-4.71q0-1.5-1.305-1.5a1.9,1.9,0,0,0-.5.068,1.34,1.34,0,0,0-.442.21,1.04,1.04,0,0,0-.308.352,1.033,1.033,0,0,0-.112.495V0h-2.22ZM49.98-8.73a1.411,1.411,0,0,1-1.042-.307,1.038,1.038,0,0,1-.292-.742v-.435a1.031,1.031,0,0,1,.292-.75,1.435,1.435,0,0,1,1.042-.3,1.435,1.435,0,0,1,1.042.3,1.031,1.031,0,0,1,.292.75v.435a1.038,1.038,0,0,1-.292.742A1.411,1.411,0,0,1,49.98-8.73ZM46.41-1.725h2.46v-4.29H46.41V-7.74h4.68v6.015h2.28V0H46.41ZM54.975,0V-7.74h2.22v1.41h.09a3.294,3.294,0,0,1,.33-.615,2.25,2.25,0,0,1,.472-.5,2.21,2.21,0,0,1,.645-.345,2.531,2.531,0,0,1,.833-.127,2.7,2.7,0,0,1,1.02.188,2.081,2.081,0,0,1,.8.563,2.714,2.714,0,0,1,.517.915,3.79,3.79,0,0,1,.188,1.245V0h-2.22V-4.71q0-1.5-1.305-1.5a1.9,1.9,0,0,0-.5.068,1.34,1.34,0,0,0-.442.21,1.04,1.04,0,0,0-.308.352,1.033,1.033,0,0,0-.112.495V0Zm16.77.78A1.943,1.943,0,0,1,70.71,2.595a6.886,6.886,0,0,1-3.255.585,10.807,10.807,0,0,1-1.83-.128,3.684,3.684,0,0,1-1.147-.367,1.444,1.444,0,0,1-.6-.57,1.531,1.531,0,0,1-.172-.72,1.247,1.247,0,0,1,.39-1,2.662,2.662,0,0,1,1.1-.518V-.21A1.942,1.942,0,0,1,64.4-.637a1.034,1.034,0,0,1-.292-.787.958.958,0,0,1,.382-.84,2.927,2.927,0,0,1,1.012-.42v-.09a2.535,2.535,0,0,1-1.072-.93A2.651,2.651,0,0,1,64.05-5.16a2.806,2.806,0,0,1,.24-1.192,2.308,2.308,0,0,1,.683-.863A3.129,3.129,0,0,1,66.03-7.74a4.909,4.909,0,0,1,1.38-.18,5.375,5.375,0,0,1,1.365.165v-.42a.993.993,0,0,1,.315-.75,1.21,1.21,0,0,1,.87-.3h1.365v1.62h-1.86v.135a2.463,2.463,0,0,1,.983.907,2.643,2.643,0,0,1,.353,1.4,2.755,2.755,0,0,1-.24,1.185,2.358,2.358,0,0,1-.69.862A3.126,3.126,0,0,1,68.8-2.58a4.988,4.988,0,0,1-1.387.18,5.585,5.585,0,0,1-.66-.038,4.4,4.4,0,0,1-.6-.112.947.947,0,0,0-.278.225.521.521,0,0,0-.112.345.423.423,0,0,0,.09.285.543.543,0,0,0,.248.157,1.506,1.506,0,0,0,.367.068q.21.015.435.015h1.77a5.247,5.247,0,0,1,1.41.165,2.687,2.687,0,0,1,.96.465,1.738,1.738,0,0,1,.54.7A2.365,2.365,0,0,1,71.745.78Zm-2.1.165A.551.551,0,0,0,69.4.472,1.689,1.689,0,0,0,68.49.3H65.835a.8.8,0,0,0-.3.63.713.713,0,0,0,.307.592,1.773,1.773,0,0,0,1.043.233H68.19a2.22,2.22,0,0,0,1.11-.21A.665.665,0,0,0,69.645.945ZM67.41-3.81a1.288,1.288,0,0,0,.982-.33,1.184,1.184,0,0,0,.307-.84v-.36a1.184,1.184,0,0,0-.307-.84,1.288,1.288,0,0,0-.982-.33,1.24,1.24,0,0,0-.96.33,1.2,1.2,0,0,0-.3.84v.36a1.2,1.2,0,0,0,.3.84A1.24,1.24,0,0,0,67.41-3.81ZM82.14,0V-10.47h4.05a3.756,3.756,0,0,1,1.365.233,2.734,2.734,0,0,1,1.012.668,2.833,2.833,0,0,1,.623,1.05,4.254,4.254,0,0,1,.21,1.38,4.254,4.254,0,0,1-.21,1.38,2.833,2.833,0,0,1-.623,1.05,2.734,2.734,0,0,1-1.012.668,3.756,3.756,0,0,1-1.365.232H84.4V0ZM84.4-5.625H85.62a1.573,1.573,0,0,0,1.1-.3,1.342,1.342,0,0,0,.307-.99v-.45a1.342,1.342,0,0,0-.307-.99,1.573,1.573,0,0,0-1.1-.3H84.4ZM94.5.18A4.476,4.476,0,0,1,92.88-.1a3.317,3.317,0,0,1-1.222-.8,3.56,3.56,0,0,1-.772-1.275,4.982,4.982,0,0,1-.27-1.695,4.982,4.982,0,0,1,.27-1.7,3.56,3.56,0,0,1,.772-1.275,3.317,3.317,0,0,1,1.222-.8A4.476,4.476,0,0,1,94.5-7.92a4.476,4.476,0,0,1,1.62.277,3.317,3.317,0,0,1,1.222.8,3.56,3.56,0,0,1,.772,1.275,4.982,4.982,0,0,1,.27,1.7,4.982,4.982,0,0,1-.27,1.695A3.56,3.56,0,0,1,97.342-.9a3.317,3.317,0,0,1-1.222.8A4.476,4.476,0,0,1,94.5.18Zm0-1.65a1.5,1.5,0,0,0,1.17-.465,1.9,1.9,0,0,0,.42-1.32v-1.23a1.9,1.9,0,0,0-.42-1.32A1.5,1.5,0,0,0,94.5-6.27a1.5,1.5,0,0,0-1.17.465,1.9,1.9,0,0,0-.42,1.32v1.23a1.9,1.9,0,0,0,.42,1.32A1.5,1.5,0,0,0,94.5-1.47Zm10.395.06h-.1a2.976,2.976,0,0,1-.833,1.147A2.221,2.221,0,0,1,102.5.18a2.833,2.833,0,0,1-1.178-.24A2.389,2.389,0,0,1,100.4-.8a3.693,3.693,0,0,1-.6-1.26,6.685,6.685,0,0,1-.217-1.815A6.685,6.685,0,0,1,99.8-5.685a3.693,3.693,0,0,1,.6-1.26,2.389,2.389,0,0,1,.915-.735,2.833,2.833,0,0,1,1.178-.24,2.606,2.606,0,0,1,.825.12,2.2,2.2,0,0,1,.637.33,2.185,2.185,0,0,1,.48.5,3.727,3.727,0,0,1,.353.638h.1V-11.1h2.22V0h-2.22Zm-1.44-.135a1.783,1.783,0,0,0,1.012-.285,1,1,0,0,0,.427-.9V-5.01a1,1,0,0,0-.427-.9,1.783,1.783,0,0,0-1.012-.285,1.461,1.461,0,0,0-1.155.457,1.846,1.846,0,0,0-.405,1.267v1.2A1.846,1.846,0,0,0,102.3-2,1.461,1.461,0,0,0,103.455-1.545Z" transform="translate(6184 3224)" fill="#46d1e3"/>
    <g id="组_18" data-name="组 18" transform="translate(7999.318 4175.732) rotate(180)">
      <circle id="椭圆_28" data-name="椭圆 28" cx="7.785" cy="7.785" r="7.785" transform="translate(1828.1 959.547)" fill="#45d1e3"/>
      <path id="路径_34-2" data-name="路径 34" d="M7.1,1.923a1,1,0,0,1,1.81,0l6.117,12.367c.312.663.135,2.711-.6,2.711H1.576C.843,17,.518,14.953.83,14.289Z" transform="translate(1828 950)" fill="#45d1e3"/>
      <circle id="椭圆_30" data-name="椭圆 30" cx="4.285" cy="4.285" r="4.285" transform="translate(1831.6 963.547)" fill="#fff"/>
    </g>
    <rect id="矩形_6" data-name="矩形 6" width="373" height="45" rx="22.5" transform="translate(5745 3187)" fill="#91d1f8" opacity="0.222"/>
    <path id="路径_544" data-name="路径 544" d="M7.579.676a1.684,1.684,0,0,1-.9,1.573,5.968,5.968,0,0,1-2.821.507,9.366,9.366,0,0,1-1.586-.111,3.193,3.193,0,0,1-.994-.318,1.252,1.252,0,0,1-.52-.494,1.327,1.327,0,0,1-.15-.624A1.081,1.081,0,0,1,.949.345,2.307,2.307,0,0,1,1.9-.1V-.182a1.683,1.683,0,0,1-.683-.37.9.9,0,0,1-.253-.683.83.83,0,0,1,.331-.728,2.537,2.537,0,0,1,.878-.364V-2.4a2.2,2.2,0,0,1-.929-.806A2.3,2.3,0,0,1,.91-4.472a2.432,2.432,0,0,1,.208-1.033,2,2,0,0,1,.592-.748,2.712,2.712,0,0,1,.917-.455,4.254,4.254,0,0,1,1.2-.156,4.659,4.659,0,0,1,1.183.143v-.364a.86.86,0,0,1,.273-.65,1.049,1.049,0,0,1,.754-.26H7.215v1.4H5.6v.117a2.134,2.134,0,0,1,.852.786A2.291,2.291,0,0,1,6.76-4.472a2.388,2.388,0,0,1-.208,1.027,2.043,2.043,0,0,1-.6.747,2.709,2.709,0,0,1-.93.461,4.323,4.323,0,0,1-1.2.156,4.84,4.84,0,0,1-.572-.033,3.813,3.813,0,0,1-.52-.1.82.82,0,0,0-.241.195.451.451,0,0,0-.1.3.367.367,0,0,0,.078.247.471.471,0,0,0,.214.137A1.305,1.305,0,0,0,3-1.274q.182.013.377.013H4.914a4.548,4.548,0,0,1,1.222.143,2.329,2.329,0,0,1,.832.4A1.506,1.506,0,0,1,7.436-.1,2.049,2.049,0,0,1,7.579.676ZM5.759.819A.477.477,0,0,0,5.551.41,1.464,1.464,0,0,0,4.758.26h-2.3A.689.689,0,0,0,2.2.806a.618.618,0,0,0,.266.513,1.536,1.536,0,0,0,.9.2H4.5a1.924,1.924,0,0,0,.962-.182A.576.576,0,0,0,5.759.819ZM3.822-3.3a1.116,1.116,0,0,0,.852-.286,1.026,1.026,0,0,0,.266-.728v-.312a1.026,1.026,0,0,0-.266-.728,1.116,1.116,0,0,0-.852-.286,1.075,1.075,0,0,0-.832.286,1.041,1.041,0,0,0-.26.728v.312a1.041,1.041,0,0,0,.26.728A1.075,1.075,0,0,0,3.822-3.3ZM8.762-1.5h1.547V-5.213H8.762V-6.708h3.471v1.9h.091a3.841,3.841,0,0,1,.254-.708,2.308,2.308,0,0,1,.416-.611,1.841,1.841,0,0,1,.618-.423,2.167,2.167,0,0,1,.858-.156h.637V-4.94h-1.43a1.346,1.346,0,0,0-1.079.423,1.529,1.529,0,0,0-.364,1.033V-1.5h2.21V0H8.762ZM21.931,0a1.447,1.447,0,0,1-.962-.306,1.282,1.282,0,0,1-.429-.877h-.065a1.645,1.645,0,0,1-.722,1,2.438,2.438,0,0,1-1.319.338A2.269,2.269,0,0,1,16.868-.37a1.873,1.873,0,0,1-.591-1.476,1.74,1.74,0,0,1,.767-1.56,4.1,4.1,0,0,1,2.249-.507h1.079v-.338a1.3,1.3,0,0,0-.28-.9,1.231,1.231,0,0,0-.942-.306,1.853,1.853,0,0,0-.988.234,2.29,2.29,0,0,0-.65.611l-1.053-.936a2.524,2.524,0,0,1,1.059-.943,4.048,4.048,0,0,1,1.853-.37,3.315,3.315,0,0,1,2.151.63,2.312,2.312,0,0,1,.774,1.9v2.938h.741V0ZM19.162-1.105a1.453,1.453,0,0,0,.858-.247.82.82,0,0,0,.351-.715v-.806H19.344q-1.183,0-1.183.793v.26a.6.6,0,0,0,.273.533A1.294,1.294,0,0,0,19.162-1.105Zm9.347-.117h-.091a2.579,2.579,0,0,1-.722.994,1.925,1.925,0,0,1-1.267.384,2.455,2.455,0,0,1-1.021-.208,2.07,2.07,0,0,1-.793-.637,3.2,3.2,0,0,1-.52-1.092,5.794,5.794,0,0,1-.188-1.573A5.794,5.794,0,0,1,24.1-4.927a3.2,3.2,0,0,1,.52-1.092,2.07,2.07,0,0,1,.793-.637,2.455,2.455,0,0,1,1.021-.208,2.258,2.258,0,0,1,.715.1,1.907,1.907,0,0,1,.552.286,1.893,1.893,0,0,1,.416.435,3.23,3.23,0,0,1,.306.553h.091V-9.62h1.924V0H28.509Zm-1.248-.117a1.545,1.545,0,0,0,.878-.247.87.87,0,0,0,.37-.78V-4.342a.87.87,0,0,0-.37-.78,1.545,1.545,0,0,0-.878-.247,1.266,1.266,0,0,0-1,.4,1.6,1.6,0,0,0-.351,1.1v1.04a1.6,1.6,0,0,0,.351,1.1A1.266,1.266,0,0,0,27.261-1.339ZM35.282.156A3.329,3.329,0,0,1,32.721-.78a3.593,3.593,0,0,1-.871-2.548A4.488,4.488,0,0,1,32.077-4.8a3.168,3.168,0,0,1,.65-1.118,2.749,2.749,0,0,1,1.027-.7,3.648,3.648,0,0,1,1.358-.24,3.6,3.6,0,0,1,1.352.24,2.812,2.812,0,0,1,1.014.683,3.055,3.055,0,0,1,.644,1.072,4.134,4.134,0,0,1,.228,1.411v.572H33.761v.117a1.4,1.4,0,0,0,.4,1.047,1.62,1.62,0,0,0,1.183.4,2.165,2.165,0,0,0,1.027-.227,2.433,2.433,0,0,0,.741-.6l1.04,1.131a3.246,3.246,0,0,1-1.092.832A3.974,3.974,0,0,1,35.282.156Zm-.156-5.642a1.319,1.319,0,0,0-.994.384,1.425,1.425,0,0,0-.37,1.034v.1h2.7v-.1a1.45,1.45,0,0,0-.357-1.04A1.288,1.288,0,0,0,35.126-5.486ZM51.207,0V-1.742H47.125V-3.406l3.614-5.668h2.34V-3.25h1.17v1.508h-1.17V0ZM48.7-3.25h2.509V-7.059H51.09ZM63.167-6.708h1.924v1.222h.091a2.508,2.508,0,0,1,.715-.988,1.929,1.929,0,0,1,1.274-.39,2.455,2.455,0,0,1,1.02.208,2.07,2.07,0,0,1,.793.637,3.2,3.2,0,0,1,.52,1.092,5.794,5.794,0,0,1,.188,1.573A5.794,5.794,0,0,1,69.5-1.781a3.2,3.2,0,0,1-.52,1.092,2.07,2.07,0,0,1-.793.637,2.455,2.455,0,0,1-1.02.208A1.951,1.951,0,0,1,65.9-.228a2.44,2.44,0,0,1-.715-.994h-.091V2.6H63.167Zm3.172,5.369a1.266,1.266,0,0,0,1-.4,1.6,1.6,0,0,0,.351-1.1v-1.04a1.6,1.6,0,0,0-.351-1.1,1.266,1.266,0,0,0-1-.4,1.545,1.545,0,0,0-.878.247.87.87,0,0,0-.37.78v1.976a.87.87,0,0,0,.37.78A1.545,1.545,0,0,0,66.339-1.339ZM71.162-1.5h1.547V-5.213H71.162V-6.708h3.471v1.9h.091a3.841,3.841,0,0,1,.253-.708,2.308,2.308,0,0,1,.416-.611,1.841,1.841,0,0,1,.618-.423,2.167,2.167,0,0,1,.858-.156h.637V-4.94h-1.43A1.346,1.346,0,0,0,75-4.517a1.529,1.529,0,0,0-.364,1.033V-1.5h2.21V0H71.162ZM81.9.156a3.879,3.879,0,0,1-1.4-.241,2.875,2.875,0,0,1-1.06-.7,3.085,3.085,0,0,1-.67-1.105,4.318,4.318,0,0,1-.234-1.469,4.318,4.318,0,0,1,.234-1.469,3.085,3.085,0,0,1,.67-1.105,2.875,2.875,0,0,1,1.06-.7,3.879,3.879,0,0,1,1.4-.24,3.879,3.879,0,0,1,1.4.24,2.875,2.875,0,0,1,1.06.7,3.085,3.085,0,0,1,.669,1.105,4.318,4.318,0,0,1,.234,1.469,4.318,4.318,0,0,1-.234,1.469A3.085,3.085,0,0,1,84.364-.78a2.875,2.875,0,0,1-1.06.7A3.879,3.879,0,0,1,81.9.156Zm0-1.43a1.3,1.3,0,0,0,1.014-.4,1.648,1.648,0,0,0,.364-1.144V-3.887a1.648,1.648,0,0,0-.364-1.144,1.3,1.3,0,0,0-1.014-.4,1.3,1.3,0,0,0-1.014.4,1.648,1.648,0,0,0-.364,1.144v1.066a1.648,1.648,0,0,0,.364,1.144A1.3,1.3,0,0,0,81.9-1.274Zm9.009.052h-.091a2.579,2.579,0,0,1-.721.994,1.925,1.925,0,0,1-1.268.384,2.455,2.455,0,0,1-1.021-.208,2.07,2.07,0,0,1-.793-.637,3.2,3.2,0,0,1-.52-1.092,5.794,5.794,0,0,1-.188-1.573A5.794,5.794,0,0,1,86.5-4.927a3.2,3.2,0,0,1,.52-1.092,2.07,2.07,0,0,1,.793-.637,2.455,2.455,0,0,1,1.021-.208,2.258,2.258,0,0,1,.715.1,1.907,1.907,0,0,1,.552.286,1.893,1.893,0,0,1,.416.435,3.23,3.23,0,0,1,.305.553h.091V-9.62h1.924V0H90.909Zm-1.248-.117a1.545,1.545,0,0,0,.878-.247.87.87,0,0,0,.37-.78V-4.342a.87.87,0,0,0-.37-.78,1.545,1.545,0,0,0-.878-.247,1.266,1.266,0,0,0-1,.4,1.6,1.6,0,0,0-.351,1.1v1.04a1.6,1.6,0,0,0,.351,1.1A1.266,1.266,0,0,0,89.661-1.339Zm8.97.117h-.078a2.393,2.393,0,0,1-.7.975,1.913,1.913,0,0,1-1.281.4,2.343,2.343,0,0,1-.884-.163A1.8,1.8,0,0,1,95-.494a2.352,2.352,0,0,1-.449-.793,3.285,3.285,0,0,1-.162-1.079V-6.708h1.924v4.082q0,1.3,1.131,1.3a1.648,1.648,0,0,0,.436-.059,1.09,1.09,0,0,0,.377-.182,1.006,1.006,0,0,0,.267-.306.85.85,0,0,0,.1-.429V-6.708h1.924V0H98.631ZM105.573.156a3.971,3.971,0,0,1-1.424-.241,2.865,2.865,0,0,1-1.066-.7,3.085,3.085,0,0,1-.67-1.105,4.318,4.318,0,0,1-.234-1.469,4.318,4.318,0,0,1,.234-1.469,3.085,3.085,0,0,1,.67-1.105,2.865,2.865,0,0,1,1.066-.7,3.932,3.932,0,0,1,1.41-.24,3.139,3.139,0,0,1,1.775.449,2.9,2.9,0,0,1,1.021,1.189l-1.482.806a1.971,1.971,0,0,0-.475-.65,1.222,1.222,0,0,0-.839-.26,1.327,1.327,0,0,0-1.02.384,1.474,1.474,0,0,0-.358,1.046v1.092a1.474,1.474,0,0,0,.358,1.047,1.361,1.361,0,0,0,1.046.383,1.349,1.349,0,0,0,.878-.26A2.175,2.175,0,0,0,107-2.314l1.456.832A2.925,2.925,0,0,1,107.4-.293,3.324,3.324,0,0,1,105.573.156ZM113.62,0a2.013,2.013,0,0,1-1.547-.546,1.964,1.964,0,0,1-.507-1.391V-5.213h-1.82V-6.708h1.183a.888.888,0,0,0,.611-.169.838.838,0,0,0,.182-.624V-9.074h1.768v2.366H116.1v1.495H113.49V-1.5H116.1V0Zm16.289-1.222h-.091a2.579,2.579,0,0,1-.722.994,1.925,1.925,0,0,1-1.267.384,2.455,2.455,0,0,1-1.021-.208,2.07,2.07,0,0,1-.793-.637,3.2,3.2,0,0,1-.52-1.092,5.794,5.794,0,0,1-.188-1.573,5.794,5.794,0,0,1,.188-1.573,3.2,3.2,0,0,1,.52-1.092,2.07,2.07,0,0,1,.793-.637,2.455,2.455,0,0,1,1.021-.208,2.258,2.258,0,0,1,.715.1,1.906,1.906,0,0,1,.552.286,1.893,1.893,0,0,1,.416.435,3.23,3.23,0,0,1,.306.553h.091V-9.62h1.924V0h-1.924Zm-1.248-.117a1.545,1.545,0,0,0,.878-.247.87.87,0,0,0,.37-.78V-4.342a.87.87,0,0,0-.37-.78,1.545,1.545,0,0,0-.878-.247,1.266,1.266,0,0,0-1,.4,1.6,1.6,0,0,0-.351,1.1v1.04a1.6,1.6,0,0,0,.351,1.1A1.266,1.266,0,0,0,128.661-1.339ZM136.682.156a3.329,3.329,0,0,1-2.561-.936,3.593,3.593,0,0,1-.871-2.548,4.488,4.488,0,0,1,.228-1.476,3.168,3.168,0,0,1,.65-1.118,2.749,2.749,0,0,1,1.027-.7,3.648,3.648,0,0,1,1.358-.24,3.6,3.6,0,0,1,1.352.24,2.812,2.812,0,0,1,1.014.683,3.055,3.055,0,0,1,.643,1.072,4.134,4.134,0,0,1,.227,1.411v.572h-4.589v.117a1.4,1.4,0,0,0,.4,1.047,1.62,1.62,0,0,0,1.183.4,2.165,2.165,0,0,0,1.027-.227,2.433,2.433,0,0,0,.741-.6l1.04,1.131a3.246,3.246,0,0,1-1.092.832A3.974,3.974,0,0,1,136.682.156Zm-.156-5.642a1.319,1.319,0,0,0-.994.384,1.425,1.425,0,0,0-.37,1.034v.1h2.7v-.1a1.45,1.45,0,0,0-.357-1.04A1.288,1.288,0,0,0,136.526-5.486ZM144.82,0a2.013,2.013,0,0,1-1.547-.546,1.964,1.964,0,0,1-.507-1.391V-5.213h-1.82V-6.708h1.183a.888.888,0,0,0,.611-.169.838.838,0,0,0,.182-.624V-9.074h1.768v2.366H147.3v1.495H144.69V-1.5H147.3V0Zm7.462.156a3.329,3.329,0,0,1-2.561-.936,3.593,3.593,0,0,1-.871-2.548,4.488,4.488,0,0,1,.228-1.476,3.168,3.168,0,0,1,.65-1.118,2.749,2.749,0,0,1,1.027-.7,3.648,3.648,0,0,1,1.358-.24,3.6,3.6,0,0,1,1.352.24,2.812,2.812,0,0,1,1.014.683,3.055,3.055,0,0,1,.643,1.072,4.134,4.134,0,0,1,.227,1.411v.572h-4.589v.117a1.4,1.4,0,0,0,.4,1.047,1.62,1.62,0,0,0,1.183.4,2.165,2.165,0,0,0,1.027-.227,2.433,2.433,0,0,0,.741-.6l1.04,1.131a3.246,3.246,0,0,1-1.092.832A3.974,3.974,0,0,1,152.282.156Zm-.156-5.642a1.319,1.319,0,0,0-.994.384,1.425,1.425,0,0,0-.37,1.034v.1h2.7v-.1a1.45,1.45,0,0,0-.357-1.04A1.288,1.288,0,0,0,152.126-5.486ZM160.173.156a3.971,3.971,0,0,1-1.424-.241,2.865,2.865,0,0,1-1.066-.7,3.085,3.085,0,0,1-.669-1.105,4.318,4.318,0,0,1-.234-1.469,4.318,4.318,0,0,1,.234-1.469,3.085,3.085,0,0,1,.669-1.105,2.865,2.865,0,0,1,1.066-.7,3.932,3.932,0,0,1,1.411-.24,3.139,3.139,0,0,1,1.774.449,2.9,2.9,0,0,1,1.021,1.189l-1.482.806A1.972,1.972,0,0,0,161-5.07a1.222,1.222,0,0,0-.839-.26,1.327,1.327,0,0,0-1.021.384,1.474,1.474,0,0,0-.357,1.046v1.092a1.474,1.474,0,0,0,.357,1.047,1.362,1.362,0,0,0,1.047.383,1.349,1.349,0,0,0,.878-.26,2.175,2.175,0,0,0,.539-.676l1.456.832A2.925,2.925,0,0,1,162-.293,3.324,3.324,0,0,1,160.173.156ZM168.22,0a2.013,2.013,0,0,1-1.547-.546,1.964,1.964,0,0,1-.507-1.391V-5.213h-1.82V-6.708h1.183a.888.888,0,0,0,.611-.169.838.838,0,0,0,.182-.624V-9.074h1.768v2.366H170.7v1.495H168.09V-1.5H170.7V0Zm7.7-7.566a1.223,1.223,0,0,1-.9-.267.9.9,0,0,1-.254-.643v-.377a.894.894,0,0,1,.254-.65,1.243,1.243,0,0,1,.9-.26,1.243,1.243,0,0,1,.9.26.894.894,0,0,1,.254.65v.377a.9.9,0,0,1-.254.643A1.223,1.223,0,0,1,175.916-7.566ZM172.822-1.5h2.132V-5.213h-2.132V-6.708h4.056V-1.5h1.976V0h-6.032ZM183.3.156a3.879,3.879,0,0,1-1.4-.241,2.875,2.875,0,0,1-1.06-.7,3.086,3.086,0,0,1-.669-1.105,4.318,4.318,0,0,1-.234-1.469,4.318,4.318,0,0,1,.234-1.469,3.086,3.086,0,0,1,.669-1.105,2.875,2.875,0,0,1,1.06-.7,3.879,3.879,0,0,1,1.4-.24,3.879,3.879,0,0,1,1.4.24,2.875,2.875,0,0,1,1.059.7,3.086,3.086,0,0,1,.67,1.105,4.318,4.318,0,0,1,.234,1.469,4.318,4.318,0,0,1-.234,1.469,3.086,3.086,0,0,1-.67,1.105,2.875,2.875,0,0,1-1.059.7A3.879,3.879,0,0,1,183.3.156Zm0-1.43a1.3,1.3,0,0,0,1.014-.4,1.648,1.648,0,0,0,.364-1.144V-3.887a1.648,1.648,0,0,0-.364-1.144,1.3,1.3,0,0,0-1.014-.4,1.3,1.3,0,0,0-1.014.4,1.648,1.648,0,0,0-.364,1.144v1.066a1.648,1.648,0,0,0,.364,1.144A1.3,1.3,0,0,0,183.3-1.274ZM188.045,0V-6.708h1.924v1.222h.078a2.856,2.856,0,0,1,.286-.533,1.95,1.95,0,0,1,.41-.435,1.916,1.916,0,0,1,.559-.3,2.194,2.194,0,0,1,.721-.11,2.343,2.343,0,0,1,.884.162,1.8,1.8,0,0,1,.689.488,2.352,2.352,0,0,1,.449.793,3.285,3.285,0,0,1,.163,1.079V0h-1.924V-4.082q0-1.3-1.131-1.3a1.648,1.648,0,0,0-.436.058,1.161,1.161,0,0,0-.383.182.9.9,0,0,0-.266.306.9.9,0,0,0-.1.429V0Zm10.777.156a5.11,5.11,0,0,1-1.944-.338,2.75,2.75,0,0,1-1.242-.923l1.079-1a2.8,2.8,0,0,0,.917.669,2.864,2.864,0,0,0,1.2.24,1.9,1.9,0,0,0,.9-.176.575.575,0,0,0,.325-.539.4.4,0,0,0-.221-.4,2.216,2.216,0,0,0-.611-.176l-1.079-.169a4.466,4.466,0,0,1-.845-.2,2.208,2.208,0,0,1-.676-.37,1.728,1.728,0,0,1-.455-.572A1.816,1.816,0,0,1,196-4.615a1.942,1.942,0,0,1,.806-1.651,3.735,3.735,0,0,1,2.262-.6,4.716,4.716,0,0,1,1.684.266,2.664,2.664,0,0,1,1.111.76L200.9-4.745a2.444,2.444,0,0,0-.767-.546A2.632,2.632,0,0,0,199-5.512q-1.118,0-1.118.676a.415.415,0,0,0,.221.41,2.216,2.216,0,0,0,.611.175l1.066.169a4.466,4.466,0,0,1,.845.2,2.3,2.3,0,0,1,.682.37,1.693,1.693,0,0,1,.462.572,1.816,1.816,0,0,1,.169.819,1.971,1.971,0,0,1-.812,1.664A3.779,3.779,0,0,1,198.822.156ZM216.931,0a1.447,1.447,0,0,1-.962-.306,1.282,1.282,0,0,1-.429-.877h-.065a1.645,1.645,0,0,1-.721,1,2.438,2.438,0,0,1-1.32.338,2.269,2.269,0,0,1-1.566-.527,1.873,1.873,0,0,1-.592-1.476,1.74,1.74,0,0,1,.767-1.56,4.1,4.1,0,0,1,2.249-.507h1.079v-.338a1.3,1.3,0,0,0-.279-.9,1.231,1.231,0,0,0-.943-.306,1.853,1.853,0,0,0-.988.234,2.29,2.29,0,0,0-.65.611l-1.053-.936a2.524,2.524,0,0,1,1.059-.943,4.049,4.049,0,0,1,1.853-.37,3.315,3.315,0,0,1,2.151.63,2.312,2.312,0,0,1,.774,1.9v2.938h.741V0Zm-2.769-1.105a1.453,1.453,0,0,0,.858-.247.82.82,0,0,0,.351-.715v-.806h-1.027q-1.183,0-1.183.793v.26a.6.6,0,0,0,.273.533A1.294,1.294,0,0,0,214.162-1.105ZM222.573.156a3.971,3.971,0,0,1-1.424-.241,2.865,2.865,0,0,1-1.066-.7,3.085,3.085,0,0,1-.669-1.105,4.318,4.318,0,0,1-.234-1.469,4.318,4.318,0,0,1,.234-1.469,3.085,3.085,0,0,1,.669-1.105,2.865,2.865,0,0,1,1.066-.7,3.932,3.932,0,0,1,1.411-.24,3.139,3.139,0,0,1,1.774.449,2.9,2.9,0,0,1,1.021,1.189l-1.482.806a1.972,1.972,0,0,0-.475-.65,1.222,1.222,0,0,0-.839-.26,1.327,1.327,0,0,0-1.021.384,1.474,1.474,0,0,0-.357,1.046v1.092a1.474,1.474,0,0,0,.357,1.047,1.362,1.362,0,0,0,1.047.383,1.349,1.349,0,0,0,.878-.26A2.175,2.175,0,0,0,224-2.314l1.456.832A2.925,2.925,0,0,1,224.4-.293,3.324,3.324,0,0,1,222.573.156Zm7.8,0a3.971,3.971,0,0,1-1.424-.241,2.865,2.865,0,0,1-1.066-.7,3.085,3.085,0,0,1-.669-1.105,4.318,4.318,0,0,1-.234-1.469,4.318,4.318,0,0,1,.234-1.469,3.085,3.085,0,0,1,.669-1.105,2.865,2.865,0,0,1,1.066-.7,3.932,3.932,0,0,1,1.411-.24,3.139,3.139,0,0,1,1.774.449,2.9,2.9,0,0,1,1.021,1.189l-1.482.806a1.972,1.972,0,0,0-.475-.65,1.222,1.222,0,0,0-.839-.26,1.327,1.327,0,0,0-1.021.384,1.474,1.474,0,0,0-.357,1.046v1.092a1.474,1.474,0,0,0,.357,1.047,1.362,1.362,0,0,0,1.047.383,1.349,1.349,0,0,0,.878-.26,2.175,2.175,0,0,0,.539-.676l1.456.832A2.925,2.925,0,0,1,232.2-.293,3.324,3.324,0,0,1,230.373.156Zm7.527,0a3.879,3.879,0,0,1-1.4-.241,2.875,2.875,0,0,1-1.06-.7,3.086,3.086,0,0,1-.669-1.105,4.318,4.318,0,0,1-.234-1.469,4.318,4.318,0,0,1,.234-1.469,3.086,3.086,0,0,1,.669-1.105,2.875,2.875,0,0,1,1.06-.7,3.879,3.879,0,0,1,1.4-.24,3.879,3.879,0,0,1,1.4.24,2.875,2.875,0,0,1,1.059.7,3.086,3.086,0,0,1,.67,1.105,4.318,4.318,0,0,1,.234,1.469,4.318,4.318,0,0,1-.234,1.469,3.086,3.086,0,0,1-.67,1.105,2.875,2.875,0,0,1-1.059.7A3.879,3.879,0,0,1,237.9.156Zm0-1.43a1.3,1.3,0,0,0,1.014-.4,1.648,1.648,0,0,0,.364-1.144V-3.887a1.648,1.648,0,0,0-.364-1.144,1.3,1.3,0,0,0-1.014-.4,1.3,1.3,0,0,0-1.014.4,1.648,1.648,0,0,0-.364,1.144v1.066a1.648,1.648,0,0,0,.364,1.144A1.3,1.3,0,0,0,237.9-1.274ZM242.19,0V-6.708h1.547v.988h.091a2.353,2.353,0,0,1,.449-.806,1.033,1.033,0,0,1,.826-.338q.975,0,1.2,1.144h.078a2.534,2.534,0,0,1,.195-.442,1.476,1.476,0,0,1,.286-.364,1.26,1.26,0,0,1,.4-.247,1.5,1.5,0,0,1,.546-.091q1.4,0,1.4,2.067V0h-1.547V-4.6a1.017,1.017,0,0,0-.163-.656.532.532,0,0,0-.423-.188.6.6,0,0,0-.423.162.651.651,0,0,0-.175.5V0h-1.56V-4.6a1.084,1.084,0,0,0-.149-.656.494.494,0,0,0-.41-.188.64.64,0,0,0-.442.162.638.638,0,0,0-.182.5V0Zm8.177-6.708h1.924v1.222h.091a2.508,2.508,0,0,1,.715-.988,1.929,1.929,0,0,1,1.274-.39,2.455,2.455,0,0,1,1.021.208,2.07,2.07,0,0,1,.793.637,3.2,3.2,0,0,1,.52,1.092,5.794,5.794,0,0,1,.189,1.573,5.794,5.794,0,0,1-.189,1.573,3.2,3.2,0,0,1-.52,1.092,2.07,2.07,0,0,1-.793.637,2.455,2.455,0,0,1-1.021.208A1.951,1.951,0,0,1,253.1-.228a2.44,2.44,0,0,1-.715-.994h-.091V2.6h-1.924Zm3.172,5.369a1.266,1.266,0,0,0,1-.4,1.6,1.6,0,0,0,.351-1.1v-1.04a1.6,1.6,0,0,0-.351-1.1,1.266,1.266,0,0,0-1-.4,1.545,1.545,0,0,0-.878.247.87.87,0,0,0-.37.78v1.976a.87.87,0,0,0,.37.78A1.545,1.545,0,0,0,253.539-1.339Zm4.745-.156h2.054v-6.63h-2.054V-9.62h3.978V-1.5h2.054V0h-6.032Zm11.232-6.071a1.223,1.223,0,0,1-.9-.267.9.9,0,0,1-.254-.643v-.377a.894.894,0,0,1,.254-.65,1.243,1.243,0,0,1,.9-.26,1.243,1.243,0,0,1,.9.26.894.894,0,0,1,.253.65v.377a.9.9,0,0,1-.253.643A1.223,1.223,0,0,1,269.516-7.566ZM266.422-1.5h2.132V-5.213h-2.132V-6.708h4.056V-1.5h1.976V0h-6.032Zm10.4,1.651a5.109,5.109,0,0,1-1.943-.338,2.751,2.751,0,0,1-1.242-.923l1.079-1a2.8,2.8,0,0,0,.917.669,2.864,2.864,0,0,0,1.2.24,1.9,1.9,0,0,0,.9-.176.575.575,0,0,0,.325-.539.4.4,0,0,0-.221-.4,2.216,2.216,0,0,0-.611-.176l-1.079-.169a4.466,4.466,0,0,1-.845-.2,2.208,2.208,0,0,1-.676-.37,1.728,1.728,0,0,1-.455-.572A1.816,1.816,0,0,1,274-4.615a1.942,1.942,0,0,1,.806-1.651,3.734,3.734,0,0,1,2.262-.6,4.716,4.716,0,0,1,1.684.266,2.664,2.664,0,0,1,1.112.76L278.9-4.745a2.445,2.445,0,0,0-.767-.546A2.632,2.632,0,0,0,277-5.512q-1.118,0-1.118.676a.415.415,0,0,0,.221.41,2.216,2.216,0,0,0,.611.175l1.066.169a4.465,4.465,0,0,1,.845.2,2.3,2.3,0,0,1,.682.37,1.693,1.693,0,0,1,.462.572,1.816,1.816,0,0,1,.169.819,1.971,1.971,0,0,1-.812,1.664A3.779,3.779,0,0,1,276.822.156Zm4.823-9.776h1.924v4.134h.078a2.855,2.855,0,0,1,.286-.533,1.95,1.95,0,0,1,.41-.435,1.915,1.915,0,0,1,.559-.3,2.194,2.194,0,0,1,.721-.11,2.343,2.343,0,0,1,.884.162,1.8,1.8,0,0,1,.689.488,2.352,2.352,0,0,1,.449.793,3.285,3.285,0,0,1,.162,1.079V0h-1.924V-4.082q0-1.3-1.131-1.3a1.648,1.648,0,0,0-.435.058,1.161,1.161,0,0,0-.384.182.9.9,0,0,0-.267.306.9.9,0,0,0-.1.429V0h-1.924ZM292.682.156a3.329,3.329,0,0,1-2.561-.936,3.593,3.593,0,0,1-.871-2.548,4.488,4.488,0,0,1,.228-1.476,3.168,3.168,0,0,1,.65-1.118,2.749,2.749,0,0,1,1.027-.7,3.648,3.648,0,0,1,1.358-.24,3.6,3.6,0,0,1,1.352.24,2.812,2.812,0,0,1,1.014.683,3.055,3.055,0,0,1,.644,1.072,4.134,4.134,0,0,1,.227,1.411v.572h-4.589v.117a1.4,1.4,0,0,0,.4,1.047,1.62,1.62,0,0,0,1.183.4,2.165,2.165,0,0,0,1.027-.227,2.433,2.433,0,0,0,.741-.6l1.04,1.131a3.246,3.246,0,0,1-1.092.832A3.974,3.974,0,0,1,292.682.156Zm-.156-5.642a1.319,1.319,0,0,0-.995.384,1.425,1.425,0,0,0-.37,1.034v.1h2.7v-.1a1.45,1.45,0,0,0-.358-1.04A1.288,1.288,0,0,0,292.526-5.486Zm8.983,4.264h-.091a2.58,2.58,0,0,1-.721.994,1.925,1.925,0,0,1-1.268.384,2.455,2.455,0,0,1-1.02-.208,2.07,2.07,0,0,1-.793-.637,3.2,3.2,0,0,1-.52-1.092,5.794,5.794,0,0,1-.189-1.573,5.794,5.794,0,0,1,.189-1.573,3.2,3.2,0,0,1,.52-1.092,2.07,2.07,0,0,1,.793-.637,2.455,2.455,0,0,1,1.02-.208,2.258,2.258,0,0,1,.715.1,1.907,1.907,0,0,1,.553.286,1.894,1.894,0,0,1,.416.435,3.23,3.23,0,0,1,.306.553h.091V-9.62h1.924V0h-1.924Zm-1.248-.117a1.545,1.545,0,0,0,.878-.247.87.87,0,0,0,.371-.78V-4.342a.87.87,0,0,0-.371-.78,1.545,1.545,0,0,0-.878-.247,1.266,1.266,0,0,0-1,.4,1.6,1.6,0,0,0-.351,1.1v1.04a1.6,1.6,0,0,0,.351,1.1A1.266,1.266,0,0,0,300.261-1.339Zm7.527-1.82-.741-3.276V-9.074h2.106v2.639l-.741,3.276ZM308.1.156a1.333,1.333,0,0,1-.988-.3,1,1,0,0,1-.286-.715v-.416a.972.972,0,0,1,.292-.7,1.336,1.336,0,0,1,.982-.3,1.336,1.336,0,0,1,.982.3.971.971,0,0,1,.293.7v.416a1,1,0,0,1-.286.715A1.333,1.333,0,0,1,308.1.156Z" transform="translate(5792 3214)" fill="#5299c4"/>
    <circle id="椭圆_31" data-name="椭圆 31" cx="16" cy="16" r="16" transform="translate(5752 3193)" fill="#91d1f8" opacity="0.22"/>
    <path id="路径_545" data-name="路径 545" d="M6,.24A7.425,7.425,0,0,1,3.76-.07,5.126,5.126,0,0,1,2.1-.92,3.551,3.551,0,0,1,1.07-2.21,3.806,3.806,0,0,1,.72-3.84,3.068,3.068,0,0,1,1.5-6.03a4.239,4.239,0,0,1,2-1.17v-.16A3.955,3.955,0,0,1,1.8-8.52a2.989,2.989,0,0,1-.66-2A3.432,3.432,0,0,1,1.46-12a3.235,3.235,0,0,1,.94-1.17,4.516,4.516,0,0,1,1.52-.76A7.254,7.254,0,0,1,6-14.2a7.28,7.28,0,0,1,2.07.27,4.507,4.507,0,0,1,1.53.76A3.235,3.235,0,0,1,10.54-12a3.432,3.432,0,0,1,.32,1.48,2.989,2.989,0,0,1-.66,2A3.955,3.955,0,0,1,8.5-7.36v.16a4.239,4.239,0,0,1,2,1.17,3.068,3.068,0,0,1,.78,2.19,3.806,3.806,0,0,1-.35,1.63A3.551,3.551,0,0,1,9.9-.92a5.126,5.126,0,0,1-1.66.85A7.425,7.425,0,0,1,6,.24Zm0-2.3a2.348,2.348,0,0,0,1.59-.48,1.637,1.637,0,0,0,.55-1.3v-.4A1.645,1.645,0,0,0,7.6-5.55,2.375,2.375,0,0,0,6-6.02a2.375,2.375,0,0,0-1.6.47,1.645,1.645,0,0,0-.54,1.31v.4a1.637,1.637,0,0,0,.55,1.3A2.348,2.348,0,0,0,6-2.06ZM6-8.22a2.228,2.228,0,0,0,1.52-.46,1.572,1.572,0,0,0,.52-1.24v-.3a1.528,1.528,0,0,0-.53-1.23A2.268,2.268,0,0,0,6-11.9a2.268,2.268,0,0,0-1.51.45,1.528,1.528,0,0,0-.53,1.23v.3a1.572,1.572,0,0,0,.52,1.24A2.228,2.228,0,0,0,6-8.22Z" transform="translate(5762 3216)" fill="#0298f2"/>
    <g id="组_34" data-name="组 34" transform="translate(5518.336 2786.189)">
      <g data-type="innerShadowGroup">
        <path id="路径_34-3" data-name="路径 34" d="M753.374,301.823v83.364s20.822-.067,23.2,0,9.435,1.107,12.032,1.056,13.212.372,14.68,0,0-86.841,0-86.841Z" transform="translate(-40.849 -5.422)" fill="url(#linear-gradient)"/>
        <g transform="matrix(1, 0, 0, 1, 226.66, 287.31)" filter="url(#路径_34)">
          <path id="路径_34-4" data-name="路径 34" d="M753.374,301.823v83.364s20.822-.067,23.2,0,9.435,1.107,12.032,1.056,13.212.372,14.68,0,0-86.841,0-86.841Z" transform="translate(-267.51 -292.73)" fill="#fff"/>
        </g>
      </g>
      <g data-type="innerShadowGroup">
        <g transform="matrix(1, 0, 0, 1, 226.66, 287.31)" filter="url(#路径_31)">
          <path id="路径_31-3" data-name="路径 31" d="M734.22,719.073c3.576-4.2,10.548-5.889,28.821-8.444s36.113-1.855,48.063-1.472,13.868-.336,21.876,0,12.911,3.6,9.313,5.7-11.665,4.765-18.194,8.477-22.873,8.385-34.315,9.575-32.268.34-43.352-2.455S730.644,723.278,734.22,719.073Z" transform="translate(-296.49 -616.92)" fill="url(#linear-gradient-2)"/>
        </g>
        <g transform="matrix(1, 0, 0, 1, 226.66, 287.31)" filter="url(#路径_31-2)">
          <path id="路径_31-4" data-name="路径 31" d="M734.22,719.073c3.576-4.2,10.548-5.889,28.821-8.444s36.113-1.855,48.063-1.472,13.868-.336,21.876,0,12.911,3.6,9.313,5.7-11.665,4.765-18.194,8.477-22.873,8.385-34.315,9.575-32.268.34-43.352-2.455S730.644,723.278,734.22,719.073Z" transform="translate(-296.49 -616.92)" fill="#fff"/>
        </g>
      </g>
      <g id="组_8" data-name="组 8" transform="translate(731.332 342.619)">
        <g transform="matrix(1, 0, 0, 1, -504.67, -55.31)" filter="url(#路径_42)">
          <path id="路径_42-2" data-name="路径 42" d="M795.156,392.8c-2.136,4.115-4.62,13.031-2.887,16.294s4.513,5.922,3.749,11.142-.221,8.326,4.96,7.532,10.06-6.967,10.657-10.516.146-18-1.357-20.216-1.318-7.174-6.573-8.319S795.156,392.8,795.156,392.8Z" transform="translate(-287.02 -333.24)" fill="#fff"/>
        </g>
        <path id="交叉_30" data-name="交叉 30" d="M.25,1.845A21.194,21.194,0,0,1,9.363,0a24.413,24.413,0,0,1,5.864.686c-1.617,3.489-5.7,7.833-9.988,8.49A9.772,9.772,0,0,1,3.766,9.3C.014,9.3-.394,6.4.25,1.845Z" transform="translate(4.052 30.039)" fill="#fbe9c5"/>
        <path id="交叉_31" data-name="交叉 31" d="M0,30.538V0C3.838,1.65,3.822,5.875,5.177,7.878,6.679,10.1,7.13,24.546,6.533,28.094a8.787,8.787,0,0,1-.872,2.444Z" transform="translate(13.415 0.605)" fill="#cef5fe"/>
        <path id="交叉_29" data-name="交叉 29" d="M.056,12.945C-.432,11.534,2.318,2.779,6.626,1.138A28.957,28.957,0,0,1,13.26,0a45.892,45.892,0,0,1-.243,6.672c-.4,2.349-2.667,5.849-5.661,8.176C4.928,14.224.457,14.106.056,12.945Z" transform="translate(6.931 22.027)" fill="url(#linear-gradient-3)"/>
      </g>
      <path id="路径_44" data-name="路径 44" d="M795.156,392.8c-2.136,4.115-4.62,13.031-2.887,16.294s4.513,5.922,3.749,11.142-.221,8.326,4.96,7.532,10.06-6.967,10.657-10.516.146-18-1.357-20.216-1.318-7.174-6.573-8.319S795.156,392.8,795.156,392.8Z" transform="translate(-60.354 -45.938)" opacity="0.348" fill="url(#linear-gradient-4)"/>
      <g id="组_7" data-name="组 7" transform="translate(675.39 375.326)">
        <path id="路径_36" data-name="路径 36" d="M0,0H49.657s.724,8.768,0,10.521c-.38.92-5.168.656-11.476,2.133-5.393,1.263-12.038,4.32-17.935,4.32-5.624,0-11.392-3.431-14.992-3.838C1.259,12.686,0,15.243,0,15.243Z" transform="translate(1.066 3.38)" fill="url(#linear-gradient-5)"/>
        <path id="路径_35" data-name="路径 35" d="M691.111,451.647c-.966,2.932,14.707,7.1,21.888,6.932s19.977-.8,22.836-2.517,11.26-7.22,0-8.557-30.059-.3-33.4,0S691.111,451.647,691.111,451.647Z" transform="translate(-691.069 -446.836)" fill="#e0f9ff"/>
      </g>
      <path id="路径_37" data-name="路径 37" d="M702.248,447.8c3.935,1.762,7.421,4.526,9.154,7.313s-1.136,9.716-.473,12.8,15.963-2.031,19.185-1.125S742.453,463.109,744,462s8.035-.981,8.523-2.392-2.262-10.166-6.57-11.807-19.278-1.736-27.782-2.012A54.476,54.476,0,0,0,702.248,447.8Z" transform="translate(-21.242 -71.029)" fill="url(#linear-gradient-6)"/>
      <g data-type="innerShadowGroup">
        <path id="路径_32-2" data-name="路径 32" d="M663.673,401.087c.729,2.5,10.287,5.422,14.179,5.973s6.373,1,6.373,1,.6,43.634.548,44.983-9.339-1.29-13.237-2.829-7.561-4.5-7.863-6.2S662.944,398.59,663.673,401.087Z" transform="translate(-0.46 -50.957)" fill="#cef5fe"/>
        <g transform="matrix(1, 0, 0, 1, 226.66, 287.31)" filter="url(#路径_32)">
          <path id="路径_32-3" data-name="路径 32" d="M663.673,401.087c.729,2.5,10.287,5.422,14.179,5.973s6.373,1,6.373,1,.6,43.634.548,44.983-9.339-1.29-13.237-2.829-7.561-4.5-7.863-6.2S662.944,398.59,663.673,401.087Z" transform="translate(-227.12 -338.26)" fill="#fff"/>
        </g>
      </g>
      <g data-type="innerShadowGroup">
        <ellipse id="椭圆_9-2" data-name="椭圆 9" cx="45" cy="9" rx="45" ry="9" transform="translate(663.48 340.348)" fill="#ffedc8"/>
        <g transform="matrix(1, 0, 0, 1, 226.66, 287.31)" filter="url(#椭圆_9)">
          <ellipse id="椭圆_9-3" data-name="椭圆 9" cx="45" cy="9" rx="45" ry="9" transform="translate(436.82 53.04)" fill="#fff"/>
        </g>
      </g>
      <g data-type="innerShadowGroup">
        <path id="路径_33-2" data-name="路径 33" d="M753.374,345.862c2.009-.8,18.743.234,24.849,1.264s12.64,1.767,17.033,3.157a14.247,14.247,0,0,1,6.234,3.521V300.139l-48.116-1.221Z" transform="translate(-48.163 -4.654)" fill="#cef5fe"/>
        <g transform="matrix(1, 0, 0, 1, 226.66, 287.31)" filter="url(#路径_33)">
          <path id="路径_33-3" data-name="路径 33" d="M753.374,345.862c2.009-.8,18.743.234,24.849,1.264s12.64,1.767,17.033,3.157a14.247,14.247,0,0,1,6.234,3.521V300.139l-48.116-1.221Z" transform="translate(-274.83 -291.96)" fill="#fff"/>
        </g>
      </g>
      <path id="Back_rail" data-name="Back rail" d="M689.922,310.4c-1.918,10.829,16.727,22.233,23.707,26.624s16.062,6.814,22.594,8.623,5.3,9.6,5.3,9.6" transform="translate(-12.345 -10.352)" fill="none" stroke="#dedede" stroke-linecap="round" stroke-width="1"/>
      <path id="减去_3" data-name="减去 3" d="M10.656,16.531h0a2.086,2.086,0,0,0,.074-.793,9.517,9.517,0,0,0-.4-2.237c-.364-1.147-.713-1.183-.828-1.2l-.046,0c-.164,0-.385.095-.507.547a.276.276,0,0,0,.533.144q.007-.025.013-.046a3.264,3.264,0,0,1,.347.841,9.028,9.028,0,0,1,.336,1.98c.026.457-.043.589-.066.618-.035,0-.232-.031-.721-.514a13.914,13.914,0,0,1-1.04-1.2,4.808,4.808,0,0,1-.483-.755l0,0c-.347-.635-.621-1.136-2.42-2.048a3,3,0,0,0-1.287-.4.84.84,0,0,0-.6.214c-.439.414-.352,1.341.261,2.758a1,1,0,0,0,.883.685l.062,0a1.31,1.31,0,0,0,.263-.028.7.7,0,0,1-.559.283H4.449a2.834,2.834,0,0,1-1.584-.773,10.439,10.439,0,0,1-1.726-1.853c-.3-.4-.323-.544-.324-.577a1.992,1.992,0,0,1,.517-.174,4.757,4.757,0,0,0,2.97-1.93,4.136,4.136,0,0,1,1.229-1.3A.732.732,0,0,1,5.868,8.7a2.577,2.577,0,0,1,.492.072A4.87,4.87,0,0,0,7.4,8.894a5.053,5.053,0,0,0,1.2-.156l.042-.01h.005c-.149.152-.343.334-.5.479-.805.752-1.565,1.463-1.3,2.019.134.278.47.407,1.057.407A7.584,7.584,0,0,0,9,11.536a5.417,5.417,0,0,0,1.612-.458,5.245,5.245,0,0,0,.962,2.272c.553.927,1.124,1.886.874,2.506a1.1,1.1,0,0,1-.813.592,4.851,4.851,0,0,1-.976.084Zm-1.369-.007h0a60.311,60.311,0,0,1-6.533-.485c-1.487-.3-2.35-.749-2.639-1.376a2.1,2.1,0,0,1,.348-1.918c.058.1.134.209.232.342a11.019,11.019,0,0,0,1.821,1.953,3.283,3.283,0,0,0,1.935.9h.037a1.282,1.282,0,0,0,1.066-.614c.265-.4.425-.644.256-.85a.283.283,0,0,0-.23-.11.855.855,0,0,0-.306.083,1.408,1.408,0,0,1-.5.133c-.2,0-.331-.109-.437-.354-.532-1.23-.578-1.959-.389-2.137a.322.322,0,0,1,.229-.065A2.553,2.553,0,0,1,5.2,12.36c1.648.836,1.873,1.249,2.185,1.821l0,0a5.388,5.388,0,0,0,.534.831,11.005,11.005,0,0,0,1.366,1.506ZM1.311,11.442h0L1.48,11.2A8.707,8.707,0,0,0,3.371,7.369,2.733,2.733,0,0,0,2.227,4.778,2.423,2.423,0,0,1,1.319,3.5,4.164,4.164,0,0,1,1.964.9,16.2,16.2,0,0,1,5.522.24c-.026.008-.054.018-.086.03-.519.206-.847.756-.973,1.636a7.757,7.757,0,0,1-.733,2.2l0,.006a3.283,3.283,0,0,0-.48,1.909c.123.665.671,1.231,1.777,1.836a3.062,3.062,0,0,0,.692.293c-.561.057-1.066.49-1.864,1.6a4.143,4.143,0,0,1-2.542,1.687Zm6.6-.363c-.431,0-.538-.078-.555-.094,0-.024.01-.16.309-.51a11.87,11.87,0,0,1,.867-.866c.236-.221.46-.43.618-.605.122-.135.376-.416.233-.679a.423.423,0,0,0-.413-.2,2.21,2.21,0,0,0-.5.077,4.511,4.511,0,0,1-1.072.14,4.314,4.314,0,0,1-.933-.114c-.1-.021-.221-.045-.336-.061a.525.525,0,0,0,.219-.113C6.767,7.7,6.473,6.9,6.1,5.9c-.12-.324-.256-.691-.335-.982A1.242,1.242,0,0,1,5.7,4.445a1.856,1.856,0,0,1,.754.329A17.39,17.39,0,0,1,9.765,7.321c.972.99,1.442,1.866,1.322,2.464-.15.752-1.263,1.07-2.17,1.2A7.16,7.16,0,0,1,7.912,11.079Zm3.747-1.456h0c.016-.817-.567-1.8-1.734-2.92A19.013,19.013,0,0,0,6.737,4.3a2.358,2.358,0,0,0-1.045-.408.535.535,0,0,0-.352.118c-.4.333-.117,1.1.243,2.077v0c.133.36.271.733.35,1.037a1.047,1.047,0,0,1,.058.505H5.971a1.642,1.642,0,0,1-.681-.259c-1.227-.671-1.443-1.15-1.5-1.452A2.907,2.907,0,0,1,4.23,4.345a8.318,8.318,0,0,0,.781-2.36c.1-.67.308-1.075.63-1.2A.776.776,0,0,1,5.926.733c.811,0,2.067,1,2.818,1.6l.041.033a10.653,10.653,0,0,1,1.428,1.388,2.568,2.568,0,0,1,.586.921H10.78a1.149,1.149,0,0,1-.26-.039A10.8,10.8,0,0,1,6.953,2.754a.276.276,0,1,0-.383.4,11.287,11.287,0,0,0,3.819,2.025,1.669,1.669,0,0,0,.389.053.531.531,0,0,0,.526-.276c.1-.2.139-.562-.6-1.47A11.053,11.053,0,0,0,9.13,1.939l-.041-.033A6.854,6.854,0,0,0,6.057.187C7.437.058,8.62,0,9.18,0h.009c.281,0,.633.339,1.019.98A15.083,15.083,0,0,1,11.783,5.32,6.976,6.976,0,0,1,11.659,9.623Z" transform="translate(693.662 326.083)" fill="#f8cda2"/>
      <path id="减去_2" data-name="减去 2" d="M4.065,23.606h0A1.75,1.75,0,0,1,2.826,23.1c-.989-.939-.708-4.043-.382-7.636.171-1.889.348-3.842.382-5.776a4.466,4.466,0,0,0-.344-2.057v-5.7a.276.276,0,1,0-.552,0V6.94a4.7,4.7,0,0,0-.577-.39C.407,5.977-.487,5.436.3,1.418.913.49,2.184,0,3.98,0A13.171,13.171,0,0,1,9.86,1.418c.25.172-.042,1.093-.411,2.258-.113.356-.229.724-.345,1.112V3.032a.276.276,0,0,0-.552,0v4.1A6.4,6.4,0,0,0,8.5,8.886c.015.112.033.226.054.338v3.187a.276.276,0,1,0,.552,0V10.891A13.079,13.079,0,0,0,10.9,13.537c.547.671.943,1.155.9,1.5a10.269,10.269,0,0,1-1.457,2.935v-3.9a.414.414,0,0,0-.828,0v4.966a.415.415,0,0,0,.019.124c-.278.384-.563.755-.847,1.1V13.515a.414.414,0,1,0-.827,0v7.173a.415.415,0,0,0,.172.336A9.894,9.894,0,0,1,5.38,23.241V14.066a.414.414,0,0,0-.828,0v9.38a.415.415,0,0,0,.013.1A2.268,2.268,0,0,1,4.065,23.606Zm2-11.057a.414.414,0,0,0-.414.414v8.828a.414.414,0,0,0,.828,0V12.963A.414.414,0,0,0,6.069,12.549Zm-2.207,1.1a.414.414,0,0,0-.414.414v7.173a.414.414,0,0,0,.828,0V14.066A.414.414,0,0,0,3.862,13.653ZM7.173,13.1a.414.414,0,0,0-.414.414v6.069a.414.414,0,1,0,.827,0V13.515A.414.414,0,0,0,7.173,13.1ZM4.966,1.652a.276.276,0,0,0-.276.276V12.411a.276.276,0,1,0,.552,0V1.928A.276.276,0,0,0,4.966,1.652ZM7.173,2.2A.276.276,0,0,0,6.9,2.48v9.38a.276.276,0,0,0,.552,0V2.48A.276.276,0,0,0,7.173,2.2Zm-1.1-.552a.276.276,0,0,0-.276.276V11.86a.276.276,0,0,0,.552,0V1.928A.276.276,0,0,0,6.069,1.652ZM3.862,1.1a.276.276,0,0,0-.276.276V9.652a.276.276,0,1,0,.552,0V1.377A.276.276,0,0,0,3.862,1.1Z" transform="translate(686.111 319.693)" fill="#bfc4ff"/>
      <path id="减去_1" data-name="减去 1" d="M4.453,38.276h0a4.8,4.8,0,0,1-2.7-.845C1.2,37.067.77,36.119.473,34.614A32.6,32.6,0,0,1,0,29.169a1.931,1.931,0,1,0,.022-3.615c.115-4.112.514-8.92,1.124-13.537a4.171,4.171,0,0,0,1.473,2.1,4.138,4.138,0,1,0-.962-5.594C2.522,3.188,3.457,0,4.157,0h.032a15.361,15.361,0,0,1,6.623,1.2c1.037.494,3.872,8.637,5.461,16.607a1.932,1.932,0,1,0,.144.739,44.88,44.88,0,0,1,.952,9.26c-.091,2.828-.739,4.547-1.925,5.109a43.049,43.049,0,0,0-4.471,2.558C8.577,36.976,6.507,38.275,4.453,38.276ZM6.21,28.194a4.138,4.138,0,1,0,4.138,4.138A4.143,4.143,0,0,0,6.21,28.194Zm7.725,0a1.931,1.931,0,1,0,1.931,1.931A1.933,1.933,0,0,0,13.934,28.194Zm-2.483-7.725a3.862,3.862,0,1,0,3.862,3.862A3.867,3.867,0,0,0,11.452,20.469ZM5.106,22.124a1.931,1.931,0,1,0,1.931,1.931A1.933,1.933,0,0,0,5.106,22.124ZM3.451,17.159A1.931,1.931,0,1,0,5.383,19.09,1.933,1.933,0,0,0,3.451,17.159Zm7.724-5.517a1.931,1.931,0,1,0,1.931,1.931A1.933,1.933,0,0,0,11.176,11.641ZM6.761,2.813A1.931,1.931,0,1,0,8.693,4.744,1.933,1.933,0,0,0,6.761,2.813Z" transform="translate(671.625 306.945)" fill="#91e1f4"/>
      <path id="减去_7" data-name="减去 7" d="M7.493,14.364a3.709,3.709,0,0,1-1.44-.9.546.546,0,0,1,.212-.046.778.778,0,0,1,.519.274.138.138,0,0,0,.2,0,.139.139,0,0,0,0-.2,1.04,1.04,0,0,0-.709-.352.917.917,0,0,0-.446.131c-.219-.184-.456-.389-.7-.609.071-.045.138-.092.2-.136a1.149,1.149,0,0,1,.6-.28.778.778,0,0,1,.519.274.138.138,0,0,0,.2,0,.139.139,0,0,0,0-.2,1.041,1.041,0,0,0-.709-.352,1.39,1.39,0,0,0-.755.329c-.084.058-.171.118-.26.172L4.6,12.2a1.977,1.977,0,0,0,1.152-.452,1.148,1.148,0,0,1,.6-.28.778.778,0,0,1,.519.274.138.138,0,0,0,.1.039.138.138,0,0,0,.1-.237,1.039,1.039,0,0,0-.708-.352,1.39,1.39,0,0,0-.755.329,1.706,1.706,0,0,1-1,.4,1.463,1.463,0,0,1-.324-.038l-.016,0c-.331-.308-.683-.641-1.046-.991l-.02-.048,0-.005a2.463,2.463,0,0,0-.926-1.246,1.078,1.078,0,0,0-.571-.2l-.3-.3a.694.694,0,0,1,.385-.127.793.793,0,0,1,.44.152,2.2,2.2,0,0,1,.824,1.124,1.672,1.672,0,0,0,1.278,1.21c.04.009.081.018.124.024a1.665,1.665,0,0,0,.26.021,1.973,1.973,0,0,0,1.158-.451,1.15,1.15,0,0,1,.6-.28.778.778,0,0,1,.519.274.136.136,0,0,0,.1.039.138.138,0,0,0,.1-.237,1.041,1.041,0,0,0-.709-.352,1.39,1.39,0,0,0-.755.329,1.7,1.7,0,0,1-1,.4,1.466,1.466,0,0,1-.323-.038,1.338,1.338,0,0,1-1.048-.962,1.609,1.609,0,0,0,.805.413c.042.009.084.017.124.024a1.671,1.671,0,0,0,.26.021,1.979,1.979,0,0,0,1.157-.451,1.151,1.151,0,0,1,.6-.281.778.778,0,0,1,.519.274.136.136,0,0,0,.1.039.138.138,0,0,0,.1-.237,1.04,1.04,0,0,0-.708-.352,1.391,1.391,0,0,0-.756.33,1.7,1.7,0,0,1-1,.4,1.466,1.466,0,0,1-.323-.038c-.709-.161-.874-.552-1.084-1.046a2.467,2.467,0,0,0-.927-1.249,1.07,1.07,0,0,0-.591-.2.978.978,0,0,0-.525.163,1.908,1.908,0,0,0-.385.335L.6,8.271.585,8.258c.041-.052.085-.109.127-.165.321-.424.641-.8,1.024-.8a.794.794,0,0,1,.44.152A2.2,2.2,0,0,1,3,8.565a1.67,1.67,0,0,0,1.277,1.21c.042.009.084.017.124.024a1.665,1.665,0,0,0,.26.021,1.977,1.977,0,0,0,1.158-.451,1.146,1.146,0,0,1,.6-.28.779.779,0,0,1,.519.274.138.138,0,0,0,.2,0,.137.137,0,0,0,0-.195,1.04,1.04,0,0,0-.709-.352,1.39,1.39,0,0,0-.755.329,1.706,1.706,0,0,1-1,.4,1.463,1.463,0,0,1-.324-.038c-.71-.161-.876-.553-1.085-1.048a2.463,2.463,0,0,0-.926-1.246,1.07,1.07,0,0,0-.591-.2.98.98,0,0,0-.525.163,3.031,3.031,0,0,0-.719.747l0,0-.005.007L.4,8.044c-.967-1.351-.009-4.672.98-6.6C1.846.541,2.285,0,2.555,0h.082C4.558,0,5.759.2,6.31.624a5.339,5.339,0,0,1,.552,2.228A1.641,1.641,0,0,1,5.692,1.7v0A2.627,2.627,0,0,0,4.645.356,1.471,1.471,0,0,0,3.838.094,2.353,2.353,0,0,0,2.372.857c-.175.156-.394.35-.494.35a.057.057,0,0,1-.023,0A.135.135,0,0,0,1.8,1.191a.138.138,0,0,0-.056.264.327.327,0,0,0,.133.028c.206,0,.424-.195.678-.42A2.077,2.077,0,0,1,3.836.372a1.186,1.186,0,0,1,.659.215,2.361,2.361,0,0,1,.943,1.224A1.93,1.93,0,0,0,6.9,3.153c.027.207.052.417.077.627-.072-.014-.141-.03-.208-.049a1.668,1.668,0,0,1-1.29-1.186A2.622,2.622,0,0,0,4.435,1.2,1.471,1.471,0,0,0,3.627.936,2.353,2.353,0,0,0,2.162,1.7c-.176.156-.394.35-.494.35a.057.057,0,0,1-.023,0,.138.138,0,1,0-.111.253.326.326,0,0,0,.132.028c.205,0,.424-.195.678-.421a2.077,2.077,0,0,1,1.28-.691,1.2,1.2,0,0,1,.659.216,2.361,2.361,0,0,1,.943,1.222l.029.067a2.448,2.448,0,0,0-.711-.689,1.471,1.471,0,0,0-.807-.262,2.353,2.353,0,0,0-1.466.763c-.175.156-.394.35-.494.35a.057.057,0,0,1-.023,0A.135.135,0,0,0,1.7,2.864a.138.138,0,0,0-.127.082.138.138,0,0,0,.071.182.327.327,0,0,0,.133.028c.206,0,.424-.195.678-.42a2.075,2.075,0,0,1,1.28-.691,1.2,1.2,0,0,1,.659.216,2.361,2.361,0,0,1,.943,1.224A1.932,1.932,0,0,0,6.806,4.828l.081.021c.07.018.141.032.211.044l0,.027q.019.2.039.41a2.308,2.308,0,0,1-.432-.079,1.668,1.668,0,0,1-1.29-1.186A2.622,2.622,0,0,0,4.372,2.718a1.47,1.47,0,0,0-.807-.263A2.353,2.353,0,0,0,2.1,3.218l-.006.006c-.173.153-.388.344-.487.344a.057.057,0,0,1-.023,0,.138.138,0,1,0-.111.252.327.327,0,0,0,.132.028.416.416,0,0,0,.163-.036c-.052.045-.1.089-.151.132L1.6,3.957l0,0c-.174.154-.39.347-.489.347a.057.057,0,0,1-.023,0,.138.138,0,0,0-.111.252.326.326,0,0,0,.132.028c.206,0,.425-.195.679-.42a2.072,2.072,0,0,1,1.28-.691,1.2,1.2,0,0,1,.659.216,2.361,2.361,0,0,1,.943,1.224A1.928,1.928,0,0,0,6.133,6.254l.081.022a2.454,2.454,0,0,0,.591.075,2.215,2.215,0,0,0,.422-.04c.029.347.054.656.076.945a1.964,1.964,0,0,1-.253.016,2.182,2.182,0,0,1-.6-.086A1.668,1.668,0,0,1,5.163,6,2.623,2.623,0,0,0,4.118,4.654a1.47,1.47,0,0,0-.807-.263,2.355,2.355,0,0,0-1.466.763c-.175.156-.394.35-.493.35a.057.057,0,0,1-.023,0,.138.138,0,0,0-.111.253.326.326,0,0,0,.132.028c.205,0,.424-.195.678-.421a2.077,2.077,0,0,1,1.28-.691,1.2,1.2,0,0,1,.659.216,2.361,2.361,0,0,1,.943,1.222,1.932,1.932,0,0,0,1.47,1.344l.072.019.009,0a2.449,2.449,0,0,0,.59.075,2.231,2.231,0,0,0,.274-.017l.012.162q.015.215.031.43l-.018.008-.012.005a2.674,2.674,0,0,1-1.121.3,2.182,2.182,0,0,1-.6-.086A1.668,1.668,0,0,1,4.33,7.161,2.622,2.622,0,0,0,3.284,5.815a1.47,1.47,0,0,0-.807-.263,2.355,2.355,0,0,0-1.466.763c-.175.156-.394.35-.493.35a.057.057,0,0,1-.023,0,.138.138,0,0,0-.111.253.326.326,0,0,0,.132.028c.206,0,.425-.195.678-.421a2.077,2.077,0,0,1,1.28-.691,1.2,1.2,0,0,1,.659.216,2.361,2.361,0,0,1,.943,1.222,1.931,1.931,0,0,0,1.47,1.344l.072.019.009,0a2.418,2.418,0,0,0,.59.075,2.8,2.8,0,0,0,1.17-.293c.2,2.9.288,5.391.244,5.819A.126.126,0,0,1,7.493,14.364ZM2.6,10.293l-.463-.457a1.812,1.812,0,0,1,.464.456Zm.184-1.053a2.094,2.094,0,0,0-.411-.352,1.07,1.07,0,0,0-.591-.2.978.978,0,0,0-.525.163L1.2,8.892l-.02-.02-.295-.3A1,1,0,0,1,1.6,8.146a.793.793,0,0,1,.44.152,2,2,0,0,1,.745.94ZM6.8,6.075a2.184,2.184,0,0,1-.6-.086A1.666,1.666,0,0,1,4.918,4.8,2.626,2.626,0,0,0,3.872,3.456a1.469,1.469,0,0,0-.807-.263,1.54,1.54,0,0,0-.792.241l0-.005,0,0a2.075,2.075,0,0,1,1.28-.691,1.2,1.2,0,0,1,.659.216,2.361,2.361,0,0,1,.943,1.224A1.931,1.931,0,0,0,6.634,5.516l.072.019.009,0a2.514,2.514,0,0,0,.45.071l.014.157.024.268A1.962,1.962,0,0,1,6.8,6.075Zm.264-1.468h0c-.062-.012-.125-.027-.188-.045A1.667,1.667,0,0,1,5.59,3.377l-.026-.062-.02-.046A1.971,1.971,0,0,0,6.7,4l.072.019.009,0c.078.019.157.035.233.047.019.174.039.356.058.541Z" transform="translate(685.185 338.767)" fill="#ffe08d"/>
      <path id="路径_55" data-name="路径 55" d="M-6.245-1.021c.79,0,2.987.219,3.648.737s.732,11.52.646,12.4S-6.163,9.063-7.578,7.538-7.036-1.02-6.245-1.021Z" transform="translate(715.871 332.517)" fill="#facae2"/>
      <path id="减去_5" data-name="减去 5" d="M10.883,34.116H10.7c-.444,0-.913-.008-1.394-.023l-.074,0,0-4.255a.828.828,0,0,0-1.655,0V33.98c-.59-.061-1.147-.144-1.656-.246V32.6a.828.828,0,1,0-1.655,0v.69a7.718,7.718,0,0,1-1.655-.805V29.836a.828.828,0,0,0-1.655,0v.914c-1.185-2.083-.7-4.809,0-7.444v1.564a.828.828,0,1,0,1.655,0v-9.38a.828.828,0,0,0-1.537-.426A4.6,4.6,0,0,1,0,11.562,16.452,16.452,0,0,1,.951,6.82v3.705a.828.828,0,0,0,1.655,0V3.054C3.668,1.142,4.718,0,5.417,0h.024a57.935,57.935,0,0,1,8.84.775.818.818,0,0,0-.088.371v9.38a.828.828,0,0,0,1.655,0V1.18c.137.05.257.1.355.146.394.188.272,2.148.1,4.86a69.836,69.836,0,0,0-.1,10.371,23.528,23.528,0,0,0,1.3,5.311v5.761a.828.828,0,1,0,1.655,0v-.907a9.944,9.944,0,0,1,.456,2.9,3.678,3.678,0,0,1-.779,2.314.819.819,0,0,0-.5-.172.828.828,0,0,0-.827.828v.394a7.815,7.815,0,0,1-1.656.613V29.836a.828.828,0,0,0-1.655,0v4.079c-.514.068-1.07.119-1.655.152V32.6a.828.828,0,1,0-1.655,0v1.52Zm7.448-4.556a.828.828,0,1,0,.828.828A.828.828,0,0,0,18.331,29.561Zm-6.62,0a.828.828,0,1,0,.827.828A.829.829,0,0,0,11.711,29.561Zm-6.621,0a.828.828,0,1,0,.827.828A.829.829,0,0,0,5.09,29.561ZM15.021,26.8a.828.828,0,1,0,.827.827A.828.828,0,0,0,15.021,26.8Zm-3.31-9.38a.828.828,0,0,0-.828.827v9.38a.828.828,0,1,0,1.655,0v-9.38A.828.828,0,0,0,11.711,17.422ZM8.4,26.8a.828.828,0,1,0,.828.827A.828.828,0,0,0,8.4,26.8Zm-3.31-9.38a.828.828,0,0,0-.828.827v9.38a.828.828,0,1,0,1.655,0v-9.38A.828.828,0,0,0,5.09,17.422ZM1.779,26.8a.828.828,0,1,0,.827.827A.828.828,0,0,0,1.779,26.8ZM15.021,14.664a.828.828,0,0,0-.828.827v9.38a.828.828,0,1,0,1.655,0v-9.38A.828.828,0,0,0,15.021,14.664Zm-6.621,0a.828.828,0,0,0-.827.827v9.38a.828.828,0,1,0,1.655,0v-9.38A.828.828,0,0,0,8.4,14.664Zm3.311.552a.828.828,0,1,0,.827.827A.828.828,0,0,0,11.711,15.215Zm-6.621,0a.828.828,0,1,0,.827.827A.828.828,0,0,0,5.09,15.215Zm9.932-2.759a.828.828,0,1,0,.827.828A.829.829,0,0,0,15.021,12.456Zm-3.31-9.38a.829.829,0,0,0-.828.828v9.38a.828.828,0,0,0,1.655,0V3.9A.828.828,0,0,0,11.711,3.076ZM8.4,12.456a.828.828,0,1,0,.828.828A.828.828,0,0,0,8.4,12.456ZM5.09,3.076a.829.829,0,0,0-.828.828v9.38a.828.828,0,0,0,1.655,0V3.9A.828.828,0,0,0,5.09,3.076Zm-3.31,9.38a.828.828,0,1,0,.827.828A.829.829,0,0,0,1.779,12.456ZM8.4.318a.828.828,0,0,0-.827.828v9.38a.828.828,0,0,0,1.655,0V1.146A.829.829,0,0,0,8.4.318Zm3.311.552a.828.828,0,1,0,.827.828A.829.829,0,0,0,11.711.869ZM5.09.869a.828.828,0,1,0,.827.828A.829.829,0,0,0,5.09.869Z" transform="translate(732.334 311.648)" fill="#73add8"/>
      <path id="减去_4" data-name="减去 4" d="M7.135,30.346h0l4.024-1.72A5.827,5.827,0,0,1,7.135,30.346Zm-1.781-.14h0a7.716,7.716,0,0,1-2.5-.969L12.93,24.928a10.642,10.642,0,0,1-.84,2.4ZM2.062,28.674h0a6.136,6.136,0,0,1-.943-.96l12.237-5.231c-.063.516-.137,1.006-.22,1.458ZM.652,27.012h0A5.091,5.091,0,0,1,.128,25.66l12.148-5.194a.414.414,0,1,0-.325-.761L.008,24.811a5.378,5.378,0,0,1,.018-.823l12.25-5.237a.414.414,0,1,0-.325-.761L.207,23.011a7.421,7.421,0,0,1,.519-1.355c.112-.225.218-.449.317-.664l11.18-4.779a.276.276,0,0,0-.108-.53.273.273,0,0,0-.108.022L1.362,20.255a11.536,11.536,0,0,0,.68-2.185l10.181-4.352a.276.276,0,0,0-.108-.53.273.273,0,0,0-.108.022L2.131,17.433A3.984,3.984,0,0,0,2,15.914l10.223-4.37a.276.276,0,0,0-.217-.507L1.795,15.4a5.248,5.248,0,0,0-.887-1.185L.865,14.17,11.573,9.592a.276.276,0,1,0-.217-.507L.486,13.732a1.893,1.893,0,0,1-.474-1.267l0-.191L8.758,8.536a.276.276,0,1,0-.217-.507L.022,11.67c0-.352.007-.753.01-1.262l8.726-3.73a.276.276,0,1,0-.217-.507L.034,9.808q0-.314,0-.622V8.954L8.758,5.226a.276.276,0,0,0-.109-.53.272.272,0,0,0-.108.022L.04,8.352q0-.19,0-.377V7.9l11.532-4.93a.276.276,0,0,0-.217-.507L.046,7.3c.008-.872.021-1.548.042-2.127L11.151.443c.615.476,1.381,3.625,1.906,7.838a65.085,65.085,0,0,1,.4,13.257L.652,27.011ZM.114,4.561h0C.243,2.065.6.952,1.258.95A22.562,22.562,0,0,0,4.17.572,32.8,32.8,0,0,1,9.065,0a5.852,5.852,0,0,1,1.394.139L.115,4.561Z" transform="translate(729.365 317.8)" fill="#d3ffe4"/>
      <path id="减去_6" data-name="减去 6" d="M4.064,23.607h0A1.75,1.75,0,0,1,2.825,23.1c-.472-.448-.69-1.4-.686-3.01H7.723a.828.828,0,1,0,0-1.655H2.2c.053-.846.133-1.75.224-2.759H9.931a.828.828,0,0,0,0-1.655H2.571c.093-1.078.156-1.955.2-2.759h4.4a.828.828,0,1,0,0-1.655H2.826c.015-1.758-.5-2.381-1.012-2.759H7.171a.828.828,0,1,0,0-1.656H1.1a.833.833,0,0,0-.747.471,5.147,5.147,0,0,1-.228-3.23H5.516a.828.828,0,1,0,0-1.655H.912A5.13,5.13,0,0,1,3.978,0a13.177,13.177,0,0,1,5.88,1.417c.25.173-.042,1.093-.411,2.258A21.387,21.387,0,0,0,8.515,7.4H3.861a.828.828,0,1,0,0,1.655H8.522a7.267,7.267,0,0,0,1.092,2.759h-5.2a.828.828,0,1,0,0,1.655h6.07a.821.821,0,0,0,.31-.06l.1.128c.547.671.943,1.155.9,1.5a4.333,4.333,0,0,1-.454,1.194H4.413a.828.828,0,0,0,0,1.656H10.4a24.839,24.839,0,0,1-2.03,2.758H3.861a.828.828,0,1,0,0,1.655h2.88A4.459,4.459,0,0,1,4.064,23.607ZM2.206,2.986a.828.828,0,1,0,0,1.655H8.275a.828.828,0,1,0,0-1.655Z" transform="translate(717.561 326.083)" fill="#bfc4ff"/>
      <path id="路径_49" data-name="路径 49" d="M3.113-1.021c-1.6,0-6.851.388-8.193.988-2.517,4.831,1.9,3.4,1.6,7.123-.331,4-7.956,8.126-.7,9.542,1.523.3,8.963.748,10.072.45,3.311-.876-2.92-5.373-.651-6.768C8.107,8.547,4.718-1.019,3.113-1.021Z" transform="translate(711.086 333.446)" fill="#9df2db"/>
      <path id="Rail" d="M761.262,310.4c2.652,12.347-23.13,25.349-32.782,30.355s-22.211,7.769-31.243,9.831-7.324,10.943-7.324,10.943" transform="translate(-12.344 -10.352)" fill="none" stroke="#dedede" stroke-linecap="round" stroke-width="1"/>
      <g id="组_31" data-name="组 31" transform="translate(703.704 331.292)">
        <path id="路径_57" data-name="路径 57" d="M1.5.64S2.124-.284,2.7.1,2.118,2.223,1.5,2.233-.559.638.23.14,1.5.64,1.5.64Z" transform="matrix(0.848, -0.53, 0.53, 0.848, 2.506, 3.982)" fill="url(#linear-gradient-7)"/>
        <path id="路径_58" data-name="路径 58" d="M1.5.64S2.124-.284,2.7.1,2.118,2.223,1.5,2.233-.559.638.23.14,1.5.64,1.5.64Z" transform="translate(9.738 0) rotate(30)" fill="url(#linear-gradient-7)"/>
        <path id="路径_59" data-name="路径 59" d="M1.5.64S2.124-.284,2.7.1,2.118,2.223,1.5,2.233-.559.638.23.14,1.5.64,1.5.64Z" transform="translate(12.17 5.507) rotate(73)" fill="url(#linear-gradient-7)"/>
        <path id="路径_60" data-name="路径 60" d="M1.5.64S2.124-.284,2.7.1,2.118,2.223,1.5,2.233-.559.638.23.14,1.5.64,1.5.64Z" transform="translate(6.408 4.726) rotate(11)" fill="url(#linear-gradient-7)"/>
        <path id="路径_61" data-name="路径 61" d="M1.5.64S2.124-.284,2.7.1,2.118,2.223,1.5,2.233-.559.638.23.14,1.5.64,1.5.64Z" transform="matrix(0.53, -0.848, 0.848, 0.53, 2.605, 10.572)" fill="url(#linear-gradient-7)"/>
        <path id="路径_62" data-name="路径 62" d="M1.5.64S2.124-.284,2.7.1,2.118,2.223,1.5,2.233-.559.638.23.14,1.5.64,1.5.64Z" transform="matrix(0.891, 0.454, -0.454, 0.891, 1.014, 12.828)" fill="url(#linear-gradient-7)"/>
        <path id="路径_63" data-name="路径 63" d="M1.5.64S2.124-.284,2.7.1,2.118,2.223,1.5,2.233-.559.638.23.14,1.5.64,1.5.64Z" transform="matrix(0.993, -0.122, 0.122, 0.993, 5.769, 11.625)" fill="url(#linear-gradient-7)"/>
        <path id="路径_64" data-name="路径 64" d="M1.5.64S2.124-.284,2.7.1,2.118,2.223,1.5,2.233-.559.638.23.14,1.5.64,1.5.64Z" transform="translate(12.776 14.631) rotate(87)" fill="url(#linear-gradient-7)"/>
        <path id="路径_65" data-name="路径 65" d="M1.5.64S2.124-.284,2.7.1,2.118,2.223,1.5,2.233-.559.638.23.14,1.5.64,1.5.64Z" transform="matrix(-0.891, 0.454, -0.454, -0.891, 6.699, 18.749)" fill="url(#linear-gradient-7)"/>
        <path id="路径_66" data-name="路径 66" d="M1.5.64S2.124-.284,2.7.1,2.118,2.223,1.5,2.233-.559.638.23.14,1.5.64,1.5.64Z" transform="matrix(-0.891, 0.454, -0.454, -0.891, 11.153, 19.588)" fill="url(#linear-gradient-7)"/>
        <path id="路径_67" data-name="路径 67" d="M1.5.64S2.124-.284,2.7.1,2.118,2.223,1.5,2.233-.559.638.23.14,1.5.64,1.5.64Z" transform="translate(13.411 9.364) rotate(81)" fill="url(#linear-gradient-7)"/>
        <path id="路径_68" data-name="路径 68" d="M1.5.64S2.124-.284,2.7.1,2.118,2.223,1.5,2.233-.559.638.23.14,1.5.64,1.5.64Z" transform="translate(7.943 7.683) rotate(30)" fill="url(#linear-gradient-7)"/>
        <path id="路径_69" data-name="路径 69" d="M1.5.64S2.124-.284,2.7.1,2.118,2.223,1.5,2.233-.559.638.23.14,1.5.64,1.5.64Z" transform="matrix(0.94, 0.342, -0.342, 0.94, 6.861, 14.38)" fill="url(#linear-gradient-7)"/>
        <path id="路径_70" data-name="路径 70" d="M1.5.64S2.124-.284,2.7.1,2.118,2.223,1.5,2.233-.559.638.23.14,1.5.64,1.5.64Z" transform="translate(0.247 16.258) rotate(-22)" fill="url(#linear-gradient-7)"/>
      </g>
      <g data-type="innerShadowGroup">
        <path id="路径_30-2" data-name="路径 30" d="M808,548.315c-9.648-1.136-19.581-2.709-36.846-1.67s-25.665,1.418-36.913,4.933-17.368,11.269,15.35,12.269,42.4.889,56.308-1.447,17.43-5.38,19.6-8.363S817.651,549.451,808,548.315Z" transform="translate(-63 -259)" fill="#feecc7"/>
        <g transform="matrix(1, 0, 0, 1, 226.66, 287.31)" filter="url(#路径_30)">
          <path id="路径_30-3" data-name="路径 30" d="M808,548.315c-9.648-1.136-19.581-2.709-36.846-1.67s-25.665,1.418-36.913,4.933-17.368,11.269,15.35,12.269,42.4.889,56.308-1.447,17.43-5.38,19.6-8.363S817.651,549.451,808,548.315Z" transform="translate(-289.66 -546.31)" fill="#fff"/>
        </g>
      </g>
      <g id="组_33" data-name="组 33" transform="translate(693.662 335.506)">
        <path id="路径_48" data-name="路径 48" d="M-5.9-1.021c.941,0,3.555.254,4.342.854s.872,13.342.768,14.359-5.013-3.535-6.7-5.3S-6.837-1.019-5.9-1.021Z" transform="translate(9.151 1.686)" fill="url(#linear-gradient-21)"/>
        <path id="多边形_1" data-name="多边形 1" d="M.276,0,.552,1.655H0Z" transform="matrix(0.407, 0.914, -0.914, 0.407, 8.176, 1.203)" fill="url(#linear-gradient-22)"/>
        <path id="多边形_13" data-name="多边形 13" d="M.276,0,.552,1.655H0Z" transform="matrix(0.839, -0.545, 0.545, 0.839, 2.058, 0.301)" fill="url(#linear-gradient-22)"/>
        <path id="多边形_14" data-name="多边形 14" d="M.276,0,.552,1.655H0Z" transform="matrix(0.087, 0.996, -0.996, 0.087, 6.791, 6.018)" fill="url(#linear-gradient-22)"/>
        <path id="多边形_15" data-name="多边形 15" d="M.276,0,.552,1.655H0Z" transform="matrix(0.087, 0.996, -0.996, 0.087, 9.55, 9.329)" fill="url(#linear-gradient-22)"/>
        <path id="多边形_16" data-name="多边形 16" d="M.276,0,.552,1.655H0Z" transform="matrix(0.616, 0.788, -0.788, 0.616, 8.961, 6.209)" fill="url(#linear-gradient-22)"/>
        <path id="多边形_2" data-name="多边形 2" d="M.276,0,.552,1.655H0Z" transform="matrix(0.407, 0.914, -0.914, 0.407, 5.766, 3.261)" fill="url(#linear-gradient-22)"/>
        <path id="多边形_9" data-name="多边形 9" d="M.276,0,.552,1.655H0Z" transform="matrix(0.407, 0.914, -0.914, 0.407, 9.077, 13.389)" fill="url(#linear-gradient-22)"/>
        <path id="多边形_8" data-name="多边形 8" d="M.276,0,.552,1.655H0Z" transform="matrix(0.407, 0.914, -0.914, 0.407, 8.594, 4.364)" fill="url(#linear-gradient-22)"/>
        <path id="多边形_3" data-name="多边形 3" d="M.276,0,.552,1.655H0Z" transform="translate(1.217 3.577) rotate(-56)" fill="url(#linear-gradient-22)"/>
        <path id="多边形_4" data-name="多边形 4" d="M.276,0,.552,1.655H0Z" transform="matrix(-0.485, -0.875, 0.875, -0.485, 2.325, 8.436)" fill="url(#linear-gradient-22)"/>
        <path id="多边形_5" data-name="多边形 5" d="M.276,0,.552,1.655H0Z" transform="translate(8.736 8.659) rotate(127)" fill="url(#linear-gradient-22)"/>
        <path id="多边形_6" data-name="多边形 6" d="M.276,0,.552,1.655H0Z" transform="translate(7.536 11.452) rotate(108)" fill="url(#linear-gradient-22)"/>
        <path id="多边形_12" data-name="多边形 12" d="M.276,0,.552,1.655H0Z" transform="translate(3.41 13.991) rotate(-137)" fill="url(#linear-gradient-22)"/>
        <path id="多边形_7" data-name="多边形 7" d="M.276,0,.552,1.655H0Z" transform="translate(3.373 10.973) rotate(-124)" fill="url(#linear-gradient-22)"/>
        <path id="多边形_10" data-name="多边形 10" d="M.276,0,.552,1.655H0Z" transform="translate(0.309 10.635) rotate(-124)" fill="url(#linear-gradient-22)"/>
        <path id="多边形_11" data-name="多边形 11" d="M.276,0,.552,1.655H0Z" transform="translate(0.018 7.475) rotate(-91)" fill="url(#linear-gradient-22)"/>
      </g>
    </g>
  </g>
</svg>
