<svg xmlns="http://www.w3.org/2000/svg" xmlns:xlink="http://www.w3.org/1999/xlink" width="33.797" height="33.797" viewBox="0 0 33.797 33.797">
  <defs>
    <radialGradient id="radial-gradient" cx="0.367" cy="0.36" r="0.601" gradientTransform="translate(0 -0.011) scale(1 1.03)" gradientUnits="objectBoundingBox">
      <stop offset="0" stop-color="#81ddf8" stop-opacity="0.431"/>
      <stop offset="0.404" stop-color="#81ddf8" stop-opacity="0.404"/>
      <stop offset="0.768" stop-color="#35c8f4" stop-opacity="0.569"/>
      <stop offset="1" stop-color="#1eb3e0" stop-opacity="0.718"/>
    </radialGradient>
    <radialGradient id="radial-gradient-2" cx="0.5" cy="0.5" r="0.5" gradientUnits="objectBoundingBox">
      <stop offset="0" stop-color="#a5a5a5" stop-opacity="0"/>
      <stop offset="0.773" stop-color="#6a6a6a" stop-opacity="0"/>
      <stop offset="1" stop-color="#545454" stop-opacity="0.271"/>
    </radialGradient>
    <linearGradient id="linear-gradient" x1="0.772" y1="0.128" x2="0.812" y2="0.905" gradientUnits="objectBoundingBox">
      <stop offset="0" stop-color="#dedede" stop-opacity="0.031"/>
      <stop offset="0.32" stop-color="#868686"/>
      <stop offset="1" stop-color="#d5d5d5" stop-opacity="0"/>
    </linearGradient>
    <linearGradient id="linear-gradient-2" x1="0.97" y1="0.023" x2="-0.03" y2="0.896" gradientUnits="objectBoundingBox">
      <stop offset="0" stop-color="#fff" stop-opacity="0"/>
      <stop offset="0.415" stop-color="#fff"/>
      <stop offset="0.587" stop-color="#fff"/>
      <stop offset="1" stop-color="#fff" stop-opacity="0"/>
    </linearGradient>
  </defs>
  <g id="Group_355" data-name="Group 355" transform="translate(-39.238 -208.238)">
    <circle id="Ellipse_1" data-name="Ellipse 1" cx="12.564" cy="12.564" r="12.564" transform="translate(43.572 212.572)" fill="url(#radial-gradient)"/>
    <path id="椭圆_231" data-name="椭圆 231" d="M12.677,1.608c-1.546,0-2.572,1-3.982,1.6A8.034,8.034,0,0,0,5.476,4.968a11.911,11.911,0,0,0-2.541,3.7,9.722,9.722,0,0,0-.918,4.1,8.857,8.857,0,0,0,.659,3.948,9.871,9.871,0,0,0,2.383,3.309,8.459,8.459,0,0,0,3.254,1.9c1.411.6,2.706.377,4.252.377s3.123.6,4.534,0c1.363-.577,1.733-1.23,2.785-2.282a10.761,10.761,0,0,0,2.669-3.309,8.806,8.806,0,0,0,.561-3.948,10.605,10.605,0,0,0-.561-4.342c-.577-1.363-1.894-.986-2.946-2.037s-1.637-2.6-3-3.175M12.564,0A12.564,12.564,0,1,1,0,12.564,12.564,12.564,0,0,1,12.564,0Z" transform="translate(43.572 212.572)" opacity="0.825" fill="url(#radial-gradient-2)"/>
    <path id="椭圆_231-2" data-name="椭圆 231" d="M12.564.279a12.288,12.288,0,0,0-4.782,23.6A12.288,12.288,0,0,0,17.346,1.244,12.208,12.208,0,0,0,12.564.279m0-.279A12.564,12.564,0,1,1,0,12.564,12.564,12.564,0,0,1,12.564,0Z" transform="matrix(0.891, 0.454, -0.454, 0.891, 50.646, 208.238)" fill="url(#linear-gradient)"/>
    <path id="Path_538" data-name="Path 538" d="M1.766,2.657C3.428.2,5.181-.416,6.357.25s-1.023,3.279-2,4.626S1.819,9.957.608,8.741.1,5.112,1.766,2.657Z" transform="matrix(0.995, 0.105, -0.105, 0.995, 46.383, 214.957)" fill="#fff"/>
    <path id="Path_540" data-name="Path 540" d="M2.342,4.815c3.724-5.028,9.25-5.235,9.49-4.5.118.361-2.3.486-4.483,1.463a11.628,11.628,0,0,0-4.3,3.585,13.882,13.882,0,0,0-2.2,5.454c-.338,2.642.406,5.369.066,5.4C.3,16.261-1.383,9.843,2.342,4.815Z" transform="matrix(-0.978, -0.208, 0.208, -0.978, 65.33, 239.156)" fill="url(#linear-gradient-2)"/>
    <path id="Path_539" data-name="Path 539" d="M.649.922C1.259.07,1.9-.144,2.336.087S1.96,1.224,1.6,1.691.668,3.454.223,3.032.038,1.773.649.922Z" transform="translate(44.301 227.262) rotate(-45)" fill="#fff"/>
  </g>
</svg>
