<svg xmlns="http://www.w3.org/2000/svg" width="197" height="42" viewBox="0 0 197 42">
  <g id="组_297" data-name="组 297" transform="translate(-1664 -137)">
    <rect id="矩形_5" data-name="矩形 5" width="197" height="42" rx="21" transform="translate(1664 137)" fill="rgba(188,234,180,0.53)"/>
    <path id="路径_562" data-name="路径 562" d="M1.125,0V-1.665h2.25v-7.14H1.125V-10.47h6.75v1.665H5.625v7.14h2.25V0ZM14.1,0a2.323,2.323,0,0,1-1.785-.63,2.266,2.266,0,0,1-.585-1.605v-3.78H9.63V-7.74h1.365a1.025,1.025,0,0,0,.7-.2.967.967,0,0,0,.21-.72V-10.47h2.04v2.73h3.015v1.725H13.95v4.29h3.015V0Zm7.62-11.1h2.85L22.5-6.21H20.865ZM31.41.18a5.9,5.9,0,0,1-2.243-.39,3.174,3.174,0,0,1-1.432-1.065L28.98-2.43a3.227,3.227,0,0,0,1.058.773,3.305,3.305,0,0,0,1.387.278,2.2,2.2,0,0,0,1.035-.2.663.663,0,0,0,.375-.622.466.466,0,0,0-.255-.457,2.557,2.557,0,0,0-.705-.2L30.63-3.06a5.153,5.153,0,0,1-.975-.233,2.548,2.548,0,0,1-.78-.428,1.994,1.994,0,0,1-.525-.66,2.1,2.1,0,0,1-.195-.945,2.241,2.241,0,0,1,.93-1.905,4.309,4.309,0,0,1,2.61-.69,5.441,5.441,0,0,1,1.943.308,3.074,3.074,0,0,1,1.282.877l-1.11,1.26a2.82,2.82,0,0,0-.885-.63A3.037,3.037,0,0,0,31.62-6.36q-1.29,0-1.29.78a.479.479,0,0,0,.255.472,2.557,2.557,0,0,0,.705.2l1.23.195a5.153,5.153,0,0,1,.975.233,2.649,2.649,0,0,1,.788.427,1.954,1.954,0,0,1,.533.66,2.1,2.1,0,0,1,.195.945,2.274,2.274,0,0,1-.937,1.92A4.36,4.36,0,0,1,31.41.18Zm14.7-1.905H47.9v-4.29H46.11V-7.74h4v2.19h.105a4.432,4.432,0,0,1,.292-.817,2.663,2.663,0,0,1,.48-.705,2.124,2.124,0,0,1,.713-.487,2.5,2.5,0,0,1,.99-.18h.735V-5.7H51.78a1.553,1.553,0,0,0-1.245.487,1.764,1.764,0,0,0-.42,1.193v2.295h2.55V0H46.11ZM61.305,0a1.67,1.67,0,0,1-1.11-.352A1.479,1.479,0,0,1,59.7-1.365h-.075A1.9,1.9,0,0,1,58.792-.21,2.813,2.813,0,0,1,57.27.18a2.618,2.618,0,0,1-1.807-.608,2.161,2.161,0,0,1-.683-1.7,2.007,2.007,0,0,1,.885-1.8,4.725,4.725,0,0,1,2.6-.585h1.245V-4.9a1.5,1.5,0,0,0-.323-1.043A1.42,1.42,0,0,0,58.1-6.3a2.138,2.138,0,0,0-1.14.27,2.642,2.642,0,0,0-.75.705L54.99-6.4a2.912,2.912,0,0,1,1.222-1.088A4.671,4.671,0,0,1,58.35-7.92a3.825,3.825,0,0,1,2.483.727,2.668,2.668,0,0,1,.892,2.2v3.39h.855V0ZM58.11-1.275a1.677,1.677,0,0,0,.99-.285.946.946,0,0,0,.405-.825v-.93H58.32q-1.365,0-1.365.915v.3a.692.692,0,0,0,.315.615A1.493,1.493,0,0,0,58.11-1.275ZM67.98-8.73a1.411,1.411,0,0,1-1.043-.307,1.038,1.038,0,0,1-.293-.742v-.435a1.031,1.031,0,0,1,.293-.75,1.435,1.435,0,0,1,1.043-.3,1.435,1.435,0,0,1,1.042.3,1.031,1.031,0,0,1,.293.75v.435a1.038,1.038,0,0,1-.293.742A1.411,1.411,0,0,1,67.98-8.73ZM64.41-1.725h2.46v-4.29H64.41V-7.74h4.68v6.015h2.28V0H64.41ZM72.975,0V-7.74h2.22v1.41h.09a3.294,3.294,0,0,1,.33-.615,2.25,2.25,0,0,1,.473-.5,2.21,2.21,0,0,1,.645-.345,2.531,2.531,0,0,1,.833-.127,2.7,2.7,0,0,1,1.02.188,2.081,2.081,0,0,1,.795.563,2.714,2.714,0,0,1,.518.915,3.79,3.79,0,0,1,.188,1.245V0h-2.22V-4.71q0-1.5-1.305-1.5a1.9,1.9,0,0,0-.5.068,1.34,1.34,0,0,0-.443.21,1.04,1.04,0,0,0-.307.352,1.033,1.033,0,0,0-.113.495V0ZM85.98-8.73a1.411,1.411,0,0,1-1.043-.307,1.038,1.038,0,0,1-.293-.742v-.435a1.031,1.031,0,0,1,.293-.75,1.435,1.435,0,0,1,1.043-.3,1.435,1.435,0,0,1,1.042.3,1.031,1.031,0,0,1,.293.75v.435a1.038,1.038,0,0,1-.293.742A1.411,1.411,0,0,1,85.98-8.73ZM82.41-1.725h2.46v-4.29H82.41V-7.74h4.68v6.015h2.28V0H82.41ZM90.975,0V-7.74h2.22v1.41h.09a3.294,3.294,0,0,1,.33-.615,2.25,2.25,0,0,1,.473-.5,2.21,2.21,0,0,1,.645-.345,2.531,2.531,0,0,1,.833-.127,2.7,2.7,0,0,1,1.02.188,2.081,2.081,0,0,1,.795.563,2.714,2.714,0,0,1,.518.915,3.79,3.79,0,0,1,.188,1.245V0h-2.22V-4.71q0-1.5-1.305-1.5a1.9,1.9,0,0,0-.5.068,1.34,1.34,0,0,0-.443.21,1.04,1.04,0,0,0-.307.352,1.033,1.033,0,0,0-.113.495V0Zm16.77.78a1.943,1.943,0,0,1-1.035,1.815,6.886,6.886,0,0,1-3.255.585,10.807,10.807,0,0,1-1.83-.128,3.684,3.684,0,0,1-1.147-.367,1.444,1.444,0,0,1-.6-.57,1.531,1.531,0,0,1-.173-.72,1.247,1.247,0,0,1,.39-1,2.662,2.662,0,0,1,1.1-.518V-.21a1.942,1.942,0,0,1-.788-.427,1.034,1.034,0,0,1-.292-.787.958.958,0,0,1,.382-.84,2.927,2.927,0,0,1,1.012-.42v-.09a2.535,2.535,0,0,1-1.072-.93,2.651,2.651,0,0,1-.382-1.455,2.806,2.806,0,0,1,.24-1.192,2.308,2.308,0,0,1,.683-.863,3.129,3.129,0,0,1,1.057-.525,4.909,4.909,0,0,1,1.38-.18,5.375,5.375,0,0,1,1.365.165v-.42a.993.993,0,0,1,.315-.75,1.21,1.21,0,0,1,.87-.3h1.365v1.62h-1.86v.135a2.463,2.463,0,0,1,.983.907,2.643,2.643,0,0,1,.353,1.4,2.755,2.755,0,0,1-.24,1.185,2.358,2.358,0,0,1-.69.862,3.126,3.126,0,0,1-1.073.532,4.988,4.988,0,0,1-1.387.18,5.585,5.585,0,0,1-.66-.038,4.4,4.4,0,0,1-.6-.112.947.947,0,0,0-.278.225.521.521,0,0,0-.112.345.423.423,0,0,0,.09.285.543.543,0,0,0,.248.157,1.506,1.506,0,0,0,.367.068q.21.015.435.015h1.77a5.247,5.247,0,0,1,1.41.165,2.687,2.687,0,0,1,.96.465,1.738,1.738,0,0,1,.54.7A2.365,2.365,0,0,1,107.745.78Zm-2.1.165a.551.551,0,0,0-.24-.472A1.689,1.689,0,0,0,104.49.3h-2.655a.8.8,0,0,0-.3.63.713.713,0,0,0,.307.592,1.773,1.773,0,0,0,1.043.233h1.305a2.22,2.22,0,0,0,1.11-.21A.665.665,0,0,0,105.645.945ZM103.41-3.81a1.288,1.288,0,0,0,.982-.33,1.184,1.184,0,0,0,.307-.84v-.36a1.184,1.184,0,0,0-.307-.84,1.288,1.288,0,0,0-.982-.33,1.24,1.24,0,0,0-.96.33,1.2,1.2,0,0,0-.3.84v.36a1.2,1.2,0,0,0,.3.84A1.24,1.24,0,0,0,103.41-3.81Zm8.73.165-.855-3.78V-10.47h2.43v3.045l-.855,3.78ZM112.5.18a1.538,1.538,0,0,1-1.14-.345,1.152,1.152,0,0,1-.33-.825v-.48a1.121,1.121,0,0,1,.338-.81,1.542,1.542,0,0,1,1.132-.345,1.542,1.542,0,0,1,1.132.345,1.121,1.121,0,0,1,.338.81v.48a1.152,1.152,0,0,1-.33.825A1.538,1.538,0,0,1,112.5.18Z" transform="translate(1720 164)" fill="#4ab159"/>
    <circle id="椭圆_26" data-name="椭圆 26" cx="11.5" cy="11.5" r="11.5" transform="translate(1675 147)" fill="#4bb159"/>
    <g id="组_5" data-name="组 5" transform="translate(59.354 -87.188)">
      <circle id="椭圆_28" data-name="椭圆 28" cx="3.42" cy="3.42" r="3.42" transform="translate(1623.646 244.975)" fill="#fff"/>
      <path id="路径_2" data-name="路径 2" d="M3.542-1.441,6.79,7.552H.082Z" transform="translate(1623.626 240)" fill="#fff"/>
    </g>
  </g>
</svg>
