<svg xmlns="http://www.w3.org/2000/svg" xmlns:xlink="http://www.w3.org/1999/xlink" width="127" height="70" viewBox="0 0 127 70">
  <defs>
    <linearGradient id="linear-gradient" x1="0.715" y1="0.715" x2="-0.052" gradientUnits="objectBoundingBox">
      <stop offset="0" stop-color="#f5ff79"/>
      <stop offset="1" stop-color="#94be53"/>
    </linearGradient>
    <filter id="路径_246">
      <feOffset dx="-0.5" dy="-0.5" input="SourceAlpha"/>
      <feGaussianBlur stdDeviation="1.5" result="blur"/>
      <feFlood flood-opacity="0.161" result="color"/>
      <feComposite operator="out" in="SourceGraphic" in2="blur"/>
      <feComposite operator="in" in="color"/>
      <feComposite operator="in" in2="SourceGraphic"/>
    </filter>
  </defs>
  <g id="组_133" data-name="组 133" transform="translate(-157 -750)">
    <circle id="椭圆_23" data-name="椭圆 23" cx="21.5" cy="21.5" r="21.5" transform="translate(157 763)" fill="#d1f4a9"/>
    <path id="路径_244" data-name="路径 244" d="M32.26,5.144C58.084,2.531,76.485,9.475,76.452,24.307S66.61,36.82,45.9,36.82,3.337,45.212,3.337,33.338,6.436,7.757,32.26,5.144Z" transform="translate(207.418 764.448)" fill="#a5e062" opacity="0.179"/>
    <text id="REPTILE" transform="translate(221.813 791)" fill="#a5e062" font-size="12" font-family="ArialRoundedMTBold, Arial Rounded MT Bold"><tspan x="0" y="0">REPTILE</tspan></text>
    <path id="路径_247" data-name="路径 247" d="M172.5,771.537c3.277-.354,4.639-3.571,7.646-3.026s7.308.977,8.336,4.865-.578,3.534,4.094,8.875,4.676,2.122,7.218,6.142a16.6,16.6,0,0,1,2.233,8.877,24.81,24.81,0,0,1-8.215,1.953,20.069,20.069,0,0,1-16.261-6.471C167.882,782.3,172.5,771.537,172.5,771.537Z" transform="translate(-14.387 6.612)" fill="#d5bfa6" opacity="0.777"/>
    <path id="路径_248" data-name="路径 248" d="M199.71,797.572s-5.669-11.624,1.047-16.233,10.251-3.839,11.168-2.817,1.75,2.076,1.75,2.076,4.021,6.668,3.448,8.459c-.636,1.994.156,3.631-1.719,5.877-1.7,2.042-10.649.24-12.861,1.45A17.4,17.4,0,0,1,199.71,797.572Z" transform="translate(-14 7)" fill="#8cc746"/>
    <g data-type="innerShadowGroup">
      <path id="路径_246-2" data-name="路径 246" d="M172.08,783.454c1.511-.958,5.289-6.906,8.027-8.875s4.761-5.119,8.832-5.543c1.628-.169,3.184-1.636,4.575-2.138a5.95,5.95,0,0,1,3.089,0s-1.523-1.136-1.022-1.969,1.79-2.643,3.981-1.976,3.036,1.832,2.736,2.938a6.085,6.085,0,0,1-1.832,2.318s1.561-1.207,2.528-1.08a5.132,5.132,0,0,1,2.645,1.08c.913.688,1.544,1.384.449,3.357a17.1,17.1,0,0,1-6.526,5.752c-2.278,1.017-3.14,3.2-3.981,4.116s8.086-4.174,11.317-3.5,2.8,5.781,3.948,7.28,2.433,3.075,3.131,2.728.678-1.89,1.8-1.475,1.436,1.567.929,1.895-1.642,1.415-2.209,1.48-1.016-.137-.518.756,1.147-.023,1.445,1.006-.515,2.656-1.445,1.988-1.375-1.614-1.194-1.988a.664.664,0,0,0-.387-1.006c-.547-.228-.609-.791-1.091-.756s-.676.431-.46,1.306,2.613,2.718.774,2.935-3.679-.219-3.037-1.469a7.093,7.093,0,0,0,1.017-2.491c.118-.852.947-1,0-2.18s-2.067-5.111-3.513-5.207-6.514,1.766-8.177,2.479-7.98,2.574-8.057,3.595-1.817,4.807-1.892,5.273.229,1.743,1.582,1.014,1.578-1.308,2.071-.365,1.081,1.039.321,1.468-1.605.467-.91.9,1.13.016.91.682.589,1.033-.321,1.043a17.041,17.041,0,0,1-5.154-.688,24.689,24.689,0,0,1-9.977-6.53A18.871,18.871,0,0,1,172.08,783.454Z" transform="translate(-14 7)" fill="url(#linear-gradient)"/>
      <g transform="matrix(1, 0, 0, 1, 157, 750)" filter="url(#路径_246)">
        <path id="路径_246-3" data-name="路径 246" d="M172.08,783.454c1.511-.958,5.289-6.906,8.027-8.875s4.761-5.119,8.832-5.543c1.628-.169,3.184-1.636,4.575-2.138a5.95,5.95,0,0,1,3.089,0s-1.523-1.136-1.022-1.969,1.79-2.643,3.981-1.976,3.036,1.832,2.736,2.938a6.085,6.085,0,0,1-1.832,2.318s1.561-1.207,2.528-1.08a5.132,5.132,0,0,1,2.645,1.08c.913.688,1.544,1.384.449,3.357a17.1,17.1,0,0,1-6.526,5.752c-2.278,1.017-3.14,3.2-3.981,4.116s8.086-4.174,11.317-3.5,2.8,5.781,3.948,7.28,2.433,3.075,3.131,2.728.678-1.89,1.8-1.475,1.436,1.567.929,1.895-1.642,1.415-2.209,1.48-1.016-.137-.518.756,1.147-.023,1.445,1.006-.515,2.656-1.445,1.988-1.375-1.614-1.194-1.988a.664.664,0,0,0-.387-1.006c-.547-.228-.609-.791-1.091-.756s-.676.431-.46,1.306,2.613,2.718.774,2.935-3.679-.219-3.037-1.469a7.093,7.093,0,0,0,1.017-2.491c.118-.852.947-1,0-2.18s-2.067-5.111-3.513-5.207-6.514,1.766-8.177,2.479-7.98,2.574-8.057,3.595-1.817,4.807-1.892,5.273.229,1.743,1.582,1.014,1.578-1.308,2.071-.365,1.081,1.039.321,1.468-1.605.467-.91.9,1.13.016.91.682.589,1.033-.321,1.043a17.041,17.041,0,0,1-5.154-.688,24.689,24.689,0,0,1-9.977-6.53A18.871,18.871,0,0,1,172.08,783.454Z" transform="translate(-171 -743)" fill="#fff"/>
      </g>
    </g>
    <rect id="矩形_60" data-name="矩形 60" width="127" height="70" transform="translate(157 750)" fill="none"/>
  </g>
</svg>
