<svg xmlns="http://www.w3.org/2000/svg" width="323" height="42" viewBox="0 0 323 42">
  <g id="组_295" data-name="组 295" transform="translate(-1605.646 -227)">
    <rect id="矩形_5" data-name="矩形 5" width="323" height="42" rx="21" transform="translate(1605.646 227)" fill="rgba(190,255,69,0.49)"/>
    <path id="路径_560" data-name="路径 560" d="M5.625-8.625V0H3.375V-8.625H.36V-10.47H8.64v1.845ZM13.5.18A4.476,4.476,0,0,1,11.88-.1a3.317,3.317,0,0,1-1.222-.8,3.56,3.56,0,0,1-.773-1.275,4.982,4.982,0,0,1-.27-1.695,4.982,4.982,0,0,1,.27-1.7,3.56,3.56,0,0,1,.773-1.275,3.317,3.317,0,0,1,1.222-.8A4.476,4.476,0,0,1,13.5-7.92a4.476,4.476,0,0,1,1.62.277,3.317,3.317,0,0,1,1.222.8,3.56,3.56,0,0,1,.773,1.275,4.982,4.982,0,0,1,.27,1.7,4.982,4.982,0,0,1-.27,1.695A3.56,3.56,0,0,1,16.342-.9a3.317,3.317,0,0,1-1.222.8A4.476,4.476,0,0,1,13.5.18Zm0-1.65a1.5,1.5,0,0,0,1.17-.465,1.9,1.9,0,0,0,.42-1.32v-1.23a1.9,1.9,0,0,0-.42-1.32A1.5,1.5,0,0,0,13.5-6.27a1.5,1.5,0,0,0-1.17.465,1.9,1.9,0,0,0-.42,1.32v1.23a1.9,1.9,0,0,0,.42,1.32A1.5,1.5,0,0,0,13.5-1.47ZM23.1,0a2.323,2.323,0,0,1-1.785-.63,2.266,2.266,0,0,1-.585-1.605v-3.78h-2.1V-7.74H20a1.025,1.025,0,0,0,.7-.2.967.967,0,0,0,.21-.72V-10.47h2.04v2.73h3.015v1.725H22.95v4.29h3.015V0Zm11.2,0a1.67,1.67,0,0,1-1.11-.352A1.479,1.479,0,0,1,32.7-1.365h-.075A1.9,1.9,0,0,1,31.792-.21,2.813,2.813,0,0,1,30.27.18a2.618,2.618,0,0,1-1.808-.608,2.161,2.161,0,0,1-.682-1.7,2.007,2.007,0,0,1,.885-1.8,4.725,4.725,0,0,1,2.595-.585h1.245V-4.9a1.5,1.5,0,0,0-.323-1.043A1.42,1.42,0,0,0,31.1-6.3a2.138,2.138,0,0,0-1.14.27,2.642,2.642,0,0,0-.75.705L27.99-6.4a2.912,2.912,0,0,1,1.222-1.088A4.671,4.671,0,0,1,31.35-7.92a3.825,3.825,0,0,1,2.483.727,2.668,2.668,0,0,1,.892,2.2v3.39h.855V0ZM31.11-1.275a1.677,1.677,0,0,0,.99-.285.946.946,0,0,0,.405-.825v-.93H31.32q-1.365,0-1.365.915v.3a.692.692,0,0,0,.315.615A1.493,1.493,0,0,0,31.11-1.275Zm5.91-.45h2.37v-7.65H37.02V-11.1h4.59v9.375h2.37V0H37.02ZM62.745.78A1.943,1.943,0,0,1,61.71,2.595a6.886,6.886,0,0,1-3.255.585,10.807,10.807,0,0,1-1.83-.128,3.684,3.684,0,0,1-1.147-.367,1.444,1.444,0,0,1-.6-.57,1.531,1.531,0,0,1-.172-.72,1.247,1.247,0,0,1,.39-1A2.662,2.662,0,0,1,56.19-.12V-.21A1.942,1.942,0,0,1,55.4-.637a1.034,1.034,0,0,1-.292-.787.958.958,0,0,1,.382-.84,2.927,2.927,0,0,1,1.013-.42v-.09a2.535,2.535,0,0,1-1.073-.93A2.651,2.651,0,0,1,55.05-5.16a2.806,2.806,0,0,1,.24-1.192,2.308,2.308,0,0,1,.682-.863A3.129,3.129,0,0,1,57.03-7.74a4.909,4.909,0,0,1,1.38-.18,5.375,5.375,0,0,1,1.365.165v-.42a.993.993,0,0,1,.315-.75,1.21,1.21,0,0,1,.87-.3h1.365v1.62h-1.86v.135a2.463,2.463,0,0,1,.982.907,2.643,2.643,0,0,1,.353,1.4,2.755,2.755,0,0,1-.24,1.185,2.358,2.358,0,0,1-.69.862A3.126,3.126,0,0,1,59.8-2.58a4.988,4.988,0,0,1-1.388.18,5.585,5.585,0,0,1-.66-.038,4.4,4.4,0,0,1-.6-.112.946.946,0,0,0-.278.225.521.521,0,0,0-.113.345.423.423,0,0,0,.09.285.543.543,0,0,0,.248.157,1.506,1.506,0,0,0,.368.068q.21.015.435.015h1.77a5.247,5.247,0,0,1,1.41.165,2.687,2.687,0,0,1,.96.465,1.738,1.738,0,0,1,.54.7A2.365,2.365,0,0,1,62.745.78Zm-2.1.165A.551.551,0,0,0,60.4.472,1.689,1.689,0,0,0,59.49.3H56.835a.8.8,0,0,0-.3.63.713.713,0,0,0,.307.592,1.773,1.773,0,0,0,1.042.233H59.19a2.22,2.22,0,0,0,1.11-.21A.665.665,0,0,0,60.645.945ZM58.41-3.81a1.288,1.288,0,0,0,.983-.33,1.184,1.184,0,0,0,.307-.84v-.36a1.184,1.184,0,0,0-.307-.84,1.288,1.288,0,0,0-.983-.33,1.24,1.24,0,0,0-.96.33,1.2,1.2,0,0,0-.3.84v.36a1.2,1.2,0,0,0,.3.84A1.24,1.24,0,0,0,58.41-3.81ZM67.71.18A3.841,3.841,0,0,1,64.755-.9a4.145,4.145,0,0,1-1-2.94,5.179,5.179,0,0,1,.262-1.7,3.655,3.655,0,0,1,.75-1.29,3.172,3.172,0,0,1,1.185-.81,4.209,4.209,0,0,1,1.567-.277,4.151,4.151,0,0,1,1.56.277,3.245,3.245,0,0,1,1.17.788,3.525,3.525,0,0,1,.743,1.237A4.77,4.77,0,0,1,71.25-3.99v.66H65.955v.135a1.618,1.618,0,0,0,.465,1.207,1.869,1.869,0,0,0,1.365.457,2.5,2.5,0,0,0,1.185-.262,2.807,2.807,0,0,0,.855-.7l1.2,1.3a3.746,3.746,0,0,1-1.26.96A4.585,4.585,0,0,1,67.71.18Zm-.18-6.51a1.522,1.522,0,0,0-1.147.442,1.644,1.644,0,0,0-.427,1.193v.12h3.12v-.12a1.673,1.673,0,0,0-.412-1.2A1.486,1.486,0,0,0,67.53-6.33ZM72.975,0V-7.74h2.22v1.41h.09a3.294,3.294,0,0,1,.33-.615,2.25,2.25,0,0,1,.473-.5,2.21,2.21,0,0,1,.645-.345,2.531,2.531,0,0,1,.833-.127,2.7,2.7,0,0,1,1.02.188,2.081,2.081,0,0,1,.795.563,2.714,2.714,0,0,1,.518.915,3.79,3.79,0,0,1,.188,1.245V0h-2.22V-4.71q0-1.5-1.305-1.5a1.9,1.9,0,0,0-.5.068,1.34,1.34,0,0,0-.443.21,1.04,1.04,0,0,0-.307.352,1.033,1.033,0,0,0-.113.495V0ZM85.71.18A3.841,3.841,0,0,1,82.755-.9a4.145,4.145,0,0,1-1-2.94,5.179,5.179,0,0,1,.262-1.7,3.655,3.655,0,0,1,.75-1.29,3.172,3.172,0,0,1,1.185-.81,4.209,4.209,0,0,1,1.567-.277,4.151,4.151,0,0,1,1.56.277,3.245,3.245,0,0,1,1.17.788,3.525,3.525,0,0,1,.743,1.237A4.77,4.77,0,0,1,89.25-3.99v.66H83.955v.135a1.618,1.618,0,0,0,.465,1.207,1.869,1.869,0,0,0,1.365.457,2.5,2.5,0,0,0,1.185-.262,2.807,2.807,0,0,0,.855-.7l1.2,1.3a3.746,3.746,0,0,1-1.26.96A4.585,4.585,0,0,1,85.71.18Zm-.18-6.51a1.522,1.522,0,0,0-1.147.442,1.644,1.644,0,0,0-.427,1.193v.12h3.12v-.12a1.673,1.673,0,0,0-.412-1.2A1.486,1.486,0,0,0,85.53-6.33ZM95.1,0a2.323,2.323,0,0,1-1.785-.63,2.266,2.266,0,0,1-.585-1.605v-3.78h-2.1V-7.74H92a1.025,1.025,0,0,0,.7-.2.967.967,0,0,0,.21-.72V-10.47h2.04v2.73h3.015v1.725H94.95v4.29h3.015V0Zm8.88-8.73a1.411,1.411,0,0,1-1.043-.307,1.038,1.038,0,0,1-.293-.742v-.435a1.031,1.031,0,0,1,.293-.75,1.435,1.435,0,0,1,1.043-.3,1.435,1.435,0,0,1,1.042.3,1.031,1.031,0,0,1,.293.75v.435a1.038,1.038,0,0,1-.293.742A1.411,1.411,0,0,1,103.98-8.73Zm-3.57,7.005h2.46v-4.29h-2.46V-7.74h4.68v6.015h2.28V0h-6.96ZM112.815.18A4.581,4.581,0,0,1,111.173-.1a3.306,3.306,0,0,1-1.23-.8,3.56,3.56,0,0,1-.772-1.275,4.982,4.982,0,0,1-.27-1.695,4.982,4.982,0,0,1,.27-1.7,3.56,3.56,0,0,1,.772-1.275,3.306,3.306,0,0,1,1.23-.8A4.536,4.536,0,0,1,112.8-7.92a3.622,3.622,0,0,1,2.048.517,3.341,3.341,0,0,1,1.177,1.372l-1.71.93a2.275,2.275,0,0,0-.548-.75,1.41,1.41,0,0,0-.967-.3,1.531,1.531,0,0,0-1.178.443A1.7,1.7,0,0,0,111.21-4.5v1.26a1.7,1.7,0,0,0,.412,1.207,1.571,1.571,0,0,0,1.208.442,1.557,1.557,0,0,0,1.012-.3,2.509,2.509,0,0,0,.622-.78l1.68.96a3.375,3.375,0,0,1-1.222,1.373A3.835,3.835,0,0,1,112.815.18Zm18,0A4.581,4.581,0,0,1,129.173-.1a3.306,3.306,0,0,1-1.23-.8,3.56,3.56,0,0,1-.772-1.275,4.982,4.982,0,0,1-.27-1.695,4.982,4.982,0,0,1,.27-1.7,3.56,3.56,0,0,1,.772-1.275,3.306,3.306,0,0,1,1.23-.8A4.536,4.536,0,0,1,130.8-7.92a3.622,3.622,0,0,1,2.048.517,3.341,3.341,0,0,1,1.177,1.372l-1.71.93a2.275,2.275,0,0,0-.548-.75,1.41,1.41,0,0,0-.967-.3,1.531,1.531,0,0,0-1.178.443A1.7,1.7,0,0,0,129.21-4.5v1.26a1.7,1.7,0,0,0,.412,1.207,1.571,1.571,0,0,0,1.208.442,1.557,1.557,0,0,0,1.012-.3,2.509,2.509,0,0,0,.622-.78l1.68.96a3.375,3.375,0,0,1-1.223,1.373A3.835,3.835,0,0,1,130.815.18Zm5.16-11.28h2.22v4.77h.09a3.293,3.293,0,0,1,.33-.615,2.25,2.25,0,0,1,.472-.5,2.21,2.21,0,0,1,.645-.345,2.532,2.532,0,0,1,.833-.127,2.7,2.7,0,0,1,1.02.188,2.081,2.081,0,0,1,.795.563,2.714,2.714,0,0,1,.518.915,3.79,3.79,0,0,1,.188,1.245V0h-2.22V-4.71q0-1.5-1.305-1.5a1.9,1.9,0,0,0-.5.068,1.34,1.34,0,0,0-.442.21,1.04,1.04,0,0,0-.308.352,1.034,1.034,0,0,0-.112.495V0h-2.22ZM151.3,0a1.669,1.669,0,0,1-1.11-.352,1.479,1.479,0,0,1-.5-1.013h-.075a1.9,1.9,0,0,1-.833,1.155,2.813,2.813,0,0,1-1.522.39,2.618,2.618,0,0,1-1.808-.608,2.161,2.161,0,0,1-.682-1.7,2.007,2.007,0,0,1,.885-1.8,4.725,4.725,0,0,1,2.6-.585h1.245V-4.9a1.5,1.5,0,0,0-.323-1.043A1.42,1.42,0,0,0,148.1-6.3a2.138,2.138,0,0,0-1.14.27,2.642,2.642,0,0,0-.75.705L144.99-6.4a2.912,2.912,0,0,1,1.222-1.088,4.671,4.671,0,0,1,2.138-.427,3.825,3.825,0,0,1,2.482.727,2.668,2.668,0,0,1,.893,2.2v3.39h.855V0ZM148.11-1.275a1.677,1.677,0,0,0,.99-.285.946.946,0,0,0,.4-.825v-.93H148.32q-1.365,0-1.365.915v.3a.692.692,0,0,0,.315.615A1.493,1.493,0,0,0,148.11-1.275ZM153.975,0V-7.74h2.22v1.41h.09a3.293,3.293,0,0,1,.33-.615,2.25,2.25,0,0,1,.472-.5,2.21,2.21,0,0,1,.645-.345,2.532,2.532,0,0,1,.833-.127,2.7,2.7,0,0,1,1.02.188,2.081,2.081,0,0,1,.795.563,2.714,2.714,0,0,1,.518.915,3.79,3.79,0,0,1,.188,1.245V0h-2.22V-4.71q0-1.5-1.305-1.5a1.9,1.9,0,0,0-.5.068,1.34,1.34,0,0,0-.442.21,1.04,1.04,0,0,0-.308.352,1.034,1.034,0,0,0-.112.495V0Zm16.77.78a1.943,1.943,0,0,1-1.035,1.815,6.887,6.887,0,0,1-3.255.585,10.807,10.807,0,0,1-1.83-.128,3.684,3.684,0,0,1-1.148-.367,1.444,1.444,0,0,1-.6-.57,1.531,1.531,0,0,1-.173-.72,1.247,1.247,0,0,1,.39-1,2.662,2.662,0,0,1,1.1-.518V-.21a1.942,1.942,0,0,1-.788-.427,1.034,1.034,0,0,1-.292-.787.958.958,0,0,1,.382-.84,2.927,2.927,0,0,1,1.013-.42v-.09a2.535,2.535,0,0,1-1.073-.93,2.651,2.651,0,0,1-.382-1.455,2.806,2.806,0,0,1,.24-1.192,2.309,2.309,0,0,1,.683-.863,3.129,3.129,0,0,1,1.057-.525,4.909,4.909,0,0,1,1.38-.18,5.375,5.375,0,0,1,1.365.165v-.42a.993.993,0,0,1,.315-.75,1.21,1.21,0,0,1,.87-.3h1.365v1.62h-1.86v.135a2.463,2.463,0,0,1,.982.907,2.643,2.643,0,0,1,.353,1.4,2.755,2.755,0,0,1-.24,1.185,2.358,2.358,0,0,1-.69.862,3.126,3.126,0,0,1-1.072.532,4.988,4.988,0,0,1-1.387.18,5.585,5.585,0,0,1-.66-.038,4.4,4.4,0,0,1-.6-.112.946.946,0,0,0-.277.225.521.521,0,0,0-.113.345.423.423,0,0,0,.09.285.543.543,0,0,0,.247.157,1.506,1.506,0,0,0,.367.068q.21.015.435.015h1.77a5.247,5.247,0,0,1,1.41.165,2.687,2.687,0,0,1,.96.465,1.738,1.738,0,0,1,.54.7A2.365,2.365,0,0,1,170.745.78Zm-2.1.165a.551.551,0,0,0-.24-.472A1.689,1.689,0,0,0,167.49.3h-2.655a.8.8,0,0,0-.3.63.713.713,0,0,0,.307.592,1.773,1.773,0,0,0,1.042.233h1.305a2.22,2.22,0,0,0,1.11-.21A.665.665,0,0,0,168.645.945ZM166.41-3.81a1.288,1.288,0,0,0,.982-.33,1.183,1.183,0,0,0,.307-.84v-.36a1.183,1.183,0,0,0-.307-.84,1.288,1.288,0,0,0-.982-.33,1.24,1.24,0,0,0-.96.33,1.2,1.2,0,0,0-.3.84v.36a1.2,1.2,0,0,0,.3.84A1.24,1.24,0,0,0,166.41-3.81Zm9.3,3.99A3.841,3.841,0,0,1,172.755-.9a4.145,4.145,0,0,1-1.005-2.94,5.179,5.179,0,0,1,.262-1.7,3.655,3.655,0,0,1,.75-1.29,3.172,3.172,0,0,1,1.185-.81,4.209,4.209,0,0,1,1.568-.277,4.151,4.151,0,0,1,1.56.277,3.245,3.245,0,0,1,1.17.788,3.525,3.525,0,0,1,.743,1.237,4.77,4.77,0,0,1,.262,1.628v.66h-5.295v.135a1.618,1.618,0,0,0,.465,1.207,1.869,1.869,0,0,0,1.365.457,2.5,2.5,0,0,0,1.185-.262,2.807,2.807,0,0,0,.855-.7l1.2,1.3a3.746,3.746,0,0,1-1.26.96A4.585,4.585,0,0,1,175.71.18Zm-.18-6.51a1.522,1.522,0,0,0-1.147.442,1.644,1.644,0,0,0-.428,1.193v.12h3.12v-.12a1.673,1.673,0,0,0-.412-1.2A1.486,1.486,0,0,0,175.53-6.33ZM184.41.18a5.9,5.9,0,0,1-2.243-.39,3.173,3.173,0,0,1-1.432-1.065L181.98-2.43a3.227,3.227,0,0,0,1.058.773,3.305,3.305,0,0,0,1.387.278,2.2,2.2,0,0,0,1.035-.2.663.663,0,0,0,.375-.622.466.466,0,0,0-.255-.457,2.557,2.557,0,0,0-.705-.2L183.63-3.06a5.153,5.153,0,0,1-.975-.233,2.548,2.548,0,0,1-.78-.428,1.994,1.994,0,0,1-.525-.66,2.1,2.1,0,0,1-.2-.945,2.241,2.241,0,0,1,.93-1.905,4.309,4.309,0,0,1,2.61-.69,5.441,5.441,0,0,1,1.942.308,3.074,3.074,0,0,1,1.283.877l-1.11,1.26a2.82,2.82,0,0,0-.885-.63,3.037,3.037,0,0,0-1.305-.255q-1.29,0-1.29.78a.479.479,0,0,0,.255.472,2.557,2.557,0,0,0,.7.2l1.23.195a5.153,5.153,0,0,1,.975.233,2.649,2.649,0,0,1,.788.427,1.954,1.954,0,0,1,.533.66,2.1,2.1,0,0,1,.195.945,2.274,2.274,0,0,1-.937,1.92A4.36,4.36,0,0,1,184.41.18ZM248.085,0V-2.01h-4.71V-3.93l4.17-6.54h2.7v6.72h1.35v1.74h-1.35V0Zm-2.9-3.75h2.9V-8.145h-.135Z" transform="translate(1661.646 254)" fill="#d548ff"/>
    <circle id="椭圆_26" data-name="椭圆 26" cx="11.5" cy="11.5" r="11.5" transform="translate(1616.646 237)" fill="#d548ff"/>
    <g id="组_8" data-name="组 8">
      <path id="路径_10" data-name="路径 10" d="M1629.751,241.409s-4.488.517-5.066,4.14,4.314,3.111,4.529,7.155-4.288,4.462-4.529,4.469" transform="translate(0.952 -1.291)" fill="none" stroke="#fff" stroke-linecap="round" stroke-width="1"/>
      <path id="路径_11" data-name="路径 11" d="M1624.638,241.409s4.488.517,5.066,4.14-4.314,3.111-4.529,7.155,4.288,4.462,4.529,4.469" transform="translate(1.066 -1.291)" fill="none" stroke="#fff" stroke-linecap="round" stroke-width="1"/>
    </g>
  </g>
</svg>
