<svg xmlns="http://www.w3.org/2000/svg" width="197" height="42" viewBox="0 0 197 42">
  <g id="组_289" data-name="组 289" transform="translate(-1605.646 -227)">
    <rect id="矩形_5" data-name="矩形 5" width="197" height="42" rx="21" transform="translate(1605.646 227)" fill="rgba(188,234,180,0.53)"/>
    <path id="路径_554" data-name="路径 554" d="M6.525,0l-.66-2.52H3L2.355,0H.075L2.91-10.47H6.09L8.925,0ZM4.5-8.3H4.38L3.36-4.335H5.52ZM22.41.18a5.9,5.9,0,0,1-2.243-.39,3.174,3.174,0,0,1-1.432-1.065L19.98-2.43a3.227,3.227,0,0,0,1.058.773,3.305,3.305,0,0,0,1.387.278,2.2,2.2,0,0,0,1.035-.2.663.663,0,0,0,.375-.622.466.466,0,0,0-.255-.457,2.557,2.557,0,0,0-.7-.2L21.63-3.06a5.153,5.153,0,0,1-.975-.233,2.548,2.548,0,0,1-.78-.428,1.994,1.994,0,0,1-.525-.66,2.1,2.1,0,0,1-.195-.945,2.241,2.241,0,0,1,.93-1.905,4.309,4.309,0,0,1,2.61-.69,5.441,5.441,0,0,1,1.943.308,3.074,3.074,0,0,1,1.282.877l-1.11,1.26a2.82,2.82,0,0,0-.885-.63A3.037,3.037,0,0,0,22.62-6.36q-1.29,0-1.29.78a.479.479,0,0,0,.255.472,2.557,2.557,0,0,0,.705.2l1.23.195a5.153,5.153,0,0,1,.975.233,2.649,2.649,0,0,1,.788.427,1.954,1.954,0,0,1,.532.66,2.1,2.1,0,0,1,.195.945,2.274,2.274,0,0,1-.937,1.92A4.36,4.36,0,0,1,22.41.18ZM34.305,0a1.67,1.67,0,0,1-1.11-.352A1.479,1.479,0,0,1,32.7-1.365h-.075A1.9,1.9,0,0,1,31.792-.21,2.813,2.813,0,0,1,30.27.18a2.618,2.618,0,0,1-1.808-.608,2.161,2.161,0,0,1-.682-1.7,2.007,2.007,0,0,1,.885-1.8,4.725,4.725,0,0,1,2.595-.585h1.245V-4.9a1.5,1.5,0,0,0-.323-1.043A1.42,1.42,0,0,0,31.1-6.3a2.138,2.138,0,0,0-1.14.27,2.642,2.642,0,0,0-.75.705L27.99-6.4a2.912,2.912,0,0,1,1.222-1.088A4.671,4.671,0,0,1,31.35-7.92a3.825,3.825,0,0,1,2.483.727,2.668,2.668,0,0,1,.892,2.2v3.39h.855V0ZM31.11-1.275a1.677,1.677,0,0,0,.99-.285.946.946,0,0,0,.405-.825v-.93H31.32q-1.365,0-1.365.915v.3a.692.692,0,0,0,.315.615A1.493,1.493,0,0,0,31.11-1.275ZM36.975,0V-7.74h2.22v1.41h.09a3.294,3.294,0,0,1,.33-.615,2.25,2.25,0,0,1,.472-.5,2.21,2.21,0,0,1,.645-.345,2.531,2.531,0,0,1,.833-.127,2.7,2.7,0,0,1,1.02.188,2.081,2.081,0,0,1,.8.563,2.714,2.714,0,0,1,.517.915,3.79,3.79,0,0,1,.188,1.245V0h-2.22V-4.71q0-1.5-1.305-1.5a1.9,1.9,0,0,0-.5.068,1.34,1.34,0,0,0-.442.21,1.04,1.04,0,0,0-.308.352,1.033,1.033,0,0,0-.112.495V0ZM50.9-1.41h-.1a2.976,2.976,0,0,1-.833,1.147A2.221,2.221,0,0,1,48.495.18a2.833,2.833,0,0,1-1.177-.24A2.389,2.389,0,0,1,46.4-.8a3.693,3.693,0,0,1-.6-1.26,6.685,6.685,0,0,1-.218-1.815A6.685,6.685,0,0,1,45.8-5.685a3.693,3.693,0,0,1,.6-1.26,2.389,2.389,0,0,1,.915-.735,2.833,2.833,0,0,1,1.177-.24,2.606,2.606,0,0,1,.825.12,2.2,2.2,0,0,1,.638.33,2.185,2.185,0,0,1,.48.5,3.727,3.727,0,0,1,.353.638h.1V-11.1h2.22V0H50.9Zm-1.44-.135a1.783,1.783,0,0,0,1.012-.285,1,1,0,0,0,.428-.9V-5.01a1,1,0,0,0-.428-.9,1.783,1.783,0,0,0-1.012-.285,1.461,1.461,0,0,0-1.155.457,1.846,1.846,0,0,0-.4,1.267v1.2A1.846,1.846,0,0,0,48.3-2,1.461,1.461,0,0,0,49.455-1.545ZM58.41.18a5.9,5.9,0,0,1-2.243-.39,3.174,3.174,0,0,1-1.432-1.065L55.98-2.43a3.227,3.227,0,0,0,1.057.773,3.305,3.305,0,0,0,1.388.278,2.2,2.2,0,0,0,1.035-.2.663.663,0,0,0,.375-.622.466.466,0,0,0-.255-.457,2.557,2.557,0,0,0-.705-.2L57.63-3.06a5.153,5.153,0,0,1-.975-.233,2.548,2.548,0,0,1-.78-.428,1.994,1.994,0,0,1-.525-.66,2.1,2.1,0,0,1-.195-.945,2.241,2.241,0,0,1,.93-1.905,4.309,4.309,0,0,1,2.61-.69,5.441,5.441,0,0,1,1.943.308,3.074,3.074,0,0,1,1.282.877l-1.11,1.26a2.82,2.82,0,0,0-.885-.63A3.037,3.037,0,0,0,58.62-6.36q-1.29,0-1.29.78a.479.479,0,0,0,.255.472,2.557,2.557,0,0,0,.705.2l1.23.195a5.153,5.153,0,0,1,.975.233,2.649,2.649,0,0,1,.788.427,1.954,1.954,0,0,1,.533.66,2.1,2.1,0,0,1,.195.945,2.274,2.274,0,0,1-.937,1.92A4.36,4.36,0,0,1,58.41.18ZM68.1,0a2.323,2.323,0,0,1-1.785-.63,2.266,2.266,0,0,1-.585-1.605v-3.78h-2.1V-7.74H65a1.025,1.025,0,0,0,.7-.2.967.967,0,0,0,.21-.72V-10.47h2.04v2.73h3.015v1.725H67.95v4.29h3.015V0Zm8.4.18A4.476,4.476,0,0,1,74.88-.1a3.317,3.317,0,0,1-1.222-.8,3.56,3.56,0,0,1-.772-1.275,4.982,4.982,0,0,1-.27-1.695,4.982,4.982,0,0,1,.27-1.7,3.56,3.56,0,0,1,.772-1.275,3.317,3.317,0,0,1,1.222-.8A4.476,4.476,0,0,1,76.5-7.92a4.476,4.476,0,0,1,1.62.277,3.317,3.317,0,0,1,1.222.8,3.56,3.56,0,0,1,.772,1.275,4.982,4.982,0,0,1,.27,1.7,4.982,4.982,0,0,1-.27,1.695A3.56,3.56,0,0,1,79.342-.9a3.317,3.317,0,0,1-1.222.8A4.476,4.476,0,0,1,76.5.18Zm0-1.65a1.5,1.5,0,0,0,1.17-.465,1.9,1.9,0,0,0,.42-1.32v-1.23a1.9,1.9,0,0,0-.42-1.32A1.5,1.5,0,0,0,76.5-6.27a1.5,1.5,0,0,0-1.17.465,1.9,1.9,0,0,0-.42,1.32v1.23a1.9,1.9,0,0,0,.42,1.32A1.5,1.5,0,0,0,76.5-1.47Zm5.61-.255h1.785v-4.29H82.11V-7.74h4v2.19h.105a4.432,4.432,0,0,1,.292-.817,2.663,2.663,0,0,1,.48-.705,2.124,2.124,0,0,1,.713-.487,2.5,2.5,0,0,1,.99-.18h.735V-5.7H87.78a1.553,1.553,0,0,0-1.245.487,1.764,1.764,0,0,0-.42,1.193v2.295h2.55V0H82.11ZM90.45,0V-7.74h1.785V-6.6h.1a2.714,2.714,0,0,1,.518-.93,1.192,1.192,0,0,1,.952-.39q1.125,0,1.38,1.32h.09a2.923,2.923,0,0,1,.225-.51,1.7,1.7,0,0,1,.33-.42,1.454,1.454,0,0,1,.465-.285,1.733,1.733,0,0,1,.63-.1q1.62,0,1.62,2.385V0H96.765V-5.31a1.173,1.173,0,0,0-.187-.758.613.613,0,0,0-.488-.217A.692.692,0,0,0,95.6-6.1a.751.751,0,0,0-.2.578V0H93.6V-5.31a1.251,1.251,0,0,0-.173-.758.57.57,0,0,0-.472-.217.739.739,0,0,0-.51.187.736.736,0,0,0-.21.578V0Zm10.08.105a1.209,1.209,0,0,1-.832-.24.747.747,0,0,1-.263-.57v-.69a.747.747,0,0,1,.263-.57,1.209,1.209,0,0,1,.832-.24,1.188,1.188,0,0,1,.81.24.739.739,0,0,1,.27.57V-.7a.739.739,0,0,1-.27.57A1.188,1.188,0,0,1,100.53.105Zm2.97,0a1.213,1.213,0,0,1-.825-.24.739.739,0,0,1-.27-.57v-.69a.739.739,0,0,1,.27-.57,1.213,1.213,0,0,1,.825-.24,1.213,1.213,0,0,1,.825.24.739.739,0,0,1,.27.57V-.7a.739.739,0,0,1-.27.57A1.213,1.213,0,0,1,103.5.105Zm2.97,0a1.188,1.188,0,0,1-.81-.24.739.739,0,0,1-.27-.57v-.69a.739.739,0,0,1,.27-.57,1.188,1.188,0,0,1,.81-.24,1.213,1.213,0,0,1,.825.24.739.739,0,0,1,.27.57V-.7a.739.739,0,0,1-.27.57A1.213,1.213,0,0,1,106.47.105Z" transform="translate(1661.646 254)" fill="#4ab159"/>
    <circle id="椭圆_26" data-name="椭圆 26" cx="11.5" cy="11.5" r="11.5" transform="translate(1616.646 237)" fill="#4bb159"/>
    <g id="组_5" data-name="组 5" transform="translate(1 2.812)">
      <circle id="椭圆_28" data-name="椭圆 28" cx="1.42" cy="1.42" r="1.42" transform="translate(1623.646 244.975)" fill="#fff"/>
      <circle id="椭圆_52" data-name="椭圆 52" cx="1.42" cy="1.42" r="1.42" transform="translate(1620.646 246.395)" fill="#fff"/>
      <circle id="椭圆_53" data-name="椭圆 53" cx="1.42" cy="1.42" r="1.42" transform="translate(1625.646 250.395)" fill="#fff"/>
      <circle id="椭圆_54" data-name="椭圆 54" cx="1.42" cy="1.42" r="1.42" transform="translate(1629.646 248.975)" fill="#fff"/>
      <circle id="椭圆_55" data-name="椭圆 55" cx="1.42" cy="1.42" r="1.42" transform="translate(1624.225 238.975)" fill="#fff"/>
      <circle id="椭圆_56" data-name="椭圆 56" cx="1.42" cy="1.42" r="1.42" transform="translate(1619.646 241.975)" fill="#fff"/>
      <circle id="椭圆_57" data-name="椭圆 57" cx="1.42" cy="1.42" r="1.42" transform="translate(1628.646 241.975)" fill="#fff"/>
      <circle id="椭圆_58" data-name="椭圆 58" cx="1.42" cy="1.42" r="1.42" transform="translate(1628.225 244.975)" fill="#fff"/>
      <circle id="椭圆_59" data-name="椭圆 59" cx="1.42" cy="1.42" r="1.42" transform="translate(1632.225 243.975)" fill="#fff"/>
    </g>
  </g>
</svg>
