<svg xmlns="http://www.w3.org/2000/svg" width="90.728" height="71.241" viewBox="0 0 90.728 71.241">
  <g id="Group_370" data-name="Group 370" transform="translate(-42.611 -849.819)">
    <path id="Path_641" data-name="Path 641" d="M21,0C32.216-1.414,31.338-12.363,31.338-12.363A56.833,56.833,0,0,0,66.4,0C87.34-.083,94.6,13.409,94.6,25.007c0,21.336-5.552,25-18.649,28.8s-34.542,8.179-41.7,1.96S32.834,43.956,23.088,36.548,7.211,31.324,4.424,21.464,9.784,1.414,21,0Z" transform="translate(38.738 862.181)" fill="#fffbd1"/>
    <path id="Path_642" data-name="Path 642" d="M3.18,10.12a2.3,2.3,0,0,1-2.025-.94A4.633,4.633,0,0,1,.5,6.51a4.637,4.637,0,0,1,.655-2.665A2.294,2.294,0,0,1,3.18,2.9a2.735,2.735,0,0,1,.915.14,2.176,2.176,0,0,1,.685.385,2.073,2.073,0,0,1,.48.59,3.367,3.367,0,0,1,.3.755l-1.2.34a3.949,3.949,0,0,0-.16-.45A1.376,1.376,0,0,0,3.975,4.3a.908.908,0,0,0-.335-.24,1.224,1.224,0,0,0-.48-.085,1.032,1.032,0,0,0-.975.52A2.886,2.886,0,0,0,1.89,5.91v1.2a2.886,2.886,0,0,0,.295,1.42,1.032,1.032,0,0,0,.975.52,1.224,1.224,0,0,0,.48-.085.908.908,0,0,0,.335-.24A1.376,1.376,0,0,0,4.2,8.36a3.949,3.949,0,0,0,.16-.45l1.2.34a3.367,3.367,0,0,1-.3.755,2.073,2.073,0,0,1-.48.59A2.176,2.176,0,0,1,4.1,9.98,2.735,2.735,0,0,1,3.18,10.12ZM10.49,10,10,8.23H7.93L7.45,10H6.13L8.09,3.02H9.91L11.88,10ZM9.01,4.31H8.93L8.16,7.16H9.78Zm4.88.68h-.1V10H12.67V3.02h1.61l1.83,5.01h.1V3.02h1.12V10H15.72Zm6,0h-.1V10H18.67V3.02h1.61l1.83,5.01h.1V3.02h1.12V10H21.72ZM27,10.12a2.654,2.654,0,0,1-1.18-.245A2.159,2.159,0,0,1,25,9.17a3.181,3.181,0,0,1-.48-1.13,6.821,6.821,0,0,1-.155-1.53,6.838,6.838,0,0,1,.155-1.525A3.181,3.181,0,0,1,25,3.85a2.159,2.159,0,0,1,.825-.705A2.654,2.654,0,0,1,27,2.9a2.241,2.241,0,0,1,2,.95,4.726,4.726,0,0,1,.64,2.66A4.726,4.726,0,0,1,29,9.17,2.241,2.241,0,0,1,27,10.12Zm0-1.07a1.188,1.188,0,0,0,.59-.135,1.017,1.017,0,0,0,.385-.385,1.877,1.877,0,0,0,.21-.615A4.669,4.669,0,0,0,28.25,7.1V5.91a3.063,3.063,0,0,0-.275-1.42,1.174,1.174,0,0,0-1.95,0,3.063,3.063,0,0,0-.275,1.42v1.2a3.063,3.063,0,0,0,.275,1.42A1.006,1.006,0,0,0,27,9.05ZM33.65,4.1V10h-1.3V4.1h-2.1V3.02h5.5V4.1ZM.78,23v-.98H2.35V17H.78v-.98H5.22V17H3.65v5.02H5.22V23Zm7.11-5.01h-.1V23H6.67V16.02H8.28l1.83,5.01h.1V16.02h1.12V23H9.72Zm7.76-.89V23h-1.3V17.1h-2.1V16.02h5.5V17.1ZM18.83,23V16.02h4.41V17.1h-3.1v1.82h2.99V20H20.14v1.92h3.1V23Zm7.28,0H24.8V16.02h2.65a2.027,2.027,0,0,1,1.56.58,2.227,2.227,0,0,1,.54,1.58,2.259,2.259,0,0,1-.355,1.3,1.566,1.566,0,0,1-1.015.665L29.67,23H28.23L26.9,20.29h-.79Zm1.07-3.73a1.1,1.1,0,0,0,.76-.215.9.9,0,0,0,.23-.685v-.38a.9.9,0,0,0-.23-.685,1.1,1.1,0,0,0-.76-.215H26.11v2.18ZM32.11,23H30.8V16.02h2.65a2.027,2.027,0,0,1,1.56.58,2.227,2.227,0,0,1,.54,1.58,2.259,2.259,0,0,1-.355,1.3,1.566,1.566,0,0,1-1.015.665L35.67,23H34.23L32.9,20.29h-.79Zm1.07-3.73a1.1,1.1,0,0,0,.76-.215.9.9,0,0,0,.23-.685v-.38a.9.9,0,0,0-.23-.685,1.1,1.1,0,0,0-.76-.215H32.11v2.18Zm4.75-3.25v4.35q0,.39.025.7a1.462,1.462,0,0,0,.13.525.757.757,0,0,0,.32.335,1.535,1.535,0,0,0,1.19,0,.757.757,0,0,0,.32-.335,1.462,1.462,0,0,0,.13-.525q.025-.31.025-.7V16.02h1.31v4.15a8.089,8.089,0,0,1-.09,1.29,2.195,2.195,0,0,1-.35.92,1.568,1.568,0,0,1-.725.555,4.082,4.082,0,0,1-2.43,0,1.568,1.568,0,0,1-.725-.555,2.195,2.195,0,0,1-.35-.92,8.089,8.089,0,0,1-.09-1.29V16.02ZM42.8,23V16.02h2.65a2.027,2.027,0,0,1,1.56.58,2.227,2.227,0,0,1,.54,1.58,2.227,2.227,0,0,1-.54,1.58,2.027,2.027,0,0,1-1.56.58H44.11V23Zm1.31-3.73h1.07a1.1,1.1,0,0,0,.76-.215.9.9,0,0,0,.23-.685v-.38a.9.9,0,0,0-.23-.685,1.1,1.1,0,0,0-.76-.215H44.11Zm7.54-2.17V23h-1.3V17.1h-2.1V16.02h5.5V17.1ZM.83,36V29.02H5.24V30.1H2.14v1.82H5.13V33H2.14v1.92h3.1V36Zm7.25,0L6.17,29.02H7.61l.87,3.53.51,2.2h.07l.52-2.2.88-3.53h1.37L9.92,36Zm4.75,0V29.02h4.41V30.1h-3.1v1.82h2.99V33H14.14v1.92h3.1V36Zm7.06-5.01h-.1V36H18.67V29.02h1.61l1.83,5.01h.1V29.02h1.12V36H21.72Zm7.76-.89V36h-1.3V30.1h-2.1V29.02h5.5V30.1Zm5.27,6.02a3.472,3.472,0,0,1-1.535-.31,2.917,2.917,0,0,1-1.035-.82l.79-.82a2.594,2.594,0,0,0,.845.665,2.253,2.253,0,0,0,.975.215,1.39,1.39,0,0,0,.92-.27A.963.963,0,0,0,34.2,34a.809.809,0,0,0-.24-.635,1.6,1.6,0,0,0-.81-.305l-.74-.12a2.121,2.121,0,0,1-1.38-.7,2.02,2.02,0,0,1-.41-1.265,1.875,1.875,0,0,1,.65-1.535,2.753,2.753,0,0,1,1.8-.535,3.516,3.516,0,0,1,1.415.26,2.453,2.453,0,0,1,.955.71l-.77.82a2.1,2.1,0,0,0-.67-.525,2.034,2.034,0,0,0-.92-.195q-1.14,0-1.14.94a.767.767,0,0,0,.24.61,1.708,1.708,0,0,0,.82.31l.73.13a2.3,2.3,0,0,1,1.35.67,1.866,1.866,0,0,1,.44,1.28,2.29,2.29,0,0,1-.17.9,1.93,1.93,0,0,1-.5.7,2.273,2.273,0,0,1-.815.455A3.557,3.557,0,0,1,32.92,36.12Z" transform="translate(72.738 871.181)" fill="#b5ab74"/>
    <g id="Group_369" data-name="Group 369" transform="translate(-1567.908 634.181)">
      <circle id="Ellipse_26" data-name="Ellipse 26" cx="8" cy="8" r="8" transform="translate(1616.646 237)" fill="#d6d98a"/>
      <line id="Line_1" data-name="Line 1" y2="5" transform="translate(1624.646 241)" fill="none" stroke="#fff" stroke-linecap="round" stroke-width="2"/>
      <circle id="Ellipse_27" data-name="Ellipse 27" cx="1" cy="1" r="1" transform="translate(1623.646 248)" fill="#fff"/>
    </g>
  </g>
</svg>
