<svg xmlns="http://www.w3.org/2000/svg" xmlns:xlink="http://www.w3.org/1999/xlink" width="63" height="63" viewBox="0 0 63 63">
  <defs>
    <filter id="路径_101">
      <feOffset dy="-1" input="SourceAlpha"/>
      <feGaussianBlur stdDeviation="5" result="blur"/>
      <feFlood flood-opacity="0.161" result="color"/>
      <feComposite operator="out" in="SourceGraphic" in2="blur"/>
      <feComposite operator="in" in="color"/>
      <feComposite operator="in" in2="SourceGraphic"/>
    </filter>
    <linearGradient id="linear-gradient" x1="0.63" y1="0.138" x2="0.802" y2="1.365" gradientUnits="objectBoundingBox">
      <stop offset="0" stop-color="#fff"/>
      <stop offset="0.419" stop-color="#c1f3f7"/>
      <stop offset="1" stop-color="#68b4ba"/>
    </linearGradient>
    <filter id="路径_19">
      <feOffset dx="-0.5" dy="-1" input="SourceAlpha"/>
      <feGaussianBlur stdDeviation="0.5" result="blur-2"/>
      <feFlood flood-opacity="0.078" result="color-2"/>
      <feComposite operator="out" in="SourceGraphic" in2="blur-2"/>
      <feComposite operator="in" in="color-2"/>
      <feComposite operator="in" in2="SourceGraphic"/>
    </filter>
    <filter id="路径_20">
      <feOffset dx="-0.5" dy="-1" input="SourceAlpha"/>
      <feGaussianBlur stdDeviation="0.5" result="blur-3"/>
      <feFlood flood-opacity="0.078" result="color-3"/>
      <feComposite operator="out" in="SourceGraphic" in2="blur-3"/>
      <feComposite operator="in" in="color-3"/>
      <feComposite operator="in" in2="SourceGraphic"/>
    </filter>
    <filter id="路径_21">
      <feOffset dx="-0.5" dy="-1" input="SourceAlpha"/>
      <feGaussianBlur stdDeviation="0.5" result="blur-4"/>
      <feFlood flood-opacity="0.078" result="color-4"/>
      <feComposite operator="out" in="SourceGraphic" in2="blur-4"/>
      <feComposite operator="in" in="color-4"/>
      <feComposite operator="in" in2="SourceGraphic"/>
    </filter>
    <filter id="路径_22">
      <feOffset dx="-0.5" dy="-1" input="SourceAlpha"/>
      <feGaussianBlur stdDeviation="0.5" result="blur-5"/>
      <feFlood flood-opacity="0.078" result="color-5"/>
      <feComposite operator="out" in="SourceGraphic" in2="blur-5"/>
      <feComposite operator="in" in="color-5"/>
      <feComposite operator="in" in2="SourceGraphic"/>
    </filter>
    <filter id="路径_23">
      <feOffset dx="-0.5" dy="-1" input="SourceAlpha"/>
      <feGaussianBlur stdDeviation="0.5" result="blur-6"/>
      <feFlood flood-opacity="0.078" result="color-6"/>
      <feComposite operator="out" in="SourceGraphic" in2="blur-6"/>
      <feComposite operator="in" in="color-6"/>
      <feComposite operator="in" in2="SourceGraphic"/>
    </filter>
    <linearGradient id="linear-gradient-2" x1="0.5" x2="0.5" y2="1" gradientUnits="objectBoundingBox">
      <stop offset="0" stop-color="#00e2ff"/>
      <stop offset="1" stop-color="#00e2ff"/>
    </linearGradient>
  </defs>
  <g id="组_113" data-name="组 113" transform="translate(-525 -238)">
    <circle id="椭圆_67" data-name="椭圆 67" cx="31.5" cy="31.5" r="31.5" transform="translate(525 238)" fill="none"/>
    <g data-type="innerShadowGroup">
      <path id="路径_101-2" data-name="路径 101" d="M24.21,0C37.53,0,49.137,9.041,49.137,16.018S34.342,25.3,21.022,25.3.4,20.9.4,13.92,10.891,0,24.21,0Z" transform="translate(531.731 261.163)" fill="#e7ccff"/>
      <g transform="matrix(1, 0, 0, 1, 525, 238)" filter="url(#路径_101)">
        <path id="路径_101-3" data-name="路径 101" d="M24.21,0C37.53,0,49.137,9.041,49.137,16.018S34.342,25.3,21.022,25.3.4,20.9.4,13.92,10.891,0,24.21,0Z" transform="translate(6.73 23.16)" fill="#fff"/>
      </g>
    </g>
    <g id="组_96" data-name="组 96" transform="translate(-1372.608 -113.455)">
      <g id="组_5" data-name="组 5" transform="translate(1914.547 364.228)">
        <g data-type="innerShadowGroup">
          <path id="路径_19-2" data-name="路径 19" d="M1915.049,1609.087c-.62.909-.764,1.284.141,2.595s2.432.839,2.48,2.766-2.736,3.118.808,4.225,4.309,2.07,9.241,1.638,7-.229,9.183-1.638,2.36-.991,2.289-2.877,1.8-2.6,2.192-4.115,1.349-2.538-1.454-3.637c-.726-.285-2.139-4.473-3.028-4.841-1.432-.594-4.091,6.4-6.264,6.289-2.932-.143,1.18-4.18-2.919-4.462s-4.044-3.76-6.351-2.667-2.9,5.439-3.7,5.681S1915.669,1608.178,1915.049,1609.087Z" transform="translate(-1916.389 -1597.975)" fill="url(#linear-gradient)"/>
          <g transform="matrix(1, 0, 0, 1, -16.94, -12.77)" filter="url(#路径_19)">
            <path id="路径_19-3" data-name="路径 19" d="M1915.049,1609.087c-.62.909-.764,1.284.141,2.595s2.432.839,2.48,2.766-2.736,3.118.808,4.225,4.309,2.07,9.241,1.638,7-.229,9.183-1.638,2.36-.991,2.289-2.877,1.8-2.6,2.192-4.115,1.349-2.538-1.454-3.637c-.726-.285-2.139-4.473-3.028-4.841-1.432-.594-4.091,6.4-6.264,6.289-2.932-.143,1.18-4.18-2.919-4.462s-4.044-3.76-6.351-2.667-2.9,5.439-3.7,5.681S1915.669,1608.178,1915.049,1609.087Z" transform="translate(-1899.45 -1585.2)" fill="#fff"/>
          </g>
        </g>
        <g data-type="innerShadowGroup">
          <path id="路径_20-2" data-name="路径 20" d="M1931.249,1846.949c-.348.134-1.051.115-1.064.979s-.545,1.924,0,2.258a15.224,15.224,0,0,0,3.083.727c.674.138,1.806.145,1.993-.257a3.167,3.167,0,0,0,0-1.431c-.032-.446-1.142-.68-1.4-1.3a3.058,3.058,0,0,0-1.8-1.259C1931.832,1846.729,1931.249,1846.949,1931.249,1846.949Z" transform="translate(-1928.537 -1824.667)" fill="#e3fdff"/>
          <g transform="matrix(1, 0, 0, 1, -16.94, -12.77)" filter="url(#路径_20)">
            <path id="路径_20-3" data-name="路径 20" d="M1931.249,1846.949c-.348.134-1.051.115-1.064.979s-.545,1.924,0,2.258a15.224,15.224,0,0,0,3.083.727c.674.138,1.806.145,1.993-.257a3.167,3.167,0,0,0,0-1.431c-.032-.446-1.142-.68-1.4-1.3a3.058,3.058,0,0,0-1.8-1.259C1931.832,1846.729,1931.249,1846.949,1931.249,1846.949Z" transform="translate(-1911.6 -1811.89)" fill="#fff"/>
          </g>
        </g>
        <g data-type="innerShadowGroup">
          <path id="路径_21-2" data-name="路径 21" d="M2019.789,1878.977a4.2,4.2,0,0,0-.7,2.17c.122.4.984.017,1.043.852s.178.761-.343,1.234-.662.426-.7,1.044,1.076,2.219,1.585,2.237a12.225,12.225,0,0,0,3.361,0,25.577,25.577,0,0,0,2.566-.543c.521-.269.445.329,1.543-.57s1.562-1.225,1.04-1.645-2.2-.891-2.13-2.129,1.88-1.134-.454-1.964-1.264-.624-2.566-.687-3.9,0-3.9,0Z" transform="translate(-2009.544 -1854.009)" fill="#e3fdff"/>
          <g transform="matrix(1, 0, 0, 1, -16.94, -12.77)" filter="url(#路径_21)">
            <path id="路径_21-3" data-name="路径 21" d="M2019.789,1878.977a4.2,4.2,0,0,0-.7,2.17c.122.4.984.017,1.043.852s.178.761-.343,1.234-.662.426-.7,1.044,1.076,2.219,1.585,2.237a12.225,12.225,0,0,0,3.361,0,25.577,25.577,0,0,0,2.566-.543c.521-.269.445.329,1.543-.57s1.562-1.225,1.04-1.645-2.2-.891-2.13-2.129,1.88-1.134-.454-1.964-1.264-.624-2.566-.687-3.9,0-3.9,0Z" transform="translate(-1992.6 -1841.24)" fill="#fff"/>
          </g>
        </g>
        <g data-type="innerShadowGroup">
          <path id="路径_22-2" data-name="路径 22" d="M2134.1,1848.164c-.844.41-.7.487-.951,1.494s-.774,2.064-.517,2.506,2.852.866,3.084.907a9.875,9.875,0,0,0,2.808-1.591,1.966,1.966,0,0,0,0-2.846c-1.2-1.051-.823-1.232-1.781-1.145s-1.584-.453-2.1,0S2134.1,1848.164,2134.1,1848.164Z" transform="translate(-2112.698 -1825.248)" fill="#e3fdff"/>
          <g transform="matrix(1, 0, 0, 1, -16.94, -12.77)" filter="url(#路径_22)">
            <path id="路径_22-3" data-name="路径 22" d="M2134.1,1848.164c-.844.41-.7.487-.951,1.494s-.774,2.064-.517,2.506,2.852.866,3.084.907a9.875,9.875,0,0,0,2.808-1.591,1.966,1.966,0,0,0,0-2.846c-1.2-1.051-.823-1.232-1.781-1.145s-1.584-.453-2.1,0S2134.1,1848.164,2134.1,1848.164Z" transform="translate(-2095.76 -1812.48)" fill="#fff"/>
          </g>
        </g>
        <g data-type="innerShadowGroup">
          <path id="路径_23-2" data-name="路径 23" d="M2191.962,1745.762c-1.107.343-1.915.188-2.278,1.733s-.9,1.573-.7,2.94-.891,2.923,1.387,3.674,2.907,1.025,4.031-.787.455-3.5,0-4.88-1.107-2.774-1.8-2.68S2191.962,1745.762,2191.962,1745.762Z" transform="translate(-2163.894 -1732.953)" fill="#e3fdff"/>
          <g transform="matrix(1, 0, 0, 1, -16.94, -12.77)" filter="url(#路径_23)">
            <path id="路径_23-3" data-name="路径 23" d="M2191.962,1745.762c-1.107.343-1.915.188-2.278,1.733s-.9,1.573-.7,2.94-.891,2.923,1.387,3.674,2.907,1.025,4.031-.787.455-3.5,0-4.88-1.107-2.774-1.8-2.68S2191.962,1745.762,2191.962,1745.762Z" transform="translate(-2146.95 -1720.18)" fill="#fff"/>
          </g>
        </g>
      </g>
    </g>
    <g id="组_98" data-name="组 98" transform="matrix(-0.017, 1, -1, -0.017, 815.656, -288.985)">
      <path id="联合_1" data-name="联合 1" d="M-1992.286-429.573l3.117-3.58,3.432,2.147.932,1.792-3.869,4.339,0,.019-.024,0-.271.3Zm3.246,4.369-.324-1.73-.027-.012.017-.038-.4-2.152h-1.862Zm.3-.044,3.5-3.924-2.435-.768-1.381,3Zm-.762-4.075.349,1.869,1.171-2.539-1.333-.531Zm-2.4-.225.1.153v-.041h2.018l.482-3.1Zm6.617.046-.662-1.273-1.408.62Zm-2.565-.763,1.608-.709-2.732-1.71-.289,1.856Z" transform="translate(2544.132 678.348)" fill="url(#linear-gradient-2)"/>
    </g>
    <g id="组_99" data-name="组 99" transform="translate(-41.475 165.485) rotate(-16)">
      <g id="路径_109" data-name="路径 109" transform="translate(555.215 249.621) rotate(180)" fill="none">
        <path d="M1.661,0,3.368,2.585l-1.6,1.842L0,3.322.414.921Z" stroke="none"/>
        <path d="M 1.635587096214294 0.143061637878418 L 0.5059018135070801 0.9777283668518066 L 0.1099531650543213 3.272718906402588 L 1.745907545089722 4.296499252319336 L 3.242847681045532 2.576669216156006 L 1.635587096214294 0.143061637878418 M 1.660938858985901 -1.9073486328125e-06 L 3.368178844451904 2.584988117218018 L 1.7652587890625 4.426578044891357 L -1.192092895507812e-06 3.321877956390381 L 0.4141888618469238 0.9211580753326416 L 1.660938858985901 -1.9073486328125e-06 Z" stroke="none" fill="#0a00ff"/>
      </g>
      <line id="直线_15" data-name="直线 15" x2="1.125" transform="translate(552.092 247.184)" fill="none" stroke="#0a00ff" stroke-width="0.1"/>
      <path id="路径_110" data-name="路径 110" d="M2549.917,668.681l.956-.421" transform="translate(-1995.794 -421.916)" fill="none" stroke="#0a00ff" stroke-width="0.1"/>
      <path id="路径_112" data-name="路径 112" d="M2547.731,665.65l-.28,1.8.432,2.31" transform="translate(-1994.253 -420.284)" fill="none" stroke="#0a00ff" stroke-width="0.1"/>
      <path id="路径_113" data-name="路径 113" d="M2547.7,669.588l.858-.428.483,1.821" transform="translate(-1994.399 -422.382)" fill="none" stroke="#0a00ff" stroke-width="0.1"/>
    </g>
    <g id="组_100" data-name="组 100" transform="translate(602.707 -347.887) rotate(69)">
      <g id="路径_109-2" data-name="路径 109" transform="translate(555.215 249.621) rotate(180)" fill="none">
        <path d="M1.661,0,3.368,2.585l-1.6,1.842L0,3.322.414.921Z" stroke="none"/>
        <path d="M 1.635587096214294 0.143061637878418 L 0.5059018135070801 0.9777283668518066 L 0.1099531650543213 3.272718906402588 L 1.745907545089722 4.296499252319336 L 3.242847681045532 2.576669216156006 L 1.635587096214294 0.143061637878418 M 1.660938858985901 -1.9073486328125e-06 L 3.368178844451904 2.584988117218018 L 1.7652587890625 4.426578044891357 L -1.192092895507812e-06 3.321877956390381 L 0.4141888618469238 0.9211580753326416 L 1.660938858985901 -1.9073486328125e-06 Z" stroke="none" fill="#a5ffa9"/>
      </g>
      <line id="直线_15-2" data-name="直线 15" x2="1.125" transform="translate(552.092 247.184)" fill="none" stroke="#a5ffa9" stroke-width="0.1"/>
      <path id="路径_110-2" data-name="路径 110" d="M2549.917,668.681l.956-.421" transform="translate(-1995.794 -421.916)" fill="none" stroke="#a5ffa9" stroke-width="0.1"/>
      <path id="路径_112-2" data-name="路径 112" d="M2547.731,665.65l-.28,1.8.432,2.31" transform="translate(-1994.253 -420.284)" fill="none" stroke="#a5ffa9" stroke-width="0.1"/>
      <path id="路径_113-2" data-name="路径 113" d="M2547.7,669.588l.858-.428.483,1.821" transform="translate(-1994.399 -422.382)" fill="none" stroke="#a5ffa9" stroke-width="0.1"/>
    </g>
    <g id="组_101" data-name="组 101" transform="translate(-64.793 334.132) rotate(-31)">
      <g id="路径_109-3" data-name="路径 109" transform="translate(555.215 249.621) rotate(180)" fill="none">
        <path d="M1.661,0,3.368,2.585l-1.6,1.842L0,3.322.414.921Z" stroke="none"/>
        <path d="M 1.635587096214294 0.143061637878418 L 0.5059018135070801 0.9777283668518066 L 0.1099531650543213 3.272718906402588 L 1.745907545089722 4.296499252319336 L 3.242847681045532 2.576669216156006 L 1.635587096214294 0.143061637878418 M 1.660938858985901 -1.9073486328125e-06 L 3.368178844451904 2.584988117218018 L 1.7652587890625 4.426578044891357 L -1.192092895507812e-06 3.321877956390381 L 0.4141888618469238 0.9211580753326416 L 1.660938858985901 -1.9073486328125e-06 Z" stroke="none" fill="#00e2ff"/>
      </g>
      <line id="直线_15-3" data-name="直线 15" x2="1.125" transform="translate(552.092 247.184)" fill="none" stroke="#00e2ff" stroke-width="0.1"/>
      <path id="路径_110-3" data-name="路径 110" d="M2549.917,668.681l.956-.421" transform="translate(-1995.794 -421.916)" fill="none" stroke="#00e2ff" stroke-width="0.1"/>
      <path id="路径_112-3" data-name="路径 112" d="M2547.731,665.65l-.28,1.8.432,2.31" transform="translate(-1994.253 -420.284)" fill="none" stroke="#00e2ff" stroke-width="0.1"/>
      <path id="路径_113-3" data-name="路径 113" d="M2547.7,669.588l.858-.428.483,1.821" transform="translate(-1994.399 -422.382)" fill="none" stroke="#00e2ff" stroke-width="0.1"/>
    </g>
  </g>
</svg>
