<svg xmlns="http://www.w3.org/2000/svg" width="171" height="42" viewBox="0 0 171 42">
  <g id="组_294" data-name="组 294" transform="translate(-1664 -137)">
    <rect id="矩形_5" data-name="矩形 5" width="171" height="42" rx="21" transform="translate(1664 137)" fill="rgba(188,234,180,0.53)"/>
    <path id="路径_559" data-name="路径 559" d="M6.525,0l-.66-2.52H3L2.355,0H.075L2.91-10.47H6.09L8.925,0ZM4.5-8.3H4.38L3.36-4.335H5.52ZM22.41.18a5.9,5.9,0,0,1-2.243-.39,3.174,3.174,0,0,1-1.432-1.065L19.98-2.43a3.227,3.227,0,0,0,1.058.773,3.305,3.305,0,0,0,1.387.278,2.2,2.2,0,0,0,1.035-.2.663.663,0,0,0,.375-.622.466.466,0,0,0-.255-.457,2.557,2.557,0,0,0-.7-.2L21.63-3.06a5.153,5.153,0,0,1-.975-.233,2.548,2.548,0,0,1-.78-.428,1.994,1.994,0,0,1-.525-.66,2.1,2.1,0,0,1-.195-.945,2.241,2.241,0,0,1,.93-1.905,4.309,4.309,0,0,1,2.61-.69,5.441,5.441,0,0,1,1.943.308,3.074,3.074,0,0,1,1.282.877l-1.11,1.26a2.82,2.82,0,0,0-.885-.63A3.037,3.037,0,0,0,22.62-6.36q-1.29,0-1.29.78a.479.479,0,0,0,.255.472,2.557,2.557,0,0,0,.705.2l1.23.195a5.153,5.153,0,0,1,.975.233,2.649,2.649,0,0,1,.788.427,1.954,1.954,0,0,1,.532.66,2.1,2.1,0,0,1,.195.945,2.274,2.274,0,0,1-.937,1.92A4.36,4.36,0,0,1,22.41.18ZM27.975,0V-7.74h2.22v1.41h.09a3.294,3.294,0,0,1,.33-.615,2.25,2.25,0,0,1,.472-.5,2.21,2.21,0,0,1,.645-.345,2.531,2.531,0,0,1,.832-.127,2.7,2.7,0,0,1,1.02.188,2.081,2.081,0,0,1,.8.563,2.714,2.714,0,0,1,.517.915,3.79,3.79,0,0,1,.188,1.245V0h-2.22V-4.71q0-1.5-1.305-1.5a1.9,1.9,0,0,0-.5.068,1.34,1.34,0,0,0-.442.21,1.04,1.04,0,0,0-.307.352,1.033,1.033,0,0,0-.113.495V0ZM40.5.18A4.476,4.476,0,0,1,38.88-.1a3.317,3.317,0,0,1-1.222-.8,3.56,3.56,0,0,1-.773-1.275,4.982,4.982,0,0,1-.27-1.695,4.982,4.982,0,0,1,.27-1.7,3.56,3.56,0,0,1,.773-1.275,3.317,3.317,0,0,1,1.222-.8A4.476,4.476,0,0,1,40.5-7.92a4.476,4.476,0,0,1,1.62.277,3.317,3.317,0,0,1,1.222.8,3.56,3.56,0,0,1,.772,1.275,4.982,4.982,0,0,1,.27,1.7,4.982,4.982,0,0,1-.27,1.695A3.56,3.56,0,0,1,43.342-.9a3.317,3.317,0,0,1-1.222.8A4.476,4.476,0,0,1,40.5.18Zm0-1.65a1.5,1.5,0,0,0,1.17-.465,1.9,1.9,0,0,0,.42-1.32v-1.23a1.9,1.9,0,0,0-.42-1.32A1.5,1.5,0,0,0,40.5-6.27a1.5,1.5,0,0,0-1.17.465,1.9,1.9,0,0,0-.42,1.32v1.23a1.9,1.9,0,0,0,.42,1.32A1.5,1.5,0,0,0,40.5-1.47Zm4.6-6.27H46.95l.555,6.27h.15l.915-6.27h1.95l.9,6.27h.15l.57-6.27H53.9L52.98,0H50.34l-.765-5.34h-.15L48.66,0H46.02Zm15.345,0h2.265L59.07,1.245a3.088,3.088,0,0,1-.915,1.3A2.454,2.454,0,0,1,56.6,3h-1.53V1.275h1.86l.48-1.32L54.285-7.74H56.67l1.125,3.255.705,2.25h.12l.675-2.25ZM77.895-1.41h-.1a2.976,2.976,0,0,1-.833,1.147A2.221,2.221,0,0,1,75.5.18a2.833,2.833,0,0,1-1.178-.24A2.389,2.389,0,0,1,73.4-.8a3.693,3.693,0,0,1-.6-1.26,6.685,6.685,0,0,1-.217-1.815A6.685,6.685,0,0,1,72.8-5.685a3.693,3.693,0,0,1,.6-1.26,2.389,2.389,0,0,1,.915-.735A2.833,2.833,0,0,1,75.5-7.92a2.606,2.606,0,0,1,.825.12,2.2,2.2,0,0,1,.637.33,2.185,2.185,0,0,1,.48.5,3.727,3.727,0,0,1,.353.638h.1V-11.1h2.22V0h-2.22Zm-1.44-.135a1.783,1.783,0,0,0,1.012-.285,1,1,0,0,0,.427-.9V-5.01a1,1,0,0,0-.427-.9,1.783,1.783,0,0,0-1.012-.285,1.461,1.461,0,0,0-1.155.457,1.846,1.846,0,0,0-.405,1.267v1.2A1.846,1.846,0,0,0,75.3-2,1.461,1.461,0,0,0,76.455-1.545ZM88.305,0a1.669,1.669,0,0,1-1.11-.352,1.479,1.479,0,0,1-.5-1.013h-.075A1.9,1.9,0,0,1,85.793-.21,2.813,2.813,0,0,1,84.27.18a2.618,2.618,0,0,1-1.807-.608,2.161,2.161,0,0,1-.683-1.7,2.007,2.007,0,0,1,.885-1.8,4.725,4.725,0,0,1,2.6-.585H86.5V-4.9a1.5,1.5,0,0,0-.322-1.043A1.42,1.42,0,0,0,85.1-6.3a2.138,2.138,0,0,0-1.14.27,2.642,2.642,0,0,0-.75.705L81.99-6.4a2.912,2.912,0,0,1,1.223-1.088A4.671,4.671,0,0,1,85.35-7.92a3.825,3.825,0,0,1,2.482.727,2.668,2.668,0,0,1,.893,2.2v3.39h.855V0ZM85.11-1.275a1.677,1.677,0,0,0,.99-.285.946.946,0,0,0,.4-.825v-.93H85.32q-1.365,0-1.365.915v.3a.692.692,0,0,0,.315.615A1.493,1.493,0,0,0,85.11-1.275ZM96.45-7.74h2.265L95.07,1.245a3.088,3.088,0,0,1-.915,1.3A2.454,2.454,0,0,1,92.6,3h-1.53V1.275h1.86l.48-1.32L90.285-7.74H92.67l1.125,3.255.705,2.25h.12l.675-2.25Zm8.43,5.145a1.948,1.948,0,0,1-1.065-.285,3.147,3.147,0,0,1-.855-.855q-.3-.45-.5-.705a.561.561,0,0,0-.45-.255q-.375,0-.562.51a7.468,7.468,0,0,0-.323,1.41l-1.59-.3a5.555,5.555,0,0,1,.878-2.647,2.049,2.049,0,0,1,1.7-.818,1.948,1.948,0,0,1,1.065.285,3.147,3.147,0,0,1,.855.855q.3.45.5.705a.561.561,0,0,0,.45.255q.375,0,.563-.51a7.468,7.468,0,0,0,.323-1.41l1.59.3a5.555,5.555,0,0,1-.877,2.648A2.049,2.049,0,0,1,104.88-2.595Z" transform="translate(1711 164)" fill="#4ab159"/>
    <circle id="椭圆_26" data-name="椭圆 26" cx="11.5" cy="11.5" r="11.5" transform="translate(1675 147)" fill="#4bb159"/>
    <g id="组_82" data-name="组 82" transform="translate(-26)">
      <line id="直线_12" data-name="直线 12" x2="6" transform="translate(1714 158.5)" fill="none" stroke="#fff" stroke-linecap="round" stroke-width="1"/>
      <line id="直线_13" data-name="直线 13" y1="2" x2="1" transform="translate(1718 156.5)" fill="none" stroke="#fff" stroke-linecap="round" stroke-width="1"/>
      <line id="直线_14" data-name="直线 14" x2="1" y2="2" transform="translate(1718 158.5)" fill="none" stroke="#fff" stroke-linecap="round" stroke-width="1"/>
      <line id="直线_12-2" data-name="直线 12" x1="6" transform="translate(1705 158.5)" fill="none" stroke="#fff" stroke-linecap="round" stroke-width="1"/>
      <line id="直线_13-2" data-name="直线 13" x1="1" y1="2" transform="translate(1706 156.5)" fill="none" stroke="#fff" stroke-linecap="round" stroke-width="1"/>
      <line id="直线_14-2" data-name="直线 14" x1="1" y2="2" transform="translate(1706 158.5)" fill="none" stroke="#fff" stroke-linecap="round" stroke-width="1"/>
      <line id="直线_12-3" data-name="直线 12" x2="6" transform="translate(1713.25 159.799) rotate(60)" fill="none" stroke="#fff" stroke-linecap="round" stroke-width="1"/>
      <line id="直线_13-3" data-name="直线 13" y1="2" x2="1" transform="translate(1716.982 162.263) rotate(60)" fill="none" stroke="#fff" stroke-linecap="round" stroke-width="1"/>
      <line id="直线_14-3" data-name="直线 14" x2="1" y2="2" transform="translate(1715.25 163.263) rotate(60)" fill="none" stroke="#fff" stroke-linecap="round" stroke-width="1"/>
      <line id="直线_12-4" data-name="直线 12" x1="6" transform="translate(1708.75 152.005) rotate(60)" fill="none" stroke="#fff" stroke-linecap="round" stroke-width="1"/>
      <line id="直线_13-4" data-name="直线 13" x1="1" y1="2" transform="translate(1710.982 151.871) rotate(60)" fill="none" stroke="#fff" stroke-linecap="round" stroke-width="1"/>
      <line id="直线_14-4" data-name="直线 14" x1="1" y2="2" transform="translate(1709.25 152.871) rotate(60)" fill="none" stroke="#fff" stroke-linecap="round" stroke-width="1"/>
      <line id="直线_12-5" data-name="直线 12" x2="6" transform="translate(1711.75 159.799) rotate(120)" fill="none" stroke="#fff" stroke-linecap="round" stroke-width="1"/>
      <line id="直线_13-5" data-name="直线 13" x2="1" y2="2" transform="translate(1709.75 163.263) rotate(120)" fill="none" stroke="#fff" stroke-linecap="round" stroke-width="1"/>
      <line id="直线_14-5" data-name="直线 14" y1="2" x2="1" transform="translate(1711.482 164.263) rotate(120)" fill="none" stroke="#fff" stroke-linecap="round" stroke-width="1"/>
      <line id="直线_12-6" data-name="直线 12" x1="6" transform="translate(1716.25 152.005) rotate(120)" fill="none" stroke="#fff" stroke-linecap="round" stroke-width="1"/>
      <line id="直线_13-6" data-name="直线 13" x1="1" y2="2" transform="translate(1715.75 152.871) rotate(120)" fill="none" stroke="#fff" stroke-linecap="round" stroke-width="1"/>
      <line id="直线_14-6" data-name="直线 14" x1="1" y1="2" transform="translate(1717.482 153.871) rotate(120)" fill="none" stroke="#fff" stroke-linecap="round" stroke-width="1"/>
    </g>
  </g>
</svg>
