<svg xmlns="http://www.w3.org/2000/svg" width="208" height="42" viewBox="0 0 208 42">
  <g id="组_282" data-name="组 282" transform="translate(-1605.55 -227)">
    <rect id="矩形_5" data-name="矩形 5" width="208" height="42" rx="21" transform="translate(1605.55 227)" fill="rgba(188,234,180,0.53)"/>
    <path id="路径_548" data-name="路径 548" d="M4.335.18A5.594,5.594,0,0,1,2.04-.255,4.127,4.127,0,0,1,.465-1.44l1.3-1.44a3.7,3.7,0,0,0,1.253.93,3.418,3.418,0,0,0,1.387.3,1.842,1.842,0,0,0,1.23-.36,1.288,1.288,0,0,0,.42-1.035,1.062,1.062,0,0,0-.323-.84,2.168,2.168,0,0,0-1.087-.4l-1.1-.18a3.147,3.147,0,0,1-2.04-1.043A3.073,3.073,0,0,1,.885-7.47a2.9,2.9,0,0,1,.99-2.348A4.188,4.188,0,0,1,4.65-10.65a5.474,5.474,0,0,1,2.115.375A3.814,3.814,0,0,1,8.22-9.255L6.945-7.83a3.026,3.026,0,0,0-.99-.727,3.05,3.05,0,0,0-1.29-.262Q3.15-8.82,3.15-7.575a.975.975,0,0,0,.338.81,2.5,2.5,0,0,0,1.1.4l1.095.2A3.419,3.419,0,0,1,7.65-5.2a2.776,2.776,0,0,1,.69,1.98,3.547,3.547,0,0,1-.255,1.358A2.924,2.924,0,0,1,7.32-.787a3.6,3.6,0,0,1-1.253.712A5.336,5.336,0,0,1,4.335.18Zm10.47-1.59h-.09a2.761,2.761,0,0,1-.8,1.125A2.208,2.208,0,0,1,12.435.18a2.7,2.7,0,0,1-1.02-.188,2.081,2.081,0,0,1-.8-.562,2.714,2.714,0,0,1-.517-.915A3.79,3.79,0,0,1,9.915-2.73V-7.74h2.22v4.71q0,1.5,1.305,1.5a1.9,1.9,0,0,0,.5-.067,1.257,1.257,0,0,0,.435-.21,1.161,1.161,0,0,0,.307-.352.981.981,0,0,0,.12-.5V-7.74h2.22V0h-2.22ZM18.975,0V-7.74h2.22v1.41h.09a3.294,3.294,0,0,1,.33-.615,2.25,2.25,0,0,1,.472-.5,2.21,2.21,0,0,1,.645-.345,2.531,2.531,0,0,1,.833-.127,2.7,2.7,0,0,1,1.02.188,2.081,2.081,0,0,1,.8.563,2.714,2.714,0,0,1,.517.915,3.79,3.79,0,0,1,.188,1.245V0h-2.22V-4.71q0-1.5-1.305-1.5a1.9,1.9,0,0,0-.5.068,1.34,1.34,0,0,0-.442.21,1.04,1.04,0,0,0-.307.352,1.033,1.033,0,0,0-.113.495V0Zm22-8.73a1.411,1.411,0,0,1-1.042-.307,1.038,1.038,0,0,1-.292-.742v-.435a1.031,1.031,0,0,1,.292-.75,1.435,1.435,0,0,1,1.042-.3,1.435,1.435,0,0,1,1.042.3,1.031,1.031,0,0,1,.292.75v.435a1.038,1.038,0,0,1-.292.742A1.411,1.411,0,0,1,40.98-8.73ZM37.41-1.725h2.46v-4.29H37.41V-7.74h4.68v6.015h2.28V0H37.41ZM49.41.18a5.9,5.9,0,0,1-2.243-.39,3.174,3.174,0,0,1-1.432-1.065L46.98-2.43a3.227,3.227,0,0,0,1.057.773,3.305,3.305,0,0,0,1.388.278,2.2,2.2,0,0,0,1.035-.2.663.663,0,0,0,.375-.622.466.466,0,0,0-.255-.457,2.557,2.557,0,0,0-.705-.2L48.63-3.06a5.153,5.153,0,0,1-.975-.233,2.548,2.548,0,0,1-.78-.428,1.994,1.994,0,0,1-.525-.66,2.1,2.1,0,0,1-.195-.945,2.241,2.241,0,0,1,.93-1.905,4.309,4.309,0,0,1,2.61-.69,5.441,5.441,0,0,1,1.943.308,3.074,3.074,0,0,1,1.282.877l-1.11,1.26a2.82,2.82,0,0,0-.885-.63A3.037,3.037,0,0,0,49.62-6.36q-1.29,0-1.29.78a.479.479,0,0,0,.255.472,2.557,2.557,0,0,0,.705.2l1.23.195a5.153,5.153,0,0,1,.975.233,2.649,2.649,0,0,1,.788.427,1.954,1.954,0,0,1,.533.66,2.1,2.1,0,0,1,.195.945,2.274,2.274,0,0,1-.937,1.92A4.36,4.36,0,0,1,49.41.18Zm18,0a5.9,5.9,0,0,1-2.243-.39,3.174,3.174,0,0,1-1.433-1.065L64.98-2.43a3.227,3.227,0,0,0,1.057.773,3.305,3.305,0,0,0,1.388.278,2.2,2.2,0,0,0,1.035-.2.663.663,0,0,0,.375-.622.466.466,0,0,0-.255-.457,2.557,2.557,0,0,0-.705-.2L66.63-3.06a5.153,5.153,0,0,1-.975-.233,2.548,2.548,0,0,1-.78-.428,1.994,1.994,0,0,1-.525-.66,2.1,2.1,0,0,1-.195-.945,2.241,2.241,0,0,1,.93-1.905,4.309,4.309,0,0,1,2.61-.69,5.441,5.441,0,0,1,1.942.308,3.074,3.074,0,0,1,1.283.877l-1.11,1.26a2.82,2.82,0,0,0-.885-.63A3.037,3.037,0,0,0,67.62-6.36q-1.29,0-1.29.78a.479.479,0,0,0,.255.472,2.557,2.557,0,0,0,.705.2l1.23.195a5.153,5.153,0,0,1,.975.233,2.649,2.649,0,0,1,.787.427,1.954,1.954,0,0,1,.533.66,2.1,2.1,0,0,1,.195.945,2.274,2.274,0,0,1-.937,1.92A4.36,4.36,0,0,1,67.41.18ZM72.975-11.1h2.22v4.77h.09a3.294,3.294,0,0,1,.33-.615,2.25,2.25,0,0,1,.473-.5,2.21,2.21,0,0,1,.645-.345,2.531,2.531,0,0,1,.833-.127,2.7,2.7,0,0,1,1.02.188,2.081,2.081,0,0,1,.795.563,2.714,2.714,0,0,1,.518.915,3.79,3.79,0,0,1,.188,1.245V0h-2.22V-4.71q0-1.5-1.305-1.5a1.9,1.9,0,0,0-.5.068,1.34,1.34,0,0,0-.443.21,1.04,1.04,0,0,0-.307.352,1.033,1.033,0,0,0-.113.495V0h-2.22ZM85.98-8.73a1.411,1.411,0,0,1-1.043-.307,1.038,1.038,0,0,1-.293-.742v-.435a1.031,1.031,0,0,1,.293-.75,1.435,1.435,0,0,1,1.043-.3,1.435,1.435,0,0,1,1.042.3,1.031,1.031,0,0,1,.293.75v.435a1.038,1.038,0,0,1-.293.742A1.411,1.411,0,0,1,85.98-8.73ZM82.41-1.725h2.46v-4.29H82.41V-7.74h4.68v6.015h2.28V0H82.41ZM90.975,0V-7.74h2.22v1.41h.09a3.294,3.294,0,0,1,.33-.615,2.25,2.25,0,0,1,.473-.5,2.21,2.21,0,0,1,.645-.345,2.531,2.531,0,0,1,.833-.127,2.7,2.7,0,0,1,1.02.188,2.081,2.081,0,0,1,.795.563,2.714,2.714,0,0,1,.518.915,3.79,3.79,0,0,1,.188,1.245V0h-2.22V-4.71q0-1.5-1.305-1.5a1.9,1.9,0,0,0-.5.068,1.34,1.34,0,0,0-.443.21,1.04,1.04,0,0,0-.307.352,1.033,1.033,0,0,0-.113.495V0ZM103.98-8.73a1.411,1.411,0,0,1-1.043-.307,1.038,1.038,0,0,1-.293-.742v-.435a1.031,1.031,0,0,1,.293-.75,1.435,1.435,0,0,1,1.043-.3,1.435,1.435,0,0,1,1.042.3,1.031,1.031,0,0,1,.293.75v.435a1.038,1.038,0,0,1-.293.742A1.411,1.411,0,0,1,103.98-8.73Zm-3.57,7.005h2.46v-4.29h-2.46V-7.74h4.68v6.015h2.28V0h-6.96ZM108.975,0V-7.74h2.22v1.41h.09a3.294,3.294,0,0,1,.33-.615,2.25,2.25,0,0,1,.473-.5,2.21,2.21,0,0,1,.645-.345,2.531,2.531,0,0,1,.833-.127,2.7,2.7,0,0,1,1.02.188,2.081,2.081,0,0,1,.795.563,2.714,2.714,0,0,1,.518.915,3.79,3.79,0,0,1,.188,1.245V0h-2.22V-4.71q0-1.5-1.305-1.5a1.9,1.9,0,0,0-.5.068,1.34,1.34,0,0,0-.443.21,1.04,1.04,0,0,0-.307.352,1.033,1.033,0,0,0-.113.495V0Zm16.77.78a1.943,1.943,0,0,1-1.035,1.815,6.886,6.886,0,0,1-3.255.585,10.807,10.807,0,0,1-1.83-.128,3.684,3.684,0,0,1-1.147-.367,1.444,1.444,0,0,1-.6-.57,1.531,1.531,0,0,1-.173-.72,1.247,1.247,0,0,1,.39-1,2.662,2.662,0,0,1,1.1-.518V-.21a1.942,1.942,0,0,1-.788-.427,1.034,1.034,0,0,1-.292-.787.958.958,0,0,1,.382-.84,2.927,2.927,0,0,1,1.012-.42v-.09a2.535,2.535,0,0,1-1.072-.93,2.651,2.651,0,0,1-.382-1.455,2.806,2.806,0,0,1,.24-1.192,2.308,2.308,0,0,1,.683-.863,3.129,3.129,0,0,1,1.057-.525,4.909,4.909,0,0,1,1.38-.18,5.375,5.375,0,0,1,1.365.165v-.42a.993.993,0,0,1,.315-.75,1.21,1.21,0,0,1,.87-.3h1.365v1.62h-1.86v.135a2.463,2.463,0,0,1,.983.907,2.643,2.643,0,0,1,.353,1.4,2.755,2.755,0,0,1-.24,1.185,2.358,2.358,0,0,1-.69.862,3.126,3.126,0,0,1-1.073.532,4.988,4.988,0,0,1-1.387.18,5.585,5.585,0,0,1-.66-.038,4.4,4.4,0,0,1-.6-.112.947.947,0,0,0-.278.225.521.521,0,0,0-.112.345.423.423,0,0,0,.09.285.543.543,0,0,0,.248.157,1.506,1.506,0,0,0,.367.068q.21.015.435.015h1.77a5.247,5.247,0,0,1,1.41.165,2.687,2.687,0,0,1,.96.465,1.738,1.738,0,0,1,.54.7A2.365,2.365,0,0,1,125.745.78Zm-2.1.165a.551.551,0,0,0-.24-.472A1.689,1.689,0,0,0,122.49.3h-2.655a.8.8,0,0,0-.3.63.713.713,0,0,0,.307.592,1.773,1.773,0,0,0,1.043.233h1.305a2.22,2.22,0,0,0,1.11-.21A.665.665,0,0,0,123.645.945ZM121.41-3.81a1.288,1.288,0,0,0,.982-.33,1.184,1.184,0,0,0,.307-.84v-.36a1.184,1.184,0,0,0-.307-.84,1.288,1.288,0,0,0-.982-.33,1.24,1.24,0,0,0-.96.33,1.2,1.2,0,0,0-.3.84v.36a1.2,1.2,0,0,0,.3.84A1.24,1.24,0,0,0,121.41-3.81Zm8.73.165-.855-3.78V-10.47h2.43v3.045l-.855,3.78ZM130.5.18a1.538,1.538,0,0,1-1.14-.345,1.152,1.152,0,0,1-.33-.825v-.48a1.121,1.121,0,0,1,.337-.81,1.542,1.542,0,0,1,1.133-.345,1.542,1.542,0,0,1,1.133.345,1.121,1.121,0,0,1,.337.81v.48a1.152,1.152,0,0,1-.33.825A1.538,1.538,0,0,1,130.5.18Z" transform="translate(1660.55 254)" fill="#4ab159"/>
    <circle id="椭圆_26" data-name="椭圆 26" cx="11.5" cy="11.5" r="11.5" transform="translate(1616.55 237)" fill="#4bb159"/>
    <g id="组_81" data-name="组 81">
      <g id="组_79" data-name="组 79" transform="translate(652.561 -1078.421) rotate(45)">
        <line id="直线_9" data-name="直线 9" x2="1" transform="translate(1634.05 248.5)" fill="none" stroke="#fff" stroke-linecap="round" stroke-width="1"/>
        <line id="直线_10" data-name="直线 10" x2="1" transform="translate(1621.05 248.5)" fill="none" stroke="#fff" stroke-linecap="round" stroke-width="1"/>
      </g>
      <g id="椭圆_60" data-name="椭圆 60" transform="translate(1623.55 244)" fill="none" stroke="#fff" stroke-width="1">
        <circle cx="4.5" cy="4.5" r="4.5" stroke="none"/>
        <circle cx="4.5" cy="4.5" r="4" fill="none"/>
      </g>
      <g id="组_77" data-name="组 77">
        <line id="直线_9-2" data-name="直线 9" x2="1" transform="translate(1634.05 248.5)" fill="none" stroke="#fff" stroke-linecap="round" stroke-width="1"/>
        <line id="直线_10-2" data-name="直线 10" x2="1" transform="translate(1621.05 248.5)" fill="none" stroke="#fff" stroke-linecap="round" stroke-width="1"/>
      </g>
      <g id="组_78" data-name="组 78" transform="translate(1876.55 -1379.55) rotate(90)">
        <line id="直线_9-3" data-name="直线 9" x2="1" transform="translate(1634.05 248.5)" fill="none" stroke="#fff" stroke-linecap="round" stroke-width="1"/>
        <line id="直线_10-3" data-name="直线 10" x2="1" transform="translate(1621.05 248.5)" fill="none" stroke="#fff" stroke-linecap="round" stroke-width="1"/>
      </g>
      <g id="组_80" data-name="组 80" transform="translate(1633 243.55) rotate(135)">
        <line id="直线_9-4" data-name="直线 9" x2="1" transform="translate(13 0)" fill="none" stroke="#fff" stroke-linecap="round" stroke-width="1"/>
        <line id="直线_10-4" data-name="直线 10" x2="1" transform="translate(0 0)" fill="none" stroke="#fff" stroke-linecap="round" stroke-width="1"/>
      </g>
    </g>
  </g>
</svg>
