<svg xmlns="http://www.w3.org/2000/svg" width="221" height="42" viewBox="0 0 221 42">
  <g id="组_317" data-name="组 317" transform="translate(-1605.646 -227)">
    <rect id="矩形_5" data-name="矩形 5" width="221" height="42" rx="21" transform="translate(1605.646 227)" fill="rgba(255,209,185,0.17)"/>
    <path id="路径_588" data-name="路径 588" d="M2.91,0,.135-10.47h2.5L3.87-5.145,4.485-2.13h.12l.63-3.015L6.48-10.47H8.865L6.09,0ZM13.5.18A4.476,4.476,0,0,1,11.88-.1a3.317,3.317,0,0,1-1.222-.8,3.56,3.56,0,0,1-.773-1.275,4.982,4.982,0,0,1-.27-1.695,4.982,4.982,0,0,1,.27-1.7,3.56,3.56,0,0,1,.773-1.275,3.317,3.317,0,0,1,1.222-.8A4.476,4.476,0,0,1,13.5-7.92a4.476,4.476,0,0,1,1.62.277,3.317,3.317,0,0,1,1.222.8,3.56,3.56,0,0,1,.773,1.275,4.982,4.982,0,0,1,.27,1.7,4.982,4.982,0,0,1-.27,1.695A3.56,3.56,0,0,1,16.342-.9a3.317,3.317,0,0,1-1.222.8A4.476,4.476,0,0,1,13.5.18Zm0-1.65a1.5,1.5,0,0,0,1.17-.465,1.9,1.9,0,0,0,.42-1.32v-1.23a1.9,1.9,0,0,0-.42-1.32A1.5,1.5,0,0,0,13.5-6.27a1.5,1.5,0,0,0-1.17.465,1.9,1.9,0,0,0-.42,1.32v1.23a1.9,1.9,0,0,0,.42,1.32A1.5,1.5,0,0,0,13.5-1.47Zm5.52-.255h2.37v-7.65H19.02V-11.1h4.59v9.375h2.37V0H19.02ZM31.815.18A4.581,4.581,0,0,1,30.173-.1a3.306,3.306,0,0,1-1.23-.8,3.56,3.56,0,0,1-.772-1.275A4.982,4.982,0,0,1,27.9-3.87a4.982,4.982,0,0,1,.27-1.7,3.56,3.56,0,0,1,.772-1.275,3.306,3.306,0,0,1,1.23-.8A4.536,4.536,0,0,1,31.8-7.92a3.622,3.622,0,0,1,2.048.517A3.341,3.341,0,0,1,35.025-6.03l-1.71.93a2.275,2.275,0,0,0-.547-.75,1.41,1.41,0,0,0-.968-.3,1.531,1.531,0,0,0-1.177.443A1.7,1.7,0,0,0,30.21-4.5v1.26a1.7,1.7,0,0,0,.413,1.207,1.571,1.571,0,0,0,1.208.442,1.557,1.557,0,0,0,1.012-.3,2.509,2.509,0,0,0,.623-.78l1.68.96A3.375,3.375,0,0,1,33.923-.338,3.835,3.835,0,0,1,31.815.18ZM43.305,0a1.67,1.67,0,0,1-1.11-.352A1.479,1.479,0,0,1,41.7-1.365h-.075A1.9,1.9,0,0,1,40.792-.21,2.813,2.813,0,0,1,39.27.18a2.618,2.618,0,0,1-1.807-.608,2.161,2.161,0,0,1-.683-1.7,2.007,2.007,0,0,1,.885-1.8,4.725,4.725,0,0,1,2.6-.585h1.245V-4.9a1.5,1.5,0,0,0-.323-1.043A1.42,1.42,0,0,0,40.1-6.3a2.138,2.138,0,0,0-1.14.27,2.642,2.642,0,0,0-.75.705L36.99-6.4a2.912,2.912,0,0,1,1.222-1.088A4.671,4.671,0,0,1,40.35-7.92a3.825,3.825,0,0,1,2.483.727,2.668,2.668,0,0,1,.892,2.2v3.39h.855V0ZM40.11-1.275a1.677,1.677,0,0,0,.99-.285.946.946,0,0,0,.405-.825v-.93H40.32q-1.365,0-1.365.915v.3a.692.692,0,0,0,.315.615A1.493,1.493,0,0,0,40.11-1.275ZM45.975,0V-7.74h2.22v1.41h.09a3.294,3.294,0,0,1,.33-.615,2.25,2.25,0,0,1,.472-.5,2.21,2.21,0,0,1,.645-.345,2.531,2.531,0,0,1,.833-.127,2.7,2.7,0,0,1,1.02.188,2.081,2.081,0,0,1,.8.563,2.714,2.714,0,0,1,.517.915,3.79,3.79,0,0,1,.188,1.245V0h-2.22V-4.71q0-1.5-1.305-1.5a1.9,1.9,0,0,0-.5.068,1.34,1.34,0,0,0-.442.21,1.04,1.04,0,0,0-.308.352,1.033,1.033,0,0,0-.112.495V0ZM58.5.18A4.476,4.476,0,0,1,56.88-.1a3.317,3.317,0,0,1-1.222-.8,3.56,3.56,0,0,1-.773-1.275,4.982,4.982,0,0,1-.27-1.695,4.982,4.982,0,0,1,.27-1.7,3.56,3.56,0,0,1,.773-1.275,3.317,3.317,0,0,1,1.222-.8A4.476,4.476,0,0,1,58.5-7.92a4.476,4.476,0,0,1,1.62.277,3.317,3.317,0,0,1,1.222.8,3.56,3.56,0,0,1,.772,1.275,4.982,4.982,0,0,1,.27,1.7,4.982,4.982,0,0,1-.27,1.695A3.56,3.56,0,0,1,61.342-.9a3.317,3.317,0,0,1-1.222.8A4.476,4.476,0,0,1,58.5.18Zm0-1.65a1.5,1.5,0,0,0,1.17-.465,1.9,1.9,0,0,0,.42-1.32v-1.23a1.9,1.9,0,0,0-.42-1.32A1.5,1.5,0,0,0,58.5-6.27a1.5,1.5,0,0,0-1.17.465,1.9,1.9,0,0,0-.42,1.32v1.23a1.9,1.9,0,0,0,.42,1.32A1.5,1.5,0,0,0,58.5-1.47ZM76.71.18A3.841,3.841,0,0,1,73.755-.9a4.145,4.145,0,0,1-1-2.94,5.179,5.179,0,0,1,.262-1.7,3.655,3.655,0,0,1,.75-1.29,3.172,3.172,0,0,1,1.185-.81,4.209,4.209,0,0,1,1.567-.277,4.151,4.151,0,0,1,1.56.277,3.245,3.245,0,0,1,1.17.788,3.525,3.525,0,0,1,.743,1.237A4.77,4.77,0,0,1,80.25-3.99v.66H74.955v.135a1.618,1.618,0,0,0,.465,1.207,1.869,1.869,0,0,0,1.365.457,2.5,2.5,0,0,0,1.185-.262,2.807,2.807,0,0,0,.855-.7l1.2,1.3a3.746,3.746,0,0,1-1.26.96A4.585,4.585,0,0,1,76.71.18Zm-.18-6.51a1.522,1.522,0,0,0-1.147.442,1.644,1.644,0,0,0-.427,1.193v.12h3.12v-.12a1.673,1.673,0,0,0-.412-1.2A1.486,1.486,0,0,0,76.53-6.33Zm5.58,4.6h1.785v-4.29H82.11V-7.74h4v2.19h.105a4.432,4.432,0,0,1,.292-.817,2.663,2.663,0,0,1,.48-.705,2.124,2.124,0,0,1,.713-.487,2.5,2.5,0,0,1,.99-.18h.735V-5.7H87.78a1.553,1.553,0,0,0-1.245.487,1.764,1.764,0,0,0-.42,1.193v2.295h2.55V0H82.11Zm13.695.315h-.09a2.761,2.761,0,0,1-.8,1.125A2.208,2.208,0,0,1,93.435.18a2.7,2.7,0,0,1-1.02-.188A2.081,2.081,0,0,1,91.62-.57a2.714,2.714,0,0,1-.518-.915,3.79,3.79,0,0,1-.187-1.245V-7.74h2.22v4.71q0,1.5,1.305,1.5a1.9,1.9,0,0,0,.5-.067,1.257,1.257,0,0,0,.435-.21,1.161,1.161,0,0,0,.307-.352.981.981,0,0,0,.12-.5V-7.74h2.22V0h-2.22Zm4.08-6.33h2.22v1.41h.1a2.894,2.894,0,0,1,.825-1.14,2.226,2.226,0,0,1,1.47-.45,2.833,2.833,0,0,1,1.178.24,2.389,2.389,0,0,1,.915.735,3.693,3.693,0,0,1,.6,1.26,6.685,6.685,0,0,1,.217,1.815,6.685,6.685,0,0,1-.217,1.815,3.693,3.693,0,0,1-.6,1.26,2.389,2.389,0,0,1-.915.735A2.833,2.833,0,0,1,104.5.18a2.252,2.252,0,0,1-1.47-.442,2.816,2.816,0,0,1-.825-1.147h-.1V3h-2.22Zm3.66,6.195A1.461,1.461,0,0,0,104.7-2a1.846,1.846,0,0,0,.405-1.268v-1.2a1.846,1.846,0,0,0-.405-1.267,1.461,1.461,0,0,0-1.155-.457,1.783,1.783,0,0,0-1.012.285,1,1,0,0,0-.427.9v2.28a1,1,0,0,0,.427.9A1.783,1.783,0,0,0,103.545-1.545ZM113.1,0a2.323,2.323,0,0,1-1.785-.63,2.266,2.266,0,0,1-.585-1.605v-3.78h-2.1V-7.74H110a1.025,1.025,0,0,0,.7-.2.967.967,0,0,0,.21-.72V-10.47h2.04v2.73h3.015v1.725H112.95v4.29h3.015V0Zm8.88-8.73a1.411,1.411,0,0,1-1.043-.307,1.038,1.038,0,0,1-.293-.742v-.435a1.031,1.031,0,0,1,.293-.75,1.435,1.435,0,0,1,1.043-.3,1.435,1.435,0,0,1,1.042.3,1.031,1.031,0,0,1,.293.75v.435a1.038,1.038,0,0,1-.293.742A1.411,1.411,0,0,1,121.98-8.73Zm-3.57,7.005h2.46v-4.29h-2.46V-7.74h4.68v6.015h2.28V0h-6.96ZM130.5.18A4.476,4.476,0,0,1,128.88-.1a3.317,3.317,0,0,1-1.223-.8,3.56,3.56,0,0,1-.772-1.275,4.982,4.982,0,0,1-.27-1.695,4.982,4.982,0,0,1,.27-1.7,3.56,3.56,0,0,1,.772-1.275,3.317,3.317,0,0,1,1.223-.8,4.476,4.476,0,0,1,1.62-.277,4.476,4.476,0,0,1,1.62.277,3.317,3.317,0,0,1,1.223.8,3.56,3.56,0,0,1,.773,1.275,4.982,4.982,0,0,1,.27,1.7,4.982,4.982,0,0,1-.27,1.695A3.56,3.56,0,0,1,133.342-.9a3.317,3.317,0,0,1-1.223.8A4.476,4.476,0,0,1,130.5.18Zm0-1.65a1.5,1.5,0,0,0,1.17-.465,1.9,1.9,0,0,0,.42-1.32v-1.23a1.9,1.9,0,0,0-.42-1.32,1.5,1.5,0,0,0-1.17-.465,1.5,1.5,0,0,0-1.17.465,1.9,1.9,0,0,0-.42,1.32v1.23a1.9,1.9,0,0,0,.42,1.32A1.5,1.5,0,0,0,130.5-1.47ZM135.975,0V-7.74h2.22v1.41h.09a3.293,3.293,0,0,1,.33-.615,2.25,2.25,0,0,1,.472-.5,2.21,2.21,0,0,1,.645-.345,2.532,2.532,0,0,1,.833-.127,2.7,2.7,0,0,1,1.02.188,2.081,2.081,0,0,1,.795.563,2.714,2.714,0,0,1,.518.915,3.79,3.79,0,0,1,.188,1.245V0h-2.22V-4.71q0-1.5-1.305-1.5a1.9,1.9,0,0,0-.5.068,1.34,1.34,0,0,0-.442.21,1.04,1.04,0,0,0-.308.352,1.034,1.034,0,0,0-.112.495V0Z" transform="translate(1661.646 254)" fill="#ff7272"/>
    <circle id="椭圆_26" data-name="椭圆 26" cx="11.5" cy="11.5" r="11.5" transform="translate(1616.646 237)" fill="#ff7272"/>
    <line id="直线_1" data-name="直线 1" y2="10" transform="translate(1628.146 241)" fill="none" stroke="#fff" stroke-linecap="round" stroke-width="2"/>
    <circle id="椭圆_27" data-name="椭圆 27" cx="1.5" cy="1.5" r="1.5" transform="translate(1626.646 253)" fill="#fff"/>
  </g>
</svg>
