<svg xmlns="http://www.w3.org/2000/svg" xmlns:xlink="http://www.w3.org/1999/xlink" width="36" height="36" viewBox="0 0 36 36">
  <defs>
    <linearGradient id="linear-gradient" x1="0.5" y1="0.183" x2="0.5" y2="0.919" gradientUnits="objectBoundingBox">
      <stop offset="0" stop-color="#fff"/>
      <stop offset="0.256" stop-color="#edf274"/>
      <stop offset="0.754" stop-color="#f3a574"/>
      <stop offset="1" stop-color="#ef4646"/>
    </linearGradient>
  </defs>
  <g id="Group_384" data-name="Group 384" transform="translate(596 -2675)">
    <circle id="Ellipse_255" data-name="Ellipse 255" cx="18" cy="18" r="18" transform="translate(-596 2675)" fill="none"/>
    <path id="Path_95" data-name="Path 95" d="M14.523,10.144c2.346,0,5.355-8.384,5.355-8.384s-1.3,4.748,0,8.384c.678,1.88,2.716,3.627,2.716,5.2,0,5.593-5.058,10.126-11.3,10.126S-1.485,19.276.523,14.943,0,3.8,0,3.8s5.271,6.313,7.529,7.593,0-16.481,0-16.481S9.878,4.281,11.3,7.063,14.523,10.144,14.523,10.144Z" transform="translate(-589.297 2681.621)" fill="url(#linear-gradient)"/>
  </g>
</svg>
