<svg xmlns="http://www.w3.org/2000/svg" width="170" height="42" viewBox="0 0 170 42">
  <g id="组_306" data-name="组 306" transform="translate(-1721 -122)">
    <rect id="矩形_5" data-name="矩形 5" width="170" height="42" rx="21" transform="translate(1721 122)" fill="rgba(255,209,209,0.3)"/>
    <path id="路径_571" data-name="路径 571" d="M.81,0,.165-10.47H2.1L2.4-4.2l.09,1.98h.135l.9-5.97H5.55l.9,5.97h.135l.09-1.92.3-6.33h1.86L8.19,0H5.34L4.575-5.775h-.15L3.66,0ZM13.98-8.73a1.411,1.411,0,0,1-1.042-.307,1.038,1.038,0,0,1-.292-.742v-.435a1.031,1.031,0,0,1,.292-.75,1.435,1.435,0,0,1,1.042-.3,1.435,1.435,0,0,1,1.043.3,1.031,1.031,0,0,1,.293.75v.435a1.038,1.038,0,0,1-.293.742A1.411,1.411,0,0,1,13.98-8.73ZM10.41-1.725h2.46v-4.29H10.41V-7.74h4.68v6.015h2.28V0H10.41Zm8.61,0h2.37v-7.65H19.02V-11.1h4.59v9.375h2.37V0H19.02ZM32.9-1.41h-.1a2.976,2.976,0,0,1-.833,1.147A2.221,2.221,0,0,1,30.495.18a2.833,2.833,0,0,1-1.177-.24A2.389,2.389,0,0,1,28.4-.8a3.693,3.693,0,0,1-.6-1.26,6.685,6.685,0,0,1-.218-1.815A6.685,6.685,0,0,1,27.8-5.685a3.693,3.693,0,0,1,.6-1.26,2.389,2.389,0,0,1,.915-.735,2.833,2.833,0,0,1,1.177-.24,2.606,2.606,0,0,1,.825.12,2.2,2.2,0,0,1,.638.33,2.185,2.185,0,0,1,.48.5,3.727,3.727,0,0,1,.353.638h.1V-11.1h2.22V0H32.9Zm-1.44-.135a1.783,1.783,0,0,0,1.012-.285,1,1,0,0,0,.428-.9V-5.01a1,1,0,0,0-.428-.9,1.783,1.783,0,0,0-1.012-.285,1.461,1.461,0,0,0-1.155.457,1.846,1.846,0,0,0-.4,1.267v1.2A1.846,1.846,0,0,0,30.3-2,1.461,1.461,0,0,0,31.455-1.545Zm14.61-.18h2.28v-4.29h-2.43V-7.74h2.43V-8.865a2.277,2.277,0,0,1,.577-1.612,2.335,2.335,0,0,1,1.792-.623H53.34v1.725H50.565V-7.74H53.34v1.725H50.565v4.29h2.43V0h-6.93ZM58.98-8.73a1.411,1.411,0,0,1-1.042-.307,1.038,1.038,0,0,1-.292-.742v-.435a1.031,1.031,0,0,1,.292-.75,1.435,1.435,0,0,1,1.042-.3,1.435,1.435,0,0,1,1.042.3,1.031,1.031,0,0,1,.292.75v.435a1.038,1.038,0,0,1-.292.742A1.411,1.411,0,0,1,58.98-8.73ZM55.41-1.725h2.46v-4.29H55.41V-7.74h4.68v6.015h2.28V0H55.41Zm8.7,0h1.785v-4.29H64.11V-7.74h4v2.19h.105a4.432,4.432,0,0,1,.292-.817,2.663,2.663,0,0,1,.48-.705,2.124,2.124,0,0,1,.713-.487,2.5,2.5,0,0,1,.99-.18h.735V-5.7H69.78a1.553,1.553,0,0,0-1.245.487,1.764,1.764,0,0,0-.42,1.193v2.295h2.55V0H64.11ZM76.71.18A3.841,3.841,0,0,1,73.755-.9a4.145,4.145,0,0,1-1-2.94,5.179,5.179,0,0,1,.262-1.7,3.655,3.655,0,0,1,.75-1.29,3.172,3.172,0,0,1,1.185-.81,4.209,4.209,0,0,1,1.567-.277,4.151,4.151,0,0,1,1.56.277,3.245,3.245,0,0,1,1.17.788,3.525,3.525,0,0,1,.743,1.237A4.77,4.77,0,0,1,80.25-3.99v.66H74.955v.135a1.618,1.618,0,0,0,.465,1.207,1.869,1.869,0,0,0,1.365.457,2.5,2.5,0,0,0,1.185-.262,2.807,2.807,0,0,0,.855-.7l1.2,1.3a3.746,3.746,0,0,1-1.26.96A4.585,4.585,0,0,1,76.71.18Zm-.18-6.51a1.522,1.522,0,0,0-1.147.442,1.644,1.644,0,0,0-.427,1.193v.12h3.12v-.12a1.673,1.673,0,0,0-.412-1.2A1.486,1.486,0,0,0,76.53-6.33Z" transform="translate(1785 149)" fill="#ff6767"/>
    <circle id="椭圆_26" data-name="椭圆 26" cx="11.5" cy="11.5" r="11.5" transform="translate(1732 132)" fill="#ff6767"/>
    <path id="路径_85" data-name="路径 85" d="M6.428,2.434c1.038,0,2.37-4.14,2.37-4.14a9,9,0,0,0,0,4.14C9.1,3.362,10,4.225,10,5a5,5,0,0,1-5,5C2.239,10-.657,6.943.231,4.8S0-.7,0-.7A24.994,24.994,0,0,0,3.332,3.05c1,.632,0-8.138,0-8.138A52.809,52.809,0,0,0,5,.912C5.628,2.286,6.428,2.434,6.428,2.434Z" transform="translate(1738.5 140.544)" fill="#fff"/>
  </g>
</svg>
