<svg xmlns="http://www.w3.org/2000/svg" width="321" height="42" viewBox="0 0 321 42">
  <g id="组_305" data-name="组 305" transform="translate(-1605.734 -227)">
    <rect id="矩形_5" data-name="矩形 5" width="321" height="42" rx="21" transform="translate(1605.735 227)" fill="rgba(255,255,255,0.36)"/>
    <path id="路径_570" data-name="路径 570" d="M5.625-8.625V0H3.375V-8.625H.36V-10.47H8.64v1.845ZM13.5.18A4.476,4.476,0,0,1,11.88-.1a3.317,3.317,0,0,1-1.222-.8,3.56,3.56,0,0,1-.773-1.275,4.982,4.982,0,0,1-.27-1.695,4.982,4.982,0,0,1,.27-1.7,3.56,3.56,0,0,1,.773-1.275,3.317,3.317,0,0,1,1.222-.8A4.476,4.476,0,0,1,13.5-7.92a4.476,4.476,0,0,1,1.62.277,3.317,3.317,0,0,1,1.222.8,3.56,3.56,0,0,1,.773,1.275,4.982,4.982,0,0,1,.27,1.7,4.982,4.982,0,0,1-.27,1.695A3.56,3.56,0,0,1,16.342-.9a3.317,3.317,0,0,1-1.222.8A4.476,4.476,0,0,1,13.5.18Zm0-1.65a1.5,1.5,0,0,0,1.17-.465,1.9,1.9,0,0,0,.42-1.32v-1.23a1.9,1.9,0,0,0-.42-1.32A1.5,1.5,0,0,0,13.5-6.27a1.5,1.5,0,0,0-1.17.465,1.9,1.9,0,0,0-.42,1.32v1.23a1.9,1.9,0,0,0,.42,1.32A1.5,1.5,0,0,0,13.5-1.47ZM23.1,0a2.323,2.323,0,0,1-1.785-.63,2.266,2.266,0,0,1-.585-1.605v-3.78h-2.1V-7.74H20a1.025,1.025,0,0,0,.7-.2.967.967,0,0,0,.21-.72V-10.47h2.04v2.73h3.015v1.725H22.95v4.29h3.015V0Zm11.2,0a1.67,1.67,0,0,1-1.11-.352A1.479,1.479,0,0,1,32.7-1.365h-.075A1.9,1.9,0,0,1,31.792-.21,2.813,2.813,0,0,1,30.27.18a2.618,2.618,0,0,1-1.808-.608,2.161,2.161,0,0,1-.682-1.7,2.007,2.007,0,0,1,.885-1.8,4.725,4.725,0,0,1,2.595-.585h1.245V-4.9a1.5,1.5,0,0,0-.323-1.043A1.42,1.42,0,0,0,31.1-6.3a2.138,2.138,0,0,0-1.14.27,2.642,2.642,0,0,0-.75.705L27.99-6.4a2.912,2.912,0,0,1,1.222-1.088A4.671,4.671,0,0,1,31.35-7.92a3.825,3.825,0,0,1,2.483.727,2.668,2.668,0,0,1,.892,2.2v3.39h.855V0ZM31.11-1.275a1.677,1.677,0,0,0,.99-.285.946.946,0,0,0,.405-.825v-.93H31.32q-1.365,0-1.365.915v.3a.692.692,0,0,0,.315.615A1.493,1.493,0,0,0,31.11-1.275Zm5.91-.45h2.37v-7.65H37.02V-11.1h4.59v9.375h2.37V0H37.02ZM61.305,0a1.67,1.67,0,0,1-1.11-.352A1.479,1.479,0,0,1,59.7-1.365h-.075A1.9,1.9,0,0,1,58.792-.21,2.813,2.813,0,0,1,57.27.18a2.618,2.618,0,0,1-1.807-.608,2.161,2.161,0,0,1-.683-1.7,2.007,2.007,0,0,1,.885-1.8,4.725,4.725,0,0,1,2.6-.585h1.245V-4.9a1.5,1.5,0,0,0-.323-1.043A1.42,1.42,0,0,0,58.1-6.3a2.138,2.138,0,0,0-1.14.27,2.642,2.642,0,0,0-.75.705L54.99-6.4a2.912,2.912,0,0,1,1.222-1.088A4.671,4.671,0,0,1,58.35-7.92a3.825,3.825,0,0,1,2.483.727,2.668,2.668,0,0,1,.892,2.2v3.39h.855V0ZM58.11-1.275a1.677,1.677,0,0,0,.99-.285.946.946,0,0,0,.405-.825v-.93H58.32q-1.365,0-1.365.915v.3a.692.692,0,0,0,.315.615A1.493,1.493,0,0,0,58.11-1.275ZM63.975,0V-7.74h2.22v1.41h.09a3.294,3.294,0,0,1,.33-.615,2.25,2.25,0,0,1,.473-.5,2.21,2.21,0,0,1,.645-.345,2.531,2.531,0,0,1,.833-.127,2.7,2.7,0,0,1,1.02.188,2.081,2.081,0,0,1,.795.563,2.714,2.714,0,0,1,.518.915,3.79,3.79,0,0,1,.188,1.245V0h-2.22V-4.71q0-1.5-1.305-1.5a1.9,1.9,0,0,0-.5.068,1.34,1.34,0,0,0-.443.21,1.04,1.04,0,0,0-.307.352,1.033,1.033,0,0,0-.113.495V0ZM76.98-8.73a1.411,1.411,0,0,1-1.043-.307,1.038,1.038,0,0,1-.293-.742v-.435a1.031,1.031,0,0,1,.293-.75,1.435,1.435,0,0,1,1.043-.3,1.435,1.435,0,0,1,1.042.3,1.031,1.031,0,0,1,.293.75v.435a1.038,1.038,0,0,1-.293.742A1.411,1.411,0,0,1,76.98-8.73ZM73.41-1.725h2.46v-4.29H73.41V-7.74h4.68v6.015h2.28V0H73.41ZM81.45,0V-7.74h1.785V-6.6h.1a2.714,2.714,0,0,1,.518-.93,1.192,1.192,0,0,1,.952-.39q1.125,0,1.38,1.32h.09a2.923,2.923,0,0,1,.225-.51,1.7,1.7,0,0,1,.33-.42,1.454,1.454,0,0,1,.465-.285,1.733,1.733,0,0,1,.63-.1q1.62,0,1.62,2.385V0H87.765V-5.31a1.173,1.173,0,0,0-.187-.758.613.613,0,0,0-.488-.217A.692.692,0,0,0,86.6-6.1a.751.751,0,0,0-.2.578V0H84.6V-5.31a1.251,1.251,0,0,0-.173-.758.57.57,0,0,0-.472-.217.739.739,0,0,0-.51.187.736.736,0,0,0-.21.578V0ZM97.305,0a1.669,1.669,0,0,1-1.11-.352,1.479,1.479,0,0,1-.5-1.013h-.075A1.9,1.9,0,0,1,94.793-.21,2.813,2.813,0,0,1,93.27.18a2.618,2.618,0,0,1-1.807-.608,2.161,2.161,0,0,1-.683-1.7,2.007,2.007,0,0,1,.885-1.8,4.725,4.725,0,0,1,2.6-.585H95.5V-4.9a1.5,1.5,0,0,0-.322-1.043A1.42,1.42,0,0,0,94.1-6.3a2.138,2.138,0,0,0-1.14.27,2.642,2.642,0,0,0-.75.705L90.99-6.4a2.912,2.912,0,0,1,1.223-1.088A4.671,4.671,0,0,1,94.35-7.92a3.825,3.825,0,0,1,2.482.727,2.668,2.668,0,0,1,.893,2.2v3.39h.855V0ZM94.11-1.275a1.677,1.677,0,0,0,.99-.285.946.946,0,0,0,.4-.825v-.93H94.32q-1.365,0-1.365.915v.3a.692.692,0,0,0,.315.615A1.493,1.493,0,0,0,94.11-1.275Zm5.91-.45h2.37v-7.65h-2.37V-11.1h4.59v9.375h2.37V0h-6.96ZM112.41.18a5.9,5.9,0,0,1-2.243-.39,3.174,3.174,0,0,1-1.433-1.065L109.98-2.43a3.227,3.227,0,0,0,1.057.773,3.305,3.305,0,0,0,1.388.278,2.2,2.2,0,0,0,1.035-.2.663.663,0,0,0,.375-.622.466.466,0,0,0-.255-.457,2.557,2.557,0,0,0-.705-.2L111.63-3.06a5.153,5.153,0,0,1-.975-.233,2.548,2.548,0,0,1-.78-.428,1.994,1.994,0,0,1-.525-.66,2.1,2.1,0,0,1-.195-.945,2.241,2.241,0,0,1,.93-1.905,4.309,4.309,0,0,1,2.61-.69,5.441,5.441,0,0,1,1.942.308,3.074,3.074,0,0,1,1.283.877l-1.11,1.26a2.82,2.82,0,0,0-.885-.63,3.037,3.037,0,0,0-1.305-.255q-1.29,0-1.29.78a.479.479,0,0,0,.255.472,2.557,2.557,0,0,0,.705.2l1.23.195a5.153,5.153,0,0,1,.975.233,2.649,2.649,0,0,1,.787.427,1.954,1.954,0,0,1,.533.66,2.1,2.1,0,0,1,.195.945,2.274,2.274,0,0,1-.937,1.92A4.36,4.36,0,0,1,112.41.18Zm13.695-7.92h1.845l.555,6.27h.15l.915-6.27h1.95l.9,6.27h.15l.57-6.27H134.9L133.98,0h-2.64l-.765-5.34h-.15L129.66,0h-2.64Zm13.875-.99a1.411,1.411,0,0,1-1.042-.307,1.038,1.038,0,0,1-.292-.742v-.435a1.031,1.031,0,0,1,.292-.75,1.435,1.435,0,0,1,1.042-.3,1.435,1.435,0,0,1,1.043.3,1.031,1.031,0,0,1,.292.75v.435a1.038,1.038,0,0,1-.292.742A1.411,1.411,0,0,1,139.98-8.73Zm-3.57,7.005h2.46v-4.29h-2.46V-7.74h4.68v6.015h2.28V0h-6.96Zm8.475-6.015h2.22v1.41h.105a2.894,2.894,0,0,1,.825-1.14,2.226,2.226,0,0,1,1.47-.45,2.833,2.833,0,0,1,1.177.24,2.389,2.389,0,0,1,.915.735,3.694,3.694,0,0,1,.6,1.26,6.685,6.685,0,0,1,.217,1.815,6.685,6.685,0,0,1-.217,1.815,3.694,3.694,0,0,1-.6,1.26,2.389,2.389,0,0,1-.915.735,2.833,2.833,0,0,1-1.177.24,2.252,2.252,0,0,1-1.47-.442,2.816,2.816,0,0,1-.825-1.147H147.1V3h-2.22Zm3.66,6.195A1.461,1.461,0,0,0,149.7-2a1.846,1.846,0,0,0,.4-1.268v-1.2a1.846,1.846,0,0,0-.4-1.267,1.461,1.461,0,0,0-1.155-.457,1.783,1.783,0,0,0-1.012.285,1,1,0,0,0-.428.9v2.28a1,1,0,0,0,.428.9A1.783,1.783,0,0,0,148.545-1.545ZM157.71.18A3.841,3.841,0,0,1,154.755-.9a4.145,4.145,0,0,1-1.005-2.94,5.179,5.179,0,0,1,.262-1.7,3.655,3.655,0,0,1,.75-1.29,3.172,3.172,0,0,1,1.185-.81,4.209,4.209,0,0,1,1.568-.277,4.151,4.151,0,0,1,1.56.277,3.245,3.245,0,0,1,1.17.788,3.525,3.525,0,0,1,.743,1.237,4.77,4.77,0,0,1,.262,1.628v.66h-5.295v.135a1.618,1.618,0,0,0,.465,1.207,1.869,1.869,0,0,0,1.365.457,2.5,2.5,0,0,0,1.185-.262,2.807,2.807,0,0,0,.855-.7l1.2,1.3a3.746,3.746,0,0,1-1.26.96A4.585,4.585,0,0,1,157.71.18Zm-.18-6.51a1.522,1.522,0,0,0-1.147.442,1.644,1.644,0,0,0-.428,1.193v.12h3.12v-.12a1.673,1.673,0,0,0-.412-1.2A1.486,1.486,0,0,0,157.53-6.33ZM167.9-1.41h-.105a2.976,2.976,0,0,1-.832,1.147,2.221,2.221,0,0,1-1.463.442,2.833,2.833,0,0,1-1.177-.24A2.389,2.389,0,0,1,163.4-.8a3.694,3.694,0,0,1-.6-1.26,6.685,6.685,0,0,1-.217-1.815,6.685,6.685,0,0,1,.217-1.815,3.694,3.694,0,0,1,.6-1.26,2.389,2.389,0,0,1,.915-.735,2.833,2.833,0,0,1,1.177-.24,2.606,2.606,0,0,1,.825.12,2.2,2.2,0,0,1,.637.33,2.185,2.185,0,0,1,.48.5,3.727,3.727,0,0,1,.352.638h.105V-11.1h2.22V0H167.9Zm-1.44-.135a1.783,1.783,0,0,0,1.012-.285,1,1,0,0,0,.428-.9V-5.01a1,1,0,0,0-.428-.9,1.783,1.783,0,0,0-1.012-.285,1.461,1.461,0,0,0-1.155.457,1.846,1.846,0,0,0-.4,1.267v1.2A1.846,1.846,0,0,0,165.3-2,1.461,1.461,0,0,0,166.455-1.545ZM184.5.18A4.476,4.476,0,0,1,182.88-.1a3.317,3.317,0,0,1-1.223-.8,3.56,3.56,0,0,1-.773-1.275,4.982,4.982,0,0,1-.27-1.695,4.982,4.982,0,0,1,.27-1.7,3.56,3.56,0,0,1,.773-1.275,3.317,3.317,0,0,1,1.223-.8,4.476,4.476,0,0,1,1.62-.277,4.476,4.476,0,0,1,1.62.277,3.317,3.317,0,0,1,1.223.8,3.56,3.56,0,0,1,.773,1.275,4.982,4.982,0,0,1,.27,1.7,4.982,4.982,0,0,1-.27,1.695A3.56,3.56,0,0,1,187.342-.9a3.317,3.317,0,0,1-1.223.8A4.476,4.476,0,0,1,184.5.18Zm0-1.65a1.5,1.5,0,0,0,1.17-.465,1.9,1.9,0,0,0,.42-1.32v-1.23a1.9,1.9,0,0,0-.42-1.32,1.5,1.5,0,0,0-1.17-.465,1.5,1.5,0,0,0-1.17.465,1.9,1.9,0,0,0-.42,1.32v1.23a1.9,1.9,0,0,0,.42,1.32A1.5,1.5,0,0,0,184.5-1.47Zm10.3.06h-.09a2.761,2.761,0,0,1-.8,1.125,2.208,2.208,0,0,1-1.478.465,2.7,2.7,0,0,1-1.02-.188,2.081,2.081,0,0,1-.795-.562,2.714,2.714,0,0,1-.518-.915,3.79,3.79,0,0,1-.187-1.245V-7.74h2.22v4.71q0,1.5,1.305,1.5a1.9,1.9,0,0,0,.5-.067,1.257,1.257,0,0,0,.435-.21,1.161,1.161,0,0,0,.307-.352.981.981,0,0,0,.12-.5V-7.74h2.22V0H194.8ZM203.1,0a2.323,2.323,0,0,1-1.785-.63,2.266,2.266,0,0,1-.585-1.605v-3.78h-2.1V-7.74h1.365a1.025,1.025,0,0,0,.705-.2.967.967,0,0,0,.21-.72V-10.47h2.04v2.73h3.015v1.725H202.95v4.29h3.015V0Zm47.775-8.5H246.03l-.24,3.315h.135a4.52,4.52,0,0,1,.375-.668,2.252,2.252,0,0,1,.495-.525,2.165,2.165,0,0,1,.66-.338,2.8,2.8,0,0,1,.855-.12,3.337,3.337,0,0,1,1.223.225,3.043,3.043,0,0,1,1.02.653,3.04,3.04,0,0,1,.7,1.05,3.67,3.67,0,0,1,.255,1.4,3.922,3.922,0,0,1-.27,1.47,3.29,3.29,0,0,1-.788,1.17,3.6,3.6,0,0,1-1.283.773,5.082,5.082,0,0,1-1.74.278A5.157,5.157,0,0,1,246.06.015,4.152,4.152,0,0,1,245-.428a3.618,3.618,0,0,1-.795-.645,4.983,4.983,0,0,1-.577-.758l1.635-1.29a6.663,6.663,0,0,0,.383.57,2.45,2.45,0,0,0,.465.472,2.063,2.063,0,0,0,.585.315,2.25,2.25,0,0,0,.743.113,1.652,1.652,0,0,0,1.268-.457,1.719,1.719,0,0,0,.427-1.223v-.12a1.53,1.53,0,0,0-.435-1.155,1.655,1.655,0,0,0-1.2-.42,2,2,0,0,0-1.042.247,2.615,2.615,0,0,0-.622.488l-1.845-.255.39-5.925h6.495Z" transform="translate(1656.735 254)" fill="#2c2c2c"/>
    <circle id="椭圆_26" data-name="椭圆 26" cx="11.5" cy="11.5" r="11.5" transform="translate(1616.735 237)" fill="#2c2c2c"/>
    <g id="组_12" data-name="组 12" transform="translate(-0.5 3.5)">
      <line id="直线_2" data-name="直线 2" x2="4" y2="4" transform="translate(1622.235 242.5)" fill="none" stroke="#fff" stroke-linecap="round" stroke-width="1"/>
      <line id="直线_3" data-name="直线 3" x1="4" y2="4" transform="translate(1622.235 242.5)" fill="none" stroke="#fff" stroke-linecap="round" stroke-width="1"/>
    </g>
    <g id="组_13" data-name="组 13" transform="translate(8.5 3.5)">
      <line id="直线_2-2" data-name="直线 2" x2="4" y2="4" transform="translate(1622.235 242.5)" fill="none" stroke="#fff" stroke-linecap="round" stroke-width="1"/>
      <line id="直线_3-2" data-name="直线 3" x1="4" y2="4" transform="translate(1622.235 242.5)" fill="none" stroke="#fff" stroke-linecap="round" stroke-width="1"/>
    </g>
    <path id="路径_13" data-name="路径 13" d="M1594.774,3813.036a5.041,5.041,0,0,1,3.707-1.268,4.854,4.854,0,0,1,3.525,1.268" transform="translate(29.735 -3558)" fill="none" stroke="#fff" stroke-linecap="round" stroke-width="1"/>
  </g>
</svg>
