<svg xmlns="http://www.w3.org/2000/svg" width="169" height="42" viewBox="0 0 169 42">
  <g id="组_284" data-name="组 284" transform="translate(-1605.55 -227)">
    <rect id="矩形_5" data-name="矩形 5" width="169" height="42" rx="21" transform="translate(1605.55 227)" fill="rgba(188,234,180,0.53)"/>
    <path id="路径_550" data-name="路径 550" d="M1.125,0V-1.665h2.25v-7.14H1.125V-10.47h6.75v1.665H5.625v7.14h2.25V0ZM14.1,0a2.323,2.323,0,0,1-1.785-.63,2.266,2.266,0,0,1-.585-1.605v-3.78H9.63V-7.74h1.365a1.025,1.025,0,0,0,.7-.2.967.967,0,0,0,.21-.72V-10.47h2.04v2.73h3.015v1.725H13.95v4.29h3.015V0Zm7.62-11.1h2.85L22.5-6.21H20.865ZM31.41.18a5.9,5.9,0,0,1-2.243-.39,3.174,3.174,0,0,1-1.432-1.065L28.98-2.43a3.227,3.227,0,0,0,1.058.773,3.305,3.305,0,0,0,1.387.278,2.2,2.2,0,0,0,1.035-.2.663.663,0,0,0,.375-.622.466.466,0,0,0-.255-.457,2.557,2.557,0,0,0-.705-.2L30.63-3.06a5.153,5.153,0,0,1-.975-.233,2.548,2.548,0,0,1-.78-.428,1.994,1.994,0,0,1-.525-.66,2.1,2.1,0,0,1-.195-.945,2.241,2.241,0,0,1,.93-1.905,4.309,4.309,0,0,1,2.61-.69,5.441,5.441,0,0,1,1.943.308,3.074,3.074,0,0,1,1.282.877l-1.11,1.26a2.82,2.82,0,0,0-.885-.63A3.037,3.037,0,0,0,31.62-6.36q-1.29,0-1.29.78a.479.479,0,0,0,.255.472,2.557,2.557,0,0,0,.705.2l1.23.195a5.153,5.153,0,0,1,.975.233,2.649,2.649,0,0,1,.788.427,1.954,1.954,0,0,1,.533.66,2.1,2.1,0,0,1,.195.945,2.274,2.274,0,0,1-.937,1.92A4.36,4.36,0,0,1,31.41.18ZM45.1-7.74H46.95l.555,6.27h.15l.915-6.27h1.95l.9,6.27h.15l.57-6.27H53.9L52.98,0H50.34l-.765-5.34h-.15L48.66,0H46.02ZM58.98-8.73a1.411,1.411,0,0,1-1.042-.307,1.038,1.038,0,0,1-.292-.742v-.435a1.031,1.031,0,0,1,.292-.75,1.435,1.435,0,0,1,1.042-.3,1.435,1.435,0,0,1,1.042.3,1.031,1.031,0,0,1,.292.75v.435a1.038,1.038,0,0,1-.292.742A1.411,1.411,0,0,1,58.98-8.73ZM55.41-1.725h2.46v-4.29H55.41V-7.74h4.68v6.015h2.28V0H55.41ZM63.975,0V-7.74h2.22v1.41h.09a3.294,3.294,0,0,1,.33-.615,2.25,2.25,0,0,1,.473-.5,2.21,2.21,0,0,1,.645-.345,2.531,2.531,0,0,1,.833-.127,2.7,2.7,0,0,1,1.02.188,2.081,2.081,0,0,1,.795.563,2.714,2.714,0,0,1,.518.915,3.79,3.79,0,0,1,.188,1.245V0h-2.22V-4.71q0-1.5-1.305-1.5a1.9,1.9,0,0,0-.5.068,1.34,1.34,0,0,0-.443.21,1.04,1.04,0,0,0-.307.352,1.033,1.033,0,0,0-.113.495V0Zm13.92-1.41h-.1a2.976,2.976,0,0,1-.833,1.147A2.221,2.221,0,0,1,75.5.18a2.833,2.833,0,0,1-1.178-.24A2.389,2.389,0,0,1,73.4-.8a3.693,3.693,0,0,1-.6-1.26,6.685,6.685,0,0,1-.217-1.815A6.685,6.685,0,0,1,72.8-5.685a3.693,3.693,0,0,1,.6-1.26,2.389,2.389,0,0,1,.915-.735A2.833,2.833,0,0,1,75.5-7.92a2.606,2.606,0,0,1,.825.12,2.2,2.2,0,0,1,.637.33,2.185,2.185,0,0,1,.48.5,3.727,3.727,0,0,1,.353.638h.1V-11.1h2.22V0h-2.22Zm-1.44-.135a1.783,1.783,0,0,0,1.012-.285,1,1,0,0,0,.427-.9V-5.01a1,1,0,0,0-.427-.9,1.783,1.783,0,0,0-1.012-.285,1.461,1.461,0,0,0-1.155.457,1.846,1.846,0,0,0-.405,1.267v1.2A1.846,1.846,0,0,0,75.3-2,1.461,1.461,0,0,0,76.455-1.545ZM87.45-7.74h2.265L86.07,1.245a3.088,3.088,0,0,1-.915,1.3A2.454,2.454,0,0,1,83.6,3h-1.53V1.275h1.86l.48-1.32L81.285-7.74H83.67l1.125,3.255.705,2.25h.12l.675-2.25Zm6.69,4.095-.855-3.78V-10.47h2.43v3.045l-.855,3.78ZM94.5.18a1.538,1.538,0,0,1-1.14-.345,1.152,1.152,0,0,1-.33-.825v-.48a1.121,1.121,0,0,1,.338-.81A1.542,1.542,0,0,1,94.5-2.625a1.542,1.542,0,0,1,1.132.345,1.121,1.121,0,0,1,.338.81v.48a1.152,1.152,0,0,1-.33.825A1.538,1.538,0,0,1,94.5.18Z" transform="translate(1660.55 254)" fill="#4ab159"/>
    <circle id="椭圆_26" data-name="椭圆 26" cx="11.5" cy="11.5" r="11.5" transform="translate(1616.55 237)" fill="#4bb159"/>
    <g id="组_14" data-name="组 14" transform="matrix(0.899, 0.438, -0.438, 0.899, 273.876, -688.513)">
      <path id="路径_14" data-name="路径 14" d="M1628.178,240.852s-2.513,5.69-3.531,6.806a2.942,2.942,0,0,1-3.169,1.062,2.057,2.057,0,0,1-.839-2.813" transform="translate(1.963)" fill="none" stroke="#fff" stroke-linecap="round" stroke-width="1"/>
      <path id="路径_16" data-name="路径 16" d="M1618.5,237s4.042,8.777,4.923,9.743a2.548,2.548,0,0,0,2.744.92,1.781,1.781,0,0,0,.727-2.436" transform="translate(799.338 -1164.532) rotate(51)" fill="none" stroke="#fff" stroke-linecap="round" stroke-width="1"/>
      <path id="路径_15" data-name="路径 15" d="M1631.006,238.628s-4.009,9.344-5.283,10.74a3.681,3.681,0,0,1-3.965,1.329,2.574,2.574,0,0,1-1.05-3.52" transform="translate(0.981 3)" fill="none" stroke="#fff" stroke-linecap="round" stroke-width="1"/>
    </g>
  </g>
</svg>
