<svg xmlns="http://www.w3.org/2000/svg" width="36.023" height="37.204" viewBox="0 0 36.023 37.204">
  <g id="Group_378" data-name="Group 378" transform="translate(756 -2728.796)">
    <circle id="Ellipse_247" data-name="Ellipse 247" cx="18" cy="18" r="18" transform="translate(-756 2730)" fill="none"/>
    <g id="Group_82" data-name="Group 82" transform="matrix(0.899, 0.438, -0.438, 0.899, -2094.773, 1803.288)">
      <path id="Path_14" data-name="Path 14" d="M1633.538,240.852s-4.236,9.594-5.953,11.475-3.826,2.408-5.343,1.791a3.469,3.469,0,0,1-1.415-4.744" transform="translate(2.636)" fill="none" stroke="#8becf8" stroke-linecap="round" stroke-width="3"/>
      <path id="Path_16" data-name="Path 16" d="M0,0S6.815,14.8,8.3,16.428s3.313,2.085,4.626,1.551a3,3,0,0,0,1.225-4.108" transform="translate(1642.189 243.51) rotate(51)" fill="none" stroke="#8becf8" stroke-linecap="round" stroke-width="3"/>
      <path id="Path_15" data-name="Path 15" d="M1638.307,238.628s-6.76,15.755-8.908,18.108-4.788,3.012-6.685,2.241-3.132-3.973-1.77-5.935" transform="translate(0.981 3.532)" fill="none" stroke="#8becf8" stroke-linecap="round" stroke-width="3"/>
    </g>
  </g>
</svg>
